G04 EAGLE Gerber RS-274X export*
G75*
%MOMM*%
%FSLAX34Y34*%
%LPD*%
%INTop Copper*%
%IPPOS*%
%AMOC8*
5,1,8,0,0,1.08239X$1,22.5*%
G01*
%ADD10R,0.250000X1.000000*%
%ADD11R,1.000000X1.340000*%
%ADD12C,1.879600*%
%ADD13R,1.300000X1.600000*%
%ADD14R,1.000000X1.400000*%
%ADD15C,1.000000*%
%ADD16R,1.600000X1.300000*%
%ADD17R,1.200000X1.400000*%
%ADD18R,0.300000X1.500000*%
%ADD19R,3.450000X3.450000*%
%ADD20C,0.406400*%
%ADD21C,0.756400*%
%ADD22C,0.508000*%
%ADD23C,0.304800*%

G36*
X31703Y295746D02*
X31703Y295746D01*
X31736Y295743D01*
X31876Y295764D01*
X32017Y295779D01*
X32055Y295791D01*
X32081Y295795D01*
X32127Y295813D01*
X32250Y295851D01*
X47666Y302025D01*
X111584Y324464D01*
X176413Y344115D01*
X242034Y360941D01*
X308320Y374910D01*
X375150Y385995D01*
X407188Y389894D01*
X407270Y389913D01*
X407354Y389923D01*
X407478Y389963D01*
X407527Y389975D01*
X407549Y389986D01*
X407587Y389998D01*
X407979Y390161D01*
X409292Y390161D01*
X409341Y390166D01*
X409476Y390172D01*
X410779Y390330D01*
X411188Y390217D01*
X411271Y390203D01*
X411353Y390180D01*
X411483Y390170D01*
X411532Y390162D01*
X411557Y390164D01*
X411597Y390161D01*
X412021Y390161D01*
X413234Y389658D01*
X413281Y389645D01*
X413408Y389598D01*
X414673Y389246D01*
X415007Y388984D01*
X415079Y388940D01*
X415146Y388888D01*
X415262Y388828D01*
X415304Y388802D01*
X415328Y388794D01*
X415364Y388776D01*
X415756Y388614D01*
X416684Y387686D01*
X416723Y387655D01*
X416822Y387563D01*
X417856Y386754D01*
X418064Y386384D01*
X418114Y386316D01*
X418155Y386242D01*
X418240Y386143D01*
X418269Y386102D01*
X418288Y386086D01*
X418314Y386056D01*
X418614Y385756D01*
X419116Y384543D01*
X419140Y384499D01*
X419197Y384377D01*
X419842Y383234D01*
X419893Y382812D01*
X419913Y382730D01*
X419923Y382646D01*
X419963Y382522D01*
X419975Y382473D01*
X419986Y382451D01*
X419998Y382413D01*
X420161Y382021D01*
X420161Y380708D01*
X420166Y380659D01*
X420172Y380524D01*
X420330Y379221D01*
X420217Y378812D01*
X420203Y378729D01*
X420180Y378647D01*
X420170Y378517D01*
X420162Y378468D01*
X420164Y378443D01*
X420161Y378403D01*
X420161Y375933D01*
X420172Y375833D01*
X420174Y375733D01*
X420192Y375661D01*
X420201Y375587D01*
X420234Y375493D01*
X420259Y375395D01*
X420293Y375329D01*
X420318Y375259D01*
X420373Y375175D01*
X420419Y375085D01*
X420467Y375029D01*
X420507Y374966D01*
X420579Y374896D01*
X420644Y374820D01*
X420704Y374776D01*
X420758Y374724D01*
X420844Y374672D01*
X420925Y374613D01*
X420993Y374583D01*
X421057Y374545D01*
X421153Y374514D01*
X421245Y374475D01*
X421318Y374462D01*
X421389Y374439D01*
X421489Y374431D01*
X421588Y374413D01*
X421662Y374417D01*
X421736Y374411D01*
X421836Y374426D01*
X421936Y374431D01*
X422007Y374452D01*
X422081Y374463D01*
X422174Y374500D01*
X422271Y374527D01*
X422336Y374564D01*
X422405Y374591D01*
X422487Y374649D01*
X422575Y374698D01*
X422651Y374763D01*
X422691Y374790D01*
X422715Y374817D01*
X422761Y374856D01*
X424617Y376712D01*
X428631Y378375D01*
X432977Y378375D01*
X435175Y377464D01*
X435249Y377443D01*
X435319Y377413D01*
X435415Y377396D01*
X435510Y377369D01*
X435586Y377365D01*
X435662Y377351D01*
X435760Y377356D01*
X435858Y377352D01*
X435933Y377365D01*
X436010Y377369D01*
X436104Y377396D01*
X436201Y377414D01*
X436271Y377445D01*
X436344Y377466D01*
X436430Y377514D01*
X436521Y377553D01*
X436582Y377599D01*
X436649Y377636D01*
X436762Y377733D01*
X436800Y377761D01*
X436813Y377776D01*
X436835Y377794D01*
X447121Y388081D01*
X449353Y390313D01*
X512102Y390313D01*
X512251Y390330D01*
X512401Y390342D01*
X512424Y390350D01*
X512448Y390353D01*
X512590Y390403D01*
X512733Y390450D01*
X512753Y390462D01*
X512776Y390470D01*
X512903Y390552D01*
X513031Y390629D01*
X513049Y390646D01*
X513069Y390659D01*
X513173Y390767D01*
X513281Y390872D01*
X513294Y390892D01*
X513311Y390910D01*
X513388Y391039D01*
X513469Y391165D01*
X513478Y391188D01*
X513490Y391209D01*
X513536Y391352D01*
X513586Y391494D01*
X513589Y391518D01*
X513596Y391541D01*
X513608Y391690D01*
X513625Y391840D01*
X513622Y391864D01*
X513624Y391888D01*
X513602Y392037D01*
X513584Y392186D01*
X513575Y392214D01*
X513572Y392233D01*
X513555Y392277D01*
X513509Y392419D01*
X513229Y393094D01*
X513229Y395206D01*
X513486Y395825D01*
X513527Y395970D01*
X513573Y396113D01*
X513575Y396137D01*
X513582Y396160D01*
X513589Y396310D01*
X513601Y396460D01*
X513597Y396484D01*
X513599Y396508D01*
X513572Y396656D01*
X513549Y396805D01*
X513540Y396827D01*
X513536Y396851D01*
X513476Y396989D01*
X513421Y397129D01*
X513407Y397149D01*
X513397Y397171D01*
X513307Y397292D01*
X513222Y397415D01*
X513204Y397431D01*
X513189Y397450D01*
X513074Y397548D01*
X512963Y397648D01*
X512942Y397660D01*
X512923Y397676D01*
X512790Y397744D01*
X512658Y397817D01*
X512635Y397823D01*
X512613Y397834D01*
X512467Y397871D01*
X512322Y397912D01*
X512293Y397914D01*
X512275Y397919D01*
X512228Y397919D01*
X512079Y397931D01*
X101330Y397931D01*
X101204Y397917D01*
X101078Y397910D01*
X101032Y397897D01*
X100984Y397891D01*
X100865Y397849D01*
X100743Y397814D01*
X100701Y397790D01*
X100655Y397774D01*
X100549Y397705D01*
X100439Y397644D01*
X100393Y397604D01*
X100363Y397585D01*
X100329Y397550D01*
X100253Y397485D01*
X86609Y383842D01*
X86593Y383821D01*
X86573Y383804D01*
X86485Y383685D01*
X86393Y383569D01*
X86381Y383545D01*
X86366Y383524D01*
X86307Y383388D01*
X86244Y383254D01*
X86238Y383228D01*
X86228Y383204D01*
X86202Y383057D01*
X86170Y382913D01*
X86171Y382887D01*
X86166Y382861D01*
X86174Y382712D01*
X86176Y382564D01*
X86183Y382539D01*
X86184Y382513D01*
X86225Y382371D01*
X86261Y382226D01*
X86273Y382203D01*
X86281Y382178D01*
X86353Y382049D01*
X86421Y381917D01*
X86438Y381897D01*
X86451Y381874D01*
X86609Y381688D01*
X87171Y381126D01*
X87979Y379176D01*
X87979Y377064D01*
X87171Y375114D01*
X85678Y373621D01*
X83728Y372813D01*
X81616Y372813D01*
X79666Y373621D01*
X78173Y375114D01*
X77365Y377064D01*
X77365Y379176D01*
X78173Y381126D01*
X79177Y382130D01*
X79256Y382229D01*
X79340Y382323D01*
X79364Y382365D01*
X79394Y382403D01*
X79448Y382517D01*
X79509Y382628D01*
X79522Y382674D01*
X79543Y382718D01*
X79569Y382841D01*
X79604Y382963D01*
X79609Y383024D01*
X79616Y383059D01*
X79615Y383107D01*
X79623Y383207D01*
X79623Y385479D01*
X98173Y404029D01*
X149694Y404029D01*
X149843Y404046D01*
X149993Y404058D01*
X150016Y404066D01*
X150040Y404069D01*
X150181Y404119D01*
X150325Y404165D01*
X150345Y404178D01*
X150368Y404186D01*
X150494Y404268D01*
X150623Y404345D01*
X150641Y404362D01*
X150661Y404375D01*
X150765Y404483D01*
X150873Y404588D01*
X150886Y404608D01*
X150903Y404626D01*
X150980Y404755D01*
X151061Y404881D01*
X151070Y404904D01*
X151082Y404925D01*
X151128Y405068D01*
X151178Y405210D01*
X151181Y405234D01*
X151188Y405257D01*
X151200Y405406D01*
X151217Y405556D01*
X151214Y405580D01*
X151216Y405604D01*
X151194Y405753D01*
X151176Y405902D01*
X151167Y405930D01*
X151164Y405949D01*
X151147Y405993D01*
X151101Y406135D01*
X150517Y407544D01*
X150517Y409656D01*
X151325Y411606D01*
X152818Y413099D01*
X154768Y413907D01*
X156880Y413907D01*
X158830Y413099D01*
X160323Y411606D01*
X161178Y409541D01*
X161215Y409474D01*
X161244Y409403D01*
X161300Y409322D01*
X161347Y409236D01*
X161399Y409180D01*
X161442Y409117D01*
X161515Y409051D01*
X161582Y408978D01*
X161645Y408935D01*
X161701Y408884D01*
X161787Y408836D01*
X161868Y408780D01*
X161939Y408752D01*
X162006Y408715D01*
X162101Y408688D01*
X162193Y408652D01*
X162268Y408641D01*
X162342Y408620D01*
X162491Y408608D01*
X162537Y408601D01*
X162556Y408603D01*
X162585Y408601D01*
X260610Y408601D01*
X260710Y408612D01*
X260810Y408614D01*
X260883Y408632D01*
X260956Y408641D01*
X261051Y408674D01*
X261148Y408699D01*
X261215Y408733D01*
X261285Y408758D01*
X261369Y408813D01*
X261458Y408859D01*
X261515Y408907D01*
X261577Y408947D01*
X261647Y409019D01*
X261724Y409084D01*
X261768Y409144D01*
X261820Y409198D01*
X261871Y409284D01*
X261931Y409365D01*
X261960Y409433D01*
X261998Y409497D01*
X262029Y409592D01*
X262069Y409685D01*
X262082Y409758D01*
X262105Y409829D01*
X262113Y409929D01*
X262130Y410028D01*
X262127Y410102D01*
X262133Y410176D01*
X262118Y410275D01*
X262113Y410376D01*
X262092Y410447D01*
X262081Y410521D01*
X262044Y410614D01*
X262016Y410711D01*
X261980Y410776D01*
X261952Y410845D01*
X261895Y410927D01*
X261846Y411015D01*
X261781Y411091D01*
X261753Y411131D01*
X261727Y411155D01*
X261687Y411201D01*
X260897Y411991D01*
X260798Y412070D01*
X260704Y412154D01*
X260662Y412178D01*
X260624Y412208D01*
X260510Y412262D01*
X260399Y412323D01*
X260353Y412336D01*
X260309Y412357D01*
X260186Y412383D01*
X260064Y412418D01*
X260003Y412423D01*
X259968Y412430D01*
X259920Y412429D01*
X259820Y412437D01*
X258400Y412437D01*
X256450Y413245D01*
X254957Y414738D01*
X254149Y416688D01*
X254149Y418800D01*
X254957Y420750D01*
X256450Y422243D01*
X258400Y423051D01*
X260512Y423051D01*
X262462Y422243D01*
X263955Y420750D01*
X264763Y418800D01*
X264763Y417380D01*
X264777Y417254D01*
X264784Y417128D01*
X264797Y417082D01*
X264803Y417034D01*
X264845Y416915D01*
X264880Y416793D01*
X264904Y416751D01*
X264920Y416705D01*
X264989Y416599D01*
X265050Y416489D01*
X265090Y416443D01*
X265109Y416413D01*
X265144Y416379D01*
X265209Y416303D01*
X267893Y413619D01*
X267992Y413540D01*
X268086Y413456D01*
X268128Y413432D01*
X268166Y413402D01*
X268280Y413348D01*
X268391Y413287D01*
X268437Y413274D01*
X268481Y413253D01*
X268604Y413227D01*
X268726Y413192D01*
X268787Y413187D01*
X268822Y413180D01*
X268870Y413181D01*
X268970Y413173D01*
X362718Y413173D01*
X362818Y413184D01*
X362918Y413186D01*
X362991Y413204D01*
X363064Y413213D01*
X363159Y413246D01*
X363256Y413271D01*
X363323Y413305D01*
X363393Y413330D01*
X363477Y413385D01*
X363566Y413431D01*
X363623Y413479D01*
X363685Y413519D01*
X363755Y413591D01*
X363832Y413656D01*
X363876Y413716D01*
X363928Y413770D01*
X363979Y413856D01*
X364039Y413937D01*
X364068Y414005D01*
X364106Y414069D01*
X364137Y414165D01*
X364177Y414257D01*
X364190Y414330D01*
X364213Y414401D01*
X364221Y414501D01*
X364238Y414600D01*
X364235Y414674D01*
X364241Y414748D01*
X364226Y414848D01*
X364221Y414948D01*
X364200Y415019D01*
X364189Y415093D01*
X364152Y415186D01*
X364124Y415283D01*
X364088Y415348D01*
X364060Y415417D01*
X364003Y415499D01*
X363954Y415587D01*
X363889Y415663D01*
X363861Y415703D01*
X363835Y415727D01*
X363795Y415773D01*
X358433Y421135D01*
X358334Y421214D01*
X358240Y421298D01*
X358198Y421322D01*
X358160Y421352D01*
X358046Y421406D01*
X357935Y421467D01*
X357889Y421480D01*
X357845Y421501D01*
X357722Y421527D01*
X357600Y421562D01*
X357539Y421567D01*
X357504Y421574D01*
X357456Y421573D01*
X357356Y421581D01*
X355936Y421581D01*
X353986Y422389D01*
X352493Y423882D01*
X351685Y425832D01*
X351685Y427944D01*
X352493Y429894D01*
X353986Y431387D01*
X355936Y432195D01*
X358048Y432195D01*
X359998Y431387D01*
X361491Y429894D01*
X362299Y427944D01*
X362299Y426524D01*
X362313Y426398D01*
X362320Y426272D01*
X362333Y426226D01*
X362339Y426178D01*
X362381Y426059D01*
X362416Y425937D01*
X362440Y425895D01*
X362456Y425849D01*
X362525Y425743D01*
X362586Y425633D01*
X362626Y425587D01*
X362645Y425557D01*
X362680Y425523D01*
X362745Y425447D01*
X370001Y418191D01*
X370100Y418112D01*
X370194Y418028D01*
X370236Y418004D01*
X370274Y417974D01*
X370388Y417920D01*
X370499Y417859D01*
X370545Y417846D01*
X370589Y417825D01*
X370712Y417799D01*
X370834Y417764D01*
X370895Y417759D01*
X370930Y417752D01*
X370978Y417753D01*
X371078Y417745D01*
X510401Y417745D01*
X510501Y417756D01*
X510601Y417758D01*
X510673Y417776D01*
X510747Y417785D01*
X510842Y417818D01*
X510939Y417843D01*
X511005Y417877D01*
X511075Y417902D01*
X511160Y417957D01*
X511249Y418003D01*
X511306Y418051D01*
X511368Y418091D01*
X511438Y418163D01*
X511514Y418228D01*
X511559Y418288D01*
X511610Y418342D01*
X511662Y418428D01*
X511722Y418509D01*
X511751Y418577D01*
X511789Y418641D01*
X511820Y418736D01*
X511860Y418829D01*
X511873Y418902D01*
X511895Y418973D01*
X511903Y419073D01*
X511921Y419172D01*
X511917Y419246D01*
X511923Y419320D01*
X511908Y419419D01*
X511903Y419520D01*
X511883Y419591D01*
X511872Y419665D01*
X511834Y419758D01*
X511807Y419855D01*
X511770Y419920D01*
X511743Y419989D01*
X511686Y420071D01*
X511637Y420159D01*
X511571Y420235D01*
X511544Y420275D01*
X511517Y420299D01*
X511478Y420345D01*
X510989Y420834D01*
X510181Y422784D01*
X510181Y424896D01*
X510989Y426846D01*
X511478Y427335D01*
X511540Y427413D01*
X511610Y427486D01*
X511648Y427550D01*
X511695Y427608D01*
X511738Y427699D01*
X511789Y427785D01*
X511812Y427856D01*
X511844Y427923D01*
X511865Y428021D01*
X511895Y428117D01*
X511901Y428191D01*
X511917Y428264D01*
X511915Y428364D01*
X511923Y428464D01*
X511912Y428538D01*
X511911Y428612D01*
X511887Y428709D01*
X511872Y428809D01*
X511844Y428878D01*
X511826Y428950D01*
X511780Y429039D01*
X511743Y429133D01*
X511701Y429194D01*
X511666Y429260D01*
X511601Y429337D01*
X511544Y429419D01*
X511489Y429469D01*
X511441Y429525D01*
X511360Y429585D01*
X511285Y429652D01*
X511220Y429688D01*
X511160Y429733D01*
X511068Y429772D01*
X510980Y429821D01*
X510909Y429841D01*
X510840Y429871D01*
X510741Y429888D01*
X510645Y429916D01*
X510545Y429924D01*
X510497Y429932D01*
X510461Y429930D01*
X510401Y429935D01*
X508248Y429935D01*
X508222Y429932D01*
X508196Y429934D01*
X508049Y429912D01*
X507902Y429895D01*
X507877Y429887D01*
X507851Y429883D01*
X507713Y429828D01*
X507574Y429778D01*
X507552Y429764D01*
X507527Y429754D01*
X507406Y429669D01*
X507281Y429589D01*
X507263Y429570D01*
X507241Y429555D01*
X507142Y429445D01*
X507039Y429338D01*
X507025Y429316D01*
X507008Y429296D01*
X506936Y429166D01*
X506860Y429039D01*
X506852Y429014D01*
X506839Y428991D01*
X506799Y428848D01*
X506754Y428707D01*
X506752Y428681D01*
X506744Y428656D01*
X506725Y428412D01*
X506725Y422448D01*
X505832Y421555D01*
X488568Y421555D01*
X487675Y422448D01*
X487675Y436712D01*
X488967Y438003D01*
X488983Y438023D01*
X489003Y438040D01*
X489091Y438160D01*
X489183Y438276D01*
X489194Y438300D01*
X489210Y438321D01*
X489269Y438457D01*
X489332Y438591D01*
X489338Y438617D01*
X489348Y438641D01*
X489374Y438787D01*
X489406Y438932D01*
X489405Y438958D01*
X489410Y438984D01*
X489402Y439132D01*
X489400Y439280D01*
X489393Y439306D01*
X489392Y439332D01*
X489351Y439474D01*
X489315Y439618D01*
X489303Y439641D01*
X489295Y439667D01*
X489223Y439796D01*
X489155Y439928D01*
X489138Y439948D01*
X489125Y439971D01*
X488967Y440157D01*
X487675Y441448D01*
X487675Y455844D01*
X487672Y455870D01*
X487674Y455896D01*
X487652Y456043D01*
X487635Y456190D01*
X487627Y456215D01*
X487623Y456241D01*
X487568Y456379D01*
X487518Y456518D01*
X487504Y456540D01*
X487494Y456565D01*
X487409Y456686D01*
X487329Y456811D01*
X487310Y456829D01*
X487295Y456851D01*
X487185Y456950D01*
X487078Y457053D01*
X487056Y457067D01*
X487036Y457084D01*
X486906Y457156D01*
X486779Y457232D01*
X486754Y457240D01*
X486731Y457253D01*
X486588Y457293D01*
X486447Y457338D01*
X486421Y457340D01*
X486396Y457348D01*
X486152Y457367D01*
X480806Y457367D01*
X480680Y457353D01*
X480554Y457346D01*
X480508Y457333D01*
X480460Y457327D01*
X480341Y457285D01*
X480219Y457250D01*
X480177Y457226D01*
X480131Y457210D01*
X480025Y457141D01*
X479915Y457080D01*
X479869Y457040D01*
X479839Y457021D01*
X479805Y456986D01*
X479729Y456921D01*
X466377Y443569D01*
X466298Y443470D01*
X466214Y443376D01*
X466190Y443334D01*
X466160Y443296D01*
X466106Y443182D01*
X466045Y443071D01*
X466032Y443025D01*
X466011Y442981D01*
X465985Y442858D01*
X465950Y442736D01*
X465945Y442675D01*
X465938Y442640D01*
X465939Y442592D01*
X465931Y442492D01*
X465931Y441072D01*
X465123Y439122D01*
X463630Y437629D01*
X461680Y436821D01*
X459568Y436821D01*
X457618Y437629D01*
X456125Y439122D01*
X455317Y441072D01*
X455317Y443184D01*
X456125Y445134D01*
X457618Y446627D01*
X459568Y447435D01*
X460988Y447435D01*
X461114Y447449D01*
X461240Y447456D01*
X461286Y447469D01*
X461334Y447475D01*
X461453Y447517D01*
X461575Y447552D01*
X461617Y447576D01*
X461663Y447592D01*
X461769Y447661D01*
X461879Y447722D01*
X461925Y447762D01*
X461955Y447781D01*
X461989Y447816D01*
X462065Y447881D01*
X477649Y463465D01*
X528963Y463465D01*
X528973Y463466D01*
X528982Y463465D01*
X529146Y463486D01*
X529309Y463505D01*
X529318Y463508D01*
X529328Y463509D01*
X529482Y463566D01*
X529638Y463622D01*
X529646Y463627D01*
X529654Y463631D01*
X529791Y463721D01*
X529930Y463811D01*
X529937Y463818D01*
X529945Y463823D01*
X530057Y463942D01*
X530173Y464062D01*
X530177Y464070D01*
X530184Y464077D01*
X530266Y464219D01*
X530351Y464361D01*
X530354Y464370D01*
X530359Y464378D01*
X530407Y464536D01*
X530458Y464693D01*
X530458Y464702D01*
X530461Y464711D01*
X530472Y464876D01*
X530486Y465040D01*
X530484Y465050D01*
X530485Y465059D01*
X530458Y465222D01*
X530434Y465385D01*
X530430Y465394D01*
X530429Y465403D01*
X530344Y465632D01*
X530314Y465695D01*
X530227Y465836D01*
X530140Y465981D01*
X530135Y465986D01*
X530132Y465992D01*
X530092Y466032D01*
X530038Y466233D01*
X530034Y466243D01*
X530032Y466253D01*
X529947Y466482D01*
X529855Y466680D01*
X529857Y466832D01*
X529856Y466840D01*
X529856Y466845D01*
X529851Y466867D01*
X529813Y467073D01*
X529714Y467441D01*
X529652Y467598D01*
X529592Y467754D01*
X529588Y467760D01*
X529586Y467766D01*
X529553Y467813D01*
X529535Y468020D01*
X529533Y468030D01*
X529533Y468041D01*
X529489Y468282D01*
X529433Y468492D01*
X529461Y468642D01*
X529461Y468649D01*
X529462Y468654D01*
X529461Y468678D01*
X529459Y468886D01*
X529426Y469266D01*
X529392Y469432D01*
X529360Y469596D01*
X529357Y469601D01*
X529356Y469608D01*
X529332Y469660D01*
X529350Y469867D01*
X529350Y469878D01*
X529352Y469888D01*
X529350Y470133D01*
X529331Y470350D01*
X529385Y470492D01*
X529386Y470500D01*
X529388Y470505D01*
X529391Y470528D01*
X529426Y470734D01*
X529459Y471114D01*
X529455Y471282D01*
X529452Y471449D01*
X529450Y471456D01*
X529450Y471462D01*
X529435Y471518D01*
X529489Y471718D01*
X529491Y471729D01*
X529494Y471739D01*
X529535Y471980D01*
X529554Y472197D01*
X529632Y472328D01*
X529635Y472335D01*
X529637Y472340D01*
X529644Y472361D01*
X529714Y472559D01*
X529813Y472927D01*
X529837Y473093D01*
X529863Y473259D01*
X529863Y473266D01*
X529864Y473272D01*
X529859Y473329D01*
X529947Y473518D01*
X529950Y473528D01*
X529956Y473537D01*
X530038Y473767D01*
X530094Y473978D01*
X530194Y474093D01*
X530198Y474100D01*
X530201Y474104D01*
X530211Y474124D01*
X530315Y474306D01*
X530476Y474652D01*
X530529Y474810D01*
X530583Y474970D01*
X530584Y474976D01*
X530586Y474982D01*
X530591Y475040D01*
X530711Y475210D01*
X530716Y475219D01*
X530723Y475227D01*
X530843Y475440D01*
X530936Y475638D01*
X531054Y475734D01*
X531058Y475740D01*
X531062Y475743D01*
X531076Y475761D01*
X531209Y475922D01*
X531428Y476235D01*
X531508Y476382D01*
X531589Y476529D01*
X531591Y476536D01*
X531594Y476541D01*
X531609Y476597D01*
X531756Y476744D01*
X531763Y476752D01*
X531771Y476759D01*
X531927Y476947D01*
X532052Y477126D01*
X532185Y477200D01*
X532191Y477205D01*
X532195Y477208D01*
X532212Y477223D01*
X532275Y477277D01*
X532287Y477284D01*
X532300Y477298D01*
X532371Y477359D01*
X532641Y477629D01*
X532745Y477759D01*
X532851Y477891D01*
X532854Y477897D01*
X532858Y477902D01*
X532882Y477954D01*
X533053Y478073D01*
X533061Y478080D01*
X533070Y478085D01*
X533256Y478244D01*
X533410Y478398D01*
X533554Y478448D01*
X533561Y478452D01*
X533566Y478454D01*
X533585Y478466D01*
X533765Y478572D01*
X534078Y478791D01*
X534204Y478902D01*
X534330Y479012D01*
X534334Y479017D01*
X534338Y479022D01*
X534372Y479069D01*
X534560Y479157D01*
X534569Y479162D01*
X534579Y479166D01*
X534790Y479289D01*
X534969Y479414D01*
X535119Y479439D01*
X535126Y479442D01*
X535131Y479442D01*
X535153Y479451D01*
X535348Y479524D01*
X535694Y479685D01*
X535837Y479773D01*
X535981Y479860D01*
X535986Y479865D01*
X535991Y479868D01*
X536032Y479908D01*
X536233Y479962D01*
X536243Y479966D01*
X536253Y479968D01*
X536482Y480053D01*
X536680Y480145D01*
X536832Y480143D01*
X536840Y480144D01*
X536845Y480144D01*
X536867Y480149D01*
X537073Y480187D01*
X537441Y480286D01*
X537598Y480348D01*
X537754Y480408D01*
X537760Y480412D01*
X537766Y480414D01*
X537813Y480447D01*
X538020Y480465D01*
X538030Y480467D01*
X538041Y480467D01*
X538282Y480511D01*
X538492Y480567D01*
X538642Y480539D01*
X538649Y480539D01*
X538654Y480538D01*
X538676Y480539D01*
X538886Y480541D01*
X539267Y480574D01*
X539429Y480607D01*
X539596Y480640D01*
X539602Y480643D01*
X539608Y480644D01*
X539660Y480668D01*
X539867Y480650D01*
X539878Y480650D01*
X539888Y480648D01*
X540133Y480650D01*
X540350Y480669D01*
X540492Y480615D01*
X540500Y480614D01*
X540505Y480612D01*
X540528Y480609D01*
X540733Y480574D01*
X541114Y480541D01*
X541279Y480545D01*
X541450Y480548D01*
X541456Y480550D01*
X541462Y480550D01*
X541518Y480565D01*
X541718Y480511D01*
X541729Y480509D01*
X541739Y480506D01*
X541980Y480465D01*
X542197Y480446D01*
X542328Y480368D01*
X542335Y480365D01*
X542340Y480363D01*
X542361Y480356D01*
X542559Y480286D01*
X542927Y480187D01*
X543093Y480163D01*
X543259Y480137D01*
X543266Y480137D01*
X543272Y480136D01*
X543329Y480141D01*
X543518Y480053D01*
X543528Y480050D01*
X543537Y480044D01*
X543767Y479962D01*
X543978Y479906D01*
X544093Y479806D01*
X544100Y479802D01*
X544104Y479799D01*
X544124Y479789D01*
X544306Y479685D01*
X544652Y479524D01*
X544810Y479471D01*
X544970Y479417D01*
X544976Y479416D01*
X544982Y479414D01*
X545040Y479409D01*
X545210Y479289D01*
X545219Y479284D01*
X545227Y479277D01*
X545440Y479157D01*
X545638Y479064D01*
X545734Y478946D01*
X545740Y478942D01*
X545743Y478938D01*
X545761Y478924D01*
X545922Y478791D01*
X546235Y478572D01*
X546382Y478492D01*
X546529Y478411D01*
X546536Y478409D01*
X546541Y478406D01*
X546597Y478391D01*
X546744Y478244D01*
X546752Y478237D01*
X546759Y478229D01*
X546947Y478073D01*
X547126Y477948D01*
X547200Y477815D01*
X547205Y477809D01*
X547208Y477805D01*
X547223Y477788D01*
X547359Y477629D01*
X547629Y477359D01*
X547750Y477262D01*
X547796Y477221D01*
X547814Y477211D01*
X547891Y477149D01*
X547897Y477146D01*
X547902Y477142D01*
X547954Y477118D01*
X548073Y476947D01*
X548080Y476939D01*
X548085Y476930D01*
X548244Y476744D01*
X548398Y476590D01*
X548448Y476446D01*
X548452Y476439D01*
X548454Y476434D01*
X548466Y476415D01*
X548572Y476235D01*
X548791Y475922D01*
X548902Y475796D01*
X549012Y475670D01*
X549017Y475666D01*
X549022Y475662D01*
X549069Y475628D01*
X549157Y475440D01*
X549162Y475431D01*
X549166Y475421D01*
X549289Y475210D01*
X549414Y475031D01*
X549439Y474881D01*
X549442Y474874D01*
X549442Y474869D01*
X549451Y474847D01*
X549524Y474652D01*
X549685Y474306D01*
X549773Y474163D01*
X549860Y474019D01*
X549865Y474014D01*
X549868Y474009D01*
X549908Y473968D01*
X549962Y473767D01*
X549966Y473757D01*
X549968Y473747D01*
X550053Y473518D01*
X550145Y473320D01*
X550143Y473168D01*
X550144Y473160D01*
X550144Y473155D01*
X550149Y473133D01*
X550187Y472927D01*
X550286Y472559D01*
X550348Y472402D01*
X550408Y472246D01*
X550412Y472240D01*
X550414Y472234D01*
X550447Y472187D01*
X550465Y471980D01*
X550467Y471970D01*
X550467Y471959D01*
X550511Y471718D01*
X550567Y471508D01*
X550539Y471358D01*
X550539Y471351D01*
X550538Y471346D01*
X550539Y471324D01*
X550541Y471114D01*
X550574Y470733D01*
X550607Y470570D01*
X550640Y470404D01*
X550643Y470398D01*
X550644Y470392D01*
X550668Y470340D01*
X550650Y470133D01*
X550650Y470122D01*
X550648Y470112D01*
X550650Y469867D01*
X550669Y469650D01*
X550615Y469508D01*
X550614Y469500D01*
X550612Y469495D01*
X550609Y469472D01*
X550574Y469267D01*
X550541Y468886D01*
X550545Y468721D01*
X550548Y468550D01*
X550550Y468544D01*
X550550Y468538D01*
X550565Y468482D01*
X550511Y468282D01*
X550509Y468271D01*
X550506Y468261D01*
X550465Y468020D01*
X550446Y467803D01*
X550368Y467672D01*
X550365Y467665D01*
X550363Y467660D01*
X550356Y467639D01*
X550286Y467441D01*
X550187Y467073D01*
X550163Y466907D01*
X550137Y466741D01*
X550137Y466734D01*
X550136Y466728D01*
X550141Y466671D01*
X550053Y466482D01*
X550050Y466472D01*
X550044Y466463D01*
X549962Y466233D01*
X549906Y466022D01*
X549806Y465907D01*
X549802Y465900D01*
X549799Y465896D01*
X549789Y465876D01*
X549685Y465694D01*
X549524Y465348D01*
X549471Y465190D01*
X549417Y465030D01*
X549416Y465024D01*
X549414Y465018D01*
X549409Y464960D01*
X549289Y464790D01*
X549284Y464781D01*
X549277Y464773D01*
X549157Y464560D01*
X549064Y464362D01*
X548946Y464266D01*
X548942Y464260D01*
X548938Y464257D01*
X548924Y464239D01*
X548791Y464078D01*
X548572Y463765D01*
X548492Y463618D01*
X548411Y463471D01*
X548409Y463464D01*
X548406Y463459D01*
X548391Y463403D01*
X548244Y463256D01*
X548237Y463248D01*
X548229Y463241D01*
X548073Y463053D01*
X547948Y462874D01*
X547815Y462800D01*
X547809Y462795D01*
X547804Y462792D01*
X547788Y462777D01*
X547629Y462641D01*
X547359Y462371D01*
X547255Y462241D01*
X547149Y462109D01*
X547146Y462103D01*
X547142Y462098D01*
X547118Y462046D01*
X546947Y461927D01*
X546939Y461920D01*
X546930Y461915D01*
X546744Y461756D01*
X546590Y461602D01*
X546446Y461552D01*
X546439Y461548D01*
X546434Y461546D01*
X546415Y461534D01*
X546235Y461428D01*
X545922Y461209D01*
X545796Y461098D01*
X545670Y460988D01*
X545666Y460983D01*
X545662Y460978D01*
X545628Y460931D01*
X545440Y460843D01*
X545431Y460838D01*
X545421Y460834D01*
X545210Y460711D01*
X545031Y460586D01*
X544881Y460561D01*
X544874Y460558D01*
X544869Y460558D01*
X544847Y460549D01*
X544652Y460476D01*
X544306Y460315D01*
X544163Y460227D01*
X544019Y460140D01*
X544014Y460135D01*
X544009Y460132D01*
X543968Y460092D01*
X543767Y460038D01*
X543757Y460034D01*
X543747Y460032D01*
X543518Y459947D01*
X543320Y459855D01*
X543168Y459857D01*
X543160Y459856D01*
X543155Y459856D01*
X543133Y459851D01*
X542927Y459813D01*
X542559Y459714D01*
X542402Y459652D01*
X542246Y459592D01*
X542240Y459588D01*
X542234Y459586D01*
X542187Y459553D01*
X541980Y459535D01*
X541970Y459533D01*
X541959Y459533D01*
X541719Y459489D01*
X541508Y459433D01*
X541358Y459461D01*
X541351Y459461D01*
X541346Y459462D01*
X541322Y459461D01*
X541114Y459459D01*
X540734Y459426D01*
X540568Y459392D01*
X540404Y459360D01*
X540399Y459357D01*
X540392Y459356D01*
X540340Y459332D01*
X540133Y459350D01*
X540122Y459350D01*
X540112Y459352D01*
X539867Y459350D01*
X539650Y459331D01*
X539508Y459385D01*
X539500Y459386D01*
X539495Y459388D01*
X539472Y459391D01*
X539266Y459426D01*
X538886Y459459D01*
X538718Y459455D01*
X538551Y459452D01*
X538544Y459450D01*
X538538Y459450D01*
X538482Y459435D01*
X538281Y459489D01*
X538271Y459491D01*
X538261Y459494D01*
X538020Y459535D01*
X537803Y459554D01*
X537672Y459632D01*
X537665Y459635D01*
X537660Y459637D01*
X537639Y459644D01*
X537441Y459714D01*
X537073Y459813D01*
X536907Y459837D01*
X536741Y459863D01*
X536734Y459863D01*
X536728Y459864D01*
X536652Y459858D01*
X536621Y459872D01*
X536532Y459891D01*
X536445Y459920D01*
X536362Y459928D01*
X536280Y459946D01*
X536189Y459944D01*
X536098Y459953D01*
X536015Y459941D01*
X535932Y459940D01*
X535843Y459917D01*
X535753Y459905D01*
X535675Y459875D01*
X535594Y459855D01*
X535513Y459813D01*
X535428Y459780D01*
X535358Y459733D01*
X535284Y459695D01*
X535215Y459636D01*
X535139Y459585D01*
X535082Y459523D01*
X535019Y459469D01*
X534964Y459396D01*
X534902Y459329D01*
X534861Y459256D01*
X534812Y459189D01*
X534775Y459105D01*
X534730Y459026D01*
X534707Y458946D01*
X534674Y458869D01*
X534657Y458779D01*
X534632Y458692D01*
X534627Y458608D01*
X534612Y458526D01*
X534617Y458435D01*
X534611Y458344D01*
X534625Y458261D01*
X534630Y458178D01*
X534655Y458090D01*
X534671Y458000D01*
X534703Y457923D01*
X534726Y457843D01*
X534771Y457763D01*
X534806Y457679D01*
X534856Y457612D01*
X534896Y457539D01*
X534982Y457438D01*
X535012Y457398D01*
X535030Y457382D01*
X535055Y457353D01*
X540689Y451719D01*
X542921Y449487D01*
X542921Y440974D01*
X542935Y440848D01*
X542942Y440722D01*
X542955Y440676D01*
X542961Y440628D01*
X543003Y440509D01*
X543038Y440387D01*
X543062Y440345D01*
X543078Y440299D01*
X543147Y440193D01*
X543208Y440083D01*
X543248Y440037D01*
X543267Y440007D01*
X543302Y439973D01*
X543367Y439897D01*
X543731Y439533D01*
X543810Y439470D01*
X543882Y439400D01*
X543946Y439362D01*
X544004Y439316D01*
X544095Y439273D01*
X544181Y439222D01*
X544252Y439199D01*
X544319Y439167D01*
X544417Y439146D01*
X544513Y439115D01*
X544587Y439109D01*
X544660Y439094D01*
X544760Y439095D01*
X544860Y439087D01*
X544934Y439098D01*
X545008Y439100D01*
X545106Y439124D01*
X545205Y439139D01*
X545274Y439167D01*
X545346Y439185D01*
X545435Y439231D01*
X545529Y439268D01*
X545590Y439310D01*
X545656Y439344D01*
X545732Y439409D01*
X545815Y439467D01*
X545865Y439522D01*
X545921Y439570D01*
X545981Y439651D01*
X546048Y439726D01*
X546084Y439791D01*
X546129Y439850D01*
X546168Y439943D01*
X546217Y440031D01*
X546237Y440102D01*
X546267Y440170D01*
X546284Y440269D01*
X546312Y440366D01*
X546320Y440466D01*
X546328Y440513D01*
X546326Y440549D01*
X546331Y440610D01*
X546331Y442177D01*
X553396Y442177D01*
X553422Y442180D01*
X553448Y442178D01*
X553595Y442200D01*
X553742Y442217D01*
X553767Y442225D01*
X553793Y442229D01*
X553930Y442284D01*
X554070Y442334D01*
X554092Y442348D01*
X554117Y442358D01*
X554238Y442443D01*
X554363Y442523D01*
X554381Y442542D01*
X554403Y442557D01*
X554502Y442667D01*
X554605Y442774D01*
X554619Y442796D01*
X554636Y442816D01*
X554708Y442946D01*
X554784Y443073D01*
X554792Y443098D01*
X554805Y443121D01*
X554845Y443264D01*
X554890Y443405D01*
X554892Y443431D01*
X554899Y443456D01*
X554919Y443700D01*
X554919Y445129D01*
X556348Y445129D01*
X556374Y445132D01*
X556400Y445130D01*
X556547Y445152D01*
X556694Y445169D01*
X556719Y445178D01*
X556745Y445182D01*
X556883Y445236D01*
X557022Y445286D01*
X557044Y445301D01*
X557069Y445310D01*
X557190Y445395D01*
X557315Y445475D01*
X557333Y445494D01*
X557355Y445509D01*
X557454Y445619D01*
X557557Y445726D01*
X557571Y445749D01*
X557588Y445768D01*
X557660Y445898D01*
X557736Y446025D01*
X557744Y446050D01*
X557757Y446073D01*
X557797Y446216D01*
X557842Y446357D01*
X557844Y446383D01*
X557852Y446408D01*
X557871Y446652D01*
X557871Y454717D01*
X561207Y454717D01*
X561853Y454544D01*
X562432Y454209D01*
X562905Y453736D01*
X563240Y453157D01*
X563413Y452511D01*
X563413Y448540D01*
X563430Y448391D01*
X563442Y448241D01*
X563450Y448218D01*
X563453Y448194D01*
X563503Y448052D01*
X563549Y447909D01*
X563562Y447888D01*
X563570Y447866D01*
X563652Y447739D01*
X563729Y447610D01*
X563746Y447593D01*
X563759Y447573D01*
X563868Y447468D01*
X563972Y447360D01*
X563992Y447347D01*
X564010Y447331D01*
X564139Y447253D01*
X564265Y447172D01*
X564288Y447164D01*
X564309Y447152D01*
X564452Y447106D01*
X564594Y447056D01*
X564618Y447053D01*
X564641Y447045D01*
X564790Y447033D01*
X564940Y447017D01*
X564964Y447019D01*
X564988Y447018D01*
X565136Y447040D01*
X565286Y447057D01*
X565314Y447066D01*
X565333Y447069D01*
X565376Y447087D01*
X565519Y447133D01*
X566248Y447435D01*
X568360Y447435D01*
X570310Y446627D01*
X571314Y445623D01*
X571413Y445544D01*
X571507Y445460D01*
X571549Y445436D01*
X571587Y445406D01*
X571701Y445352D01*
X571812Y445291D01*
X571858Y445278D01*
X571902Y445257D01*
X572025Y445231D01*
X572147Y445196D01*
X572208Y445191D01*
X572243Y445184D01*
X572291Y445185D01*
X572391Y445177D01*
X620116Y445177D01*
X620142Y445180D01*
X620168Y445178D01*
X620315Y445200D01*
X620462Y445217D01*
X620487Y445225D01*
X620513Y445229D01*
X620651Y445284D01*
X620790Y445334D01*
X620812Y445348D01*
X620837Y445358D01*
X620958Y445443D01*
X621083Y445523D01*
X621101Y445542D01*
X621123Y445557D01*
X621222Y445667D01*
X621322Y445770D01*
X622532Y446981D01*
X633796Y446981D01*
X634689Y446088D01*
X634689Y430824D01*
X634589Y430725D01*
X634527Y430647D01*
X634457Y430574D01*
X634419Y430510D01*
X634373Y430452D01*
X634330Y430361D01*
X634278Y430275D01*
X634256Y430204D01*
X634224Y430137D01*
X634203Y430039D01*
X634172Y429943D01*
X634166Y429869D01*
X634150Y429796D01*
X634152Y429696D01*
X634144Y429596D01*
X634155Y429522D01*
X634156Y429448D01*
X634181Y429350D01*
X634196Y429251D01*
X634223Y429182D01*
X634241Y429110D01*
X634287Y429021D01*
X634325Y428927D01*
X634367Y428866D01*
X634401Y428800D01*
X634466Y428723D01*
X634523Y428641D01*
X634579Y428591D01*
X634627Y428535D01*
X634708Y428475D01*
X634782Y428408D01*
X634847Y428372D01*
X634907Y428327D01*
X634999Y428288D01*
X635087Y428239D01*
X635159Y428219D01*
X635227Y428189D01*
X635232Y428189D01*
X635993Y427427D01*
X636034Y427395D01*
X636068Y427357D01*
X636169Y427287D01*
X636266Y427210D01*
X636313Y427188D01*
X636355Y427159D01*
X636470Y427114D01*
X636582Y427061D01*
X636631Y427051D01*
X636679Y427032D01*
X636801Y427014D01*
X636922Y426988D01*
X636973Y426989D01*
X637024Y426981D01*
X637147Y426992D01*
X637271Y426994D01*
X637320Y427006D01*
X637371Y427011D01*
X637489Y427049D01*
X637609Y427079D01*
X637654Y427102D01*
X637703Y427118D01*
X637809Y427182D01*
X637918Y427239D01*
X637957Y427272D01*
X638001Y427298D01*
X638090Y427384D01*
X638184Y427464D01*
X638214Y427505D01*
X638251Y427541D01*
X638390Y427742D01*
X638631Y428160D01*
X639104Y428633D01*
X639119Y428642D01*
X639120Y428643D01*
X639121Y428643D01*
X639259Y428746D01*
X639399Y428849D01*
X639400Y428850D01*
X639401Y428851D01*
X639512Y428983D01*
X639624Y429115D01*
X639625Y429116D01*
X639626Y429117D01*
X639707Y429277D01*
X639783Y429425D01*
X639784Y429426D01*
X639784Y429428D01*
X639828Y429603D01*
X639868Y429763D01*
X639868Y429765D01*
X639868Y429766D01*
X639870Y429932D01*
X639873Y430112D01*
X639873Y430113D01*
X639873Y430115D01*
X639829Y430355D01*
X639623Y431121D01*
X639623Y435957D01*
X644665Y435957D01*
X644665Y428560D01*
X644655Y428550D01*
X644633Y428535D01*
X644534Y428425D01*
X644431Y428318D01*
X644417Y428296D01*
X644400Y428276D01*
X644328Y428146D01*
X644252Y428019D01*
X644244Y427994D01*
X644231Y427971D01*
X644191Y427828D01*
X644146Y427687D01*
X644144Y427661D01*
X644136Y427636D01*
X644117Y427392D01*
X644117Y420124D01*
X644120Y420098D01*
X644118Y420072D01*
X644140Y419925D01*
X644157Y419778D01*
X644165Y419753D01*
X644169Y419727D01*
X644224Y419589D01*
X644274Y419450D01*
X644288Y419428D01*
X644298Y419403D01*
X644383Y419282D01*
X644463Y419157D01*
X644482Y419139D01*
X644497Y419117D01*
X644607Y419018D01*
X644714Y418915D01*
X644736Y418901D01*
X644756Y418884D01*
X644886Y418812D01*
X645013Y418736D01*
X645038Y418728D01*
X645061Y418715D01*
X645204Y418675D01*
X645345Y418630D01*
X645371Y418628D01*
X645396Y418620D01*
X645640Y418601D01*
X647165Y418601D01*
X647165Y417076D01*
X647168Y417050D01*
X647166Y417024D01*
X647188Y416877D01*
X647205Y416730D01*
X647214Y416705D01*
X647217Y416679D01*
X647272Y416541D01*
X647322Y416402D01*
X647336Y416380D01*
X647346Y416355D01*
X647431Y416234D01*
X647511Y416109D01*
X647530Y416091D01*
X647545Y416069D01*
X647655Y415970D01*
X647762Y415867D01*
X647784Y415853D01*
X647804Y415836D01*
X647934Y415764D01*
X648061Y415688D01*
X648086Y415680D01*
X648109Y415667D01*
X648252Y415627D01*
X648393Y415582D01*
X648419Y415580D01*
X648444Y415572D01*
X648688Y415553D01*
X656205Y415553D01*
X656205Y410124D01*
X656208Y410098D01*
X656206Y410072D01*
X656228Y409925D01*
X656245Y409778D01*
X656253Y409753D01*
X656257Y409727D01*
X656312Y409589D01*
X656362Y409450D01*
X656376Y409428D01*
X656386Y409403D01*
X656471Y409282D01*
X656551Y409157D01*
X656570Y409139D01*
X656585Y409117D01*
X656695Y409018D01*
X656802Y408915D01*
X656824Y408901D01*
X656844Y408884D01*
X656974Y408812D01*
X657101Y408736D01*
X657126Y408728D01*
X657149Y408715D01*
X657292Y408675D01*
X657433Y408630D01*
X657459Y408628D01*
X657484Y408620D01*
X657728Y408601D01*
X708666Y408601D01*
X708792Y408615D01*
X708918Y408622D01*
X708964Y408635D01*
X709012Y408641D01*
X709131Y408683D01*
X709253Y408718D01*
X709295Y408742D01*
X709341Y408758D01*
X709447Y408827D01*
X709557Y408888D01*
X709603Y408928D01*
X709633Y408947D01*
X709667Y408982D01*
X709743Y409047D01*
X723095Y422399D01*
X723174Y422498D01*
X723258Y422592D01*
X723282Y422634D01*
X723312Y422672D01*
X723366Y422786D01*
X723427Y422897D01*
X723440Y422943D01*
X723461Y422987D01*
X723487Y423110D01*
X723522Y423232D01*
X723527Y423293D01*
X723534Y423328D01*
X723533Y423376D01*
X723541Y423476D01*
X723541Y424896D01*
X724349Y426846D01*
X725842Y428339D01*
X727792Y429147D01*
X729904Y429147D01*
X731854Y428339D01*
X733347Y426846D01*
X734155Y424896D01*
X734155Y422784D01*
X733347Y420834D01*
X731854Y419341D01*
X729904Y418533D01*
X728484Y418533D01*
X728358Y418519D01*
X728232Y418512D01*
X728186Y418499D01*
X728138Y418493D01*
X728019Y418451D01*
X727897Y418416D01*
X727855Y418392D01*
X727809Y418376D01*
X727703Y418307D01*
X727593Y418246D01*
X727547Y418206D01*
X727517Y418187D01*
X727483Y418152D01*
X727407Y418087D01*
X714425Y405105D01*
X714362Y405027D01*
X714292Y404954D01*
X714254Y404890D01*
X714208Y404832D01*
X714165Y404741D01*
X714114Y404655D01*
X714091Y404584D01*
X714059Y404517D01*
X714038Y404419D01*
X714007Y404323D01*
X714001Y404249D01*
X713986Y404176D01*
X713987Y404076D01*
X713979Y403976D01*
X713990Y403902D01*
X713992Y403828D01*
X714016Y403731D01*
X714031Y403631D01*
X714059Y403562D01*
X714077Y403490D01*
X714123Y403400D01*
X714160Y403307D01*
X714202Y403246D01*
X714236Y403180D01*
X714302Y403103D01*
X714359Y403021D01*
X714414Y402971D01*
X714462Y402915D01*
X714543Y402855D01*
X714618Y402788D01*
X714683Y402752D01*
X714742Y402707D01*
X714835Y402668D01*
X714923Y402619D01*
X714994Y402599D01*
X715062Y402569D01*
X715161Y402552D01*
X715258Y402524D01*
X715358Y402516D01*
X715405Y402508D01*
X715441Y402510D01*
X715502Y402505D01*
X818394Y402505D01*
X818520Y402519D01*
X818646Y402526D01*
X818692Y402539D01*
X818740Y402545D01*
X818859Y402587D01*
X818981Y402622D01*
X819023Y402646D01*
X819069Y402662D01*
X819175Y402731D01*
X819285Y402792D01*
X819331Y402832D01*
X819361Y402851D01*
X819395Y402886D01*
X819471Y402951D01*
X823679Y407159D01*
X823758Y407258D01*
X823842Y407352D01*
X823866Y407394D01*
X823896Y407432D01*
X823950Y407546D01*
X824011Y407657D01*
X824024Y407703D01*
X824045Y407747D01*
X824071Y407870D01*
X824106Y407992D01*
X824111Y408053D01*
X824118Y408088D01*
X824117Y408136D01*
X824125Y408236D01*
X824125Y409656D01*
X824933Y411606D01*
X826426Y413099D01*
X828376Y413907D01*
X830488Y413907D01*
X832438Y413099D01*
X833931Y411606D01*
X834739Y409656D01*
X834739Y407544D01*
X833931Y405594D01*
X832438Y404101D01*
X830488Y403293D01*
X829068Y403293D01*
X828942Y403279D01*
X828816Y403272D01*
X828770Y403259D01*
X828722Y403253D01*
X828603Y403211D01*
X828481Y403176D01*
X828439Y403152D01*
X828393Y403136D01*
X828287Y403067D01*
X828177Y403006D01*
X828131Y402966D01*
X828101Y402947D01*
X828067Y402912D01*
X827991Y402847D01*
X821551Y396407D01*
X770366Y396407D01*
X770266Y396396D01*
X770166Y396394D01*
X770093Y396376D01*
X770020Y396367D01*
X769925Y396334D01*
X769828Y396309D01*
X769761Y396275D01*
X769691Y396250D01*
X769607Y396195D01*
X769518Y396149D01*
X769461Y396101D01*
X769399Y396061D01*
X769329Y395989D01*
X769252Y395924D01*
X769208Y395864D01*
X769156Y395810D01*
X769105Y395724D01*
X769045Y395643D01*
X769016Y395575D01*
X768978Y395511D01*
X768947Y395415D01*
X768907Y395323D01*
X768894Y395250D01*
X768871Y395179D01*
X768863Y395079D01*
X768846Y394980D01*
X768849Y394906D01*
X768843Y394832D01*
X768858Y394732D01*
X768863Y394632D01*
X768884Y394561D01*
X768895Y394487D01*
X768932Y394394D01*
X768960Y394297D01*
X768996Y394232D01*
X769024Y394163D01*
X769081Y394081D01*
X769130Y393993D01*
X769195Y393917D01*
X769223Y393877D01*
X769249Y393853D01*
X769289Y393807D01*
X775385Y387711D01*
X775484Y387632D01*
X775578Y387548D01*
X775620Y387524D01*
X775658Y387494D01*
X775772Y387440D01*
X775883Y387379D01*
X775929Y387366D01*
X775973Y387345D01*
X776096Y387319D01*
X776218Y387284D01*
X776279Y387279D01*
X776314Y387272D01*
X776362Y387273D01*
X776462Y387265D01*
X915930Y387265D01*
X916056Y387279D01*
X916182Y387286D01*
X916228Y387299D01*
X916276Y387305D01*
X916395Y387347D01*
X916517Y387382D01*
X916559Y387406D01*
X916605Y387422D01*
X916711Y387491D01*
X916821Y387552D01*
X916867Y387592D01*
X916897Y387611D01*
X916931Y387646D01*
X917007Y387711D01*
X918167Y388871D01*
X918246Y388970D01*
X918330Y389064D01*
X918354Y389106D01*
X918384Y389144D01*
X918438Y389258D01*
X918499Y389369D01*
X918512Y389415D01*
X918533Y389459D01*
X918559Y389582D01*
X918594Y389704D01*
X918599Y389765D01*
X918606Y389800D01*
X918605Y389848D01*
X918613Y389948D01*
X918613Y391368D01*
X919421Y393318D01*
X920914Y394811D01*
X922864Y395619D01*
X924976Y395619D01*
X926926Y394811D01*
X928419Y393318D01*
X929227Y391368D01*
X929227Y389256D01*
X928419Y387306D01*
X926926Y385813D01*
X924976Y385005D01*
X923556Y385005D01*
X923431Y384991D01*
X923304Y384984D01*
X923257Y384971D01*
X923210Y384965D01*
X923091Y384923D01*
X922969Y384888D01*
X922927Y384864D01*
X922881Y384848D01*
X922775Y384779D01*
X922665Y384718D01*
X922619Y384678D01*
X922589Y384659D01*
X922555Y384624D01*
X922479Y384559D01*
X921689Y383769D01*
X921626Y383690D01*
X921556Y383618D01*
X921518Y383554D01*
X921472Y383496D01*
X921429Y383405D01*
X921378Y383319D01*
X921355Y383248D01*
X921323Y383181D01*
X921302Y383083D01*
X921271Y382987D01*
X921265Y382913D01*
X921250Y382840D01*
X921251Y382740D01*
X921243Y382640D01*
X921254Y382566D01*
X921256Y382492D01*
X921280Y382395D01*
X921295Y382295D01*
X921323Y382226D01*
X921341Y382154D01*
X921387Y382065D01*
X921424Y381971D01*
X921466Y381910D01*
X921500Y381844D01*
X921566Y381767D01*
X921623Y381685D01*
X921678Y381635D01*
X921726Y381579D01*
X921807Y381519D01*
X921882Y381452D01*
X921947Y381416D01*
X922006Y381371D01*
X922099Y381332D01*
X922187Y381283D01*
X922258Y381263D01*
X922326Y381233D01*
X922425Y381216D01*
X922522Y381188D01*
X922622Y381180D01*
X922669Y381172D01*
X922705Y381174D01*
X922766Y381169D01*
X1019417Y381169D01*
X1019543Y381183D01*
X1019669Y381190D01*
X1019715Y381203D01*
X1019763Y381209D01*
X1019882Y381251D01*
X1020004Y381286D01*
X1020046Y381310D01*
X1020091Y381326D01*
X1020197Y381395D01*
X1020308Y381456D01*
X1020354Y381496D01*
X1020384Y381515D01*
X1020418Y381550D01*
X1020494Y381615D01*
X1021498Y382619D01*
X1023448Y383427D01*
X1025560Y383427D01*
X1027510Y382619D01*
X1029003Y381126D01*
X1029811Y379176D01*
X1029811Y377064D01*
X1029003Y375114D01*
X1027510Y373621D01*
X1025560Y372813D01*
X1023448Y372813D01*
X1021498Y373621D01*
X1020494Y374625D01*
X1020395Y374704D01*
X1020301Y374788D01*
X1020259Y374812D01*
X1020221Y374842D01*
X1020107Y374896D01*
X1019996Y374957D01*
X1019950Y374970D01*
X1019906Y374991D01*
X1019783Y375017D01*
X1019661Y375052D01*
X1019600Y375057D01*
X1019565Y375064D01*
X1019517Y375063D01*
X1019417Y375071D01*
X785604Y375071D01*
X785587Y375069D01*
X785571Y375071D01*
X785414Y375049D01*
X785258Y375031D01*
X785242Y375026D01*
X785226Y375024D01*
X785078Y374967D01*
X784929Y374914D01*
X784916Y374905D01*
X784900Y374899D01*
X784769Y374810D01*
X784637Y374725D01*
X784625Y374713D01*
X784611Y374704D01*
X784504Y374587D01*
X784394Y374474D01*
X784386Y374460D01*
X784375Y374448D01*
X784296Y374310D01*
X784216Y374175D01*
X784211Y374159D01*
X784202Y374145D01*
X784157Y373993D01*
X784109Y373843D01*
X784108Y373827D01*
X784103Y373811D01*
X784094Y373652D01*
X784081Y373496D01*
X784084Y373479D01*
X784083Y373463D01*
X784110Y373307D01*
X784133Y373151D01*
X784139Y373136D01*
X784142Y373119D01*
X784203Y372974D01*
X784262Y372827D01*
X784271Y372814D01*
X784278Y372798D01*
X784371Y372670D01*
X784461Y372541D01*
X784473Y372530D01*
X784483Y372517D01*
X784603Y372413D01*
X784720Y372308D01*
X784734Y372300D01*
X784747Y372289D01*
X784886Y372216D01*
X785025Y372139D01*
X785041Y372135D01*
X785055Y372127D01*
X785290Y372057D01*
X837970Y360959D01*
X903592Y344133D01*
X968421Y324478D01*
X1032338Y302031D01*
X1047749Y295855D01*
X1047886Y295818D01*
X1048021Y295775D01*
X1048054Y295772D01*
X1048086Y295763D01*
X1048227Y295758D01*
X1048368Y295747D01*
X1048401Y295752D01*
X1048434Y295750D01*
X1048573Y295777D01*
X1048713Y295798D01*
X1048744Y295811D01*
X1048776Y295817D01*
X1048905Y295875D01*
X1049037Y295927D01*
X1049064Y295946D01*
X1049094Y295959D01*
X1049207Y296045D01*
X1049323Y296126D01*
X1049345Y296150D01*
X1049371Y296171D01*
X1049462Y296280D01*
X1049556Y296385D01*
X1049572Y296414D01*
X1049593Y296439D01*
X1049656Y296565D01*
X1049725Y296690D01*
X1049734Y296722D01*
X1049749Y296751D01*
X1049781Y296889D01*
X1049820Y297025D01*
X1049823Y297065D01*
X1049829Y297090D01*
X1049829Y297140D01*
X1049839Y297269D01*
X1049839Y421548D01*
X1049824Y421680D01*
X1049816Y421812D01*
X1049804Y421852D01*
X1049799Y421894D01*
X1049755Y422019D01*
X1049717Y422146D01*
X1049696Y422183D01*
X1049682Y422222D01*
X1049610Y422334D01*
X1049544Y422449D01*
X1049516Y422480D01*
X1049493Y422515D01*
X1049397Y422607D01*
X1049307Y422705D01*
X1049272Y422728D01*
X1049242Y422757D01*
X1049128Y422825D01*
X1049018Y422900D01*
X1048970Y422920D01*
X1048943Y422936D01*
X1048896Y422951D01*
X1048793Y422994D01*
X1021026Y432139D01*
X1021006Y432144D01*
X1020975Y432155D01*
X948865Y453111D01*
X948838Y453115D01*
X948795Y453129D01*
X875778Y470663D01*
X875750Y470667D01*
X875708Y470678D01*
X801945Y484753D01*
X801918Y484755D01*
X801875Y484765D01*
X727531Y495348D01*
X727503Y495349D01*
X727460Y495356D01*
X652700Y502425D01*
X652672Y502424D01*
X652628Y502430D01*
X577618Y505968D01*
X577591Y505966D01*
X577547Y505970D01*
X502453Y505970D01*
X502426Y505967D01*
X502382Y505968D01*
X427372Y502430D01*
X427345Y502426D01*
X427300Y502425D01*
X352540Y495356D01*
X352513Y495351D01*
X352469Y495348D01*
X278125Y484765D01*
X278099Y484758D01*
X278055Y484753D01*
X204292Y470678D01*
X204266Y470670D01*
X204222Y470663D01*
X131205Y453129D01*
X131179Y453119D01*
X131135Y453111D01*
X59025Y432155D01*
X59006Y432147D01*
X58974Y432139D01*
X31207Y422994D01*
X31087Y422939D01*
X30963Y422890D01*
X30929Y422866D01*
X30891Y422848D01*
X30786Y422766D01*
X30677Y422691D01*
X30649Y422660D01*
X30616Y422634D01*
X30533Y422530D01*
X30444Y422432D01*
X30423Y422395D01*
X30397Y422363D01*
X30340Y422243D01*
X30275Y422127D01*
X30264Y422087D01*
X30246Y422049D01*
X30217Y421919D01*
X30180Y421791D01*
X30176Y421740D01*
X30169Y421709D01*
X30170Y421659D01*
X30161Y421548D01*
X30161Y297265D01*
X30177Y297125D01*
X30187Y296984D01*
X30197Y296952D01*
X30201Y296919D01*
X30248Y296786D01*
X30290Y296651D01*
X30307Y296622D01*
X30318Y296591D01*
X30395Y296472D01*
X30466Y296350D01*
X30489Y296326D01*
X30507Y296298D01*
X30609Y296200D01*
X30706Y296097D01*
X30734Y296079D01*
X30758Y296056D01*
X30879Y295983D01*
X30997Y295906D01*
X31028Y295894D01*
X31057Y295877D01*
X31192Y295834D01*
X31324Y295785D01*
X31357Y295781D01*
X31389Y295771D01*
X31530Y295760D01*
X31670Y295742D01*
X31703Y295746D01*
G37*
G36*
X598976Y176D02*
X598976Y176D01*
X599108Y184D01*
X599149Y196D01*
X599191Y201D01*
X599315Y245D01*
X599442Y283D01*
X599479Y304D01*
X599519Y318D01*
X599630Y390D01*
X599745Y456D01*
X599776Y484D01*
X599811Y507D01*
X599904Y603D01*
X600001Y692D01*
X600024Y727D01*
X600054Y758D01*
X600122Y872D01*
X600196Y981D01*
X600211Y1021D01*
X600232Y1057D01*
X600273Y1183D01*
X600320Y1307D01*
X600326Y1349D01*
X600339Y1389D01*
X600349Y1521D01*
X600367Y1652D01*
X600363Y1694D01*
X600367Y1736D01*
X600347Y1867D01*
X600335Y1999D01*
X600321Y2039D01*
X600315Y2081D01*
X600266Y2204D01*
X600224Y2330D01*
X600198Y2375D01*
X600186Y2405D01*
X600158Y2445D01*
X600103Y2542D01*
X593399Y12374D01*
X589830Y23945D01*
X589830Y36055D01*
X593399Y47626D01*
X600221Y57631D01*
X609688Y65181D01*
X620960Y69605D01*
X633036Y70510D01*
X644841Y67815D01*
X655328Y61761D01*
X657199Y59744D01*
X657297Y59661D01*
X657390Y59571D01*
X657429Y59547D01*
X657464Y59518D01*
X657578Y59458D01*
X657689Y59392D01*
X657732Y59378D01*
X657773Y59357D01*
X657898Y59325D01*
X658021Y59286D01*
X658067Y59282D01*
X658111Y59271D01*
X658240Y59268D01*
X658368Y59258D01*
X658414Y59265D01*
X658460Y59264D01*
X658585Y59291D01*
X658713Y59310D01*
X658756Y59327D01*
X658800Y59336D01*
X658917Y59391D01*
X659037Y59438D01*
X659074Y59465D01*
X659116Y59484D01*
X659217Y59564D01*
X659323Y59637D01*
X659354Y59671D01*
X659390Y59700D01*
X659470Y59801D01*
X659556Y59896D01*
X659579Y59936D01*
X659607Y59972D01*
X659663Y60088D01*
X659725Y60201D01*
X659737Y60245D01*
X659757Y60287D01*
X659785Y60412D01*
X659820Y60537D01*
X659824Y60594D01*
X659832Y60627D01*
X659831Y60676D01*
X659839Y60780D01*
X659839Y99220D01*
X659825Y99348D01*
X659818Y99476D01*
X659805Y99520D01*
X659799Y99566D01*
X659756Y99687D01*
X659720Y99811D01*
X659697Y99851D01*
X659682Y99894D01*
X659612Y100002D01*
X659549Y100114D01*
X659518Y100148D01*
X659493Y100187D01*
X659400Y100276D01*
X659313Y100371D01*
X659275Y100397D01*
X659242Y100429D01*
X659132Y100495D01*
X659025Y100568D01*
X658983Y100584D01*
X658943Y100608D01*
X658820Y100647D01*
X658700Y100694D01*
X658655Y100700D01*
X658611Y100714D01*
X658483Y100724D01*
X658355Y100742D01*
X658309Y100738D01*
X658264Y100742D01*
X658136Y100723D01*
X658008Y100712D01*
X657965Y100697D01*
X657919Y100690D01*
X657799Y100643D01*
X657677Y100603D01*
X657638Y100579D01*
X657595Y100562D01*
X657489Y100488D01*
X657380Y100421D01*
X657337Y100382D01*
X657309Y100363D01*
X657276Y100326D01*
X657199Y100256D01*
X655328Y98239D01*
X644841Y92185D01*
X633036Y89490D01*
X620960Y90395D01*
X609688Y94819D01*
X600221Y102369D01*
X593399Y112374D01*
X589830Y123945D01*
X589830Y136055D01*
X593399Y147626D01*
X600221Y157631D01*
X609688Y165181D01*
X620960Y169605D01*
X633036Y170510D01*
X644841Y167815D01*
X655328Y161761D01*
X657199Y159744D01*
X657297Y159661D01*
X657390Y159571D01*
X657429Y159547D01*
X657464Y159518D01*
X657578Y159458D01*
X657689Y159392D01*
X657732Y159378D01*
X657773Y159357D01*
X657898Y159325D01*
X658021Y159286D01*
X658067Y159282D01*
X658111Y159271D01*
X658240Y159268D01*
X658368Y159258D01*
X658414Y159265D01*
X658460Y159264D01*
X658585Y159291D01*
X658713Y159310D01*
X658756Y159327D01*
X658800Y159336D01*
X658917Y159391D01*
X659037Y159438D01*
X659074Y159465D01*
X659116Y159484D01*
X659217Y159564D01*
X659323Y159637D01*
X659354Y159671D01*
X659390Y159700D01*
X659470Y159801D01*
X659556Y159896D01*
X659579Y159936D01*
X659607Y159972D01*
X659663Y160088D01*
X659725Y160201D01*
X659737Y160245D01*
X659757Y160287D01*
X659785Y160412D01*
X659820Y160537D01*
X659824Y160594D01*
X659832Y160627D01*
X659831Y160676D01*
X659839Y160780D01*
X659839Y189220D01*
X659825Y189348D01*
X659818Y189476D01*
X659805Y189520D01*
X659799Y189566D01*
X659756Y189687D01*
X659720Y189811D01*
X659697Y189851D01*
X659682Y189894D01*
X659612Y190002D01*
X659549Y190114D01*
X659518Y190148D01*
X659493Y190187D01*
X659400Y190276D01*
X659313Y190371D01*
X659275Y190397D01*
X659242Y190429D01*
X659132Y190495D01*
X659025Y190568D01*
X658982Y190584D01*
X658943Y190608D01*
X658821Y190647D01*
X658700Y190694D01*
X658655Y190700D01*
X658611Y190714D01*
X658483Y190724D01*
X658355Y190742D01*
X658310Y190738D01*
X658264Y190742D01*
X658136Y190723D01*
X658008Y190712D01*
X657965Y190697D01*
X657919Y190690D01*
X657799Y190643D01*
X657677Y190603D01*
X657638Y190579D01*
X657595Y190562D01*
X657490Y190488D01*
X657380Y190421D01*
X657337Y190382D01*
X657309Y190363D01*
X657277Y190327D01*
X657199Y190256D01*
X655328Y188239D01*
X644841Y182185D01*
X633036Y179490D01*
X620960Y180395D01*
X609688Y184819D01*
X600221Y192369D01*
X593399Y202374D01*
X589830Y213945D01*
X589830Y226055D01*
X593399Y237626D01*
X600221Y247631D01*
X607868Y253729D01*
X607872Y253733D01*
X607879Y253738D01*
X609688Y255181D01*
X620960Y259605D01*
X633036Y260510D01*
X644841Y257815D01*
X655328Y251761D01*
X657199Y249744D01*
X657297Y249661D01*
X657390Y249571D01*
X657429Y249547D01*
X657464Y249518D01*
X657578Y249458D01*
X657689Y249392D01*
X657732Y249378D01*
X657773Y249357D01*
X657898Y249325D01*
X658021Y249286D01*
X658067Y249282D01*
X658111Y249271D01*
X658240Y249268D01*
X658368Y249258D01*
X658414Y249265D01*
X658460Y249264D01*
X658585Y249291D01*
X658713Y249310D01*
X658756Y249327D01*
X658800Y249336D01*
X658917Y249391D01*
X659037Y249438D01*
X659074Y249465D01*
X659116Y249484D01*
X659217Y249564D01*
X659323Y249637D01*
X659354Y249671D01*
X659390Y249700D01*
X659470Y249801D01*
X659556Y249896D01*
X659579Y249936D01*
X659607Y249972D01*
X659662Y250088D01*
X659725Y250201D01*
X659737Y250245D01*
X659757Y250287D01*
X659785Y250412D01*
X659820Y250537D01*
X659824Y250594D01*
X659832Y250627D01*
X659831Y250676D01*
X659839Y250780D01*
X659839Y310923D01*
X659837Y310941D01*
X659838Y310956D01*
X659826Y311038D01*
X659825Y311047D01*
X659819Y311172D01*
X659805Y311220D01*
X659799Y311270D01*
X659757Y311387D01*
X659723Y311508D01*
X659699Y311551D01*
X659682Y311598D01*
X659614Y311703D01*
X659553Y311812D01*
X659520Y311849D01*
X659493Y311890D01*
X659403Y311977D01*
X659319Y312070D01*
X659278Y312098D01*
X659242Y312133D01*
X659135Y312197D01*
X659032Y312268D01*
X658986Y312286D01*
X658943Y312311D01*
X658824Y312350D01*
X658708Y312395D01*
X658658Y312403D01*
X658611Y312418D01*
X658487Y312428D01*
X658363Y312446D01*
X658313Y312442D01*
X658264Y312446D01*
X658140Y312427D01*
X658016Y312417D01*
X657968Y312401D01*
X657919Y312394D01*
X657803Y312348D01*
X657684Y312309D01*
X657641Y312284D01*
X657595Y312265D01*
X657493Y312194D01*
X657385Y312129D01*
X657350Y312095D01*
X657309Y312066D01*
X657225Y311974D01*
X657136Y311886D01*
X657101Y311835D01*
X657095Y311830D01*
X657094Y311828D01*
X657076Y311808D01*
X657053Y311766D01*
X656997Y311685D01*
X656629Y311048D01*
X656286Y310705D01*
X656192Y310587D01*
X656094Y310471D01*
X656084Y310450D01*
X656069Y310432D01*
X656005Y310295D01*
X655936Y310161D01*
X655930Y310138D01*
X655920Y310117D01*
X655889Y309970D01*
X655852Y309822D01*
X655852Y309799D01*
X655847Y309776D01*
X655849Y309625D01*
X655847Y309474D01*
X655853Y309446D01*
X655853Y309427D01*
X655864Y309382D01*
X655892Y309233D01*
X656049Y308647D01*
X656049Y303359D01*
X650055Y303359D01*
X650055Y310921D01*
X650155Y310960D01*
X650294Y311010D01*
X650316Y311024D01*
X650341Y311034D01*
X650462Y311119D01*
X650587Y311199D01*
X650605Y311218D01*
X650627Y311233D01*
X650726Y311343D01*
X650829Y311450D01*
X650843Y311472D01*
X650860Y311492D01*
X650932Y311622D01*
X651008Y311749D01*
X651016Y311774D01*
X651029Y311797D01*
X651069Y311940D01*
X651114Y312081D01*
X651116Y312107D01*
X651124Y312132D01*
X651143Y312376D01*
X651143Y317561D01*
X658316Y317561D01*
X658342Y317564D01*
X658368Y317562D01*
X658515Y317584D01*
X658662Y317601D01*
X658687Y317609D01*
X658713Y317613D01*
X658851Y317668D01*
X658990Y317718D01*
X659012Y317732D01*
X659037Y317742D01*
X659158Y317827D01*
X659283Y317907D01*
X659301Y317926D01*
X659323Y317941D01*
X659422Y318051D01*
X659525Y318158D01*
X659539Y318180D01*
X659556Y318200D01*
X659628Y318330D01*
X659704Y318457D01*
X659712Y318482D01*
X659725Y318505D01*
X659765Y318648D01*
X659810Y318789D01*
X659812Y318815D01*
X659820Y318840D01*
X659839Y319084D01*
X659839Y322132D01*
X659836Y322158D01*
X659838Y322184D01*
X659816Y322331D01*
X659799Y322478D01*
X659791Y322503D01*
X659787Y322529D01*
X659732Y322667D01*
X659682Y322806D01*
X659668Y322828D01*
X659658Y322853D01*
X659573Y322974D01*
X659493Y323099D01*
X659474Y323117D01*
X659459Y323139D01*
X659349Y323238D01*
X659242Y323341D01*
X659220Y323355D01*
X659200Y323372D01*
X659070Y323444D01*
X658943Y323520D01*
X658918Y323528D01*
X658895Y323541D01*
X658752Y323581D01*
X658611Y323626D01*
X658585Y323628D01*
X658560Y323636D01*
X658316Y323655D01*
X651143Y323655D01*
X651143Y331149D01*
X654931Y331149D01*
X655577Y330976D01*
X656156Y330641D01*
X656629Y330168D01*
X656997Y329531D01*
X657071Y329431D01*
X657139Y329326D01*
X657175Y329291D01*
X657204Y329251D01*
X657300Y329170D01*
X657390Y329083D01*
X657432Y329058D01*
X657470Y329026D01*
X657582Y328969D01*
X657689Y328905D01*
X657736Y328889D01*
X657780Y328867D01*
X657902Y328836D01*
X658021Y328798D01*
X658070Y328794D01*
X658119Y328782D01*
X658244Y328780D01*
X658368Y328770D01*
X658417Y328778D01*
X658467Y328777D01*
X658589Y328803D01*
X658713Y328822D01*
X658759Y328840D01*
X658808Y328851D01*
X658921Y328905D01*
X659037Y328951D01*
X659077Y328979D01*
X659122Y329000D01*
X659220Y329078D01*
X659323Y329150D01*
X659356Y329187D01*
X659395Y329218D01*
X659473Y329316D01*
X659556Y329408D01*
X659580Y329452D01*
X659611Y329491D01*
X659664Y329604D01*
X659725Y329714D01*
X659738Y329761D01*
X659760Y329806D01*
X659786Y329929D01*
X659820Y330049D01*
X659825Y330111D01*
X659832Y330147D01*
X659831Y330195D01*
X659839Y330293D01*
X659839Y378402D01*
X659830Y378486D01*
X659830Y378571D01*
X659805Y378699D01*
X659799Y378748D01*
X659791Y378772D01*
X659783Y378811D01*
X659670Y379219D01*
X659828Y380523D01*
X659828Y380573D01*
X659839Y380707D01*
X659839Y382021D01*
X659876Y382109D01*
X659917Y382254D01*
X659963Y382397D01*
X659965Y382421D01*
X659971Y382444D01*
X659979Y382594D01*
X659991Y382744D01*
X659987Y382768D01*
X659988Y382792D01*
X659961Y382940D01*
X659939Y383089D01*
X659930Y383111D01*
X659926Y383135D01*
X659866Y383273D01*
X659810Y383413D01*
X659797Y383433D01*
X659787Y383455D01*
X659697Y383576D01*
X659611Y383699D01*
X659594Y383715D01*
X659579Y383734D01*
X659464Y383832D01*
X659353Y383932D01*
X659331Y383944D01*
X659313Y383960D01*
X659179Y384028D01*
X659048Y384101D01*
X659024Y384107D01*
X659003Y384118D01*
X658857Y384155D01*
X658712Y384196D01*
X658683Y384198D01*
X658665Y384203D01*
X658618Y384203D01*
X658468Y384215D01*
X656987Y384215D01*
X656888Y384204D01*
X656787Y384202D01*
X656715Y384184D01*
X656641Y384175D01*
X656547Y384142D01*
X656449Y384117D01*
X656383Y384083D01*
X656313Y384058D01*
X656229Y384003D01*
X656139Y383957D01*
X656083Y383909D01*
X656020Y383869D01*
X655950Y383797D01*
X655874Y383731D01*
X655830Y383672D01*
X655778Y383618D01*
X655726Y383532D01*
X655667Y383451D01*
X655637Y383383D01*
X655599Y383319D01*
X655569Y383224D01*
X655529Y383131D01*
X655516Y383058D01*
X655493Y382987D01*
X655485Y382887D01*
X655467Y382788D01*
X655471Y382714D01*
X655465Y382640D01*
X655480Y382541D01*
X655485Y382440D01*
X655506Y382369D01*
X655517Y382295D01*
X655554Y382202D01*
X655582Y382105D01*
X655618Y382040D01*
X655645Y381971D01*
X655703Y381889D01*
X655752Y381801D01*
X655817Y381725D01*
X655844Y381685D01*
X655871Y381661D01*
X655910Y381615D01*
X655941Y381584D01*
X656276Y381005D01*
X656449Y380359D01*
X656449Y375071D01*
X648932Y375071D01*
X648906Y375068D01*
X648880Y375070D01*
X648733Y375048D01*
X648586Y375031D01*
X648561Y375022D01*
X648535Y375019D01*
X648397Y374964D01*
X648258Y374914D01*
X648236Y374900D01*
X648211Y374890D01*
X648090Y374805D01*
X647965Y374725D01*
X647947Y374706D01*
X647925Y374691D01*
X647826Y374581D01*
X647723Y374474D01*
X647709Y374452D01*
X647692Y374432D01*
X647620Y374302D01*
X647544Y374175D01*
X647536Y374150D01*
X647523Y374127D01*
X647483Y373984D01*
X647438Y373843D01*
X647436Y373817D01*
X647428Y373792D01*
X647409Y373548D01*
X647409Y372023D01*
X645884Y372023D01*
X645858Y372020D01*
X645832Y372022D01*
X645685Y372000D01*
X645538Y371983D01*
X645513Y371974D01*
X645487Y371971D01*
X645349Y371916D01*
X645210Y371866D01*
X645188Y371852D01*
X645163Y371842D01*
X645042Y371757D01*
X644917Y371677D01*
X644899Y371658D01*
X644877Y371643D01*
X644778Y371533D01*
X644675Y371426D01*
X644661Y371404D01*
X644644Y371384D01*
X644572Y371254D01*
X644496Y371127D01*
X644488Y371102D01*
X644475Y371079D01*
X644435Y370936D01*
X644390Y370795D01*
X644388Y370769D01*
X644380Y370744D01*
X644361Y370500D01*
X644361Y360870D01*
X644375Y360744D01*
X644382Y360618D01*
X644395Y360571D01*
X644401Y360523D01*
X644443Y360405D01*
X644478Y360283D01*
X644502Y360241D01*
X644518Y360195D01*
X644587Y360089D01*
X644648Y359979D01*
X644688Y359933D01*
X644707Y359903D01*
X644742Y359869D01*
X644807Y359793D01*
X648597Y356003D01*
X648696Y355924D01*
X648790Y355840D01*
X648832Y355816D01*
X648870Y355786D01*
X648984Y355732D01*
X649095Y355671D01*
X649141Y355658D01*
X649185Y355637D01*
X649308Y355611D01*
X649430Y355576D01*
X649491Y355571D01*
X649525Y355564D01*
X649573Y355565D01*
X649674Y355557D01*
X654416Y355557D01*
X655309Y354664D01*
X655309Y337400D01*
X654416Y336507D01*
X640682Y336507D01*
X640533Y336490D01*
X640383Y336478D01*
X640360Y336470D01*
X640336Y336467D01*
X640194Y336417D01*
X640052Y336370D01*
X640031Y336358D01*
X640008Y336350D01*
X639882Y336268D01*
X639753Y336191D01*
X639736Y336174D01*
X639715Y336161D01*
X639611Y336053D01*
X639503Y335948D01*
X639490Y335928D01*
X639473Y335910D01*
X639396Y335781D01*
X639315Y335655D01*
X639307Y335632D01*
X639294Y335611D01*
X639248Y335468D01*
X639198Y335326D01*
X639195Y335302D01*
X639188Y335279D01*
X639176Y335130D01*
X639159Y334980D01*
X639162Y334956D01*
X639160Y334932D01*
X639182Y334783D01*
X639200Y334634D01*
X639209Y334606D01*
X639212Y334587D01*
X639229Y334543D01*
X639275Y334401D01*
X639667Y333456D01*
X639667Y332672D01*
X639670Y332646D01*
X639668Y332620D01*
X639690Y332473D01*
X639707Y332326D01*
X639715Y332301D01*
X639719Y332275D01*
X639774Y332137D01*
X639824Y331998D01*
X639838Y331976D01*
X639848Y331951D01*
X639933Y331830D01*
X640013Y331705D01*
X640032Y331687D01*
X640047Y331665D01*
X640157Y331566D01*
X640264Y331463D01*
X640286Y331449D01*
X640306Y331432D01*
X640436Y331360D01*
X640563Y331284D01*
X640588Y331276D01*
X640611Y331263D01*
X640754Y331223D01*
X640895Y331178D01*
X640921Y331176D01*
X640946Y331168D01*
X641190Y331149D01*
X645049Y331149D01*
X645049Y322132D01*
X645052Y322106D01*
X645050Y322080D01*
X645072Y321933D01*
X645089Y321786D01*
X645097Y321761D01*
X645101Y321735D01*
X645156Y321597D01*
X645206Y321458D01*
X645220Y321436D01*
X645230Y321411D01*
X645315Y321290D01*
X645395Y321165D01*
X645414Y321147D01*
X645429Y321125D01*
X645539Y321026D01*
X645646Y320923D01*
X645668Y320909D01*
X645688Y320892D01*
X645818Y320820D01*
X645945Y320744D01*
X645970Y320736D01*
X645993Y320723D01*
X646136Y320683D01*
X646277Y320638D01*
X646303Y320636D01*
X646328Y320628D01*
X646572Y320609D01*
X648097Y320609D01*
X648097Y320607D01*
X646572Y320607D01*
X646546Y320604D01*
X646520Y320606D01*
X646373Y320584D01*
X646226Y320567D01*
X646201Y320558D01*
X646175Y320555D01*
X646037Y320500D01*
X645898Y320450D01*
X645876Y320436D01*
X645851Y320426D01*
X645730Y320341D01*
X645605Y320261D01*
X645587Y320242D01*
X645565Y320227D01*
X645466Y320117D01*
X645363Y320010D01*
X645349Y319988D01*
X645332Y319968D01*
X645260Y319838D01*
X645184Y319711D01*
X645176Y319686D01*
X645163Y319663D01*
X645123Y319520D01*
X645078Y319379D01*
X645076Y319353D01*
X645068Y319328D01*
X645049Y319084D01*
X645049Y309999D01*
X644949Y309960D01*
X644810Y309910D01*
X644788Y309896D01*
X644763Y309886D01*
X644642Y309801D01*
X644517Y309721D01*
X644499Y309702D01*
X644477Y309687D01*
X644378Y309577D01*
X644275Y309470D01*
X644261Y309448D01*
X644244Y309428D01*
X644172Y309298D01*
X644096Y309171D01*
X644088Y309146D01*
X644075Y309123D01*
X644035Y308980D01*
X643990Y308839D01*
X643988Y308813D01*
X643980Y308788D01*
X643961Y308544D01*
X643961Y301836D01*
X643964Y301810D01*
X643962Y301784D01*
X643984Y301637D01*
X644001Y301490D01*
X644009Y301465D01*
X644013Y301439D01*
X644068Y301301D01*
X644118Y301162D01*
X644132Y301140D01*
X644142Y301115D01*
X644227Y300994D01*
X644307Y300869D01*
X644326Y300851D01*
X644341Y300829D01*
X644451Y300730D01*
X644558Y300627D01*
X644580Y300613D01*
X644600Y300596D01*
X644730Y300524D01*
X644857Y300448D01*
X644882Y300440D01*
X644905Y300427D01*
X645048Y300387D01*
X645189Y300342D01*
X645215Y300340D01*
X645240Y300332D01*
X645484Y300313D01*
X647009Y300313D01*
X647009Y300311D01*
X645484Y300311D01*
X645458Y300308D01*
X645432Y300310D01*
X645285Y300288D01*
X645138Y300271D01*
X645113Y300262D01*
X645087Y300259D01*
X644949Y300204D01*
X644810Y300154D01*
X644788Y300140D01*
X644763Y300130D01*
X644642Y300045D01*
X644517Y299965D01*
X644499Y299946D01*
X644477Y299931D01*
X644378Y299821D01*
X644275Y299714D01*
X644261Y299692D01*
X644244Y299672D01*
X644172Y299542D01*
X644096Y299415D01*
X644088Y299390D01*
X644075Y299367D01*
X644035Y299224D01*
X643990Y299083D01*
X643988Y299057D01*
X643980Y299032D01*
X643961Y298788D01*
X643961Y289538D01*
X643914Y289505D01*
X643789Y289425D01*
X643771Y289406D01*
X643749Y289391D01*
X643650Y289281D01*
X643547Y289174D01*
X643533Y289152D01*
X643516Y289132D01*
X643444Y289002D01*
X643368Y288875D01*
X643360Y288850D01*
X643347Y288827D01*
X643307Y288684D01*
X643262Y288543D01*
X643260Y288517D01*
X643252Y288492D01*
X643233Y288248D01*
X643233Y282988D01*
X643236Y282962D01*
X643234Y282936D01*
X643256Y282789D01*
X643273Y282642D01*
X643281Y282617D01*
X643285Y282591D01*
X643340Y282453D01*
X643390Y282314D01*
X643404Y282292D01*
X643414Y282267D01*
X643499Y282146D01*
X643579Y282021D01*
X643598Y282003D01*
X643613Y281981D01*
X643723Y281882D01*
X643830Y281779D01*
X643852Y281765D01*
X643872Y281748D01*
X644002Y281676D01*
X644129Y281600D01*
X644154Y281592D01*
X644177Y281579D01*
X644320Y281539D01*
X644461Y281494D01*
X644487Y281492D01*
X644512Y281484D01*
X644756Y281465D01*
X646281Y281465D01*
X646281Y281463D01*
X644756Y281463D01*
X644730Y281460D01*
X644704Y281462D01*
X644557Y281440D01*
X644410Y281423D01*
X644385Y281414D01*
X644359Y281411D01*
X644221Y281356D01*
X644082Y281306D01*
X644060Y281292D01*
X644035Y281282D01*
X643914Y281197D01*
X643789Y281117D01*
X643771Y281098D01*
X643749Y281083D01*
X643650Y280973D01*
X643547Y280866D01*
X643533Y280844D01*
X643516Y280824D01*
X643444Y280694D01*
X643368Y280567D01*
X643360Y280542D01*
X643347Y280519D01*
X643307Y280376D01*
X643262Y280235D01*
X643260Y280209D01*
X643252Y280184D01*
X643233Y279940D01*
X643233Y270923D01*
X639445Y270923D01*
X638799Y271096D01*
X638220Y271431D01*
X637747Y271904D01*
X637412Y272483D01*
X637299Y272905D01*
X637244Y273044D01*
X637194Y273185D01*
X637180Y273206D01*
X637171Y273229D01*
X637086Y273352D01*
X637005Y273478D01*
X636987Y273496D01*
X636973Y273516D01*
X636862Y273616D01*
X636754Y273720D01*
X636733Y273733D01*
X636714Y273750D01*
X636584Y273822D01*
X636455Y273899D01*
X636432Y273907D01*
X636410Y273919D01*
X636266Y273960D01*
X636123Y274005D01*
X636098Y274007D01*
X636074Y274014D01*
X635925Y274021D01*
X635776Y274033D01*
X635751Y274030D01*
X635726Y274031D01*
X635579Y274004D01*
X635431Y273982D01*
X635408Y273973D01*
X635384Y273968D01*
X635246Y273908D01*
X635107Y273853D01*
X635087Y273839D01*
X635064Y273829D01*
X634944Y273739D01*
X634821Y273654D01*
X634805Y273636D01*
X634785Y273621D01*
X634688Y273506D01*
X634588Y273395D01*
X634576Y273374D01*
X634560Y273355D01*
X634492Y273222D01*
X634419Y273090D01*
X634412Y273066D01*
X634401Y273044D01*
X634365Y272899D01*
X634363Y272890D01*
X633412Y271939D01*
X622416Y271939D01*
X622291Y271925D01*
X622164Y271918D01*
X622118Y271905D01*
X622070Y271899D01*
X621951Y271857D01*
X621830Y271822D01*
X621787Y271798D01*
X621742Y271782D01*
X621636Y271713D01*
X621525Y271652D01*
X621479Y271612D01*
X621449Y271593D01*
X621416Y271558D01*
X621339Y271493D01*
X606289Y256443D01*
X602967Y256443D01*
X602891Y256435D01*
X602815Y256436D01*
X602719Y256415D01*
X602621Y256403D01*
X602549Y256378D01*
X602474Y256361D01*
X602386Y256319D01*
X602293Y256286D01*
X602229Y256244D01*
X602160Y256212D01*
X602083Y256150D01*
X602000Y256097D01*
X601947Y256042D01*
X601887Y255994D01*
X601826Y255917D01*
X601758Y255846D01*
X601719Y255781D01*
X601671Y255721D01*
X601603Y255588D01*
X601579Y255547D01*
X601573Y255529D01*
X601560Y255503D01*
X600860Y253813D01*
X597787Y250740D01*
X593773Y249077D01*
X589427Y249077D01*
X587737Y249777D01*
X587664Y249798D01*
X587593Y249829D01*
X587497Y249846D01*
X587402Y249873D01*
X587326Y249877D01*
X587250Y249890D01*
X587152Y249885D01*
X587054Y249890D01*
X586979Y249876D01*
X586902Y249872D01*
X586808Y249845D01*
X586711Y249827D01*
X586641Y249797D01*
X586568Y249776D01*
X586482Y249728D01*
X586391Y249689D01*
X586330Y249643D01*
X586263Y249606D01*
X586150Y249509D01*
X586112Y249481D01*
X586099Y249466D01*
X586077Y249447D01*
X573515Y236885D01*
X570985Y234355D01*
X557216Y234355D01*
X557091Y234341D01*
X556964Y234334D01*
X556918Y234321D01*
X556870Y234315D01*
X556751Y234273D01*
X556629Y234238D01*
X556587Y234214D01*
X556542Y234198D01*
X556436Y234129D01*
X556325Y234068D01*
X556279Y234028D01*
X556249Y234009D01*
X556216Y233974D01*
X556139Y233909D01*
X554003Y231773D01*
X553924Y231674D01*
X553840Y231580D01*
X553816Y231538D01*
X553786Y231500D01*
X553732Y231386D01*
X553671Y231275D01*
X553658Y231228D01*
X553637Y231185D01*
X553611Y231061D01*
X553576Y230940D01*
X553571Y230879D01*
X553564Y230844D01*
X553565Y230796D01*
X553557Y230696D01*
X553557Y227577D01*
X553221Y227241D01*
X553142Y227142D01*
X553058Y227048D01*
X553034Y227006D01*
X553004Y226968D01*
X552950Y226854D01*
X552889Y226743D01*
X552876Y226697D01*
X552855Y226653D01*
X552829Y226529D01*
X552794Y226408D01*
X552789Y226347D01*
X552782Y226312D01*
X552783Y226264D01*
X552775Y226164D01*
X552775Y223418D01*
X551882Y222525D01*
X533949Y222525D01*
X533824Y222511D01*
X533697Y222504D01*
X533651Y222491D01*
X533603Y222485D01*
X533484Y222443D01*
X533363Y222408D01*
X533320Y222384D01*
X533275Y222368D01*
X533169Y222299D01*
X533058Y222238D01*
X533012Y222198D01*
X532982Y222179D01*
X532949Y222144D01*
X532872Y222079D01*
X532810Y222017D01*
X532231Y221682D01*
X531585Y221509D01*
X531523Y221509D01*
X531523Y226866D01*
X531513Y226955D01*
X531513Y227046D01*
X531493Y227128D01*
X531484Y227212D01*
X531453Y227297D01*
X531432Y227385D01*
X531395Y227460D01*
X531366Y227540D01*
X531317Y227616D01*
X531277Y227697D01*
X531204Y227791D01*
X531177Y227833D01*
X531156Y227853D01*
X531127Y227890D01*
X531127Y227891D01*
X531024Y227980D01*
X531008Y227996D01*
X531026Y228017D01*
X531129Y228124D01*
X531143Y228146D01*
X531160Y228166D01*
X531232Y228296D01*
X531308Y228423D01*
X531316Y228448D01*
X531329Y228471D01*
X531369Y228614D01*
X531414Y228755D01*
X531416Y228781D01*
X531424Y228806D01*
X531443Y229050D01*
X531440Y229076D01*
X531442Y229102D01*
X531420Y229249D01*
X531403Y229396D01*
X531395Y229421D01*
X531391Y229447D01*
X531336Y229585D01*
X531286Y229724D01*
X531272Y229747D01*
X531262Y229771D01*
X531177Y229892D01*
X531097Y230017D01*
X531078Y230036D01*
X531063Y230057D01*
X530953Y230156D01*
X530846Y230259D01*
X530824Y230273D01*
X530804Y230290D01*
X530674Y230362D01*
X530547Y230438D01*
X530522Y230446D01*
X530499Y230459D01*
X530356Y230499D01*
X530215Y230545D01*
X530189Y230547D01*
X530164Y230554D01*
X529920Y230573D01*
X526209Y230573D01*
X526209Y234385D01*
X526382Y235031D01*
X526717Y235610D01*
X527190Y236083D01*
X527769Y236418D01*
X528415Y236591D01*
X529438Y236591D01*
X529538Y236602D01*
X529638Y236604D01*
X529710Y236622D01*
X529784Y236631D01*
X529879Y236664D01*
X529976Y236689D01*
X530042Y236723D01*
X530112Y236748D01*
X530197Y236803D01*
X530286Y236849D01*
X530342Y236897D01*
X530405Y236937D01*
X530475Y237009D01*
X530551Y237074D01*
X530595Y237134D01*
X530647Y237188D01*
X530699Y237274D01*
X530758Y237355D01*
X530788Y237423D01*
X530826Y237487D01*
X530857Y237582D01*
X530896Y237675D01*
X530910Y237748D01*
X530932Y237819D01*
X530940Y237919D01*
X530958Y238018D01*
X530954Y238092D01*
X530960Y238166D01*
X530945Y238266D01*
X530940Y238366D01*
X530920Y238437D01*
X530909Y238511D01*
X530871Y238604D01*
X530844Y238701D01*
X530807Y238766D01*
X530780Y238835D01*
X530722Y238917D01*
X530673Y239005D01*
X530608Y239081D01*
X530581Y239121D01*
X530554Y239145D01*
X530515Y239191D01*
X529701Y240005D01*
X529602Y240084D01*
X529508Y240168D01*
X529466Y240192D01*
X529428Y240222D01*
X529314Y240276D01*
X529203Y240337D01*
X529156Y240350D01*
X529113Y240371D01*
X528989Y240397D01*
X528868Y240432D01*
X528807Y240437D01*
X528772Y240444D01*
X528724Y240443D01*
X528624Y240451D01*
X517063Y240451D01*
X511843Y245671D01*
X511843Y248633D01*
X511835Y248709D01*
X511836Y248785D01*
X511815Y248881D01*
X511803Y248979D01*
X511778Y249051D01*
X511761Y249126D01*
X511719Y249214D01*
X511686Y249307D01*
X511644Y249371D01*
X511612Y249440D01*
X511550Y249517D01*
X511497Y249600D01*
X511442Y249653D01*
X511394Y249713D01*
X511317Y249774D01*
X511246Y249842D01*
X511181Y249881D01*
X511121Y249929D01*
X510988Y249997D01*
X510947Y250021D01*
X510929Y250027D01*
X510903Y250040D01*
X509213Y250740D01*
X506140Y253813D01*
X504567Y257612D01*
X504515Y257704D01*
X504473Y257800D01*
X504431Y257856D01*
X504397Y257916D01*
X504326Y257994D01*
X504263Y258078D01*
X504210Y258123D01*
X504163Y258175D01*
X504076Y258235D01*
X503996Y258302D01*
X503934Y258333D01*
X503876Y258373D01*
X503778Y258411D01*
X503685Y258459D01*
X503617Y258475D01*
X503552Y258501D01*
X503448Y258516D01*
X503346Y258541D01*
X503276Y258541D01*
X503207Y258551D01*
X503102Y258543D01*
X502997Y258544D01*
X502929Y258528D01*
X502860Y258523D01*
X502760Y258490D01*
X502657Y258467D01*
X502595Y258437D01*
X502528Y258415D01*
X502438Y258361D01*
X502344Y258315D01*
X502289Y258272D01*
X502230Y258236D01*
X502154Y258162D01*
X502073Y258096D01*
X502030Y258042D01*
X501980Y257993D01*
X501923Y257904D01*
X501858Y257821D01*
X501829Y257758D01*
X501792Y257700D01*
X501756Y257601D01*
X501712Y257505D01*
X501690Y257415D01*
X501675Y257371D01*
X501671Y257333D01*
X501655Y257267D01*
X501645Y257204D01*
X501064Y255417D01*
X500211Y253743D01*
X499106Y252222D01*
X497778Y250894D01*
X496257Y249789D01*
X494583Y248936D01*
X492796Y248355D01*
X492539Y248315D01*
X492539Y258984D01*
X492536Y259010D01*
X492538Y259036D01*
X492516Y259183D01*
X492499Y259330D01*
X492491Y259355D01*
X492487Y259381D01*
X492432Y259518D01*
X492382Y259658D01*
X492368Y259680D01*
X492358Y259705D01*
X492273Y259826D01*
X492193Y259951D01*
X492174Y259969D01*
X492159Y259991D01*
X492143Y260005D01*
X492225Y260090D01*
X492239Y260113D01*
X492256Y260132D01*
X492328Y260262D01*
X492404Y260389D01*
X492412Y260414D01*
X492425Y260437D01*
X492465Y260580D01*
X492510Y260721D01*
X492512Y260747D01*
X492520Y260772D01*
X492539Y261016D01*
X492539Y271685D01*
X492796Y271645D01*
X494583Y271064D01*
X496257Y270211D01*
X497778Y269106D01*
X499106Y267778D01*
X500211Y266257D01*
X501064Y264583D01*
X501645Y262796D01*
X501655Y262733D01*
X501683Y262631D01*
X501702Y262528D01*
X501730Y262464D01*
X501748Y262397D01*
X501799Y262305D01*
X501841Y262208D01*
X501882Y262152D01*
X501916Y262091D01*
X501986Y262013D01*
X502049Y261929D01*
X502102Y261884D01*
X502148Y261832D01*
X502234Y261771D01*
X502315Y261703D01*
X502377Y261672D01*
X502434Y261632D01*
X502531Y261593D01*
X502625Y261545D01*
X502692Y261528D01*
X502757Y261502D01*
X502861Y261486D01*
X502963Y261460D01*
X503033Y261459D01*
X503101Y261449D01*
X503206Y261457D01*
X503312Y261455D01*
X503380Y261470D01*
X503449Y261476D01*
X503549Y261507D01*
X503652Y261530D01*
X503715Y261560D01*
X503781Y261581D01*
X503872Y261634D01*
X503967Y261679D01*
X504021Y261723D01*
X504081Y261758D01*
X504157Y261831D01*
X504239Y261897D01*
X504282Y261951D01*
X504333Y262000D01*
X504390Y262088D01*
X504455Y262170D01*
X504497Y262253D01*
X504523Y262292D01*
X504536Y262328D01*
X504567Y262388D01*
X506140Y266187D01*
X509213Y269260D01*
X511411Y270170D01*
X511478Y270207D01*
X511549Y270236D01*
X511630Y270292D01*
X511716Y270340D01*
X511772Y270391D01*
X511835Y270435D01*
X511901Y270508D01*
X511974Y270574D01*
X512017Y270637D01*
X512068Y270693D01*
X512116Y270780D01*
X512172Y270860D01*
X512200Y270931D01*
X512237Y270998D01*
X512264Y271093D01*
X512300Y271185D01*
X512311Y271260D01*
X512332Y271334D01*
X512344Y271483D01*
X512351Y271529D01*
X512349Y271549D01*
X512351Y271578D01*
X512351Y281759D01*
X514565Y283972D01*
X514633Y284059D01*
X514656Y284082D01*
X514662Y284092D01*
X514728Y284165D01*
X514751Y284207D01*
X514781Y284245D01*
X514835Y284359D01*
X514896Y284470D01*
X514910Y284517D01*
X514930Y284560D01*
X514957Y284684D01*
X514991Y284806D01*
X514996Y284866D01*
X515004Y284901D01*
X515003Y284949D01*
X515011Y285049D01*
X515011Y285954D01*
X515701Y287621D01*
X515743Y287766D01*
X515788Y287909D01*
X515790Y287933D01*
X515797Y287956D01*
X515804Y288107D01*
X515816Y288256D01*
X515813Y288280D01*
X515814Y288304D01*
X515787Y288452D01*
X515765Y288601D01*
X515756Y288623D01*
X515751Y288647D01*
X515692Y288785D01*
X515636Y288925D01*
X515622Y288945D01*
X515613Y288967D01*
X515523Y289088D01*
X515437Y289211D01*
X515419Y289227D01*
X515405Y289247D01*
X515290Y289344D01*
X515178Y289444D01*
X515157Y289456D01*
X515139Y289472D01*
X515005Y289540D01*
X514873Y289613D01*
X514850Y289619D01*
X514828Y289630D01*
X514683Y289667D01*
X514538Y289708D01*
X514509Y289710D01*
X514490Y289715D01*
X514443Y289715D01*
X514294Y289727D01*
X511286Y289727D01*
X511160Y289713D01*
X511034Y289706D01*
X510988Y289693D01*
X510940Y289687D01*
X510821Y289645D01*
X510699Y289610D01*
X510657Y289586D01*
X510611Y289570D01*
X510505Y289501D01*
X510395Y289440D01*
X510349Y289400D01*
X510319Y289381D01*
X510285Y289346D01*
X510209Y289281D01*
X508791Y287864D01*
X508713Y287765D01*
X508628Y287671D01*
X508605Y287629D01*
X508575Y287591D01*
X508521Y287477D01*
X508460Y287366D01*
X508446Y287319D01*
X508426Y287276D01*
X508399Y287152D01*
X508365Y287030D01*
X508360Y286970D01*
X508352Y286935D01*
X508353Y286887D01*
X508345Y286787D01*
X508345Y285367D01*
X507537Y283416D01*
X506045Y281924D01*
X504094Y281116D01*
X501983Y281116D01*
X500032Y281924D01*
X498540Y283416D01*
X498479Y283562D01*
X498455Y283606D01*
X498438Y283653D01*
X498370Y283758D01*
X498310Y283867D01*
X498276Y283904D01*
X498249Y283946D01*
X498159Y284033D01*
X498076Y284125D01*
X498034Y284153D01*
X497998Y284188D01*
X497892Y284252D01*
X497789Y284323D01*
X497742Y284342D01*
X497699Y284367D01*
X497581Y284405D01*
X497465Y284451D01*
X497415Y284458D01*
X497367Y284474D01*
X497243Y284484D01*
X497120Y284502D01*
X497070Y284497D01*
X497020Y284502D01*
X496897Y284483D01*
X496773Y284473D01*
X496725Y284457D01*
X496675Y284450D01*
X496560Y284404D01*
X496441Y284366D01*
X496398Y284340D01*
X496351Y284321D01*
X496249Y284250D01*
X496143Y284186D01*
X496106Y284151D01*
X496065Y284122D01*
X495982Y284030D01*
X495893Y283943D01*
X495865Y283901D01*
X495832Y283863D01*
X495771Y283754D01*
X495704Y283650D01*
X495688Y283603D01*
X495663Y283558D01*
X495629Y283439D01*
X495588Y283321D01*
X495582Y283272D01*
X495568Y283223D01*
X495549Y282979D01*
X495549Y282537D01*
X495376Y281891D01*
X495041Y281312D01*
X494568Y280839D01*
X493989Y280504D01*
X493343Y280331D01*
X488055Y280331D01*
X488055Y286325D01*
X496236Y286325D01*
X496312Y286334D01*
X496389Y286332D01*
X496485Y286353D01*
X496582Y286365D01*
X496654Y286390D01*
X496729Y286407D01*
X496818Y286449D01*
X496911Y286482D01*
X496975Y286524D01*
X497044Y286556D01*
X497121Y286618D01*
X497203Y286671D01*
X497257Y286726D01*
X497316Y286774D01*
X497377Y286851D01*
X497446Y286922D01*
X497485Y286987D01*
X497532Y287047D01*
X497600Y287181D01*
X497624Y287221D01*
X497630Y287239D01*
X497644Y287265D01*
X498540Y289429D01*
X500032Y290921D01*
X501983Y291729D01*
X503403Y291729D01*
X503528Y291744D01*
X503654Y291750D01*
X503701Y291764D01*
X503749Y291769D01*
X503868Y291812D01*
X503989Y291847D01*
X504031Y291870D01*
X504077Y291887D01*
X504183Y291955D01*
X504293Y292017D01*
X504340Y292056D01*
X504370Y292076D01*
X504403Y292110D01*
X504480Y292175D01*
X505897Y293593D01*
X508503Y296198D01*
X508519Y296219D01*
X508539Y296236D01*
X508627Y296355D01*
X508719Y296471D01*
X508731Y296495D01*
X508746Y296516D01*
X508805Y296652D01*
X508868Y296786D01*
X508874Y296812D01*
X508884Y296836D01*
X508910Y296983D01*
X508942Y297127D01*
X508941Y297153D01*
X508946Y297179D01*
X508938Y297328D01*
X508936Y297476D01*
X508929Y297501D01*
X508928Y297527D01*
X508887Y297670D01*
X508851Y297813D01*
X508839Y297837D01*
X508831Y297862D01*
X508759Y297991D01*
X508691Y298123D01*
X508674Y298143D01*
X508661Y298166D01*
X508503Y298352D01*
X507941Y298914D01*
X507133Y300864D01*
X507133Y302976D01*
X507413Y303651D01*
X507454Y303796D01*
X507500Y303939D01*
X507502Y303963D01*
X507509Y303986D01*
X507516Y304137D01*
X507528Y304286D01*
X507525Y304310D01*
X507526Y304334D01*
X507499Y304482D01*
X507476Y304631D01*
X507468Y304653D01*
X507463Y304677D01*
X507403Y304815D01*
X507348Y304955D01*
X507334Y304975D01*
X507324Y304997D01*
X507235Y305117D01*
X507149Y305241D01*
X507131Y305257D01*
X507116Y305277D01*
X507001Y305374D01*
X506890Y305474D01*
X506869Y305486D01*
X506850Y305502D01*
X506716Y305570D01*
X506585Y305643D01*
X506562Y305649D01*
X506540Y305660D01*
X506394Y305697D01*
X506250Y305738D01*
X506220Y305740D01*
X506202Y305745D01*
X506155Y305745D01*
X506006Y305757D01*
X505288Y305757D01*
X503338Y306565D01*
X501845Y308058D01*
X501037Y310008D01*
X501037Y312120D01*
X501845Y314070D01*
X503338Y315563D01*
X505288Y316371D01*
X507400Y316371D01*
X509350Y315563D01*
X510354Y314559D01*
X510453Y314480D01*
X510547Y314396D01*
X510589Y314372D01*
X510627Y314342D01*
X510741Y314288D01*
X510852Y314227D01*
X510898Y314214D01*
X510942Y314193D01*
X511065Y314167D01*
X511187Y314132D01*
X511248Y314127D01*
X511283Y314120D01*
X511331Y314121D01*
X511431Y314113D01*
X516848Y314113D01*
X516974Y314127D01*
X517100Y314134D01*
X517146Y314147D01*
X517194Y314153D01*
X517313Y314195D01*
X517435Y314230D01*
X517477Y314254D01*
X517522Y314270D01*
X517628Y314339D01*
X517739Y314400D01*
X517785Y314440D01*
X517815Y314459D01*
X517849Y314494D01*
X517925Y314559D01*
X519072Y315706D01*
X519088Y315726D01*
X519108Y315743D01*
X519196Y315863D01*
X519289Y315979D01*
X519300Y316003D01*
X519315Y316024D01*
X519374Y316160D01*
X519438Y316294D01*
X519443Y316320D01*
X519453Y316344D01*
X519480Y316490D01*
X519511Y316635D01*
X519510Y316661D01*
X519515Y316687D01*
X519507Y316835D01*
X519505Y316983D01*
X519499Y317009D01*
X519497Y317035D01*
X519456Y317177D01*
X519420Y317321D01*
X519408Y317344D01*
X519401Y317370D01*
X519328Y317499D01*
X519260Y317631D01*
X519243Y317651D01*
X519230Y317674D01*
X519072Y317860D01*
X516816Y320116D01*
X510116Y326816D01*
X507860Y329072D01*
X507840Y329088D01*
X507823Y329108D01*
X507703Y329197D01*
X507587Y329289D01*
X507563Y329300D01*
X507542Y329315D01*
X507406Y329374D01*
X507272Y329438D01*
X507246Y329443D01*
X507222Y329453D01*
X507076Y329480D01*
X506931Y329511D01*
X506905Y329510D01*
X506879Y329515D01*
X506731Y329507D01*
X506583Y329505D01*
X506557Y329499D01*
X506531Y329497D01*
X506389Y329456D01*
X506245Y329420D01*
X506222Y329408D01*
X506196Y329401D01*
X506066Y329328D01*
X505935Y329260D01*
X505915Y329243D01*
X505892Y329230D01*
X505706Y329072D01*
X499073Y322439D01*
X496841Y320207D01*
X496191Y320207D01*
X496065Y320193D01*
X495939Y320186D01*
X495893Y320173D01*
X495845Y320167D01*
X495726Y320125D01*
X495604Y320090D01*
X495562Y320066D01*
X495517Y320050D01*
X495411Y319981D01*
X495300Y319920D01*
X495254Y319880D01*
X495224Y319861D01*
X495190Y319826D01*
X495114Y319761D01*
X494077Y318724D01*
X493949Y318659D01*
X493931Y318643D01*
X493910Y318631D01*
X493799Y318530D01*
X493684Y318433D01*
X493670Y318413D01*
X493652Y318397D01*
X493566Y318274D01*
X493477Y318152D01*
X493467Y318130D01*
X493454Y318110D01*
X493398Y317971D01*
X493339Y317832D01*
X493335Y317809D01*
X493326Y317786D01*
X493304Y317638D01*
X493277Y317489D01*
X493278Y317465D01*
X493275Y317441D01*
X493287Y317292D01*
X493295Y317141D01*
X493302Y317118D01*
X493304Y317094D01*
X493350Y316950D01*
X493392Y316806D01*
X493403Y316785D01*
X493411Y316762D01*
X493488Y316634D01*
X493562Y316502D01*
X493581Y316480D01*
X493590Y316464D01*
X493623Y316430D01*
X493720Y316316D01*
X494533Y315504D01*
X494533Y301240D01*
X493835Y300543D01*
X493803Y300502D01*
X493765Y300468D01*
X493695Y300367D01*
X493618Y300270D01*
X493596Y300223D01*
X493567Y300181D01*
X493522Y300066D01*
X493469Y299954D01*
X493459Y299905D01*
X493440Y299857D01*
X493422Y299735D01*
X493396Y299614D01*
X493397Y299563D01*
X493389Y299512D01*
X493400Y299389D01*
X493402Y299265D01*
X493414Y299216D01*
X493419Y299165D01*
X493457Y299047D01*
X493487Y298927D01*
X493510Y298882D01*
X493526Y298833D01*
X493590Y298727D01*
X493647Y298618D01*
X493680Y298579D01*
X493706Y298535D01*
X493792Y298446D01*
X493872Y298352D01*
X493913Y298322D01*
X493949Y298285D01*
X494150Y298146D01*
X494568Y297905D01*
X495041Y297432D01*
X495376Y296853D01*
X495549Y296207D01*
X495549Y292419D01*
X486532Y292419D01*
X486506Y292416D01*
X486480Y292418D01*
X486333Y292396D01*
X486186Y292379D01*
X486161Y292370D01*
X486135Y292367D01*
X485997Y292312D01*
X485858Y292262D01*
X485836Y292248D01*
X485811Y292238D01*
X485690Y292153D01*
X485565Y292073D01*
X485547Y292054D01*
X485525Y292039D01*
X485426Y291929D01*
X485323Y291822D01*
X485309Y291800D01*
X485292Y291780D01*
X485220Y291650D01*
X485144Y291523D01*
X485136Y291498D01*
X485123Y291475D01*
X485083Y291332D01*
X485038Y291191D01*
X485036Y291165D01*
X485028Y291140D01*
X485009Y290896D01*
X485009Y289371D01*
X485007Y289371D01*
X485007Y290896D01*
X485004Y290922D01*
X485006Y290948D01*
X484984Y291095D01*
X484967Y291242D01*
X484958Y291267D01*
X484955Y291293D01*
X484900Y291431D01*
X484850Y291570D01*
X484836Y291592D01*
X484826Y291617D01*
X484741Y291738D01*
X484661Y291863D01*
X484642Y291881D01*
X484627Y291903D01*
X484517Y292002D01*
X484410Y292105D01*
X484388Y292119D01*
X484368Y292136D01*
X484238Y292208D01*
X484111Y292284D01*
X484086Y292292D01*
X484063Y292305D01*
X483920Y292345D01*
X483779Y292390D01*
X483753Y292392D01*
X483728Y292400D01*
X483484Y292419D01*
X474467Y292419D01*
X474467Y296207D01*
X474640Y296853D01*
X474975Y297432D01*
X475448Y297905D01*
X475866Y298146D01*
X475907Y298177D01*
X475952Y298200D01*
X476046Y298280D01*
X476146Y298354D01*
X476179Y298393D01*
X476217Y298426D01*
X476291Y298525D01*
X476371Y298620D01*
X476394Y298665D01*
X476425Y298706D01*
X476474Y298820D01*
X476530Y298930D01*
X476542Y298979D01*
X476563Y299026D01*
X476584Y299148D01*
X476614Y299268D01*
X476615Y299319D01*
X476624Y299369D01*
X476618Y299493D01*
X476620Y299616D01*
X476609Y299666D01*
X476606Y299717D01*
X476572Y299836D01*
X476546Y299957D01*
X476524Y300003D01*
X476510Y300052D01*
X476449Y300160D01*
X476396Y300272D01*
X476365Y300312D01*
X476340Y300356D01*
X476181Y300543D01*
X475483Y301240D01*
X475483Y303800D01*
X475480Y303826D01*
X475482Y303852D01*
X475460Y303999D01*
X475443Y304146D01*
X475435Y304171D01*
X475431Y304197D01*
X475376Y304335D01*
X475326Y304474D01*
X475312Y304496D01*
X475302Y304521D01*
X475217Y304642D01*
X475137Y304767D01*
X475118Y304785D01*
X475103Y304807D01*
X474993Y304906D01*
X474886Y305009D01*
X474864Y305023D01*
X474844Y305040D01*
X474714Y305112D01*
X474587Y305188D01*
X474562Y305196D01*
X474539Y305209D01*
X474396Y305249D01*
X474255Y305294D01*
X474229Y305296D01*
X474204Y305304D01*
X473960Y305323D01*
X463221Y305323D01*
X462235Y306310D01*
X462175Y306357D01*
X462122Y306412D01*
X462039Y306465D01*
X461962Y306526D01*
X461893Y306559D01*
X461828Y306600D01*
X461736Y306633D01*
X461647Y306675D01*
X461572Y306691D01*
X461500Y306717D01*
X461402Y306728D01*
X461306Y306748D01*
X461230Y306747D01*
X461154Y306756D01*
X461056Y306744D01*
X460958Y306743D01*
X460883Y306724D01*
X460808Y306715D01*
X460665Y306669D01*
X460620Y306658D01*
X460603Y306649D01*
X460575Y306640D01*
X458377Y305729D01*
X454031Y305729D01*
X451833Y306640D01*
X451759Y306661D01*
X451689Y306691D01*
X451593Y306708D01*
X451498Y306735D01*
X451422Y306739D01*
X451346Y306753D01*
X451248Y306748D01*
X451150Y306752D01*
X451075Y306739D01*
X450998Y306735D01*
X450904Y306708D01*
X450807Y306690D01*
X450737Y306659D01*
X450664Y306638D01*
X450578Y306590D01*
X450487Y306551D01*
X450426Y306505D01*
X450359Y306468D01*
X450246Y306371D01*
X450208Y306343D01*
X450195Y306328D01*
X450173Y306310D01*
X441146Y297283D01*
X441099Y297223D01*
X441044Y297170D01*
X440991Y297087D01*
X440930Y297010D01*
X440897Y296941D01*
X440856Y296876D01*
X440823Y296784D01*
X440781Y296695D01*
X440765Y296620D01*
X440739Y296548D01*
X440728Y296450D01*
X440708Y296354D01*
X440709Y296278D01*
X440700Y296202D01*
X440712Y296104D01*
X440713Y296006D01*
X440732Y295931D01*
X440741Y295856D01*
X440787Y295713D01*
X440798Y295668D01*
X440807Y295651D01*
X440816Y295623D01*
X441727Y293425D01*
X441727Y289079D01*
X440064Y285065D01*
X436991Y281992D01*
X432977Y280329D01*
X428631Y280329D01*
X424617Y281992D01*
X422761Y283848D01*
X422683Y283910D01*
X422610Y283980D01*
X422546Y284018D01*
X422488Y284064D01*
X422397Y284107D01*
X422311Y284159D01*
X422240Y284182D01*
X422173Y284213D01*
X422075Y284235D01*
X421979Y284265D01*
X421905Y284271D01*
X421832Y284287D01*
X421732Y284285D01*
X421632Y284293D01*
X421558Y284282D01*
X421484Y284281D01*
X421387Y284256D01*
X421287Y284241D01*
X421218Y284214D01*
X421146Y284196D01*
X421057Y284150D01*
X420963Y284113D01*
X420902Y284070D01*
X420836Y284036D01*
X420760Y283971D01*
X420677Y283914D01*
X420627Y283859D01*
X420571Y283810D01*
X420511Y283730D01*
X420444Y283655D01*
X420408Y283590D01*
X420363Y283530D01*
X420324Y283438D01*
X420275Y283350D01*
X420255Y283278D01*
X420225Y283210D01*
X420208Y283111D01*
X420180Y283015D01*
X420172Y282915D01*
X420164Y282867D01*
X420166Y282831D01*
X420161Y282771D01*
X420161Y250746D01*
X420162Y250731D01*
X420161Y250716D01*
X420182Y250558D01*
X420201Y250400D01*
X420206Y250386D01*
X420208Y250371D01*
X420264Y250222D01*
X420318Y250072D01*
X420326Y250059D01*
X420332Y250045D01*
X420421Y249913D01*
X420507Y249779D01*
X420518Y249769D01*
X420526Y249756D01*
X420643Y249647D01*
X420758Y249537D01*
X420771Y249529D01*
X420782Y249519D01*
X420920Y249440D01*
X421057Y249358D01*
X421071Y249353D01*
X421084Y249346D01*
X421237Y249300D01*
X421389Y249252D01*
X421404Y249251D01*
X421418Y249246D01*
X421577Y249237D01*
X421736Y249224D01*
X421751Y249226D01*
X421766Y249225D01*
X421923Y249252D01*
X422081Y249275D01*
X422095Y249281D01*
X422110Y249284D01*
X422256Y249345D01*
X422405Y249404D01*
X422417Y249413D01*
X422431Y249419D01*
X422634Y249555D01*
X429688Y255181D01*
X440960Y259605D01*
X453036Y260510D01*
X464841Y257815D01*
X475328Y251761D01*
X483565Y242884D01*
X488819Y231974D01*
X490624Y220000D01*
X488819Y208026D01*
X483565Y197116D01*
X475328Y188239D01*
X464841Y182185D01*
X453036Y179490D01*
X440960Y180395D01*
X429688Y184819D01*
X422634Y190445D01*
X422621Y190453D01*
X422610Y190463D01*
X422473Y190545D01*
X422338Y190630D01*
X422324Y190634D01*
X422311Y190642D01*
X422160Y190690D01*
X422008Y190742D01*
X421993Y190744D01*
X421979Y190748D01*
X421821Y190761D01*
X421662Y190777D01*
X421647Y190775D01*
X421632Y190776D01*
X421474Y190753D01*
X421316Y190732D01*
X421302Y190727D01*
X421287Y190725D01*
X421139Y190666D01*
X420990Y190610D01*
X420977Y190601D01*
X420963Y190596D01*
X420833Y190505D01*
X420700Y190416D01*
X420689Y190405D01*
X420677Y190397D01*
X420571Y190279D01*
X420461Y190162D01*
X420454Y190149D01*
X420444Y190138D01*
X420366Y189998D01*
X420287Y189861D01*
X420282Y189846D01*
X420275Y189833D01*
X420232Y189679D01*
X420185Y189527D01*
X420184Y189512D01*
X420180Y189498D01*
X420161Y189254D01*
X420161Y160746D01*
X420162Y160731D01*
X420161Y160716D01*
X420182Y160558D01*
X420201Y160400D01*
X420206Y160386D01*
X420208Y160371D01*
X420264Y160222D01*
X420318Y160072D01*
X420326Y160059D01*
X420332Y160045D01*
X420421Y159913D01*
X420507Y159779D01*
X420518Y159769D01*
X420526Y159756D01*
X420643Y159647D01*
X420758Y159537D01*
X420771Y159529D01*
X420782Y159519D01*
X420920Y159440D01*
X421057Y159358D01*
X421071Y159353D01*
X421084Y159346D01*
X421237Y159300D01*
X421389Y159252D01*
X421404Y159251D01*
X421418Y159246D01*
X421577Y159237D01*
X421736Y159224D01*
X421751Y159226D01*
X421766Y159225D01*
X421923Y159252D01*
X422081Y159275D01*
X422095Y159281D01*
X422110Y159284D01*
X422256Y159345D01*
X422405Y159404D01*
X422417Y159413D01*
X422431Y159419D01*
X422634Y159555D01*
X429688Y165181D01*
X440960Y169605D01*
X453036Y170510D01*
X464841Y167815D01*
X475328Y161761D01*
X483565Y152884D01*
X488819Y141974D01*
X490624Y130000D01*
X488819Y118026D01*
X483565Y107116D01*
X475328Y98239D01*
X464841Y92185D01*
X453036Y89490D01*
X440960Y90395D01*
X429688Y94819D01*
X422634Y100445D01*
X422621Y100453D01*
X422610Y100463D01*
X422473Y100545D01*
X422338Y100630D01*
X422324Y100634D01*
X422311Y100642D01*
X422160Y100690D01*
X422008Y100742D01*
X421993Y100744D01*
X421979Y100748D01*
X421821Y100761D01*
X421662Y100777D01*
X421647Y100775D01*
X421632Y100776D01*
X421474Y100753D01*
X421316Y100732D01*
X421302Y100727D01*
X421287Y100725D01*
X421139Y100666D01*
X420990Y100610D01*
X420977Y100601D01*
X420963Y100596D01*
X420833Y100505D01*
X420700Y100416D01*
X420689Y100405D01*
X420677Y100397D01*
X420571Y100279D01*
X420461Y100162D01*
X420454Y100149D01*
X420444Y100138D01*
X420366Y99998D01*
X420287Y99861D01*
X420282Y99846D01*
X420275Y99833D01*
X420232Y99679D01*
X420185Y99527D01*
X420184Y99512D01*
X420180Y99498D01*
X420161Y99254D01*
X420161Y60746D01*
X420162Y60731D01*
X420161Y60716D01*
X420182Y60558D01*
X420201Y60400D01*
X420206Y60386D01*
X420208Y60371D01*
X420264Y60222D01*
X420318Y60072D01*
X420326Y60059D01*
X420332Y60045D01*
X420421Y59913D01*
X420507Y59779D01*
X420518Y59769D01*
X420526Y59756D01*
X420643Y59647D01*
X420758Y59537D01*
X420771Y59529D01*
X420782Y59519D01*
X420920Y59440D01*
X421057Y59358D01*
X421071Y59353D01*
X421084Y59346D01*
X421237Y59300D01*
X421389Y59252D01*
X421404Y59251D01*
X421418Y59246D01*
X421577Y59237D01*
X421736Y59224D01*
X421751Y59226D01*
X421766Y59225D01*
X421923Y59252D01*
X422081Y59275D01*
X422095Y59281D01*
X422110Y59284D01*
X422256Y59345D01*
X422405Y59404D01*
X422417Y59413D01*
X422431Y59419D01*
X422634Y59555D01*
X429688Y65181D01*
X440960Y69605D01*
X453036Y70510D01*
X464841Y67815D01*
X475328Y61761D01*
X483565Y52884D01*
X488819Y41974D01*
X490624Y30000D01*
X488819Y18026D01*
X483565Y7116D01*
X479486Y2720D01*
X479443Y2662D01*
X479393Y2610D01*
X479340Y2522D01*
X479280Y2439D01*
X479251Y2373D01*
X479214Y2311D01*
X479183Y2213D01*
X479143Y2119D01*
X479130Y2048D01*
X479108Y1979D01*
X479100Y1877D01*
X479082Y1775D01*
X479086Y1703D01*
X479080Y1632D01*
X479095Y1530D01*
X479101Y1428D01*
X479121Y1358D01*
X479132Y1287D01*
X479170Y1192D01*
X479199Y1093D01*
X479234Y1030D01*
X479261Y963D01*
X479319Y879D01*
X479370Y789D01*
X479418Y736D01*
X479460Y677D01*
X479536Y608D01*
X479605Y533D01*
X479665Y492D01*
X479718Y444D01*
X479808Y394D01*
X479893Y336D01*
X479960Y310D01*
X480023Y275D01*
X480122Y247D01*
X480218Y210D01*
X480289Y200D01*
X480359Y180D01*
X480519Y167D01*
X480563Y161D01*
X480579Y163D01*
X480603Y161D01*
X598844Y161D01*
X598976Y176D01*
G37*
%LPC*%
G36*
X492539Y78984D02*
X492539Y78984D01*
X492536Y79010D01*
X492538Y79036D01*
X492516Y79183D01*
X492499Y79330D01*
X492491Y79355D01*
X492487Y79381D01*
X492432Y79518D01*
X492382Y79658D01*
X492368Y79680D01*
X492358Y79705D01*
X492273Y79826D01*
X492193Y79951D01*
X492174Y79969D01*
X492159Y79991D01*
X492143Y80005D01*
X492225Y80090D01*
X492239Y80113D01*
X492256Y80132D01*
X492328Y80262D01*
X492404Y80389D01*
X492412Y80414D01*
X492425Y80437D01*
X492465Y80580D01*
X492510Y80721D01*
X492512Y80747D01*
X492520Y80772D01*
X492539Y81016D01*
X492539Y91685D01*
X492796Y91645D01*
X494583Y91064D01*
X496257Y90211D01*
X497778Y89106D01*
X499106Y87778D01*
X500211Y86257D01*
X501064Y84583D01*
X501645Y82796D01*
X501655Y82733D01*
X501683Y82631D01*
X501702Y82528D01*
X501730Y82464D01*
X501748Y82397D01*
X501799Y82305D01*
X501841Y82208D01*
X501882Y82152D01*
X501916Y82091D01*
X501986Y82013D01*
X502049Y81929D01*
X502102Y81884D01*
X502148Y81832D01*
X502234Y81771D01*
X502315Y81703D01*
X502377Y81672D01*
X502434Y81632D01*
X502531Y81593D01*
X502625Y81545D01*
X502692Y81528D01*
X502757Y81502D01*
X502861Y81486D01*
X502963Y81460D01*
X503033Y81459D01*
X503101Y81449D01*
X503206Y81457D01*
X503312Y81455D01*
X503380Y81470D01*
X503449Y81476D01*
X503549Y81507D01*
X503652Y81530D01*
X503715Y81560D01*
X503781Y81581D01*
X503872Y81634D01*
X503967Y81679D01*
X504021Y81723D01*
X504081Y81758D01*
X504157Y81831D01*
X504239Y81897D01*
X504282Y81951D01*
X504333Y82000D01*
X504390Y82088D01*
X504455Y82170D01*
X504497Y82253D01*
X504523Y82292D01*
X504536Y82328D01*
X504567Y82388D01*
X506140Y86187D01*
X509213Y89260D01*
X511123Y90051D01*
X511190Y90088D01*
X511261Y90116D01*
X511342Y90173D01*
X511428Y90220D01*
X511484Y90272D01*
X511547Y90315D01*
X511613Y90388D01*
X511686Y90455D01*
X511729Y90517D01*
X511780Y90574D01*
X511828Y90660D01*
X511884Y90741D01*
X511912Y90812D01*
X511949Y90879D01*
X511976Y90974D01*
X512012Y91065D01*
X512023Y91141D01*
X512044Y91215D01*
X512056Y91363D01*
X512063Y91410D01*
X512061Y91429D01*
X512063Y91458D01*
X512063Y95751D01*
X514295Y97983D01*
X527713Y111401D01*
X527745Y111441D01*
X527783Y111475D01*
X527853Y111577D01*
X527930Y111674D01*
X527952Y111720D01*
X527981Y111762D01*
X528026Y111877D01*
X528079Y111989D01*
X528089Y112039D01*
X528108Y112086D01*
X528126Y112209D01*
X528152Y112329D01*
X528151Y112380D01*
X528159Y112431D01*
X528148Y112554D01*
X528146Y112678D01*
X528134Y112727D01*
X528129Y112778D01*
X528091Y112896D01*
X528061Y113016D01*
X528038Y113061D01*
X528022Y113110D01*
X527958Y113216D01*
X527901Y113326D01*
X527868Y113365D01*
X527842Y113408D01*
X527756Y113497D01*
X527676Y113591D01*
X527635Y113621D01*
X527599Y113658D01*
X527398Y113797D01*
X527190Y113917D01*
X526717Y114390D01*
X526382Y114969D01*
X526209Y115615D01*
X526209Y119427D01*
X530000Y119427D01*
X530026Y119430D01*
X530052Y119427D01*
X530199Y119449D01*
X530346Y119466D01*
X530371Y119475D01*
X530397Y119479D01*
X530534Y119534D01*
X530674Y119584D01*
X530696Y119598D01*
X530720Y119608D01*
X530842Y119692D01*
X530967Y119773D01*
X530985Y119792D01*
X531007Y119807D01*
X531106Y119917D01*
X531209Y120024D01*
X531223Y120047D01*
X531240Y120066D01*
X531312Y120196D01*
X531388Y120323D01*
X531396Y120348D01*
X531409Y120371D01*
X531449Y120514D01*
X531495Y120655D01*
X531497Y120681D01*
X531504Y120707D01*
X531523Y120950D01*
X531523Y128491D01*
X531585Y128491D01*
X532231Y128318D01*
X532810Y127983D01*
X532872Y127921D01*
X532971Y127842D01*
X533065Y127758D01*
X533107Y127734D01*
X533145Y127704D01*
X533259Y127650D01*
X533370Y127589D01*
X533417Y127576D01*
X533460Y127555D01*
X533584Y127529D01*
X533706Y127494D01*
X533766Y127489D01*
X533801Y127482D01*
X533849Y127483D01*
X533949Y127475D01*
X551882Y127475D01*
X552775Y126582D01*
X552775Y123836D01*
X552789Y123711D01*
X552796Y123584D01*
X552809Y123538D01*
X552815Y123490D01*
X552857Y123371D01*
X552892Y123250D01*
X552916Y123207D01*
X552932Y123162D01*
X553001Y123056D01*
X553062Y122945D01*
X553102Y122899D01*
X553121Y122869D01*
X553156Y122836D01*
X553221Y122759D01*
X553557Y122423D01*
X553557Y113520D01*
X553571Y113395D01*
X553578Y113268D01*
X553591Y113222D01*
X553597Y113174D01*
X553639Y113055D01*
X553674Y112934D01*
X553698Y112891D01*
X553714Y112846D01*
X553783Y112740D01*
X553844Y112629D01*
X553884Y112583D01*
X553903Y112553D01*
X553938Y112520D01*
X554003Y112443D01*
X555763Y110683D01*
X555862Y110604D01*
X555956Y110520D01*
X555998Y110496D01*
X556036Y110466D01*
X556150Y110412D01*
X556261Y110351D01*
X556308Y110338D01*
X556351Y110317D01*
X556475Y110291D01*
X556596Y110256D01*
X556657Y110251D01*
X556692Y110244D01*
X556740Y110245D01*
X556840Y110237D01*
X583641Y110237D01*
X595157Y98721D01*
X595157Y91367D01*
X595165Y91291D01*
X595164Y91215D01*
X595185Y91119D01*
X595197Y91021D01*
X595222Y90949D01*
X595239Y90874D01*
X595281Y90786D01*
X595314Y90693D01*
X595356Y90629D01*
X595388Y90560D01*
X595450Y90483D01*
X595503Y90400D01*
X595558Y90347D01*
X595606Y90287D01*
X595683Y90226D01*
X595754Y90158D01*
X595819Y90119D01*
X595879Y90071D01*
X596012Y90003D01*
X596053Y89979D01*
X596071Y89973D01*
X596097Y89960D01*
X597787Y89260D01*
X600860Y86187D01*
X602523Y82173D01*
X602523Y77827D01*
X600860Y73813D01*
X597787Y70740D01*
X593773Y69077D01*
X589427Y69077D01*
X585413Y70740D01*
X582340Y73813D01*
X580677Y77827D01*
X580677Y82173D01*
X582340Y86187D01*
X585413Y89260D01*
X587103Y89960D01*
X587170Y89997D01*
X587241Y90025D01*
X587322Y90081D01*
X587408Y90129D01*
X587464Y90181D01*
X587527Y90224D01*
X587593Y90297D01*
X587666Y90363D01*
X587709Y90426D01*
X587760Y90483D01*
X587808Y90569D01*
X587864Y90650D01*
X587892Y90721D01*
X587929Y90788D01*
X587956Y90883D01*
X587992Y90974D01*
X588003Y91050D01*
X588024Y91123D01*
X588036Y91272D01*
X588043Y91319D01*
X588041Y91338D01*
X588043Y91367D01*
X588043Y95144D01*
X588029Y95269D01*
X588022Y95396D01*
X588009Y95442D01*
X588003Y95490D01*
X587961Y95609D01*
X587926Y95730D01*
X587902Y95773D01*
X587886Y95818D01*
X587817Y95924D01*
X587756Y96035D01*
X587716Y96081D01*
X587697Y96111D01*
X587662Y96144D01*
X587597Y96221D01*
X581141Y102677D01*
X581042Y102756D01*
X580948Y102840D01*
X580906Y102864D01*
X580868Y102894D01*
X580754Y102948D01*
X580643Y103009D01*
X580596Y103022D01*
X580553Y103043D01*
X580429Y103069D01*
X580308Y103104D01*
X580247Y103109D01*
X580212Y103116D01*
X580164Y103115D01*
X580064Y103123D01*
X566282Y103123D01*
X566182Y103112D01*
X566082Y103110D01*
X566009Y103092D01*
X565936Y103083D01*
X565841Y103050D01*
X565744Y103025D01*
X565677Y102991D01*
X565607Y102966D01*
X565523Y102911D01*
X565434Y102865D01*
X565377Y102817D01*
X565315Y102777D01*
X565245Y102705D01*
X565168Y102640D01*
X565124Y102580D01*
X565072Y102526D01*
X565021Y102440D01*
X564961Y102359D01*
X564932Y102291D01*
X564894Y102227D01*
X564863Y102131D01*
X564823Y102039D01*
X564810Y101966D01*
X564787Y101895D01*
X564779Y101795D01*
X564762Y101696D01*
X564765Y101622D01*
X564759Y101548D01*
X564774Y101448D01*
X564779Y101348D01*
X564800Y101277D01*
X564811Y101203D01*
X564848Y101110D01*
X564876Y101013D01*
X564912Y100948D01*
X564940Y100879D01*
X564997Y100797D01*
X565046Y100709D01*
X565111Y100633D01*
X565139Y100593D01*
X565165Y100569D01*
X565205Y100523D01*
X567745Y97983D01*
X569977Y95751D01*
X569977Y91276D01*
X569985Y91200D01*
X569984Y91124D01*
X570005Y91028D01*
X570017Y90930D01*
X570042Y90858D01*
X570059Y90783D01*
X570101Y90695D01*
X570134Y90602D01*
X570176Y90537D01*
X570208Y90469D01*
X570270Y90392D01*
X570323Y90309D01*
X570378Y90256D01*
X570426Y90196D01*
X570503Y90135D01*
X570574Y90067D01*
X570639Y90028D01*
X570699Y89980D01*
X570832Y89912D01*
X570873Y89888D01*
X570891Y89882D01*
X570917Y89869D01*
X572387Y89260D01*
X575460Y86187D01*
X577123Y82173D01*
X577123Y77827D01*
X575460Y73813D01*
X572387Y70740D01*
X568373Y69077D01*
X564027Y69077D01*
X560013Y70740D01*
X556940Y73813D01*
X555277Y77827D01*
X555277Y82173D01*
X556940Y86187D01*
X560013Y89260D01*
X562939Y90472D01*
X563006Y90509D01*
X563077Y90537D01*
X563158Y90593D01*
X563244Y90641D01*
X563300Y90693D01*
X563363Y90736D01*
X563429Y90809D01*
X563502Y90875D01*
X563545Y90938D01*
X563596Y90995D01*
X563644Y91081D01*
X563700Y91162D01*
X563728Y91233D01*
X563765Y91300D01*
X563792Y91395D01*
X563828Y91486D01*
X563839Y91562D01*
X563860Y91635D01*
X563872Y91784D01*
X563879Y91831D01*
X563877Y91850D01*
X563879Y91879D01*
X563879Y92594D01*
X563865Y92720D01*
X563858Y92846D01*
X563845Y92892D01*
X563839Y92940D01*
X563797Y93059D01*
X563762Y93181D01*
X563738Y93223D01*
X563722Y93269D01*
X563653Y93375D01*
X563592Y93485D01*
X563552Y93531D01*
X563533Y93561D01*
X563498Y93595D01*
X563433Y93671D01*
X563063Y94041D01*
X562964Y94120D01*
X562870Y94204D01*
X562828Y94228D01*
X562790Y94258D01*
X562676Y94312D01*
X562565Y94373D01*
X562519Y94386D01*
X562475Y94407D01*
X562352Y94433D01*
X562230Y94468D01*
X562169Y94473D01*
X562134Y94480D01*
X562086Y94479D01*
X561986Y94487D01*
X553473Y94487D01*
X545649Y102311D01*
X545571Y102374D01*
X545498Y102444D01*
X545434Y102482D01*
X545376Y102528D01*
X545285Y102571D01*
X545199Y102622D01*
X545128Y102645D01*
X545061Y102677D01*
X544963Y102698D01*
X544867Y102729D01*
X544793Y102735D01*
X544720Y102750D01*
X544620Y102749D01*
X544520Y102757D01*
X544446Y102746D01*
X544372Y102744D01*
X544275Y102720D01*
X544175Y102705D01*
X544106Y102677D01*
X544034Y102659D01*
X543944Y102613D01*
X543851Y102576D01*
X543790Y102534D01*
X543724Y102500D01*
X543647Y102434D01*
X543565Y102377D01*
X543515Y102322D01*
X543459Y102274D01*
X543399Y102193D01*
X543332Y102118D01*
X543296Y102053D01*
X543251Y101994D01*
X543212Y101901D01*
X543163Y101813D01*
X543143Y101742D01*
X543113Y101674D01*
X543096Y101575D01*
X543068Y101478D01*
X543060Y101378D01*
X543052Y101331D01*
X543054Y101295D01*
X543049Y101234D01*
X543049Y91909D01*
X543057Y91833D01*
X543056Y91757D01*
X543077Y91660D01*
X543089Y91563D01*
X543114Y91491D01*
X543131Y91416D01*
X543173Y91327D01*
X543206Y91235D01*
X543248Y91170D01*
X543280Y91101D01*
X543342Y91025D01*
X543395Y90942D01*
X543450Y90889D01*
X543498Y90829D01*
X543575Y90768D01*
X543646Y90700D01*
X543711Y90660D01*
X543771Y90613D01*
X543904Y90545D01*
X543945Y90521D01*
X543963Y90515D01*
X543989Y90502D01*
X546987Y89260D01*
X550060Y86187D01*
X551723Y82173D01*
X551723Y77827D01*
X550060Y73813D01*
X546987Y70740D01*
X542973Y69077D01*
X538627Y69077D01*
X534613Y70740D01*
X531540Y73813D01*
X529877Y77827D01*
X529877Y82173D01*
X531540Y86187D01*
X534613Y89260D01*
X536011Y89839D01*
X536078Y89876D01*
X536149Y89904D01*
X536230Y89960D01*
X536316Y90008D01*
X536372Y90060D01*
X536435Y90103D01*
X536501Y90176D01*
X536574Y90242D01*
X536617Y90305D01*
X536668Y90362D01*
X536716Y90448D01*
X536772Y90529D01*
X536800Y90600D01*
X536837Y90667D01*
X536864Y90762D01*
X536900Y90853D01*
X536911Y90929D01*
X536932Y91002D01*
X536944Y91151D01*
X536951Y91198D01*
X536949Y91217D01*
X536951Y91246D01*
X536951Y108338D01*
X536950Y108353D01*
X536950Y108364D01*
X536942Y108422D01*
X536940Y108438D01*
X536938Y108538D01*
X536920Y108611D01*
X536911Y108684D01*
X536878Y108779D01*
X536853Y108876D01*
X536819Y108943D01*
X536794Y109013D01*
X536739Y109097D01*
X536693Y109186D01*
X536645Y109243D01*
X536605Y109305D01*
X536533Y109375D01*
X536468Y109452D01*
X536408Y109496D01*
X536354Y109548D01*
X536268Y109599D01*
X536187Y109659D01*
X536119Y109688D01*
X536055Y109726D01*
X535959Y109757D01*
X535867Y109797D01*
X535794Y109810D01*
X535723Y109833D01*
X535623Y109841D01*
X535524Y109858D01*
X535450Y109855D01*
X535376Y109861D01*
X535276Y109846D01*
X535176Y109841D01*
X535105Y109820D01*
X535031Y109809D01*
X534938Y109772D01*
X534841Y109744D01*
X534776Y109708D01*
X534707Y109680D01*
X534625Y109623D01*
X534537Y109574D01*
X534461Y109509D01*
X534421Y109481D01*
X534397Y109455D01*
X534351Y109415D01*
X518607Y93671D01*
X518528Y93572D01*
X518444Y93478D01*
X518420Y93436D01*
X518390Y93398D01*
X518336Y93284D01*
X518275Y93173D01*
X518262Y93127D01*
X518241Y93083D01*
X518215Y92960D01*
X518180Y92838D01*
X518175Y92777D01*
X518168Y92742D01*
X518169Y92694D01*
X518161Y92594D01*
X518161Y91697D01*
X518169Y91621D01*
X518168Y91545D01*
X518189Y91448D01*
X518201Y91351D01*
X518226Y91279D01*
X518243Y91204D01*
X518285Y91115D01*
X518318Y91023D01*
X518360Y90958D01*
X518392Y90889D01*
X518454Y90812D01*
X518507Y90730D01*
X518562Y90677D01*
X518610Y90617D01*
X518687Y90556D01*
X518758Y90488D01*
X518823Y90448D01*
X518883Y90401D01*
X519017Y90333D01*
X519057Y90309D01*
X519075Y90303D01*
X519101Y90290D01*
X521587Y89260D01*
X524660Y86187D01*
X526323Y82173D01*
X526323Y77827D01*
X524660Y73813D01*
X521587Y70740D01*
X517573Y69077D01*
X513227Y69077D01*
X509213Y70740D01*
X506140Y73813D01*
X504567Y77612D01*
X504515Y77704D01*
X504473Y77800D01*
X504431Y77856D01*
X504397Y77916D01*
X504326Y77994D01*
X504263Y78078D01*
X504210Y78123D01*
X504163Y78175D01*
X504076Y78235D01*
X503996Y78302D01*
X503934Y78333D01*
X503876Y78373D01*
X503778Y78411D01*
X503685Y78459D01*
X503617Y78475D01*
X503552Y78501D01*
X503448Y78516D01*
X503346Y78541D01*
X503276Y78541D01*
X503207Y78551D01*
X503102Y78543D01*
X502997Y78544D01*
X502929Y78528D01*
X502860Y78523D01*
X502760Y78490D01*
X502657Y78467D01*
X502595Y78437D01*
X502528Y78415D01*
X502438Y78361D01*
X502344Y78315D01*
X502289Y78272D01*
X502230Y78236D01*
X502154Y78162D01*
X502073Y78096D01*
X502030Y78042D01*
X501980Y77993D01*
X501923Y77904D01*
X501858Y77821D01*
X501829Y77758D01*
X501792Y77700D01*
X501756Y77601D01*
X501712Y77505D01*
X501690Y77415D01*
X501675Y77371D01*
X501671Y77333D01*
X501655Y77267D01*
X501645Y77204D01*
X501064Y75417D01*
X500211Y73743D01*
X499106Y72222D01*
X497778Y70894D01*
X496257Y69789D01*
X494583Y68936D01*
X492796Y68355D01*
X492539Y68315D01*
X492539Y78984D01*
G37*
%LPD*%
G36*
X471048Y356799D02*
X471048Y356799D01*
X471174Y356806D01*
X471220Y356819D01*
X471268Y356825D01*
X471387Y356867D01*
X471509Y356902D01*
X471551Y356926D01*
X471597Y356942D01*
X471703Y357011D01*
X471813Y357072D01*
X471859Y357112D01*
X471889Y357131D01*
X471923Y357166D01*
X471999Y357231D01*
X475041Y360273D01*
X475120Y360372D01*
X475204Y360466D01*
X475228Y360508D01*
X475258Y360546D01*
X475312Y360660D01*
X475373Y360771D01*
X475386Y360817D01*
X475407Y360861D01*
X475433Y360984D01*
X475468Y361106D01*
X475473Y361167D01*
X475480Y361202D01*
X475479Y361250D01*
X475487Y361350D01*
X475487Y370071D01*
X486417Y381001D01*
X509775Y381001D01*
X512007Y378769D01*
X512777Y377999D01*
X512798Y377983D01*
X512815Y377963D01*
X512933Y377875D01*
X513050Y377782D01*
X513074Y377771D01*
X513095Y377756D01*
X513231Y377697D01*
X513365Y377634D01*
X513391Y377628D01*
X513415Y377618D01*
X513561Y377591D01*
X513706Y377560D01*
X513732Y377561D01*
X513758Y377556D01*
X513906Y377564D01*
X514054Y377566D01*
X514080Y377573D01*
X514106Y377574D01*
X514248Y377615D01*
X514392Y377651D01*
X514416Y377663D01*
X514441Y377670D01*
X514570Y377743D01*
X514702Y377811D01*
X514722Y377828D01*
X514745Y377841D01*
X514931Y377999D01*
X515536Y378604D01*
X515553Y378625D01*
X515573Y378642D01*
X515661Y378761D01*
X515753Y378877D01*
X515764Y378901D01*
X515780Y378922D01*
X515838Y379058D01*
X515902Y379193D01*
X515908Y379218D01*
X515918Y379242D01*
X515944Y379388D01*
X515975Y379533D01*
X515975Y379559D01*
X515980Y379585D01*
X515972Y379733D01*
X515969Y379882D01*
X515963Y379907D01*
X515962Y379933D01*
X515921Y380076D01*
X515884Y380220D01*
X515872Y380243D01*
X515865Y380268D01*
X515792Y380398D01*
X515725Y380529D01*
X515708Y380549D01*
X515695Y380572D01*
X515536Y380759D01*
X512526Y383769D01*
X512427Y383848D01*
X512333Y383932D01*
X512291Y383956D01*
X512253Y383986D01*
X512139Y384040D01*
X512028Y384101D01*
X511981Y384114D01*
X511938Y384135D01*
X511814Y384161D01*
X511693Y384196D01*
X511632Y384201D01*
X511597Y384208D01*
X511549Y384207D01*
X511449Y384215D01*
X452510Y384215D01*
X452384Y384201D01*
X452258Y384194D01*
X452212Y384181D01*
X452164Y384175D01*
X452045Y384133D01*
X451923Y384098D01*
X451881Y384074D01*
X451835Y384058D01*
X451729Y383989D01*
X451619Y383928D01*
X451573Y383888D01*
X451543Y383869D01*
X451509Y383834D01*
X451433Y383769D01*
X446737Y379073D01*
X446703Y379030D01*
X446662Y378993D01*
X446594Y378894D01*
X446520Y378800D01*
X446497Y378750D01*
X446466Y378705D01*
X446422Y378593D01*
X446371Y378485D01*
X446360Y378431D01*
X446340Y378380D01*
X446323Y378261D01*
X446298Y378144D01*
X446299Y378089D01*
X446291Y378035D01*
X446302Y377916D01*
X446304Y377796D01*
X446317Y377743D01*
X446322Y377688D01*
X446360Y377574D01*
X446389Y377458D01*
X446414Y377409D01*
X446431Y377357D01*
X446494Y377255D01*
X446549Y377148D01*
X446584Y377106D01*
X446613Y377059D01*
X446697Y376974D01*
X446774Y376883D01*
X446819Y376850D01*
X446857Y376811D01*
X446958Y376747D01*
X447055Y376676D01*
X447105Y376654D01*
X447152Y376624D01*
X447265Y376585D01*
X447375Y376538D01*
X447429Y376528D01*
X447481Y376510D01*
X447600Y376497D01*
X447718Y376476D01*
X447773Y376479D01*
X447828Y376473D01*
X447946Y376488D01*
X448066Y376494D01*
X448119Y376509D01*
X448173Y376516D01*
X448286Y376557D01*
X448401Y376590D01*
X448449Y376617D01*
X448501Y376636D01*
X448695Y376755D01*
X448705Y376761D01*
X448707Y376762D01*
X448709Y376764D01*
X449947Y377663D01*
X451621Y378516D01*
X453408Y379097D01*
X453665Y379137D01*
X453665Y368468D01*
X453668Y368442D01*
X453666Y368416D01*
X453688Y368269D01*
X453705Y368122D01*
X453713Y368097D01*
X453717Y368071D01*
X453772Y367934D01*
X453822Y367794D01*
X453836Y367772D01*
X453846Y367747D01*
X453931Y367626D01*
X454011Y367501D01*
X454030Y367483D01*
X454045Y367461D01*
X454155Y367362D01*
X454262Y367259D01*
X454284Y367245D01*
X454304Y367228D01*
X454434Y367156D01*
X454561Y367080D01*
X454586Y367072D01*
X454609Y367059D01*
X454752Y367019D01*
X454893Y366974D01*
X454919Y366972D01*
X454944Y366965D01*
X455188Y366945D01*
X455697Y366945D01*
X455697Y366436D01*
X455700Y366410D01*
X455698Y366384D01*
X455720Y366237D01*
X455737Y366090D01*
X455746Y366065D01*
X455750Y366039D01*
X455804Y365901D01*
X455854Y365762D01*
X455869Y365740D01*
X455878Y365715D01*
X455963Y365594D01*
X456043Y365469D01*
X456062Y365451D01*
X456077Y365429D01*
X456187Y365330D01*
X456294Y365227D01*
X456317Y365213D01*
X456336Y365196D01*
X456466Y365124D01*
X456593Y365048D01*
X456618Y365040D01*
X456641Y365027D01*
X456784Y364987D01*
X456925Y364942D01*
X456951Y364939D01*
X456976Y364932D01*
X457220Y364913D01*
X467889Y364913D01*
X467849Y364656D01*
X467268Y362869D01*
X466415Y361195D01*
X465311Y359675D01*
X465021Y359385D01*
X464959Y359306D01*
X464889Y359234D01*
X464851Y359170D01*
X464804Y359112D01*
X464761Y359021D01*
X464710Y358935D01*
X464687Y358864D01*
X464655Y358797D01*
X464634Y358699D01*
X464604Y358603D01*
X464598Y358529D01*
X464582Y358456D01*
X464584Y358356D01*
X464576Y358256D01*
X464587Y358182D01*
X464588Y358108D01*
X464613Y358010D01*
X464627Y357911D01*
X464655Y357842D01*
X464673Y357770D01*
X464719Y357681D01*
X464756Y357587D01*
X464799Y357526D01*
X464833Y357460D01*
X464898Y357384D01*
X464955Y357301D01*
X465010Y357251D01*
X465058Y357195D01*
X465139Y357135D01*
X465214Y357068D01*
X465279Y357032D01*
X465339Y356987D01*
X465431Y356948D01*
X465519Y356899D01*
X465590Y356879D01*
X465659Y356849D01*
X465758Y356832D01*
X465854Y356804D01*
X465955Y356796D01*
X466002Y356788D01*
X466037Y356790D01*
X466098Y356785D01*
X470922Y356785D01*
X471048Y356799D01*
G37*
G36*
X584670Y345285D02*
X584670Y345285D01*
X584796Y345292D01*
X584842Y345305D01*
X584890Y345310D01*
X585009Y345353D01*
X585131Y345388D01*
X585173Y345412D01*
X585218Y345428D01*
X585325Y345497D01*
X585435Y345558D01*
X585481Y345598D01*
X585511Y345617D01*
X585545Y345652D01*
X585621Y345717D01*
X597337Y357433D01*
X597416Y357532D01*
X597500Y357626D01*
X597524Y357668D01*
X597554Y357706D01*
X597608Y357820D01*
X597669Y357931D01*
X597682Y357977D01*
X597703Y358021D01*
X597729Y358144D01*
X597764Y358266D01*
X597769Y358327D01*
X597776Y358362D01*
X597775Y358410D01*
X597783Y358510D01*
X597783Y375046D01*
X597772Y375145D01*
X597770Y375246D01*
X597752Y375318D01*
X597743Y375392D01*
X597710Y375486D01*
X597685Y375584D01*
X597651Y375650D01*
X597626Y375720D01*
X597571Y375804D01*
X597525Y375893D01*
X597477Y375950D01*
X597437Y376013D01*
X597365Y376082D01*
X597300Y376159D01*
X597240Y376203D01*
X597186Y376255D01*
X597100Y376306D01*
X597019Y376366D01*
X596951Y376396D01*
X596887Y376434D01*
X596791Y376464D01*
X596699Y376504D01*
X596626Y376517D01*
X596555Y376540D01*
X596455Y376548D01*
X596356Y376566D01*
X596282Y376562D01*
X596208Y376568D01*
X596108Y376553D01*
X596008Y376548D01*
X595937Y376527D01*
X595863Y376516D01*
X595770Y376479D01*
X595673Y376451D01*
X595608Y376415D01*
X595539Y376387D01*
X595457Y376330D01*
X595369Y376281D01*
X595293Y376216D01*
X595253Y376189D01*
X595229Y376162D01*
X595183Y376123D01*
X573510Y354450D01*
X573496Y354442D01*
X573450Y354402D01*
X573420Y354383D01*
X573386Y354348D01*
X573310Y354283D01*
X570103Y351077D01*
X570087Y351057D01*
X570067Y351040D01*
X569979Y350920D01*
X569887Y350804D01*
X569876Y350780D01*
X569860Y350759D01*
X569801Y350623D01*
X569738Y350489D01*
X569732Y350463D01*
X569722Y350439D01*
X569696Y350293D01*
X569665Y350148D01*
X569665Y350122D01*
X569660Y350096D01*
X569668Y349948D01*
X569670Y349800D01*
X569677Y349774D01*
X569678Y349748D01*
X569719Y349606D01*
X569755Y349462D01*
X569768Y349438D01*
X569775Y349413D01*
X569847Y349284D01*
X569915Y349152D01*
X569932Y349132D01*
X569945Y349109D01*
X570103Y348923D01*
X573310Y345717D01*
X573409Y345638D01*
X573502Y345553D01*
X573545Y345530D01*
X573583Y345500D01*
X573697Y345446D01*
X573808Y345385D01*
X573854Y345372D01*
X573898Y345351D01*
X574021Y345325D01*
X574143Y345290D01*
X574204Y345285D01*
X574238Y345278D01*
X574286Y345279D01*
X574387Y345271D01*
X584544Y345271D01*
X584670Y345285D01*
G37*
%LPC*%
G36*
X454031Y280329D02*
X454031Y280329D01*
X450017Y281992D01*
X446944Y285065D01*
X445281Y289079D01*
X445281Y293425D01*
X446944Y297439D01*
X450017Y300512D01*
X454031Y302175D01*
X458377Y302175D01*
X462391Y300512D01*
X465464Y297439D01*
X467127Y293425D01*
X467127Y289079D01*
X465464Y285065D01*
X462391Y281992D01*
X458377Y280329D01*
X454031Y280329D01*
G37*
%LPD*%
%LPC*%
G36*
X1009508Y389385D02*
X1009508Y389385D01*
X1009500Y389386D01*
X1009495Y389388D01*
X1009472Y389391D01*
X1009266Y389426D01*
X1008886Y389459D01*
X1008718Y389455D01*
X1008551Y389452D01*
X1008544Y389450D01*
X1008538Y389450D01*
X1008482Y389435D01*
X1008281Y389489D01*
X1008271Y389491D01*
X1008261Y389494D01*
X1008020Y389535D01*
X1007803Y389554D01*
X1007672Y389632D01*
X1007665Y389635D01*
X1007660Y389637D01*
X1007639Y389644D01*
X1007441Y389714D01*
X1007073Y389813D01*
X1006907Y389837D01*
X1006741Y389863D01*
X1006734Y389863D01*
X1006728Y389864D01*
X1006671Y389859D01*
X1006482Y389947D01*
X1006472Y389950D01*
X1006463Y389956D01*
X1006233Y390038D01*
X1006022Y390094D01*
X1005907Y390194D01*
X1005900Y390198D01*
X1005896Y390201D01*
X1005876Y390211D01*
X1005694Y390315D01*
X1005348Y390476D01*
X1005190Y390529D01*
X1005030Y390583D01*
X1005024Y390584D01*
X1005018Y390586D01*
X1004960Y390591D01*
X1004790Y390711D01*
X1004781Y390716D01*
X1004773Y390723D01*
X1004560Y390843D01*
X1004362Y390936D01*
X1004266Y391054D01*
X1004260Y391058D01*
X1004257Y391062D01*
X1004239Y391076D01*
X1004078Y391209D01*
X1003765Y391428D01*
X1003618Y391508D01*
X1003471Y391589D01*
X1003464Y391591D01*
X1003459Y391594D01*
X1003403Y391609D01*
X1003256Y391756D01*
X1003248Y391763D01*
X1003241Y391771D01*
X1003053Y391927D01*
X1002874Y392052D01*
X1002800Y392185D01*
X1002795Y392191D01*
X1002792Y392195D01*
X1002777Y392212D01*
X1002641Y392371D01*
X1002371Y392641D01*
X1002241Y392745D01*
X1002109Y392851D01*
X1002103Y392854D01*
X1002098Y392858D01*
X1002046Y392882D01*
X1001927Y393053D01*
X1001920Y393061D01*
X1001915Y393070D01*
X1001756Y393256D01*
X1001602Y393410D01*
X1001552Y393554D01*
X1001548Y393561D01*
X1001546Y393566D01*
X1001534Y393585D01*
X1001428Y393765D01*
X1001209Y394078D01*
X1001154Y394140D01*
X1001136Y394166D01*
X1001111Y394188D01*
X1001098Y394204D01*
X1000988Y394330D01*
X1000983Y394334D01*
X1000978Y394338D01*
X1000931Y394372D01*
X1000843Y394560D01*
X1000838Y394569D01*
X1000834Y394579D01*
X1000711Y394790D01*
X1000586Y394969D01*
X1000561Y395119D01*
X1000558Y395126D01*
X1000558Y395131D01*
X1000549Y395153D01*
X1000476Y395348D01*
X1000315Y395694D01*
X1000227Y395837D01*
X1000140Y395981D01*
X1000135Y395986D01*
X1000132Y395991D01*
X1000092Y396032D01*
X1000038Y396233D01*
X1000034Y396243D01*
X1000032Y396253D01*
X999947Y396482D01*
X999855Y396680D01*
X999857Y396832D01*
X999856Y396840D01*
X999856Y396845D01*
X999851Y396867D01*
X999813Y397073D01*
X999714Y397441D01*
X999653Y397596D01*
X999592Y397754D01*
X999588Y397760D01*
X999586Y397766D01*
X999553Y397813D01*
X999535Y398020D01*
X999533Y398030D01*
X999533Y398041D01*
X999489Y398282D01*
X999433Y398492D01*
X999461Y398642D01*
X999461Y398649D01*
X999462Y398654D01*
X999461Y398678D01*
X999459Y398886D01*
X999426Y399266D01*
X999392Y399432D01*
X999360Y399596D01*
X999357Y399601D01*
X999356Y399608D01*
X999332Y399660D01*
X999350Y399867D01*
X999350Y399878D01*
X999352Y399888D01*
X999350Y400133D01*
X999331Y400350D01*
X999385Y400492D01*
X999386Y400500D01*
X999388Y400505D01*
X999391Y400528D01*
X999426Y400734D01*
X999459Y401114D01*
X999455Y401281D01*
X999452Y401449D01*
X999450Y401456D01*
X999450Y401462D01*
X999435Y401518D01*
X999489Y401718D01*
X999491Y401729D01*
X999494Y401739D01*
X999535Y401980D01*
X999554Y402197D01*
X999632Y402328D01*
X999635Y402335D01*
X999637Y402340D01*
X999644Y402361D01*
X999714Y402559D01*
X999813Y402927D01*
X999837Y403093D01*
X999863Y403259D01*
X999863Y403266D01*
X999864Y403272D01*
X999859Y403329D01*
X999947Y403518D01*
X999950Y403528D01*
X999956Y403537D01*
X1000038Y403767D01*
X1000094Y403978D01*
X1000194Y404093D01*
X1000198Y404100D01*
X1000201Y404104D01*
X1000211Y404124D01*
X1000315Y404306D01*
X1000476Y404652D01*
X1000529Y404810D01*
X1000583Y404970D01*
X1000584Y404976D01*
X1000586Y404982D01*
X1000591Y405040D01*
X1000711Y405210D01*
X1000716Y405219D01*
X1000723Y405227D01*
X1000843Y405440D01*
X1000936Y405638D01*
X1001054Y405734D01*
X1001058Y405740D01*
X1001062Y405743D01*
X1001076Y405761D01*
X1001209Y405922D01*
X1001428Y406235D01*
X1001508Y406382D01*
X1001589Y406529D01*
X1001591Y406536D01*
X1001594Y406541D01*
X1001609Y406597D01*
X1001756Y406744D01*
X1001763Y406752D01*
X1001771Y406759D01*
X1001927Y406947D01*
X1002052Y407126D01*
X1002185Y407200D01*
X1002191Y407205D01*
X1002195Y407208D01*
X1002212Y407223D01*
X1002371Y407359D01*
X1002641Y407629D01*
X1002745Y407759D01*
X1002851Y407891D01*
X1002854Y407897D01*
X1002858Y407902D01*
X1002882Y407954D01*
X1003053Y408073D01*
X1003061Y408080D01*
X1003070Y408085D01*
X1003256Y408244D01*
X1003410Y408398D01*
X1003554Y408448D01*
X1003561Y408452D01*
X1003566Y408454D01*
X1003585Y408466D01*
X1003765Y408572D01*
X1004078Y408791D01*
X1004204Y408902D01*
X1004330Y409012D01*
X1004334Y409017D01*
X1004338Y409022D01*
X1004372Y409069D01*
X1004560Y409157D01*
X1004569Y409162D01*
X1004579Y409166D01*
X1004790Y409289D01*
X1004969Y409414D01*
X1005119Y409439D01*
X1005126Y409442D01*
X1005131Y409442D01*
X1005153Y409451D01*
X1005348Y409524D01*
X1005694Y409685D01*
X1005837Y409773D01*
X1005981Y409860D01*
X1005986Y409865D01*
X1005991Y409868D01*
X1006032Y409908D01*
X1006233Y409962D01*
X1006243Y409966D01*
X1006253Y409968D01*
X1006482Y410053D01*
X1006680Y410145D01*
X1006832Y410143D01*
X1006840Y410144D01*
X1006845Y410144D01*
X1006867Y410149D01*
X1007073Y410187D01*
X1007441Y410286D01*
X1007598Y410348D01*
X1007754Y410408D01*
X1007760Y410412D01*
X1007766Y410414D01*
X1007813Y410447D01*
X1008020Y410465D01*
X1008030Y410467D01*
X1008041Y410467D01*
X1008282Y410511D01*
X1008492Y410567D01*
X1008642Y410539D01*
X1008649Y410539D01*
X1008654Y410538D01*
X1008676Y410539D01*
X1008886Y410541D01*
X1009267Y410574D01*
X1009429Y410607D01*
X1009596Y410640D01*
X1009602Y410643D01*
X1009608Y410644D01*
X1009660Y410668D01*
X1009867Y410650D01*
X1009878Y410650D01*
X1009888Y410648D01*
X1010133Y410650D01*
X1010350Y410669D01*
X1010492Y410615D01*
X1010500Y410614D01*
X1010505Y410612D01*
X1010528Y410609D01*
X1010733Y410574D01*
X1011114Y410541D01*
X1011279Y410545D01*
X1011450Y410548D01*
X1011456Y410550D01*
X1011462Y410550D01*
X1011518Y410565D01*
X1011718Y410511D01*
X1011729Y410509D01*
X1011739Y410506D01*
X1011980Y410465D01*
X1012197Y410446D01*
X1012328Y410368D01*
X1012335Y410365D01*
X1012340Y410363D01*
X1012361Y410356D01*
X1012559Y410286D01*
X1012927Y410187D01*
X1013093Y410163D01*
X1013259Y410137D01*
X1013266Y410137D01*
X1013272Y410136D01*
X1013329Y410141D01*
X1013518Y410053D01*
X1013528Y410050D01*
X1013537Y410044D01*
X1013561Y410036D01*
X1013572Y410029D01*
X1013602Y410021D01*
X1013767Y409962D01*
X1013978Y409906D01*
X1014093Y409806D01*
X1014100Y409802D01*
X1014104Y409799D01*
X1014124Y409789D01*
X1014306Y409685D01*
X1014652Y409524D01*
X1014810Y409471D01*
X1014970Y409417D01*
X1014976Y409416D01*
X1014982Y409414D01*
X1015040Y409409D01*
X1015210Y409289D01*
X1015219Y409284D01*
X1015227Y409277D01*
X1015440Y409157D01*
X1015638Y409064D01*
X1015734Y408946D01*
X1015740Y408942D01*
X1015743Y408938D01*
X1015761Y408924D01*
X1015922Y408791D01*
X1016235Y408572D01*
X1016382Y408492D01*
X1016529Y408411D01*
X1016536Y408409D01*
X1016541Y408406D01*
X1016597Y408391D01*
X1016744Y408244D01*
X1016752Y408237D01*
X1016759Y408229D01*
X1016947Y408073D01*
X1017126Y407948D01*
X1017200Y407815D01*
X1017205Y407809D01*
X1017208Y407805D01*
X1017223Y407788D01*
X1017359Y407629D01*
X1017629Y407359D01*
X1017759Y407255D01*
X1017891Y407149D01*
X1017897Y407146D01*
X1017902Y407142D01*
X1017954Y407118D01*
X1018073Y406947D01*
X1018080Y406939D01*
X1018085Y406930D01*
X1018244Y406744D01*
X1018398Y406590D01*
X1018448Y406446D01*
X1018452Y406439D01*
X1018454Y406434D01*
X1018466Y406415D01*
X1018572Y406235D01*
X1018791Y405922D01*
X1018902Y405796D01*
X1019012Y405670D01*
X1019017Y405666D01*
X1019022Y405662D01*
X1019069Y405628D01*
X1019157Y405440D01*
X1019162Y405431D01*
X1019166Y405421D01*
X1019289Y405210D01*
X1019414Y405031D01*
X1019439Y404881D01*
X1019442Y404874D01*
X1019442Y404869D01*
X1019451Y404847D01*
X1019524Y404652D01*
X1019685Y404306D01*
X1019773Y404163D01*
X1019860Y404019D01*
X1019865Y404014D01*
X1019868Y404009D01*
X1019908Y403968D01*
X1019962Y403767D01*
X1019966Y403757D01*
X1019968Y403747D01*
X1020053Y403518D01*
X1020145Y403320D01*
X1020143Y403168D01*
X1020144Y403160D01*
X1020144Y403155D01*
X1020149Y403133D01*
X1020187Y402927D01*
X1020286Y402559D01*
X1020348Y402402D01*
X1020408Y402246D01*
X1020412Y402240D01*
X1020414Y402234D01*
X1020447Y402187D01*
X1020465Y401980D01*
X1020467Y401970D01*
X1020467Y401959D01*
X1020511Y401718D01*
X1020567Y401508D01*
X1020539Y401358D01*
X1020539Y401351D01*
X1020538Y401346D01*
X1020539Y401324D01*
X1020541Y401114D01*
X1020574Y400733D01*
X1020607Y400570D01*
X1020640Y400404D01*
X1020643Y400398D01*
X1020644Y400392D01*
X1020668Y400340D01*
X1020650Y400133D01*
X1020650Y400122D01*
X1020648Y400112D01*
X1020650Y399867D01*
X1020669Y399650D01*
X1020615Y399508D01*
X1020614Y399500D01*
X1020612Y399495D01*
X1020609Y399472D01*
X1020574Y399267D01*
X1020541Y398886D01*
X1020545Y398721D01*
X1020548Y398550D01*
X1020550Y398544D01*
X1020550Y398538D01*
X1020565Y398482D01*
X1020511Y398282D01*
X1020509Y398271D01*
X1020506Y398261D01*
X1020465Y398020D01*
X1020446Y397803D01*
X1020368Y397672D01*
X1020365Y397665D01*
X1020363Y397660D01*
X1020356Y397639D01*
X1020286Y397441D01*
X1020187Y397073D01*
X1020162Y396904D01*
X1020137Y396741D01*
X1020137Y396734D01*
X1020136Y396728D01*
X1020141Y396671D01*
X1020053Y396482D01*
X1020050Y396472D01*
X1020044Y396463D01*
X1019962Y396233D01*
X1019906Y396022D01*
X1019806Y395907D01*
X1019802Y395900D01*
X1019799Y395896D01*
X1019789Y395876D01*
X1019685Y395694D01*
X1019524Y395348D01*
X1019471Y395190D01*
X1019417Y395030D01*
X1019416Y395024D01*
X1019414Y395018D01*
X1019409Y394960D01*
X1019289Y394790D01*
X1019284Y394781D01*
X1019277Y394773D01*
X1019157Y394560D01*
X1019064Y394362D01*
X1018946Y394266D01*
X1018942Y394260D01*
X1018938Y394257D01*
X1018924Y394239D01*
X1018791Y394078D01*
X1018572Y393765D01*
X1018492Y393618D01*
X1018411Y393471D01*
X1018409Y393464D01*
X1018406Y393459D01*
X1018391Y393403D01*
X1018244Y393256D01*
X1018237Y393248D01*
X1018229Y393241D01*
X1018073Y393053D01*
X1017948Y392874D01*
X1017815Y392800D01*
X1017809Y392795D01*
X1017805Y392792D01*
X1017788Y392777D01*
X1017629Y392641D01*
X1017359Y392371D01*
X1017254Y392240D01*
X1017149Y392109D01*
X1017146Y392104D01*
X1017142Y392098D01*
X1017118Y392046D01*
X1016947Y391927D01*
X1016939Y391920D01*
X1016930Y391915D01*
X1016744Y391756D01*
X1016590Y391602D01*
X1016446Y391552D01*
X1016439Y391548D01*
X1016434Y391546D01*
X1016415Y391534D01*
X1016235Y391428D01*
X1015922Y391209D01*
X1015796Y391098D01*
X1015670Y390988D01*
X1015666Y390983D01*
X1015662Y390978D01*
X1015628Y390931D01*
X1015440Y390843D01*
X1015431Y390838D01*
X1015421Y390834D01*
X1015210Y390711D01*
X1015031Y390586D01*
X1014881Y390561D01*
X1014874Y390558D01*
X1014869Y390558D01*
X1014847Y390549D01*
X1014652Y390476D01*
X1014306Y390315D01*
X1014162Y390226D01*
X1014019Y390140D01*
X1014014Y390135D01*
X1014009Y390132D01*
X1013968Y390092D01*
X1013767Y390038D01*
X1013757Y390034D01*
X1013747Y390032D01*
X1013518Y389947D01*
X1013320Y389855D01*
X1013168Y389857D01*
X1013160Y389856D01*
X1013155Y389856D01*
X1013133Y389851D01*
X1012927Y389813D01*
X1012559Y389714D01*
X1012402Y389652D01*
X1012246Y389592D01*
X1012240Y389588D01*
X1012234Y389586D01*
X1012187Y389553D01*
X1011980Y389535D01*
X1011970Y389533D01*
X1011959Y389533D01*
X1011719Y389489D01*
X1011508Y389433D01*
X1011358Y389461D01*
X1011351Y389461D01*
X1011346Y389462D01*
X1011322Y389461D01*
X1011114Y389459D01*
X1010734Y389426D01*
X1010568Y389392D01*
X1010404Y389360D01*
X1010399Y389357D01*
X1010392Y389356D01*
X1010340Y389332D01*
X1010133Y389350D01*
X1010122Y389350D01*
X1010112Y389352D01*
X1009867Y389350D01*
X1009650Y389331D01*
X1009508Y389385D01*
G37*
%LPD*%
%LPC*%
G36*
X69508Y389385D02*
X69508Y389385D01*
X69500Y389386D01*
X69495Y389388D01*
X69472Y389391D01*
X69266Y389426D01*
X68886Y389459D01*
X68718Y389455D01*
X68551Y389452D01*
X68544Y389450D01*
X68538Y389450D01*
X68482Y389435D01*
X68281Y389489D01*
X68271Y389491D01*
X68261Y389494D01*
X68020Y389535D01*
X67803Y389554D01*
X67672Y389632D01*
X67665Y389635D01*
X67660Y389637D01*
X67639Y389644D01*
X67441Y389714D01*
X67073Y389813D01*
X66907Y389837D01*
X66741Y389863D01*
X66734Y389863D01*
X66728Y389864D01*
X66671Y389859D01*
X66482Y389947D01*
X66472Y389950D01*
X66463Y389956D01*
X66233Y390038D01*
X66022Y390094D01*
X65907Y390194D01*
X65900Y390198D01*
X65896Y390201D01*
X65876Y390211D01*
X65694Y390315D01*
X65348Y390476D01*
X65190Y390529D01*
X65030Y390583D01*
X65024Y390584D01*
X65018Y390586D01*
X64960Y390591D01*
X64790Y390711D01*
X64781Y390716D01*
X64773Y390723D01*
X64560Y390843D01*
X64362Y390936D01*
X64266Y391054D01*
X64260Y391058D01*
X64257Y391062D01*
X64239Y391076D01*
X64078Y391209D01*
X63765Y391428D01*
X63618Y391508D01*
X63471Y391589D01*
X63464Y391591D01*
X63459Y391594D01*
X63403Y391609D01*
X63256Y391756D01*
X63248Y391763D01*
X63241Y391771D01*
X63053Y391927D01*
X62874Y392052D01*
X62800Y392185D01*
X62795Y392191D01*
X62792Y392195D01*
X62777Y392212D01*
X62641Y392371D01*
X62371Y392641D01*
X62241Y392745D01*
X62109Y392851D01*
X62103Y392854D01*
X62098Y392858D01*
X62046Y392882D01*
X61927Y393053D01*
X61920Y393061D01*
X61915Y393070D01*
X61756Y393256D01*
X61602Y393410D01*
X61552Y393554D01*
X61548Y393561D01*
X61546Y393566D01*
X61534Y393585D01*
X61428Y393765D01*
X61209Y394078D01*
X61154Y394140D01*
X61136Y394166D01*
X61111Y394188D01*
X61098Y394204D01*
X60988Y394330D01*
X60983Y394334D01*
X60978Y394338D01*
X60931Y394372D01*
X60843Y394560D01*
X60838Y394569D01*
X60834Y394579D01*
X60711Y394790D01*
X60586Y394969D01*
X60561Y395119D01*
X60558Y395126D01*
X60558Y395131D01*
X60549Y395153D01*
X60476Y395348D01*
X60315Y395694D01*
X60227Y395837D01*
X60140Y395981D01*
X60135Y395986D01*
X60132Y395991D01*
X60092Y396032D01*
X60038Y396233D01*
X60034Y396243D01*
X60032Y396253D01*
X59947Y396482D01*
X59855Y396680D01*
X59857Y396832D01*
X59856Y396840D01*
X59856Y396845D01*
X59851Y396867D01*
X59813Y397073D01*
X59714Y397441D01*
X59653Y397596D01*
X59592Y397754D01*
X59588Y397760D01*
X59586Y397766D01*
X59553Y397813D01*
X59535Y398020D01*
X59533Y398030D01*
X59533Y398041D01*
X59489Y398282D01*
X59433Y398492D01*
X59461Y398642D01*
X59461Y398649D01*
X59462Y398654D01*
X59461Y398678D01*
X59459Y398886D01*
X59426Y399266D01*
X59392Y399432D01*
X59360Y399596D01*
X59357Y399601D01*
X59356Y399608D01*
X59332Y399660D01*
X59350Y399867D01*
X59350Y399878D01*
X59352Y399888D01*
X59350Y400133D01*
X59331Y400350D01*
X59385Y400492D01*
X59386Y400500D01*
X59388Y400505D01*
X59391Y400528D01*
X59426Y400734D01*
X59459Y401114D01*
X59455Y401281D01*
X59452Y401449D01*
X59450Y401456D01*
X59450Y401462D01*
X59435Y401518D01*
X59489Y401718D01*
X59491Y401729D01*
X59494Y401739D01*
X59535Y401980D01*
X59554Y402197D01*
X59632Y402328D01*
X59635Y402335D01*
X59637Y402340D01*
X59644Y402361D01*
X59714Y402559D01*
X59813Y402927D01*
X59837Y403093D01*
X59863Y403259D01*
X59863Y403266D01*
X59864Y403272D01*
X59859Y403329D01*
X59947Y403518D01*
X59950Y403528D01*
X59956Y403537D01*
X60038Y403767D01*
X60094Y403978D01*
X60194Y404093D01*
X60198Y404100D01*
X60201Y404104D01*
X60211Y404124D01*
X60315Y404306D01*
X60476Y404652D01*
X60529Y404810D01*
X60583Y404970D01*
X60584Y404976D01*
X60586Y404982D01*
X60591Y405040D01*
X60711Y405210D01*
X60716Y405219D01*
X60723Y405227D01*
X60843Y405440D01*
X60936Y405638D01*
X61054Y405734D01*
X61058Y405740D01*
X61062Y405743D01*
X61076Y405761D01*
X61209Y405922D01*
X61428Y406235D01*
X61508Y406382D01*
X61589Y406529D01*
X61591Y406536D01*
X61594Y406541D01*
X61609Y406597D01*
X61756Y406744D01*
X61763Y406752D01*
X61771Y406759D01*
X61927Y406947D01*
X62052Y407126D01*
X62185Y407200D01*
X62191Y407205D01*
X62195Y407208D01*
X62212Y407223D01*
X62371Y407359D01*
X62641Y407629D01*
X62745Y407759D01*
X62851Y407891D01*
X62854Y407897D01*
X62858Y407902D01*
X62882Y407954D01*
X63053Y408073D01*
X63061Y408080D01*
X63070Y408085D01*
X63256Y408244D01*
X63410Y408398D01*
X63554Y408448D01*
X63561Y408452D01*
X63566Y408454D01*
X63585Y408466D01*
X63765Y408572D01*
X64078Y408791D01*
X64204Y408902D01*
X64330Y409012D01*
X64334Y409017D01*
X64338Y409022D01*
X64372Y409069D01*
X64560Y409157D01*
X64569Y409162D01*
X64579Y409166D01*
X64790Y409289D01*
X64969Y409414D01*
X65119Y409439D01*
X65126Y409442D01*
X65131Y409442D01*
X65153Y409451D01*
X65348Y409524D01*
X65694Y409685D01*
X65837Y409773D01*
X65981Y409860D01*
X65986Y409865D01*
X65991Y409868D01*
X66032Y409908D01*
X66233Y409962D01*
X66243Y409966D01*
X66253Y409968D01*
X66482Y410053D01*
X66680Y410145D01*
X66832Y410143D01*
X66840Y410144D01*
X66845Y410144D01*
X66867Y410149D01*
X67073Y410187D01*
X67441Y410286D01*
X67598Y410348D01*
X67754Y410408D01*
X67760Y410412D01*
X67766Y410414D01*
X67813Y410447D01*
X68020Y410465D01*
X68030Y410467D01*
X68041Y410467D01*
X68282Y410511D01*
X68492Y410567D01*
X68642Y410539D01*
X68649Y410539D01*
X68654Y410538D01*
X68676Y410539D01*
X68886Y410541D01*
X69267Y410574D01*
X69429Y410607D01*
X69596Y410640D01*
X69602Y410643D01*
X69608Y410644D01*
X69660Y410668D01*
X69867Y410650D01*
X69878Y410650D01*
X69888Y410648D01*
X70133Y410650D01*
X70350Y410669D01*
X70492Y410615D01*
X70500Y410614D01*
X70505Y410612D01*
X70528Y410609D01*
X70733Y410574D01*
X71114Y410541D01*
X71279Y410545D01*
X71450Y410548D01*
X71456Y410550D01*
X71462Y410550D01*
X71518Y410565D01*
X71718Y410511D01*
X71729Y410509D01*
X71739Y410506D01*
X71980Y410465D01*
X72197Y410446D01*
X72328Y410368D01*
X72335Y410365D01*
X72340Y410363D01*
X72361Y410356D01*
X72559Y410286D01*
X72927Y410187D01*
X73093Y410163D01*
X73259Y410137D01*
X73266Y410137D01*
X73272Y410136D01*
X73329Y410141D01*
X73518Y410053D01*
X73528Y410050D01*
X73537Y410044D01*
X73561Y410036D01*
X73572Y410029D01*
X73602Y410021D01*
X73767Y409962D01*
X73978Y409906D01*
X74093Y409806D01*
X74100Y409802D01*
X74104Y409799D01*
X74124Y409789D01*
X74306Y409685D01*
X74652Y409524D01*
X74810Y409471D01*
X74970Y409417D01*
X74976Y409416D01*
X74982Y409414D01*
X75040Y409409D01*
X75210Y409289D01*
X75219Y409284D01*
X75227Y409277D01*
X75440Y409157D01*
X75638Y409064D01*
X75734Y408946D01*
X75740Y408942D01*
X75743Y408938D01*
X75761Y408924D01*
X75922Y408791D01*
X76235Y408572D01*
X76382Y408492D01*
X76529Y408411D01*
X76536Y408409D01*
X76541Y408406D01*
X76597Y408391D01*
X76744Y408244D01*
X76752Y408237D01*
X76759Y408229D01*
X76947Y408073D01*
X77126Y407948D01*
X77200Y407815D01*
X77205Y407809D01*
X77208Y407805D01*
X77223Y407788D01*
X77359Y407629D01*
X77629Y407359D01*
X77759Y407255D01*
X77891Y407149D01*
X77897Y407146D01*
X77902Y407142D01*
X77954Y407118D01*
X78073Y406947D01*
X78080Y406939D01*
X78085Y406930D01*
X78244Y406744D01*
X78398Y406590D01*
X78448Y406446D01*
X78452Y406439D01*
X78454Y406434D01*
X78466Y406415D01*
X78572Y406235D01*
X78791Y405922D01*
X78902Y405796D01*
X79012Y405670D01*
X79017Y405666D01*
X79022Y405662D01*
X79069Y405628D01*
X79157Y405440D01*
X79162Y405431D01*
X79166Y405421D01*
X79289Y405210D01*
X79414Y405031D01*
X79439Y404881D01*
X79442Y404874D01*
X79442Y404869D01*
X79451Y404847D01*
X79524Y404652D01*
X79685Y404306D01*
X79773Y404163D01*
X79860Y404019D01*
X79865Y404014D01*
X79868Y404009D01*
X79908Y403968D01*
X79962Y403767D01*
X79966Y403757D01*
X79968Y403747D01*
X80053Y403518D01*
X80145Y403320D01*
X80143Y403168D01*
X80144Y403160D01*
X80144Y403155D01*
X80149Y403133D01*
X80187Y402927D01*
X80286Y402559D01*
X80348Y402402D01*
X80408Y402246D01*
X80412Y402240D01*
X80414Y402234D01*
X80447Y402187D01*
X80465Y401980D01*
X80467Y401970D01*
X80467Y401959D01*
X80511Y401718D01*
X80567Y401508D01*
X80539Y401358D01*
X80539Y401351D01*
X80538Y401346D01*
X80539Y401324D01*
X80541Y401114D01*
X80574Y400733D01*
X80607Y400570D01*
X80640Y400404D01*
X80643Y400398D01*
X80644Y400392D01*
X80668Y400340D01*
X80650Y400133D01*
X80650Y400122D01*
X80648Y400112D01*
X80650Y399867D01*
X80669Y399650D01*
X80615Y399508D01*
X80614Y399500D01*
X80612Y399495D01*
X80609Y399472D01*
X80574Y399267D01*
X80541Y398886D01*
X80545Y398721D01*
X80548Y398550D01*
X80550Y398544D01*
X80550Y398538D01*
X80565Y398482D01*
X80511Y398282D01*
X80509Y398271D01*
X80506Y398261D01*
X80465Y398020D01*
X80446Y397803D01*
X80368Y397672D01*
X80365Y397665D01*
X80363Y397660D01*
X80356Y397639D01*
X80286Y397441D01*
X80187Y397073D01*
X80163Y396907D01*
X80137Y396741D01*
X80137Y396734D01*
X80136Y396728D01*
X80141Y396671D01*
X80053Y396482D01*
X80050Y396472D01*
X80044Y396463D01*
X79962Y396233D01*
X79906Y396022D01*
X79806Y395907D01*
X79802Y395900D01*
X79799Y395896D01*
X79789Y395876D01*
X79685Y395694D01*
X79524Y395348D01*
X79471Y395190D01*
X79417Y395030D01*
X79416Y395024D01*
X79414Y395018D01*
X79409Y394960D01*
X79289Y394790D01*
X79284Y394781D01*
X79277Y394773D01*
X79157Y394560D01*
X79064Y394362D01*
X78946Y394266D01*
X78942Y394260D01*
X78938Y394257D01*
X78924Y394239D01*
X78791Y394078D01*
X78572Y393765D01*
X78491Y393617D01*
X78411Y393471D01*
X78409Y393464D01*
X78406Y393459D01*
X78391Y393403D01*
X78243Y393256D01*
X78237Y393248D01*
X78229Y393241D01*
X78073Y393053D01*
X77948Y392874D01*
X77815Y392800D01*
X77809Y392795D01*
X77805Y392792D01*
X77788Y392777D01*
X77629Y392641D01*
X77359Y392371D01*
X77254Y392240D01*
X77149Y392109D01*
X77146Y392103D01*
X77142Y392098D01*
X77118Y392046D01*
X76947Y391927D01*
X76939Y391920D01*
X76930Y391915D01*
X76744Y391756D01*
X76590Y391602D01*
X76446Y391552D01*
X76439Y391548D01*
X76434Y391546D01*
X76415Y391534D01*
X76235Y391428D01*
X75922Y391209D01*
X75796Y391098D01*
X75670Y390988D01*
X75666Y390983D01*
X75662Y390978D01*
X75628Y390931D01*
X75440Y390843D01*
X75431Y390838D01*
X75421Y390834D01*
X75210Y390711D01*
X75031Y390586D01*
X74881Y390561D01*
X74874Y390558D01*
X74869Y390558D01*
X74847Y390549D01*
X74652Y390476D01*
X74306Y390315D01*
X74162Y390226D01*
X74019Y390140D01*
X74014Y390135D01*
X74009Y390132D01*
X73968Y390092D01*
X73767Y390038D01*
X73757Y390034D01*
X73747Y390032D01*
X73518Y389947D01*
X73320Y389855D01*
X73168Y389857D01*
X73160Y389856D01*
X73155Y389856D01*
X73133Y389851D01*
X72927Y389813D01*
X72559Y389714D01*
X72402Y389652D01*
X72246Y389592D01*
X72240Y389588D01*
X72234Y389586D01*
X72187Y389553D01*
X71980Y389535D01*
X71970Y389533D01*
X71959Y389533D01*
X71719Y389489D01*
X71508Y389433D01*
X71358Y389461D01*
X71351Y389461D01*
X71346Y389462D01*
X71322Y389461D01*
X71114Y389459D01*
X70734Y389426D01*
X70568Y389392D01*
X70404Y389360D01*
X70399Y389357D01*
X70392Y389356D01*
X70340Y389332D01*
X70133Y389350D01*
X70122Y389350D01*
X70112Y389352D01*
X69867Y389350D01*
X69650Y389331D01*
X69508Y389385D01*
G37*
%LPD*%
%LPC*%
G36*
X632032Y451931D02*
X632032Y451931D01*
X631139Y452824D01*
X631139Y468088D01*
X632032Y468981D01*
X632584Y468981D01*
X632610Y468984D01*
X632636Y468982D01*
X632783Y469004D01*
X632930Y469021D01*
X632955Y469029D01*
X632981Y469033D01*
X633119Y469088D01*
X633258Y469138D01*
X633280Y469152D01*
X633305Y469162D01*
X633426Y469247D01*
X633551Y469327D01*
X633569Y469346D01*
X633591Y469361D01*
X633690Y469471D01*
X633793Y469578D01*
X633807Y469600D01*
X633824Y469620D01*
X633896Y469750D01*
X633972Y469877D01*
X633980Y469902D01*
X633993Y469925D01*
X634033Y470068D01*
X634078Y470209D01*
X634080Y470235D01*
X634088Y470260D01*
X634107Y470504D01*
X634107Y470821D01*
X634093Y470947D01*
X634086Y471073D01*
X634073Y471119D01*
X634067Y471167D01*
X634025Y471286D01*
X633990Y471408D01*
X633966Y471450D01*
X633950Y471495D01*
X633881Y471601D01*
X633820Y471712D01*
X633780Y471758D01*
X633761Y471788D01*
X633726Y471822D01*
X633714Y471835D01*
X633703Y471852D01*
X633692Y471862D01*
X633661Y471898D01*
X632909Y472650D01*
X632101Y474600D01*
X632101Y476712D01*
X632909Y478662D01*
X634402Y480155D01*
X636352Y480963D01*
X638464Y480963D01*
X640414Y480155D01*
X641907Y478662D01*
X642715Y476712D01*
X642715Y474600D01*
X641907Y472650D01*
X641667Y472410D01*
X641588Y472311D01*
X641504Y472217D01*
X641480Y472175D01*
X641450Y472137D01*
X641396Y472023D01*
X641335Y471912D01*
X641322Y471866D01*
X641301Y471822D01*
X641275Y471699D01*
X641240Y471577D01*
X641235Y471516D01*
X641228Y471481D01*
X641229Y471433D01*
X641221Y471333D01*
X641221Y470504D01*
X641224Y470478D01*
X641222Y470452D01*
X641244Y470305D01*
X641261Y470158D01*
X641269Y470133D01*
X641273Y470107D01*
X641328Y469969D01*
X641378Y469830D01*
X641392Y469808D01*
X641402Y469783D01*
X641487Y469662D01*
X641567Y469537D01*
X641586Y469519D01*
X641601Y469497D01*
X641711Y469398D01*
X641818Y469295D01*
X641840Y469281D01*
X641860Y469264D01*
X641990Y469192D01*
X642117Y469116D01*
X642142Y469108D01*
X642165Y469095D01*
X642308Y469055D01*
X642449Y469010D01*
X642475Y469008D01*
X642500Y469000D01*
X642744Y468981D01*
X643296Y468981D01*
X644189Y468088D01*
X644189Y452824D01*
X643296Y451931D01*
X632032Y451931D01*
G37*
%LPD*%
G36*
X537897Y348488D02*
X537897Y348488D01*
X538045Y348490D01*
X538070Y348496D01*
X538097Y348498D01*
X538239Y348539D01*
X538383Y348575D01*
X538406Y348587D01*
X538431Y348594D01*
X538561Y348667D01*
X538693Y348735D01*
X538713Y348752D01*
X538736Y348764D01*
X538922Y348923D01*
X540000Y350001D01*
X541078Y348923D01*
X541099Y348907D01*
X541116Y348887D01*
X541235Y348798D01*
X541351Y348706D01*
X541375Y348695D01*
X541396Y348680D01*
X541532Y348621D01*
X541666Y348557D01*
X541692Y348552D01*
X541716Y348542D01*
X541862Y348515D01*
X542007Y348484D01*
X542033Y348485D01*
X542059Y348480D01*
X542208Y348488D01*
X542355Y348490D01*
X542381Y348496D01*
X542407Y348498D01*
X542549Y348539D01*
X542693Y348575D01*
X542717Y348587D01*
X542742Y348594D01*
X542871Y348667D01*
X543003Y348735D01*
X543023Y348752D01*
X543046Y348765D01*
X543232Y348923D01*
X554849Y360539D01*
X554865Y360560D01*
X554885Y360577D01*
X554973Y360696D01*
X555065Y360812D01*
X555077Y360836D01*
X555092Y360857D01*
X555151Y360993D01*
X555214Y361127D01*
X555220Y361153D01*
X555230Y361177D01*
X555257Y361324D01*
X555288Y361468D01*
X555287Y361494D01*
X555292Y361520D01*
X555284Y361669D01*
X555282Y361817D01*
X555275Y361842D01*
X555274Y361868D01*
X555233Y362010D01*
X555197Y362155D01*
X555185Y362178D01*
X555177Y362203D01*
X555105Y362332D01*
X555037Y362464D01*
X555020Y362484D01*
X555007Y362507D01*
X554849Y362694D01*
X553957Y363585D01*
X552694Y364849D01*
X552673Y364865D01*
X552656Y364885D01*
X552537Y364973D01*
X552421Y365065D01*
X552397Y365076D01*
X552376Y365092D01*
X552239Y365151D01*
X552105Y365214D01*
X552080Y365220D01*
X552056Y365230D01*
X551910Y365256D01*
X551765Y365288D01*
X551739Y365287D01*
X551713Y365292D01*
X551564Y365284D01*
X551416Y365282D01*
X551391Y365275D01*
X551365Y365274D01*
X551222Y365233D01*
X551078Y365197D01*
X551055Y365185D01*
X551030Y365177D01*
X550900Y365105D01*
X550768Y365037D01*
X550749Y365020D01*
X550726Y365007D01*
X550539Y364849D01*
X540000Y354309D01*
X529461Y364849D01*
X529440Y364865D01*
X529423Y364885D01*
X529304Y364973D01*
X529188Y365065D01*
X529164Y365077D01*
X529143Y365092D01*
X529006Y365151D01*
X528873Y365214D01*
X528847Y365220D01*
X528823Y365230D01*
X528676Y365257D01*
X528532Y365288D01*
X528506Y365287D01*
X528480Y365292D01*
X528331Y365284D01*
X528183Y365282D01*
X528158Y365275D01*
X528132Y365274D01*
X527990Y365233D01*
X527845Y365197D01*
X527822Y365185D01*
X527797Y365177D01*
X527668Y365105D01*
X527536Y365037D01*
X527516Y365020D01*
X527493Y365007D01*
X527306Y364849D01*
X526414Y363957D01*
X525151Y362694D01*
X525135Y362673D01*
X525115Y362656D01*
X525027Y362537D01*
X524935Y362421D01*
X524923Y362397D01*
X524908Y362376D01*
X524849Y362239D01*
X524786Y362105D01*
X524780Y362080D01*
X524770Y362056D01*
X524744Y361909D01*
X524712Y361765D01*
X524713Y361739D01*
X524708Y361713D01*
X524716Y361564D01*
X524718Y361416D01*
X524725Y361391D01*
X524726Y361365D01*
X524767Y361222D01*
X524803Y361078D01*
X524815Y361055D01*
X524823Y361030D01*
X524895Y360900D01*
X524963Y360768D01*
X524980Y360748D01*
X524993Y360726D01*
X525151Y360539D01*
X536768Y348923D01*
X536788Y348907D01*
X536805Y348887D01*
X536925Y348798D01*
X537041Y348706D01*
X537064Y348695D01*
X537085Y348680D01*
X537222Y348621D01*
X537356Y348557D01*
X537381Y348552D01*
X537405Y348542D01*
X537552Y348515D01*
X537696Y348484D01*
X537723Y348485D01*
X537748Y348480D01*
X537897Y348488D01*
G37*
%LPC*%
G36*
X568243Y129975D02*
X568243Y129975D01*
X567350Y130868D01*
X567350Y145532D01*
X568243Y146425D01*
X579507Y146425D01*
X580400Y145532D01*
X580400Y130868D01*
X579507Y129975D01*
X568243Y129975D01*
G37*
%LPD*%
%LPC*%
G36*
X500493Y129975D02*
X500493Y129975D01*
X499600Y130868D01*
X499600Y145532D01*
X500493Y146425D01*
X511757Y146425D01*
X512650Y145532D01*
X512650Y130868D01*
X511757Y129975D01*
X500493Y129975D01*
G37*
%LPD*%
%LPC*%
G36*
X500493Y203575D02*
X500493Y203575D01*
X499600Y204468D01*
X499600Y219132D01*
X500493Y220025D01*
X511757Y220025D01*
X512650Y219132D01*
X512650Y204468D01*
X511757Y203575D01*
X500493Y203575D01*
G37*
%LPD*%
%LPC*%
G36*
X568243Y203575D02*
X568243Y203575D01*
X567350Y204468D01*
X567350Y219132D01*
X568243Y220025D01*
X579507Y220025D01*
X580400Y219132D01*
X580400Y204468D01*
X579507Y203575D01*
X568243Y203575D01*
G37*
%LPD*%
%LPC*%
G36*
X650211Y421647D02*
X650211Y421647D01*
X650211Y427392D01*
X650208Y427418D01*
X650210Y427444D01*
X650188Y427591D01*
X650171Y427738D01*
X650162Y427763D01*
X650159Y427789D01*
X650104Y427927D01*
X650054Y428066D01*
X650040Y428088D01*
X650030Y428113D01*
X649946Y428234D01*
X649865Y428359D01*
X649846Y428377D01*
X649831Y428399D01*
X649721Y428498D01*
X649663Y428554D01*
X649663Y435957D01*
X654705Y435957D01*
X654705Y431121D01*
X654499Y430355D01*
X654499Y430354D01*
X654499Y430352D01*
X654472Y430171D01*
X654448Y430010D01*
X654448Y430009D01*
X654448Y430007D01*
X654463Y429830D01*
X654477Y429663D01*
X654477Y429662D01*
X654477Y429660D01*
X654534Y429486D01*
X654584Y429331D01*
X654584Y429330D01*
X654585Y429329D01*
X654674Y429181D01*
X654763Y429032D01*
X654764Y429031D01*
X654765Y429030D01*
X654887Y428905D01*
X655006Y428782D01*
X655007Y428782D01*
X655008Y428780D01*
X655209Y428642D01*
X655224Y428633D01*
X655697Y428160D01*
X656032Y427581D01*
X656205Y426935D01*
X656205Y421647D01*
X650211Y421647D01*
G37*
%LPD*%
%LPC*%
G36*
X649327Y284511D02*
X649327Y284511D01*
X649327Y292238D01*
X649374Y292271D01*
X649499Y292351D01*
X649517Y292370D01*
X649539Y292385D01*
X649638Y292495D01*
X649741Y292602D01*
X649755Y292624D01*
X649772Y292644D01*
X649844Y292774D01*
X649920Y292901D01*
X649928Y292926D01*
X649941Y292949D01*
X649981Y293092D01*
X650026Y293233D01*
X650028Y293259D01*
X650036Y293284D01*
X650055Y293528D01*
X650055Y297265D01*
X656049Y297265D01*
X656049Y291977D01*
X655876Y291331D01*
X655525Y290724D01*
X655484Y290630D01*
X655435Y290541D01*
X655415Y290471D01*
X655386Y290404D01*
X655368Y290304D01*
X655340Y290206D01*
X655332Y290108D01*
X655324Y290061D01*
X655326Y290025D01*
X655321Y289962D01*
X655321Y284511D01*
X649327Y284511D01*
G37*
%LPD*%
%LPC*%
G36*
X458743Y369991D02*
X458743Y369991D01*
X458743Y379137D01*
X459000Y379097D01*
X460787Y378516D01*
X462461Y377663D01*
X463982Y376558D01*
X465310Y375230D01*
X466415Y373709D01*
X467268Y372035D01*
X467849Y370248D01*
X467889Y369991D01*
X458743Y369991D01*
G37*
%LPD*%
%LPC*%
G36*
X478315Y82539D02*
X478315Y82539D01*
X478355Y82796D01*
X478936Y84583D01*
X479789Y86257D01*
X480894Y87778D01*
X482222Y89106D01*
X483743Y90211D01*
X485417Y91064D01*
X487204Y91645D01*
X487461Y91685D01*
X487461Y82539D01*
X478315Y82539D01*
G37*
%LPD*%
%LPC*%
G36*
X478315Y262539D02*
X478315Y262539D01*
X478355Y262796D01*
X478936Y264583D01*
X479789Y266257D01*
X480894Y267778D01*
X482222Y269106D01*
X483743Y270211D01*
X485417Y271064D01*
X487204Y271645D01*
X487461Y271685D01*
X487461Y262539D01*
X478315Y262539D01*
G37*
%LPD*%
%LPC*%
G36*
X487204Y248355D02*
X487204Y248355D01*
X485417Y248936D01*
X483743Y249789D01*
X482222Y250894D01*
X480894Y252222D01*
X479789Y253743D01*
X478936Y255417D01*
X478355Y257204D01*
X478315Y257461D01*
X487461Y257461D01*
X487461Y248315D01*
X487204Y248355D01*
G37*
%LPD*%
%LPC*%
G36*
X487204Y68355D02*
X487204Y68355D01*
X485417Y68936D01*
X483743Y69789D01*
X482222Y70894D01*
X480894Y72222D01*
X479789Y73743D01*
X478936Y75417D01*
X478355Y77204D01*
X478315Y77461D01*
X487461Y77461D01*
X487461Y68315D01*
X487204Y68355D01*
G37*
%LPD*%
%LPC*%
G36*
X649327Y270923D02*
X649327Y270923D01*
X649327Y278417D01*
X655321Y278417D01*
X655321Y273129D01*
X655148Y272483D01*
X654813Y271904D01*
X654340Y271431D01*
X653761Y271096D01*
X653115Y270923D01*
X649327Y270923D01*
G37*
%LPD*%
%LPC*%
G36*
X650455Y361483D02*
X650455Y361483D01*
X650455Y368977D01*
X656449Y368977D01*
X656449Y363689D01*
X656276Y363043D01*
X655941Y362464D01*
X655468Y361991D01*
X654889Y361656D01*
X654243Y361483D01*
X650455Y361483D01*
G37*
%LPD*%
%LPC*%
G36*
X476673Y280331D02*
X476673Y280331D01*
X476027Y280504D01*
X475448Y280839D01*
X474975Y281312D01*
X474640Y281891D01*
X474467Y282537D01*
X474467Y286325D01*
X481961Y286325D01*
X481961Y280331D01*
X476673Y280331D01*
G37*
%LPD*%
%LPC*%
G36*
X546331Y448175D02*
X546331Y448175D01*
X546331Y452511D01*
X546504Y453157D01*
X546839Y453736D01*
X547312Y454209D01*
X547891Y454544D01*
X548537Y454717D01*
X551873Y454717D01*
X551873Y448175D01*
X546331Y448175D01*
G37*
%LPD*%
%LPC*%
G36*
X649663Y440955D02*
X649663Y440955D01*
X649663Y447997D01*
X652499Y447997D01*
X653145Y447824D01*
X653724Y447489D01*
X654197Y447016D01*
X654532Y446437D01*
X654705Y445791D01*
X654705Y440955D01*
X649663Y440955D01*
G37*
%LPD*%
%LPC*%
G36*
X639623Y440955D02*
X639623Y440955D01*
X639623Y445791D01*
X639796Y446437D01*
X640131Y447016D01*
X640604Y447489D01*
X641183Y447824D01*
X641829Y447997D01*
X644665Y447997D01*
X644665Y440955D01*
X639623Y440955D01*
G37*
%LPD*%
%LPC*%
G36*
X528415Y221509D02*
X528415Y221509D01*
X527769Y221682D01*
X527190Y222017D01*
X526717Y222490D01*
X526382Y223069D01*
X526209Y223715D01*
X526209Y227527D01*
X528636Y227527D01*
X528591Y227445D01*
X528581Y227408D01*
X528564Y227374D01*
X528533Y227241D01*
X528496Y227110D01*
X528492Y227063D01*
X528486Y227034D01*
X528486Y226984D01*
X528477Y226866D01*
X528477Y221509D01*
X528415Y221509D01*
G37*
%LPD*%
%LPC*%
G36*
X526209Y122473D02*
X526209Y122473D01*
X526209Y126285D01*
X526382Y126931D01*
X526717Y127510D01*
X527190Y127983D01*
X527769Y128318D01*
X528415Y128491D01*
X528477Y128491D01*
X528477Y122473D01*
X526209Y122473D01*
G37*
%LPD*%
D10*
X530000Y229050D03*
X535000Y229050D03*
X540000Y229050D03*
X545000Y229050D03*
X550000Y229050D03*
D11*
X506125Y211800D03*
X573875Y211800D03*
D12*
X490000Y260000D03*
X515400Y260000D03*
X540800Y260000D03*
X566200Y260000D03*
X591600Y260000D03*
D13*
X628096Y320608D03*
X648096Y320608D03*
X626280Y281464D03*
X646280Y281464D03*
D14*
X637664Y460456D03*
X647164Y438456D03*
X628164Y438456D03*
D13*
X647164Y418600D03*
X628164Y418600D03*
D15*
X540000Y470000D03*
X70000Y400000D03*
X1010000Y400000D03*
D13*
X627008Y300312D03*
X647008Y300312D03*
X583780Y308936D03*
X602780Y308936D03*
X583780Y287224D03*
X602780Y287224D03*
D12*
X456204Y291252D03*
X430804Y291252D03*
X456204Y316652D03*
X430804Y316652D03*
X456204Y342052D03*
X430804Y342052D03*
X456204Y367452D03*
X430804Y367452D03*
D13*
X647284Y346032D03*
X628284Y346032D03*
X627408Y372024D03*
X647408Y372024D03*
D16*
X485008Y289372D03*
X485008Y308372D03*
X497200Y448580D03*
X497200Y429580D03*
D17*
X524872Y445176D03*
X554872Y445176D03*
D12*
X490000Y80000D03*
X515400Y80000D03*
X540800Y80000D03*
X566200Y80000D03*
X591600Y80000D03*
D10*
X550000Y120950D03*
X545000Y120950D03*
X540000Y120950D03*
X535000Y120950D03*
X530000Y120950D03*
D11*
X573875Y138200D03*
X506125Y138200D03*
D18*
G36*
X541415Y321715D02*
X543536Y323836D01*
X554141Y313231D01*
X552020Y311110D01*
X541415Y321715D01*
G37*
G36*
X544951Y325251D02*
X547072Y327372D01*
X557677Y316767D01*
X555556Y314646D01*
X544951Y325251D01*
G37*
G36*
X548486Y328786D02*
X550607Y330907D01*
X561212Y320302D01*
X559091Y318181D01*
X548486Y328786D01*
G37*
G36*
X552022Y332322D02*
X554143Y334443D01*
X564748Y323838D01*
X562627Y321717D01*
X552022Y332322D01*
G37*
G36*
X555557Y335857D02*
X557678Y337978D01*
X568283Y327373D01*
X566162Y325252D01*
X555557Y335857D01*
G37*
G36*
X559093Y339393D02*
X561214Y341514D01*
X571819Y330909D01*
X569698Y328788D01*
X559093Y339393D01*
G37*
G36*
X562628Y342928D02*
X564749Y345049D01*
X575354Y334444D01*
X573233Y332323D01*
X562628Y342928D01*
G37*
G36*
X566164Y346464D02*
X568285Y348585D01*
X578890Y337980D01*
X576769Y335859D01*
X566164Y346464D01*
G37*
G36*
X568285Y351415D02*
X566164Y353536D01*
X576769Y364141D01*
X578890Y362020D01*
X568285Y351415D01*
G37*
G36*
X564749Y354951D02*
X562628Y357072D01*
X573233Y367677D01*
X575354Y365556D01*
X564749Y354951D01*
G37*
G36*
X561214Y358486D02*
X559093Y360607D01*
X569698Y371212D01*
X571819Y369091D01*
X561214Y358486D01*
G37*
G36*
X557678Y362022D02*
X555557Y364143D01*
X566162Y374748D01*
X568283Y372627D01*
X557678Y362022D01*
G37*
G36*
X554143Y365557D02*
X552022Y367678D01*
X562627Y378283D01*
X564748Y376162D01*
X554143Y365557D01*
G37*
G36*
X550607Y369093D02*
X548486Y371214D01*
X559091Y381819D01*
X561212Y379698D01*
X550607Y369093D01*
G37*
G36*
X547072Y372628D02*
X544951Y374749D01*
X555556Y385354D01*
X557677Y383233D01*
X547072Y372628D01*
G37*
G36*
X543536Y376164D02*
X541415Y378285D01*
X552020Y388890D01*
X554141Y386769D01*
X543536Y376164D01*
G37*
G36*
X538585Y378285D02*
X536464Y376164D01*
X525859Y386769D01*
X527980Y388890D01*
X538585Y378285D01*
G37*
G36*
X535049Y374749D02*
X532928Y372628D01*
X522323Y383233D01*
X524444Y385354D01*
X535049Y374749D01*
G37*
G36*
X531514Y371214D02*
X529393Y369093D01*
X518788Y379698D01*
X520909Y381819D01*
X531514Y371214D01*
G37*
G36*
X527978Y367678D02*
X525857Y365557D01*
X515252Y376162D01*
X517373Y378283D01*
X527978Y367678D01*
G37*
G36*
X524443Y364143D02*
X522322Y362022D01*
X511717Y372627D01*
X513838Y374748D01*
X524443Y364143D01*
G37*
G36*
X520907Y360607D02*
X518786Y358486D01*
X508181Y369091D01*
X510302Y371212D01*
X520907Y360607D01*
G37*
G36*
X517372Y357072D02*
X515251Y354951D01*
X504646Y365556D01*
X506767Y367677D01*
X517372Y357072D01*
G37*
G36*
X513836Y353536D02*
X511715Y351415D01*
X501110Y362020D01*
X503231Y364141D01*
X513836Y353536D01*
G37*
G36*
X511715Y348585D02*
X513836Y346464D01*
X503231Y335859D01*
X501110Y337980D01*
X511715Y348585D01*
G37*
G36*
X515251Y345049D02*
X517372Y342928D01*
X506767Y332323D01*
X504646Y334444D01*
X515251Y345049D01*
G37*
G36*
X518786Y341514D02*
X520907Y339393D01*
X510302Y328788D01*
X508181Y330909D01*
X518786Y341514D01*
G37*
G36*
X522322Y337978D02*
X524443Y335857D01*
X513838Y325252D01*
X511717Y327373D01*
X522322Y337978D01*
G37*
G36*
X525857Y334443D02*
X527978Y332322D01*
X517373Y321717D01*
X515252Y323838D01*
X525857Y334443D01*
G37*
G36*
X529393Y330907D02*
X531514Y328786D01*
X520909Y318181D01*
X518788Y320302D01*
X529393Y330907D01*
G37*
G36*
X532928Y327372D02*
X535049Y325251D01*
X524444Y314646D01*
X522323Y316767D01*
X532928Y327372D01*
G37*
G36*
X536464Y323836D02*
X538585Y321715D01*
X527980Y311110D01*
X525859Y313231D01*
X536464Y323836D01*
G37*
D19*
G36*
X540000Y374395D02*
X564395Y350000D01*
X540000Y325605D01*
X515605Y350000D01*
X540000Y374395D01*
G37*
D20*
X530000Y235592D02*
X530000Y229050D01*
X530000Y235592D02*
X527680Y237912D01*
X490000Y245112D02*
X490000Y260000D01*
X500248Y237912D02*
X527680Y237912D01*
X500248Y237912D02*
X497200Y237912D01*
X490000Y245112D01*
X646280Y281464D02*
X646280Y299584D01*
X647008Y300312D01*
X647008Y319520D01*
X648096Y320608D01*
X648664Y372024D02*
X647408Y372024D01*
X648664Y372024D02*
X657808Y362880D01*
X657808Y323256D01*
X654072Y319520D01*
X647008Y319520D01*
D21*
X656058Y298872D03*
D22*
X646992Y298872D01*
X646280Y299584D01*
D20*
X490000Y284380D02*
X490000Y260000D01*
X490000Y284380D02*
X485008Y289372D01*
D21*
X656058Y280584D03*
X500610Y228768D03*
D20*
X534464Y350000D02*
X533776Y350688D01*
D21*
X533776Y350688D03*
X656058Y317160D03*
D20*
X653698Y319520D01*
X647008Y319520D01*
X647164Y418600D02*
X647164Y438456D01*
X561208Y451512D02*
X554872Y445176D01*
X561208Y493107D02*
X570002Y501901D01*
X570108Y501794D01*
X570108Y500142D01*
D21*
X570108Y500142D03*
D20*
X561208Y493107D02*
X561208Y451512D01*
X647164Y438456D02*
X652024Y438456D01*
X658744Y445176D01*
X658744Y472608D01*
X643504Y487848D01*
D21*
X622168Y487848D03*
D20*
X643504Y487848D01*
X647164Y372268D02*
X647408Y372024D01*
X647160Y280584D02*
X656058Y280584D01*
X647160Y280584D02*
X646280Y281464D01*
X500610Y228768D02*
X500248Y229130D01*
X500248Y237912D01*
X647408Y372024D02*
X654760Y372024D01*
X657808Y375072D01*
X656058Y375072D01*
D21*
X656058Y375072D03*
X658744Y414696D03*
D20*
X651068Y414696D01*
X647164Y418600D01*
D21*
X582544Y350688D03*
X439288Y393360D03*
X427096Y442128D03*
X326512Y432984D03*
X225928Y420792D03*
X125344Y390312D03*
X747136Y436032D03*
X844672Y417744D03*
X951352Y393360D03*
X576448Y228768D03*
X539872Y500040D03*
X926968Y350688D03*
X646552Y265344D03*
X433192Y268392D03*
X259456Y372024D03*
X79624Y323256D03*
X1033648Y323256D03*
X661792Y460416D03*
X594736Y454320D03*
D20*
X530000Y120950D02*
X530000Y115472D01*
X521208Y106680D02*
X502920Y106680D01*
X490000Y93760D02*
X490000Y80000D01*
X521208Y106680D02*
X530000Y115472D01*
X502920Y106680D02*
X490000Y93760D01*
D21*
X411856Y173904D03*
X417952Y173904D03*
X424048Y173904D03*
X430144Y173904D03*
X436240Y173904D03*
X442336Y173904D03*
X448432Y173904D03*
X454528Y173904D03*
X460624Y173904D03*
X466720Y173904D03*
X472816Y173904D03*
X478912Y173904D03*
X485008Y173904D03*
X491104Y173904D03*
X497200Y173904D03*
X503296Y173904D03*
X509392Y173904D03*
X515488Y173904D03*
X521584Y173904D03*
X527680Y173904D03*
X533776Y173904D03*
X539872Y173904D03*
X545968Y173904D03*
X552064Y173904D03*
X558160Y173904D03*
X564256Y173904D03*
X570352Y173904D03*
X576448Y173904D03*
X582544Y173904D03*
X588640Y173904D03*
X594736Y173904D03*
X600832Y173904D03*
X606928Y173904D03*
X613024Y173904D03*
X619120Y173904D03*
X625216Y173904D03*
X631312Y173904D03*
X637408Y173904D03*
X643504Y173904D03*
X649600Y173904D03*
X655696Y173904D03*
X661792Y173904D03*
X667888Y173904D03*
D23*
X539496Y349496D02*
X540000Y350000D01*
X539496Y349496D02*
X539496Y341376D01*
X533776Y347096D01*
X533776Y350688D01*
X545592Y347944D02*
X561920Y331615D01*
X545592Y347944D02*
X545592Y350520D01*
X534984Y350520D01*
X534464Y350000D01*
D21*
X414904Y167808D03*
X664840Y167808D03*
X545968Y350688D03*
D20*
X550000Y232800D02*
X550000Y229050D01*
X550000Y232800D02*
X555112Y237912D01*
X561208Y237912D01*
X569512Y237912D02*
X591600Y260000D01*
X569512Y237912D02*
X561208Y237912D01*
X591600Y260000D02*
X604816Y260000D01*
X626280Y281464D01*
X626280Y299584D01*
X627008Y300312D01*
X627008Y308016D01*
X627008Y319520D01*
X628096Y320608D01*
X628096Y323256D01*
X628096Y345844D01*
X628284Y346032D01*
D23*
X593636Y262036D02*
X591600Y260000D01*
X602780Y287224D02*
X602780Y308936D01*
X603880Y320608D02*
X628096Y320608D01*
X602780Y319508D02*
X602780Y287224D01*
X602780Y319508D02*
X603880Y320608D01*
D21*
X533776Y298872D03*
X616072Y308016D03*
D23*
X627008Y308016D01*
X533776Y298872D02*
X530728Y298872D01*
X524632Y292776D01*
X509392Y292776D02*
X503038Y286422D01*
X509392Y292776D02*
X524632Y292776D01*
D21*
X503038Y286422D03*
X634360Y332400D03*
D20*
X628096Y326136D01*
X628096Y323256D01*
D21*
X564256Y420792D03*
X515488Y423840D03*
D20*
X518536Y420792D02*
X564256Y420792D01*
X518536Y420792D02*
X515488Y423840D01*
X550000Y120950D02*
X550000Y111416D01*
X591600Y97248D02*
X591600Y80000D01*
X554736Y106680D02*
X550000Y111416D01*
X554736Y106680D02*
X582168Y106680D01*
X591600Y97248D01*
D23*
X565152Y321312D02*
X558385Y328080D01*
X565152Y321312D02*
X565856Y320608D01*
X565152Y321312D01*
X565856Y320608D02*
X603880Y320608D01*
X771520Y378120D02*
X1024504Y378120D01*
D21*
X1024504Y378120D03*
D23*
X606928Y378120D02*
X606928Y353568D01*
X606928Y378120D02*
X616072Y387264D01*
X762376Y387264D01*
X771520Y378120D01*
X575446Y332232D02*
X568991Y338686D01*
X585592Y332232D02*
X606928Y353568D01*
X585592Y332232D02*
X575446Y332232D01*
X600832Y356616D02*
X600832Y381168D01*
X613024Y393360D01*
X765424Y393360D02*
X774568Y384216D01*
X917824Y384216D01*
X923920Y390312D01*
D21*
X923920Y390312D03*
D23*
X765424Y393360D02*
X613024Y393360D01*
X586438Y342222D02*
X572527Y342222D01*
X586438Y342222D02*
X600832Y356616D01*
X594736Y381000D02*
X594736Y384216D01*
X609976Y399456D01*
X619120Y399456D01*
X820288Y399456D01*
X829432Y408600D01*
D21*
X829432Y408600D03*
D23*
X594736Y379987D02*
X572527Y357778D01*
X594736Y379987D02*
X594736Y381000D01*
X588640Y387264D02*
X606928Y405552D01*
X710560Y405552D02*
X728848Y423840D01*
D21*
X728848Y423840D03*
D23*
X710560Y405552D02*
X606928Y405552D01*
X588640Y380962D02*
X568991Y361314D01*
X588640Y380962D02*
X588640Y387264D01*
X597784Y405552D02*
X597784Y426888D01*
D21*
X597784Y426888D03*
D23*
X597784Y405552D02*
X582544Y390312D01*
X582544Y381937D02*
X565456Y364849D01*
X582544Y381937D02*
X582544Y390312D01*
X539872Y448224D02*
X527680Y460416D01*
X478912Y460416D02*
X460624Y442128D01*
D21*
X460624Y442128D03*
D23*
X478912Y460416D02*
X527680Y460416D01*
X576448Y405384D02*
X576448Y402874D01*
X576448Y405384D02*
X576448Y420792D01*
X564256Y432984D02*
X545968Y432984D01*
X539872Y439080D01*
X539872Y448224D01*
X564256Y432984D02*
X576448Y420792D01*
X576448Y382912D02*
X561920Y368385D01*
X576448Y382912D02*
X576448Y405384D01*
X369184Y414696D02*
X356992Y426888D01*
D21*
X356992Y426888D03*
D23*
X369184Y414696D02*
X558160Y414696D01*
X558385Y372526D02*
X558385Y371920D01*
X568452Y404404D02*
X558160Y414696D01*
X568452Y382593D02*
X558385Y372526D01*
X568452Y382593D02*
X568452Y404404D01*
X267076Y410124D02*
X259456Y417744D01*
D21*
X259456Y417744D03*
D23*
X267076Y410124D02*
X545968Y410124D01*
X551688Y410124D02*
X553588Y410124D01*
X551688Y410124D02*
X545968Y410124D01*
X554849Y376061D02*
X554849Y375456D01*
X563880Y399832D02*
X553588Y410124D01*
X563880Y385092D02*
X554849Y376061D01*
X563880Y385092D02*
X563880Y399832D01*
X158872Y405552D02*
X155824Y408600D01*
D21*
X155824Y408600D03*
D23*
X158872Y405552D02*
X549016Y405552D01*
X551314Y379597D02*
X551314Y378991D01*
X551314Y379597D02*
X559308Y387591D01*
X559308Y395260D01*
X549016Y405552D01*
D21*
X82672Y378120D03*
D23*
X82672Y384216D01*
X99436Y400980D02*
X544444Y400980D01*
X99436Y400980D02*
X82672Y384216D01*
X547778Y382527D02*
X554736Y389485D01*
X554736Y390688D02*
X544444Y400980D01*
X554736Y390688D02*
X554736Y389485D01*
X450616Y387264D02*
X430804Y367452D01*
X513343Y387264D02*
X525151Y375456D01*
X513343Y387264D02*
X450616Y387264D01*
X442336Y353584D02*
X430804Y342052D01*
X442336Y353584D02*
X442336Y353736D01*
X450287Y353736D01*
X451049Y354498D01*
X461359Y354498D01*
X462121Y353736D01*
X472816Y353736D01*
X478536Y359456D01*
X478536Y368808D02*
X487680Y377952D01*
X478536Y368808D02*
X478536Y359456D01*
X508512Y377952D02*
X518080Y368385D01*
X508512Y377952D02*
X487680Y377952D01*
D20*
X540000Y259200D02*
X540000Y229050D01*
X540000Y259200D02*
X540800Y260000D01*
D23*
X539872Y260928D01*
D21*
X506344Y311064D03*
X549016Y301920D03*
D23*
X540000Y120950D02*
X540000Y80800D01*
X540800Y80000D01*
X518742Y311064D02*
X528686Y321009D01*
X518742Y311064D02*
X506344Y311064D01*
X539872Y271272D02*
X577536Y308936D01*
X583780Y308936D01*
X539872Y271272D02*
X539872Y259328D01*
X540000Y259200D01*
X549016Y301920D02*
X556032Y308936D01*
X583780Y308936D01*
D20*
X545000Y239992D02*
X545000Y229050D01*
X565008Y260000D02*
X566200Y260000D01*
X565008Y260000D02*
X545000Y239992D01*
D23*
X563874Y260000D02*
X566200Y260000D01*
X583780Y277580D01*
X583780Y287224D01*
X573944Y287224D01*
X570352Y283632D01*
D21*
X570352Y283632D03*
X512440Y301920D03*
D23*
X545000Y120950D02*
X545000Y107272D01*
X554736Y97536D02*
X563880Y97536D01*
X566928Y94488D01*
X566928Y80728D01*
X566200Y80000D01*
X554736Y97536D02*
X545000Y107272D01*
X516669Y301920D02*
X532222Y317473D01*
X516669Y301920D02*
X512440Y301920D01*
D20*
X535000Y239736D02*
X535000Y229050D01*
X535000Y239736D02*
X530728Y244008D01*
X515400Y247144D02*
X515400Y256200D01*
X515400Y260000D01*
X518536Y244008D02*
X530728Y244008D01*
X518536Y244008D02*
X515400Y247144D01*
D23*
X515400Y256200D02*
X515400Y280496D01*
X627408Y363736D02*
X627408Y372024D01*
X627408Y363736D02*
X631312Y359832D01*
X640456Y359832D01*
X647284Y353004D02*
X647284Y346032D01*
X647284Y353004D02*
X640456Y359832D01*
D21*
X520318Y284898D03*
D23*
X519802Y284898D01*
X515400Y280496D01*
X535000Y120950D02*
X535000Y114376D01*
X515112Y94488D01*
X515112Y80288D01*
X515400Y80000D01*
X574471Y326136D02*
X565456Y335151D01*
X574471Y326136D02*
X585216Y326136D01*
X597101Y326136D01*
X618912Y372024D02*
X627408Y372024D01*
X603350Y332386D02*
X597101Y326136D01*
X603350Y332386D02*
X612648Y341683D01*
X612648Y365760D01*
X618912Y372024D01*
D21*
X606552Y329184D03*
D23*
X603350Y332386D01*
D20*
X628264Y438356D02*
X628164Y438456D01*
X628264Y438356D02*
X628264Y417744D01*
X628164Y417844D01*
X628164Y418600D01*
D23*
X628164Y433084D01*
X619120Y442128D01*
X579496Y442128D01*
D21*
X542920Y390312D03*
X567304Y442128D03*
D23*
X579496Y442128D01*
X540007Y390312D02*
X532222Y382527D01*
X540007Y390312D02*
X542920Y390312D01*
D21*
X637408Y475656D03*
D20*
X637664Y475400D01*
X637664Y460456D01*
D21*
X491104Y365928D03*
D23*
X499254Y357778D02*
X507473Y357778D01*
X499254Y357778D02*
X491104Y365928D01*
D21*
X518536Y394150D03*
X530728Y431178D03*
D23*
X523390Y431178D01*
X521584Y432984D01*
X500604Y432984D01*
X497200Y429580D01*
X518536Y389142D02*
X528686Y378991D01*
X518536Y389142D02*
X518536Y394150D01*
X500604Y445176D02*
X497200Y448580D01*
X500604Y445176D02*
X524872Y445176D01*
D21*
X491104Y323256D03*
D23*
X495578Y323256D02*
X511009Y338686D01*
X495578Y323256D02*
X491104Y323256D01*
X500531Y335280D02*
X507473Y342222D01*
X500531Y335280D02*
X475320Y335280D01*
X456204Y316652D02*
X430804Y291252D01*
X456204Y316652D02*
X466016Y326464D01*
X466344Y326792D01*
X464484Y308372D02*
X485008Y308372D01*
X464484Y308372D02*
X456204Y316652D01*
X466016Y326464D02*
X466504Y326464D01*
X475320Y335280D01*
M02*
