G04 EAGLE Gerber RS-274X export*
G75*
%MOMM*%
%FSLAX34Y34*%
%LPD*%
%INSolderpaste Top*%
%IPPOS*%
%AMOC8*
5,1,8,0,0,1.08239X$1,22.5*%
G01*
%ADD10R,0.250000X1.000000*%
%ADD11R,1.000000X1.340000*%
%ADD12R,1.300000X1.600000*%
%ADD13R,1.000000X1.400000*%
%ADD14R,1.600000X1.300000*%
%ADD15R,1.200000X1.400000*%
%ADD16R,0.300000X1.500000*%
%ADD17R,3.450000X3.450000*%


D10*
X530000Y229050D03*
X535000Y229050D03*
X540000Y229050D03*
X545000Y229050D03*
X550000Y229050D03*
D11*
X506125Y211800D03*
X573875Y211800D03*
D12*
X628096Y320608D03*
X648096Y320608D03*
X626280Y281464D03*
X646280Y281464D03*
D13*
X637664Y460456D03*
X647164Y438456D03*
X628164Y438456D03*
D12*
X647164Y418600D03*
X628164Y418600D03*
X627008Y300312D03*
X647008Y300312D03*
X583780Y308936D03*
X602780Y308936D03*
X583780Y287224D03*
X602780Y287224D03*
X647284Y346032D03*
X628284Y346032D03*
X627408Y372024D03*
X647408Y372024D03*
D14*
X485008Y289372D03*
X485008Y308372D03*
X497200Y448580D03*
X497200Y429580D03*
D15*
X524872Y445176D03*
X554872Y445176D03*
D10*
X550000Y120950D03*
X545000Y120950D03*
X540000Y120950D03*
X535000Y120950D03*
X530000Y120950D03*
D11*
X573875Y138200D03*
X506125Y138200D03*
D16*
G36*
X541415Y321715D02*
X543536Y323836D01*
X554141Y313231D01*
X552020Y311110D01*
X541415Y321715D01*
G37*
G36*
X544951Y325251D02*
X547072Y327372D01*
X557677Y316767D01*
X555556Y314646D01*
X544951Y325251D01*
G37*
G36*
X548486Y328786D02*
X550607Y330907D01*
X561212Y320302D01*
X559091Y318181D01*
X548486Y328786D01*
G37*
G36*
X552022Y332322D02*
X554143Y334443D01*
X564748Y323838D01*
X562627Y321717D01*
X552022Y332322D01*
G37*
G36*
X555557Y335857D02*
X557678Y337978D01*
X568283Y327373D01*
X566162Y325252D01*
X555557Y335857D01*
G37*
G36*
X559093Y339393D02*
X561214Y341514D01*
X571819Y330909D01*
X569698Y328788D01*
X559093Y339393D01*
G37*
G36*
X562628Y342928D02*
X564749Y345049D01*
X575354Y334444D01*
X573233Y332323D01*
X562628Y342928D01*
G37*
G36*
X566164Y346464D02*
X568285Y348585D01*
X578890Y337980D01*
X576769Y335859D01*
X566164Y346464D01*
G37*
G36*
X568285Y351415D02*
X566164Y353536D01*
X576769Y364141D01*
X578890Y362020D01*
X568285Y351415D01*
G37*
G36*
X564749Y354951D02*
X562628Y357072D01*
X573233Y367677D01*
X575354Y365556D01*
X564749Y354951D01*
G37*
G36*
X561214Y358486D02*
X559093Y360607D01*
X569698Y371212D01*
X571819Y369091D01*
X561214Y358486D01*
G37*
G36*
X557678Y362022D02*
X555557Y364143D01*
X566162Y374748D01*
X568283Y372627D01*
X557678Y362022D01*
G37*
G36*
X554143Y365557D02*
X552022Y367678D01*
X562627Y378283D01*
X564748Y376162D01*
X554143Y365557D01*
G37*
G36*
X550607Y369093D02*
X548486Y371214D01*
X559091Y381819D01*
X561212Y379698D01*
X550607Y369093D01*
G37*
G36*
X547072Y372628D02*
X544951Y374749D01*
X555556Y385354D01*
X557677Y383233D01*
X547072Y372628D01*
G37*
G36*
X543536Y376164D02*
X541415Y378285D01*
X552020Y388890D01*
X554141Y386769D01*
X543536Y376164D01*
G37*
G36*
X538585Y378285D02*
X536464Y376164D01*
X525859Y386769D01*
X527980Y388890D01*
X538585Y378285D01*
G37*
G36*
X535049Y374749D02*
X532928Y372628D01*
X522323Y383233D01*
X524444Y385354D01*
X535049Y374749D01*
G37*
G36*
X531514Y371214D02*
X529393Y369093D01*
X518788Y379698D01*
X520909Y381819D01*
X531514Y371214D01*
G37*
G36*
X527978Y367678D02*
X525857Y365557D01*
X515252Y376162D01*
X517373Y378283D01*
X527978Y367678D01*
G37*
G36*
X524443Y364143D02*
X522322Y362022D01*
X511717Y372627D01*
X513838Y374748D01*
X524443Y364143D01*
G37*
G36*
X520907Y360607D02*
X518786Y358486D01*
X508181Y369091D01*
X510302Y371212D01*
X520907Y360607D01*
G37*
G36*
X517372Y357072D02*
X515251Y354951D01*
X504646Y365556D01*
X506767Y367677D01*
X517372Y357072D01*
G37*
G36*
X513836Y353536D02*
X511715Y351415D01*
X501110Y362020D01*
X503231Y364141D01*
X513836Y353536D01*
G37*
G36*
X511715Y348585D02*
X513836Y346464D01*
X503231Y335859D01*
X501110Y337980D01*
X511715Y348585D01*
G37*
G36*
X515251Y345049D02*
X517372Y342928D01*
X506767Y332323D01*
X504646Y334444D01*
X515251Y345049D01*
G37*
G36*
X518786Y341514D02*
X520907Y339393D01*
X510302Y328788D01*
X508181Y330909D01*
X518786Y341514D01*
G37*
G36*
X522322Y337978D02*
X524443Y335857D01*
X513838Y325252D01*
X511717Y327373D01*
X522322Y337978D01*
G37*
G36*
X525857Y334443D02*
X527978Y332322D01*
X517373Y321717D01*
X515252Y323838D01*
X525857Y334443D01*
G37*
G36*
X529393Y330907D02*
X531514Y328786D01*
X520909Y318181D01*
X518788Y320302D01*
X529393Y330907D01*
G37*
G36*
X532928Y327372D02*
X535049Y325251D01*
X524444Y314646D01*
X522323Y316767D01*
X532928Y327372D01*
G37*
G36*
X536464Y323836D02*
X538585Y321715D01*
X527980Y311110D01*
X525859Y313231D01*
X536464Y323836D01*
G37*
D17*
G36*
X540000Y374395D02*
X564395Y350000D01*
X540000Y325605D01*
X515605Y350000D01*
X540000Y374395D01*
G37*
M02*
