<?xml version="1.0" standalone="no"?>
<!DOCTYPE svg PUBLIC "-//W3C//DTD SVG 20010904//EN"
 "http://www.w3.org/TR/2001/REC-SVG-20010904/DTD/svg10.dtd">
<svg version="1.0" xmlns="http://www.w3.org/2000/svg"
 width="5680.000000pt" height="3562.000000pt" viewBox="0 0 5680.000000 3562.000000"
 preserveAspectRatio="xMidYMid meet">

<g transform="translate(0.000000,3562.000000) scale(0.100000,-0.100000)"
fill="#000000" stroke="none">
<path d="M25620 30070 c-1010 -36 -1144 -43 -2205 -114 -952 -64 -1318 -94
-2320 -187 -1138 -105 -1242 -116 -2385 -260 -1057 -132 -1333 -171 -2390
-334 l-1195 -184 -1150 -226 c-1685 -332 -3081 -643 -4644 -1036 l-1153 -290
-1107 -330 c-608 -181 -1636 -497 -2283 -701 l-1178 -372 0 -3543 c0 -1949 2
-3543 4 -3543 3 0 503 192 1113 426 972 373 1245 473 2228 815 1069 373 1173
407 2270 744 1076 330 1224 373 2290 660 920 248 1362 361 2295 586 1101 266
1211 291 2345 524 1147 235 1233 251 2375 444 1115 189 1253 210 2332 356 630
85 1155 155 1167 155 l21 0 0 -9210 0 -9210 6135 0 6135 0 0 9210 c0 9017 0
9210 19 9210 10 0 547 -72 1192 -159 1116 -152 1232 -170 2354 -360 1145 -195
1215 -208 2335 -440 1060 -220 1250 -262 2300 -516 938 -226 1355 -333 2310
-590 1087 -293 1240 -337 2290 -660 1028 -316 1221 -378 2245 -731 1064 -367
1176 -408 2241 -820 617 -239 1124 -434 1128 -434 3 0 6 1594 6 3543 l0 3542
-1137 362 c-647 206 -1624 508 -2263 698 l-1125 336 -1160 290 c-1663 416
-3063 730 -4685 1048 l-1175 230 -1155 176 c-934 143 -1379 205 -2325 326
-1134 144 -1207 152 -2355 259 -983 92 -1384 124 -2350 191 -1144 78 -1186 80
-2315 119 l-1150 40 -1425 -2 -1425 -1 -1075 -37z m-1485 -13284 c112 -36 198
-89 285 -176 87 -87 139 -172 177 -285 23 -70 27 -96 27 -210 0 -114 -4 -140
-27 -210 -38 -113 -90 -198 -177 -285 -87 -87 -172 -139 -285 -177 -70 -23
-96 -27 -210 -27 -114 0 -140 4 -210 27 -113 38 -198 90 -285 177 -87 87 -139
172 -177 285 -23 70 -27 96 -27 210 0 114 4 140 27 210 82 246 276 422 532
481 92 21 251 12 350 -20z m8520 0 c112 -36 198 -89 285 -176 87 -87 139 -172
177 -285 23 -70 27 -96 27 -210 0 -114 -4 -140 -27 -210 -38 -113 -90 -198
-177 -285 -87 -87 -172 -139 -285 -177 -70 -23 -96 -27 -210 -27 -114 0 -140
4 -210 27 -113 38 -198 90 -285 177 -128 128 -196 278 -207 455 -21 346 212
650 562 731 92 21 251 12 350 -20z m-8520 -4260 c112 -36 198 -89 285 -176 87
-87 139 -172 177 -285 23 -70 27 -96 27 -210 0 -114 -4 -140 -27 -210 -38
-113 -90 -198 -177 -285 -87 -87 -172 -139 -285 -177 -70 -23 -96 -27 -210
-27 -114 0 -140 4 -210 27 -113 38 -198 90 -285 177 -87 87 -139 172 -177 285
-23 70 -27 96 -27 210 0 114 4 140 27 210 82 246 276 422 532 481 92 21 251
12 350 -20z m8520 0 c112 -36 198 -89 285 -176 87 -87 139 -172 177 -285 23
-70 27 -96 27 -210 0 -114 -4 -140 -27 -210 -38 -113 -90 -198 -177 -285 -87
-87 -172 -139 -285 -177 -70 -23 -96 -27 -210 -27 -114 0 -140 4 -210 27 -113
38 -198 90 -285 177 -87 87 -139 172 -177 285 -23 70 -27 96 -27 210 0 114 4
140 27 210 82 246 276 422 532 481 92 21 251 12 350 -20z m-8520 -4720 c112
-36 198 -89 285 -176 87 -87 139 -172 177 -285 23 -70 27 -96 27 -210 0 -114
-4 -140 -27 -210 -38 -113 -90 -198 -177 -285 -87 -87 -172 -139 -285 -177
-70 -23 -96 -27 -210 -27 -114 0 -140 4 -210 27 -113 38 -198 90 -285 177 -87
87 -139 172 -177 285 -23 70 -27 96 -27 210 0 114 4 140 27 210 79 241 281
425 522 479 103 23 257 15 360 -18z m8520 0 c112 -36 198 -89 285 -176 87 -87
139 -172 177 -285 23 -70 27 -96 27 -210 0 -114 -4 -140 -27 -210 -38 -113
-90 -198 -177 -285 -87 -87 -172 -139 -285 -177 -70 -23 -96 -27 -210 -27
-114 0 -140 4 -210 27 -113 38 -198 90 -285 177 -87 87 -139 172 -177 285 -23
70 -27 96 -27 210 0 114 4 140 27 210 82 246 276 422 532 481 92 21 251 12
350 -20z"/>
</g>
</svg>
