G04 EAGLE Gerber RS-274X export*
G75*
%MOMM*%
%FSLAX34Y34*%
%LPD*%
%IN*%
%IPPOS*%
%AMOC8*
5,1,8,0,0,1.08239X$1,22.5*%
G01*
%ADD10C,0.254000*%


D10*
X20000Y280000D02*
X145020Y323981D01*
X276287Y357775D01*
X410000Y380000D01*
X410000Y-10000D01*
X670000Y-10000D01*
X670000Y380000D01*
X801142Y358333D01*
X932281Y324818D01*
X1060000Y280000D01*
X1060000Y430000D01*
X984959Y453660D01*
X848867Y486573D01*
X710424Y507499D01*
X570683Y516280D01*
X430709Y512848D01*
X291567Y497229D01*
X154316Y469543D01*
X20000Y430000D01*
X20000Y280000D01*
X465000Y219464D02*
X464924Y218396D01*
X464771Y217335D01*
X464543Y216288D01*
X464241Y215260D01*
X463867Y214256D01*
X463422Y213281D01*
X462908Y212341D01*
X462329Y211440D01*
X461687Y210582D01*
X460985Y209772D01*
X460228Y209015D01*
X459418Y208313D01*
X458560Y207671D01*
X457659Y207092D01*
X456719Y206578D01*
X455744Y206133D01*
X454740Y205759D01*
X453712Y205457D01*
X452665Y205229D01*
X451604Y205076D01*
X450536Y205000D01*
X449464Y205000D01*
X448396Y205076D01*
X447335Y205229D01*
X446288Y205457D01*
X445260Y205759D01*
X444256Y206133D01*
X443281Y206578D01*
X442341Y207092D01*
X441440Y207671D01*
X440582Y208313D01*
X439772Y209015D01*
X439015Y209772D01*
X438313Y210582D01*
X437671Y211440D01*
X437092Y212341D01*
X436578Y213281D01*
X436133Y214256D01*
X435759Y215260D01*
X435457Y216288D01*
X435229Y217335D01*
X435076Y218396D01*
X435000Y219464D01*
X435000Y220536D01*
X435076Y221604D01*
X435229Y222665D01*
X435457Y223712D01*
X435759Y224740D01*
X436133Y225744D01*
X436578Y226719D01*
X437092Y227659D01*
X437671Y228560D01*
X438313Y229418D01*
X439015Y230228D01*
X439772Y230985D01*
X440582Y231687D01*
X441440Y232329D01*
X442341Y232908D01*
X443281Y233422D01*
X444256Y233867D01*
X445260Y234241D01*
X446288Y234543D01*
X447335Y234771D01*
X448396Y234924D01*
X449464Y235000D01*
X450536Y235000D01*
X451604Y234924D01*
X452665Y234771D01*
X453712Y234543D01*
X454740Y234241D01*
X455744Y233867D01*
X456719Y233422D01*
X457659Y232908D01*
X458560Y232329D01*
X459418Y231687D01*
X460228Y230985D01*
X460985Y230228D01*
X461687Y229418D01*
X462329Y228560D01*
X462908Y227659D01*
X463422Y226719D01*
X463867Y225744D01*
X464241Y224740D01*
X464543Y223712D01*
X464771Y222665D01*
X464924Y221604D01*
X465000Y220536D01*
X465000Y219464D01*
X645000Y219464D02*
X644924Y218396D01*
X644771Y217335D01*
X644543Y216288D01*
X644241Y215260D01*
X643867Y214256D01*
X643422Y213281D01*
X642908Y212341D01*
X642329Y211440D01*
X641687Y210582D01*
X640985Y209772D01*
X640228Y209015D01*
X639418Y208313D01*
X638560Y207671D01*
X637659Y207092D01*
X636719Y206578D01*
X635744Y206133D01*
X634740Y205759D01*
X633712Y205457D01*
X632665Y205229D01*
X631604Y205076D01*
X630536Y205000D01*
X629464Y205000D01*
X628396Y205076D01*
X627335Y205229D01*
X626288Y205457D01*
X625260Y205759D01*
X624256Y206133D01*
X623281Y206578D01*
X622341Y207092D01*
X621440Y207671D01*
X620582Y208313D01*
X619772Y209015D01*
X619015Y209772D01*
X618313Y210582D01*
X617671Y211440D01*
X617092Y212341D01*
X616578Y213281D01*
X616133Y214256D01*
X615759Y215260D01*
X615457Y216288D01*
X615229Y217335D01*
X615076Y218396D01*
X615000Y219464D01*
X615000Y220536D01*
X615076Y221604D01*
X615229Y222665D01*
X615457Y223712D01*
X615759Y224740D01*
X616133Y225744D01*
X616578Y226719D01*
X617092Y227659D01*
X617671Y228560D01*
X618313Y229418D01*
X619015Y230228D01*
X619772Y230985D01*
X620582Y231687D01*
X621440Y232329D01*
X622341Y232908D01*
X623281Y233422D01*
X624256Y233867D01*
X625260Y234241D01*
X626288Y234543D01*
X627335Y234771D01*
X628396Y234924D01*
X629464Y235000D01*
X630536Y235000D01*
X631604Y234924D01*
X632665Y234771D01*
X633712Y234543D01*
X634740Y234241D01*
X635744Y233867D01*
X636719Y233422D01*
X637659Y232908D01*
X638560Y232329D01*
X639418Y231687D01*
X640228Y230985D01*
X640985Y230228D01*
X641687Y229418D01*
X642329Y228560D01*
X642908Y227659D01*
X643422Y226719D01*
X643867Y225744D01*
X644241Y224740D01*
X644543Y223712D01*
X644771Y222665D01*
X644924Y221604D01*
X645000Y220536D01*
X645000Y219464D01*
X465000Y129464D02*
X464924Y128396D01*
X464771Y127335D01*
X464543Y126288D01*
X464241Y125260D01*
X463867Y124256D01*
X463422Y123281D01*
X462908Y122341D01*
X462329Y121440D01*
X461687Y120582D01*
X460985Y119772D01*
X460228Y119015D01*
X459418Y118313D01*
X458560Y117671D01*
X457659Y117092D01*
X456719Y116578D01*
X455744Y116133D01*
X454740Y115759D01*
X453712Y115457D01*
X452665Y115229D01*
X451604Y115076D01*
X450536Y115000D01*
X449464Y115000D01*
X448396Y115076D01*
X447335Y115229D01*
X446288Y115457D01*
X445260Y115759D01*
X444256Y116133D01*
X443281Y116578D01*
X442341Y117092D01*
X441440Y117671D01*
X440582Y118313D01*
X439772Y119015D01*
X439015Y119772D01*
X438313Y120582D01*
X437671Y121440D01*
X437092Y122341D01*
X436578Y123281D01*
X436133Y124256D01*
X435759Y125260D01*
X435457Y126288D01*
X435229Y127335D01*
X435076Y128396D01*
X435000Y129464D01*
X435000Y130536D01*
X435076Y131604D01*
X435229Y132665D01*
X435457Y133712D01*
X435759Y134740D01*
X436133Y135744D01*
X436578Y136719D01*
X437092Y137659D01*
X437671Y138560D01*
X438313Y139418D01*
X439015Y140228D01*
X439772Y140985D01*
X440582Y141687D01*
X441440Y142329D01*
X442341Y142908D01*
X443281Y143422D01*
X444256Y143867D01*
X445260Y144241D01*
X446288Y144543D01*
X447335Y144771D01*
X448396Y144924D01*
X449464Y145000D01*
X450536Y145000D01*
X451604Y144924D01*
X452665Y144771D01*
X453712Y144543D01*
X454740Y144241D01*
X455744Y143867D01*
X456719Y143422D01*
X457659Y142908D01*
X458560Y142329D01*
X459418Y141687D01*
X460228Y140985D01*
X460985Y140228D01*
X461687Y139418D01*
X462329Y138560D01*
X462908Y137659D01*
X463422Y136719D01*
X463867Y135744D01*
X464241Y134740D01*
X464543Y133712D01*
X464771Y132665D01*
X464924Y131604D01*
X465000Y130536D01*
X465000Y129464D01*
X645000Y129464D02*
X644924Y128396D01*
X644771Y127335D01*
X644543Y126288D01*
X644241Y125260D01*
X643867Y124256D01*
X643422Y123281D01*
X642908Y122341D01*
X642329Y121440D01*
X641687Y120582D01*
X640985Y119772D01*
X640228Y119015D01*
X639418Y118313D01*
X638560Y117671D01*
X637659Y117092D01*
X636719Y116578D01*
X635744Y116133D01*
X634740Y115759D01*
X633712Y115457D01*
X632665Y115229D01*
X631604Y115076D01*
X630536Y115000D01*
X629464Y115000D01*
X628396Y115076D01*
X627335Y115229D01*
X626288Y115457D01*
X625260Y115759D01*
X624256Y116133D01*
X623281Y116578D01*
X622341Y117092D01*
X621440Y117671D01*
X620582Y118313D01*
X619772Y119015D01*
X619015Y119772D01*
X618313Y120582D01*
X617671Y121440D01*
X617092Y122341D01*
X616578Y123281D01*
X616133Y124256D01*
X615759Y125260D01*
X615457Y126288D01*
X615229Y127335D01*
X615076Y128396D01*
X615000Y129464D01*
X615000Y130536D01*
X615076Y131604D01*
X615229Y132665D01*
X615457Y133712D01*
X615759Y134740D01*
X616133Y135744D01*
X616578Y136719D01*
X617092Y137659D01*
X617671Y138560D01*
X618313Y139418D01*
X619015Y140228D01*
X619772Y140985D01*
X620582Y141687D01*
X621440Y142329D01*
X622341Y142908D01*
X623281Y143422D01*
X624256Y143867D01*
X625260Y144241D01*
X626288Y144543D01*
X627335Y144771D01*
X628396Y144924D01*
X629464Y145000D01*
X630536Y145000D01*
X631604Y144924D01*
X632665Y144771D01*
X633712Y144543D01*
X634740Y144241D01*
X635744Y143867D01*
X636719Y143422D01*
X637659Y142908D01*
X638560Y142329D01*
X639418Y141687D01*
X640228Y140985D01*
X640985Y140228D01*
X641687Y139418D01*
X642329Y138560D01*
X642908Y137659D01*
X643422Y136719D01*
X643867Y135744D01*
X644241Y134740D01*
X644543Y133712D01*
X644771Y132665D01*
X644924Y131604D01*
X645000Y130536D01*
X645000Y129464D01*
X465000Y29464D02*
X464924Y28396D01*
X464771Y27335D01*
X464543Y26288D01*
X464241Y25260D01*
X463867Y24256D01*
X463422Y23281D01*
X462908Y22341D01*
X462329Y21440D01*
X461687Y20582D01*
X460985Y19772D01*
X460228Y19015D01*
X459418Y18313D01*
X458560Y17671D01*
X457659Y17092D01*
X456719Y16578D01*
X455744Y16133D01*
X454740Y15759D01*
X453712Y15457D01*
X452665Y15229D01*
X451604Y15076D01*
X450536Y15000D01*
X449464Y15000D01*
X448396Y15076D01*
X447335Y15229D01*
X446288Y15457D01*
X445260Y15759D01*
X444256Y16133D01*
X443281Y16578D01*
X442341Y17092D01*
X441440Y17671D01*
X440582Y18313D01*
X439772Y19015D01*
X439015Y19772D01*
X438313Y20582D01*
X437671Y21440D01*
X437092Y22341D01*
X436578Y23281D01*
X436133Y24256D01*
X435759Y25260D01*
X435457Y26288D01*
X435229Y27335D01*
X435076Y28396D01*
X435000Y29464D01*
X435000Y30536D01*
X435076Y31604D01*
X435229Y32665D01*
X435457Y33712D01*
X435759Y34740D01*
X436133Y35744D01*
X436578Y36719D01*
X437092Y37659D01*
X437671Y38560D01*
X438313Y39418D01*
X439015Y40228D01*
X439772Y40985D01*
X440582Y41687D01*
X441440Y42329D01*
X442341Y42908D01*
X443281Y43422D01*
X444256Y43867D01*
X445260Y44241D01*
X446288Y44543D01*
X447335Y44771D01*
X448396Y44924D01*
X449464Y45000D01*
X450536Y45000D01*
X451604Y44924D01*
X452665Y44771D01*
X453712Y44543D01*
X454740Y44241D01*
X455744Y43867D01*
X456719Y43422D01*
X457659Y42908D01*
X458560Y42329D01*
X459418Y41687D01*
X460228Y40985D01*
X460985Y40228D01*
X461687Y39418D01*
X462329Y38560D01*
X462908Y37659D01*
X463422Y36719D01*
X463867Y35744D01*
X464241Y34740D01*
X464543Y33712D01*
X464771Y32665D01*
X464924Y31604D01*
X465000Y30536D01*
X465000Y29464D01*
X645000Y29464D02*
X644924Y28396D01*
X644771Y27335D01*
X644543Y26288D01*
X644241Y25260D01*
X643867Y24256D01*
X643422Y23281D01*
X642908Y22341D01*
X642329Y21440D01*
X641687Y20582D01*
X640985Y19772D01*
X640228Y19015D01*
X639418Y18313D01*
X638560Y17671D01*
X637659Y17092D01*
X636719Y16578D01*
X635744Y16133D01*
X634740Y15759D01*
X633712Y15457D01*
X632665Y15229D01*
X631604Y15076D01*
X630536Y15000D01*
X629464Y15000D01*
X628396Y15076D01*
X627335Y15229D01*
X626288Y15457D01*
X625260Y15759D01*
X624256Y16133D01*
X623281Y16578D01*
X622341Y17092D01*
X621440Y17671D01*
X620582Y18313D01*
X619772Y19015D01*
X619015Y19772D01*
X618313Y20582D01*
X617671Y21440D01*
X617092Y22341D01*
X616578Y23281D01*
X616133Y24256D01*
X615759Y25260D01*
X615457Y26288D01*
X615229Y27335D01*
X615076Y28396D01*
X615000Y29464D01*
X615000Y30536D01*
X615076Y31604D01*
X615229Y32665D01*
X615457Y33712D01*
X615759Y34740D01*
X616133Y35744D01*
X616578Y36719D01*
X617092Y37659D01*
X617671Y38560D01*
X618313Y39418D01*
X619015Y40228D01*
X619772Y40985D01*
X620582Y41687D01*
X621440Y42329D01*
X622341Y42908D01*
X623281Y43422D01*
X624256Y43867D01*
X625260Y44241D01*
X626288Y44543D01*
X627335Y44771D01*
X628396Y44924D01*
X629464Y45000D01*
X630536Y45000D01*
X631604Y44924D01*
X632665Y44771D01*
X633712Y44543D01*
X634740Y44241D01*
X635744Y43867D01*
X636719Y43422D01*
X637659Y42908D01*
X638560Y42329D01*
X639418Y41687D01*
X640228Y40985D01*
X640985Y40228D01*
X641687Y39418D01*
X642329Y38560D01*
X642908Y37659D01*
X643422Y36719D01*
X643867Y35744D01*
X644241Y34740D01*
X644543Y33712D01*
X644771Y32665D01*
X644924Y31604D01*
X645000Y30536D01*
X645000Y29464D01*
M02*
