G04 EAGLE Gerber RS-274X export*
G75*
%MOMM*%
%FSLAX34Y34*%
%LPD*%
%INSilkscreen Top*%
%IPPOS*%
%AMOC8*
5,1,8,0,0,1.08239X$1,22.5*%
G01*
%ADD10C,0.076200*%
%ADD11C,0.127000*%
%ADD12C,0.101600*%
%ADD13C,0.189600*%
%ADD14C,0.203200*%
%ADD15C,0.152400*%


D10*
X497459Y46863D02*
X497459Y44253D01*
X497457Y44176D01*
X497451Y44100D01*
X497442Y44023D01*
X497429Y43947D01*
X497412Y43872D01*
X497392Y43798D01*
X497367Y43725D01*
X497340Y43654D01*
X497309Y43583D01*
X497274Y43515D01*
X497236Y43448D01*
X497195Y43383D01*
X497151Y43320D01*
X497104Y43260D01*
X497053Y43201D01*
X497000Y43146D01*
X496945Y43093D01*
X496886Y43042D01*
X496826Y42995D01*
X496763Y42951D01*
X496698Y42910D01*
X496631Y42872D01*
X496563Y42837D01*
X496492Y42806D01*
X496421Y42779D01*
X496348Y42754D01*
X496274Y42734D01*
X496199Y42717D01*
X496123Y42704D01*
X496046Y42695D01*
X495970Y42689D01*
X495893Y42687D01*
X495893Y42686D02*
X492760Y42686D01*
X492760Y42687D02*
X492683Y42689D01*
X492607Y42695D01*
X492530Y42704D01*
X492454Y42717D01*
X492379Y42734D01*
X492305Y42754D01*
X492232Y42779D01*
X492161Y42806D01*
X492090Y42837D01*
X492022Y42872D01*
X491955Y42910D01*
X491890Y42951D01*
X491827Y42995D01*
X491767Y43042D01*
X491708Y43093D01*
X491653Y43146D01*
X491600Y43201D01*
X491549Y43260D01*
X491502Y43320D01*
X491458Y43383D01*
X491417Y43448D01*
X491379Y43515D01*
X491344Y43583D01*
X491313Y43654D01*
X491286Y43725D01*
X491261Y43798D01*
X491241Y43872D01*
X491224Y43947D01*
X491211Y44023D01*
X491202Y44100D01*
X491196Y44176D01*
X491194Y44253D01*
X491194Y46863D01*
X499025Y46863D01*
X499102Y46861D01*
X499178Y46855D01*
X499255Y46846D01*
X499331Y46833D01*
X499406Y46816D01*
X499480Y46796D01*
X499553Y46771D01*
X499624Y46744D01*
X499695Y46713D01*
X499763Y46678D01*
X499830Y46640D01*
X499895Y46599D01*
X499958Y46555D01*
X500018Y46508D01*
X500077Y46457D01*
X500132Y46404D01*
X500185Y46349D01*
X500236Y46290D01*
X500283Y46230D01*
X500327Y46167D01*
X500368Y46102D01*
X500406Y46035D01*
X500441Y45967D01*
X500472Y45896D01*
X500499Y45825D01*
X500524Y45752D01*
X500544Y45678D01*
X500561Y45603D01*
X500574Y45527D01*
X500583Y45450D01*
X500589Y45374D01*
X500591Y45297D01*
X500592Y45297D02*
X500592Y43208D01*
X497459Y51266D02*
X491194Y51266D01*
X491194Y53877D01*
X491196Y53954D01*
X491202Y54030D01*
X491211Y54107D01*
X491224Y54183D01*
X491241Y54258D01*
X491261Y54332D01*
X491286Y54405D01*
X491313Y54476D01*
X491344Y54547D01*
X491379Y54615D01*
X491417Y54682D01*
X491458Y54747D01*
X491502Y54810D01*
X491549Y54870D01*
X491600Y54929D01*
X491653Y54984D01*
X491708Y55037D01*
X491767Y55088D01*
X491827Y55135D01*
X491890Y55179D01*
X491955Y55220D01*
X492022Y55258D01*
X492090Y55293D01*
X492161Y55324D01*
X492232Y55351D01*
X492305Y55376D01*
X492379Y55396D01*
X492454Y55413D01*
X492530Y55426D01*
X492606Y55435D01*
X492683Y55441D01*
X492760Y55443D01*
X497459Y55443D01*
X497459Y63627D02*
X488061Y63627D01*
X497459Y63627D02*
X497459Y61016D01*
X497457Y60939D01*
X497451Y60863D01*
X497442Y60786D01*
X497429Y60710D01*
X497412Y60635D01*
X497392Y60561D01*
X497367Y60488D01*
X497340Y60417D01*
X497309Y60346D01*
X497274Y60278D01*
X497236Y60211D01*
X497195Y60146D01*
X497151Y60083D01*
X497104Y60023D01*
X497053Y59964D01*
X497000Y59909D01*
X496945Y59856D01*
X496886Y59805D01*
X496826Y59758D01*
X496763Y59714D01*
X496698Y59673D01*
X496631Y59635D01*
X496563Y59600D01*
X496492Y59569D01*
X496421Y59542D01*
X496348Y59517D01*
X496274Y59497D01*
X496199Y59480D01*
X496123Y59467D01*
X496046Y59458D01*
X495970Y59452D01*
X495893Y59450D01*
X492760Y59450D01*
X492683Y59452D01*
X492607Y59458D01*
X492530Y59467D01*
X492454Y59480D01*
X492379Y59497D01*
X492305Y59517D01*
X492232Y59542D01*
X492161Y59569D01*
X492090Y59600D01*
X492022Y59635D01*
X491955Y59673D01*
X491890Y59714D01*
X491827Y59758D01*
X491767Y59805D01*
X491708Y59856D01*
X491653Y59909D01*
X491600Y59964D01*
X491549Y60023D01*
X491502Y60083D01*
X491458Y60146D01*
X491417Y60211D01*
X491379Y60278D01*
X491344Y60346D01*
X491313Y60417D01*
X491286Y60488D01*
X491261Y60561D01*
X491241Y60635D01*
X491224Y60710D01*
X491211Y60786D01*
X491202Y60863D01*
X491196Y60939D01*
X491194Y61016D01*
X491194Y63627D01*
X512530Y31444D02*
X518795Y31444D01*
X512530Y31444D02*
X512530Y34577D01*
X513574Y34577D01*
X518795Y39055D02*
X518795Y41666D01*
X518795Y39055D02*
X518793Y38978D01*
X518787Y38902D01*
X518778Y38825D01*
X518765Y38749D01*
X518748Y38674D01*
X518728Y38600D01*
X518703Y38527D01*
X518676Y38456D01*
X518645Y38385D01*
X518610Y38317D01*
X518572Y38250D01*
X518531Y38185D01*
X518487Y38122D01*
X518440Y38062D01*
X518389Y38003D01*
X518336Y37948D01*
X518281Y37895D01*
X518222Y37844D01*
X518162Y37797D01*
X518099Y37753D01*
X518034Y37712D01*
X517967Y37674D01*
X517899Y37639D01*
X517828Y37608D01*
X517757Y37581D01*
X517684Y37556D01*
X517610Y37536D01*
X517535Y37519D01*
X517459Y37506D01*
X517382Y37497D01*
X517306Y37491D01*
X517229Y37489D01*
X514618Y37489D01*
X514528Y37491D01*
X514439Y37497D01*
X514349Y37506D01*
X514260Y37520D01*
X514172Y37537D01*
X514085Y37558D01*
X513998Y37583D01*
X513913Y37612D01*
X513829Y37644D01*
X513747Y37679D01*
X513666Y37719D01*
X513587Y37761D01*
X513510Y37807D01*
X513435Y37857D01*
X513362Y37909D01*
X513291Y37965D01*
X513223Y38023D01*
X513158Y38085D01*
X513095Y38149D01*
X513035Y38216D01*
X512978Y38285D01*
X512924Y38357D01*
X512873Y38431D01*
X512825Y38507D01*
X512781Y38585D01*
X512740Y38665D01*
X512702Y38747D01*
X512668Y38830D01*
X512638Y38915D01*
X512611Y39001D01*
X512588Y39087D01*
X512569Y39175D01*
X512554Y39264D01*
X512542Y39353D01*
X512534Y39442D01*
X512530Y39532D01*
X512530Y39622D01*
X512534Y39712D01*
X512542Y39801D01*
X512554Y39890D01*
X512569Y39979D01*
X512588Y40067D01*
X512611Y40153D01*
X512638Y40239D01*
X512668Y40324D01*
X512702Y40407D01*
X512740Y40489D01*
X512781Y40569D01*
X512825Y40647D01*
X512873Y40723D01*
X512924Y40797D01*
X512978Y40869D01*
X513035Y40938D01*
X513095Y41005D01*
X513158Y41069D01*
X513223Y41131D01*
X513291Y41189D01*
X513362Y41245D01*
X513435Y41297D01*
X513510Y41347D01*
X513587Y41393D01*
X513666Y41435D01*
X513747Y41475D01*
X513829Y41510D01*
X513913Y41542D01*
X513998Y41571D01*
X514085Y41596D01*
X514172Y41617D01*
X514260Y41634D01*
X514349Y41648D01*
X514439Y41657D01*
X514528Y41663D01*
X514618Y41665D01*
X514618Y41666D02*
X515662Y41666D01*
X515662Y37489D01*
X515140Y46197D02*
X516184Y48807D01*
X515140Y46196D02*
X515112Y46130D01*
X515079Y46065D01*
X515044Y46002D01*
X515005Y45941D01*
X514963Y45882D01*
X514918Y45826D01*
X514870Y45772D01*
X514819Y45721D01*
X514766Y45672D01*
X514709Y45627D01*
X514651Y45584D01*
X514591Y45545D01*
X514528Y45508D01*
X514463Y45476D01*
X514397Y45447D01*
X514330Y45421D01*
X514261Y45399D01*
X514191Y45381D01*
X514120Y45366D01*
X514049Y45355D01*
X513977Y45348D01*
X513905Y45345D01*
X513833Y45346D01*
X513760Y45351D01*
X513689Y45359D01*
X513617Y45371D01*
X513547Y45387D01*
X513478Y45407D01*
X513409Y45431D01*
X513342Y45458D01*
X513277Y45488D01*
X513213Y45522D01*
X513151Y45560D01*
X513091Y45600D01*
X513034Y45644D01*
X512979Y45691D01*
X512926Y45741D01*
X512877Y45793D01*
X512830Y45848D01*
X512786Y45905D01*
X512745Y45965D01*
X512708Y46027D01*
X512673Y46091D01*
X512643Y46156D01*
X512615Y46223D01*
X512592Y46291D01*
X512572Y46361D01*
X512556Y46431D01*
X512543Y46502D01*
X512535Y46574D01*
X512530Y46646D01*
X512529Y46718D01*
X512530Y46719D02*
X512534Y46870D01*
X512542Y47021D01*
X512553Y47172D01*
X512569Y47323D01*
X512589Y47473D01*
X512612Y47623D01*
X512639Y47772D01*
X512670Y47920D01*
X512705Y48068D01*
X512743Y48214D01*
X512786Y48360D01*
X512832Y48504D01*
X512881Y48647D01*
X512934Y48789D01*
X512991Y48929D01*
X513052Y49068D01*
X516184Y48807D02*
X516212Y48873D01*
X516245Y48938D01*
X516280Y49001D01*
X516319Y49062D01*
X516361Y49121D01*
X516406Y49177D01*
X516454Y49231D01*
X516505Y49282D01*
X516558Y49331D01*
X516615Y49377D01*
X516673Y49419D01*
X516733Y49458D01*
X516796Y49495D01*
X516861Y49527D01*
X516927Y49556D01*
X516994Y49582D01*
X517063Y49604D01*
X517133Y49622D01*
X517204Y49637D01*
X517275Y49648D01*
X517347Y49655D01*
X517419Y49658D01*
X517491Y49657D01*
X517564Y49652D01*
X517635Y49644D01*
X517707Y49632D01*
X517777Y49616D01*
X517846Y49596D01*
X517915Y49572D01*
X517982Y49545D01*
X518047Y49515D01*
X518111Y49481D01*
X518173Y49443D01*
X518233Y49403D01*
X518290Y49359D01*
X518345Y49312D01*
X518398Y49262D01*
X518447Y49210D01*
X518494Y49155D01*
X518538Y49098D01*
X518579Y49038D01*
X518616Y48976D01*
X518651Y48912D01*
X518681Y48847D01*
X518709Y48780D01*
X518732Y48712D01*
X518752Y48642D01*
X518768Y48572D01*
X518781Y48501D01*
X518789Y48429D01*
X518794Y48357D01*
X518795Y48285D01*
X518790Y48075D01*
X518779Y47866D01*
X518764Y47657D01*
X518744Y47449D01*
X518718Y47241D01*
X518688Y47034D01*
X518653Y46827D01*
X518613Y46622D01*
X518569Y46417D01*
X518519Y46214D01*
X518465Y46011D01*
X518405Y45810D01*
X518342Y45611D01*
X518273Y45413D01*
X518795Y54905D02*
X518795Y57515D01*
X518795Y54905D02*
X518793Y54828D01*
X518787Y54752D01*
X518778Y54675D01*
X518765Y54599D01*
X518748Y54524D01*
X518728Y54450D01*
X518703Y54377D01*
X518676Y54306D01*
X518645Y54235D01*
X518610Y54167D01*
X518572Y54100D01*
X518531Y54035D01*
X518487Y53972D01*
X518440Y53912D01*
X518389Y53853D01*
X518336Y53798D01*
X518281Y53745D01*
X518222Y53694D01*
X518162Y53647D01*
X518099Y53603D01*
X518034Y53562D01*
X517967Y53524D01*
X517899Y53489D01*
X517828Y53458D01*
X517757Y53431D01*
X517684Y53406D01*
X517610Y53386D01*
X517535Y53369D01*
X517459Y53356D01*
X517382Y53347D01*
X517306Y53341D01*
X517229Y53339D01*
X517229Y53338D02*
X514618Y53338D01*
X514618Y53339D02*
X514528Y53341D01*
X514439Y53347D01*
X514349Y53356D01*
X514260Y53370D01*
X514172Y53387D01*
X514085Y53408D01*
X513998Y53433D01*
X513913Y53462D01*
X513829Y53494D01*
X513747Y53529D01*
X513666Y53569D01*
X513587Y53611D01*
X513510Y53657D01*
X513435Y53707D01*
X513362Y53759D01*
X513291Y53815D01*
X513223Y53873D01*
X513158Y53935D01*
X513095Y53999D01*
X513035Y54066D01*
X512978Y54135D01*
X512924Y54207D01*
X512873Y54281D01*
X512825Y54357D01*
X512781Y54435D01*
X512740Y54515D01*
X512702Y54597D01*
X512668Y54680D01*
X512638Y54765D01*
X512611Y54851D01*
X512588Y54937D01*
X512569Y55025D01*
X512554Y55114D01*
X512542Y55203D01*
X512534Y55292D01*
X512530Y55382D01*
X512530Y55472D01*
X512534Y55562D01*
X512542Y55651D01*
X512554Y55740D01*
X512569Y55829D01*
X512588Y55917D01*
X512611Y56003D01*
X512638Y56089D01*
X512668Y56174D01*
X512702Y56257D01*
X512740Y56339D01*
X512781Y56419D01*
X512825Y56497D01*
X512873Y56573D01*
X512924Y56647D01*
X512978Y56719D01*
X513035Y56788D01*
X513095Y56855D01*
X513158Y56919D01*
X513223Y56981D01*
X513291Y57039D01*
X513362Y57095D01*
X513435Y57147D01*
X513510Y57197D01*
X513587Y57243D01*
X513666Y57285D01*
X513747Y57325D01*
X513829Y57360D01*
X513913Y57392D01*
X513998Y57421D01*
X514085Y57446D01*
X514172Y57467D01*
X514260Y57484D01*
X514349Y57498D01*
X514439Y57507D01*
X514528Y57513D01*
X514618Y57515D01*
X515662Y57515D01*
X515662Y53338D01*
X512530Y60494D02*
X512530Y63627D01*
X509397Y61539D02*
X517229Y61539D01*
X517306Y61541D01*
X517382Y61547D01*
X517459Y61556D01*
X517535Y61569D01*
X517610Y61586D01*
X517684Y61606D01*
X517757Y61631D01*
X517828Y61658D01*
X517899Y61689D01*
X517967Y61724D01*
X518034Y61762D01*
X518099Y61803D01*
X518162Y61847D01*
X518222Y61894D01*
X518281Y61945D01*
X518336Y61998D01*
X518389Y62053D01*
X518440Y62112D01*
X518487Y62172D01*
X518531Y62235D01*
X518572Y62300D01*
X518610Y62367D01*
X518645Y62435D01*
X518676Y62506D01*
X518703Y62577D01*
X518728Y62650D01*
X518748Y62724D01*
X518765Y62799D01*
X518778Y62875D01*
X518787Y62952D01*
X518793Y63028D01*
X518795Y63105D01*
X518795Y63627D01*
X540568Y46735D02*
X539524Y44125D01*
X539524Y44124D02*
X539496Y44058D01*
X539463Y43993D01*
X539428Y43930D01*
X539389Y43869D01*
X539347Y43810D01*
X539302Y43754D01*
X539254Y43700D01*
X539203Y43649D01*
X539150Y43600D01*
X539093Y43555D01*
X539035Y43512D01*
X538975Y43473D01*
X538912Y43436D01*
X538847Y43404D01*
X538781Y43375D01*
X538714Y43349D01*
X538645Y43327D01*
X538575Y43309D01*
X538504Y43294D01*
X538433Y43283D01*
X538361Y43276D01*
X538289Y43273D01*
X538217Y43274D01*
X538144Y43279D01*
X538073Y43287D01*
X538001Y43299D01*
X537931Y43315D01*
X537862Y43335D01*
X537793Y43359D01*
X537726Y43386D01*
X537661Y43416D01*
X537597Y43450D01*
X537535Y43488D01*
X537475Y43528D01*
X537418Y43572D01*
X537363Y43619D01*
X537310Y43669D01*
X537261Y43721D01*
X537214Y43776D01*
X537170Y43833D01*
X537129Y43893D01*
X537092Y43955D01*
X537057Y44019D01*
X537027Y44084D01*
X536999Y44151D01*
X536976Y44219D01*
X536956Y44289D01*
X536940Y44359D01*
X536927Y44430D01*
X536919Y44502D01*
X536914Y44574D01*
X536913Y44646D01*
X536914Y44647D02*
X536918Y44798D01*
X536926Y44949D01*
X536937Y45100D01*
X536953Y45251D01*
X536973Y45401D01*
X536996Y45551D01*
X537023Y45700D01*
X537054Y45848D01*
X537089Y45996D01*
X537127Y46142D01*
X537170Y46288D01*
X537216Y46432D01*
X537265Y46575D01*
X537318Y46717D01*
X537375Y46857D01*
X537436Y46996D01*
X540568Y46735D02*
X540596Y46801D01*
X540629Y46866D01*
X540664Y46929D01*
X540703Y46990D01*
X540745Y47049D01*
X540790Y47105D01*
X540838Y47159D01*
X540889Y47210D01*
X540942Y47259D01*
X540999Y47305D01*
X541057Y47347D01*
X541117Y47386D01*
X541180Y47423D01*
X541245Y47455D01*
X541311Y47484D01*
X541378Y47510D01*
X541447Y47532D01*
X541517Y47550D01*
X541588Y47565D01*
X541659Y47576D01*
X541731Y47583D01*
X541803Y47586D01*
X541875Y47585D01*
X541948Y47580D01*
X542019Y47572D01*
X542091Y47560D01*
X542161Y47544D01*
X542230Y47524D01*
X542299Y47500D01*
X542366Y47473D01*
X542431Y47443D01*
X542495Y47409D01*
X542557Y47371D01*
X542617Y47331D01*
X542674Y47287D01*
X542729Y47240D01*
X542782Y47190D01*
X542831Y47138D01*
X542878Y47083D01*
X542922Y47026D01*
X542963Y46966D01*
X543000Y46904D01*
X543035Y46840D01*
X543065Y46775D01*
X543093Y46708D01*
X543116Y46640D01*
X543136Y46570D01*
X543152Y46500D01*
X543165Y46429D01*
X543173Y46357D01*
X543178Y46285D01*
X543179Y46213D01*
X543174Y46003D01*
X543163Y45794D01*
X543148Y45585D01*
X543128Y45377D01*
X543102Y45169D01*
X543072Y44962D01*
X543037Y44755D01*
X542997Y44550D01*
X542953Y44345D01*
X542903Y44142D01*
X542849Y43939D01*
X542789Y43738D01*
X542726Y43539D01*
X542657Y43341D01*
X543179Y55397D02*
X533781Y55397D01*
X543179Y55397D02*
X543179Y52787D01*
X543177Y52710D01*
X543171Y52634D01*
X543162Y52557D01*
X543149Y52481D01*
X543132Y52406D01*
X543112Y52332D01*
X543087Y52259D01*
X543060Y52188D01*
X543029Y52117D01*
X542994Y52049D01*
X542956Y51982D01*
X542915Y51917D01*
X542871Y51854D01*
X542824Y51794D01*
X542773Y51735D01*
X542720Y51680D01*
X542665Y51627D01*
X542606Y51576D01*
X542546Y51529D01*
X542483Y51485D01*
X542418Y51444D01*
X542351Y51406D01*
X542283Y51371D01*
X542212Y51340D01*
X542141Y51313D01*
X542068Y51288D01*
X541994Y51268D01*
X541919Y51251D01*
X541843Y51238D01*
X541766Y51229D01*
X541690Y51223D01*
X541613Y51221D01*
X538480Y51221D01*
X538403Y51223D01*
X538327Y51229D01*
X538250Y51238D01*
X538174Y51251D01*
X538099Y51268D01*
X538025Y51288D01*
X537952Y51313D01*
X537881Y51340D01*
X537810Y51371D01*
X537742Y51406D01*
X537675Y51444D01*
X537610Y51485D01*
X537547Y51529D01*
X537487Y51576D01*
X537428Y51627D01*
X537373Y51680D01*
X537320Y51735D01*
X537269Y51794D01*
X537222Y51854D01*
X537178Y51917D01*
X537137Y51982D01*
X537099Y52049D01*
X537064Y52117D01*
X537033Y52188D01*
X537006Y52259D01*
X536981Y52332D01*
X536961Y52406D01*
X536944Y52481D01*
X536931Y52557D01*
X536922Y52634D01*
X536916Y52710D01*
X536914Y52787D01*
X536914Y55397D01*
X539524Y61278D02*
X539524Y63627D01*
X539525Y61278D02*
X539527Y61194D01*
X539533Y61109D01*
X539543Y61026D01*
X539556Y60942D01*
X539574Y60860D01*
X539595Y60778D01*
X539620Y60697D01*
X539648Y60618D01*
X539681Y60540D01*
X539717Y60464D01*
X539756Y60389D01*
X539799Y60316D01*
X539845Y60245D01*
X539894Y60177D01*
X539946Y60111D01*
X540002Y60047D01*
X540060Y59986D01*
X540121Y59928D01*
X540185Y59872D01*
X540251Y59820D01*
X540319Y59771D01*
X540390Y59725D01*
X540463Y59682D01*
X540538Y59643D01*
X540614Y59607D01*
X540692Y59574D01*
X540771Y59546D01*
X540852Y59521D01*
X540934Y59500D01*
X541016Y59482D01*
X541100Y59469D01*
X541183Y59459D01*
X541268Y59453D01*
X541352Y59451D01*
X541436Y59453D01*
X541521Y59459D01*
X541604Y59469D01*
X541688Y59482D01*
X541770Y59500D01*
X541852Y59521D01*
X541933Y59546D01*
X542012Y59574D01*
X542090Y59607D01*
X542166Y59643D01*
X542241Y59682D01*
X542314Y59725D01*
X542385Y59771D01*
X542453Y59820D01*
X542519Y59872D01*
X542583Y59928D01*
X542644Y59986D01*
X542702Y60047D01*
X542758Y60111D01*
X542810Y60177D01*
X542859Y60245D01*
X542905Y60316D01*
X542948Y60389D01*
X542987Y60464D01*
X543023Y60540D01*
X543056Y60618D01*
X543084Y60697D01*
X543109Y60778D01*
X543130Y60860D01*
X543148Y60942D01*
X543161Y61026D01*
X543171Y61109D01*
X543177Y61194D01*
X543179Y61278D01*
X543179Y63627D01*
X538480Y63627D01*
X538403Y63625D01*
X538327Y63619D01*
X538250Y63610D01*
X538174Y63597D01*
X538099Y63580D01*
X538025Y63560D01*
X537952Y63535D01*
X537881Y63508D01*
X537810Y63477D01*
X537742Y63442D01*
X537675Y63404D01*
X537610Y63363D01*
X537547Y63319D01*
X537487Y63272D01*
X537428Y63221D01*
X537373Y63168D01*
X537320Y63113D01*
X537269Y63054D01*
X537222Y62994D01*
X537178Y62931D01*
X537137Y62866D01*
X537099Y62799D01*
X537064Y62731D01*
X537033Y62660D01*
X537006Y62589D01*
X536981Y62516D01*
X536961Y62442D01*
X536944Y62367D01*
X536931Y62291D01*
X536922Y62214D01*
X536916Y62138D01*
X536914Y62061D01*
X536914Y59972D01*
X563908Y47783D02*
X564952Y50394D01*
X563908Y47783D02*
X563880Y47717D01*
X563847Y47652D01*
X563812Y47589D01*
X563773Y47528D01*
X563731Y47469D01*
X563686Y47413D01*
X563638Y47359D01*
X563587Y47308D01*
X563534Y47259D01*
X563477Y47214D01*
X563419Y47171D01*
X563359Y47132D01*
X563296Y47095D01*
X563231Y47063D01*
X563165Y47034D01*
X563098Y47008D01*
X563029Y46986D01*
X562959Y46968D01*
X562888Y46953D01*
X562817Y46942D01*
X562745Y46935D01*
X562673Y46932D01*
X562601Y46933D01*
X562528Y46938D01*
X562457Y46946D01*
X562385Y46958D01*
X562315Y46974D01*
X562246Y46994D01*
X562177Y47018D01*
X562110Y47045D01*
X562045Y47075D01*
X561981Y47109D01*
X561919Y47147D01*
X561859Y47187D01*
X561802Y47231D01*
X561747Y47278D01*
X561694Y47328D01*
X561645Y47380D01*
X561598Y47435D01*
X561554Y47492D01*
X561513Y47552D01*
X561476Y47614D01*
X561441Y47678D01*
X561411Y47743D01*
X561383Y47810D01*
X561360Y47878D01*
X561340Y47948D01*
X561324Y48018D01*
X561311Y48089D01*
X561303Y48161D01*
X561298Y48233D01*
X561297Y48305D01*
X561298Y48306D02*
X561302Y48457D01*
X561310Y48608D01*
X561321Y48759D01*
X561337Y48910D01*
X561357Y49060D01*
X561380Y49210D01*
X561407Y49359D01*
X561438Y49507D01*
X561473Y49655D01*
X561511Y49801D01*
X561554Y49947D01*
X561600Y50091D01*
X561649Y50234D01*
X561702Y50376D01*
X561759Y50516D01*
X561820Y50655D01*
X564952Y50394D02*
X564980Y50460D01*
X565013Y50525D01*
X565048Y50588D01*
X565087Y50649D01*
X565129Y50708D01*
X565174Y50764D01*
X565222Y50818D01*
X565273Y50869D01*
X565326Y50918D01*
X565383Y50964D01*
X565441Y51006D01*
X565501Y51045D01*
X565564Y51082D01*
X565629Y51114D01*
X565695Y51143D01*
X565762Y51169D01*
X565831Y51191D01*
X565901Y51209D01*
X565972Y51224D01*
X566043Y51235D01*
X566115Y51242D01*
X566187Y51245D01*
X566259Y51244D01*
X566332Y51239D01*
X566403Y51231D01*
X566475Y51219D01*
X566545Y51203D01*
X566614Y51183D01*
X566683Y51159D01*
X566750Y51132D01*
X566815Y51102D01*
X566879Y51068D01*
X566941Y51030D01*
X567001Y50990D01*
X567058Y50946D01*
X567113Y50899D01*
X567166Y50849D01*
X567215Y50797D01*
X567262Y50742D01*
X567306Y50685D01*
X567347Y50625D01*
X567384Y50563D01*
X567419Y50499D01*
X567449Y50434D01*
X567477Y50367D01*
X567500Y50299D01*
X567520Y50229D01*
X567536Y50159D01*
X567549Y50088D01*
X567557Y50016D01*
X567562Y49944D01*
X567563Y49872D01*
X567558Y49662D01*
X567547Y49453D01*
X567532Y49244D01*
X567512Y49036D01*
X567486Y48828D01*
X567456Y48621D01*
X567421Y48414D01*
X567381Y48209D01*
X567337Y48004D01*
X567287Y47801D01*
X567233Y47598D01*
X567173Y47397D01*
X567110Y47198D01*
X567041Y47000D01*
X567563Y56502D02*
X567563Y58590D01*
X567563Y56502D02*
X567561Y56425D01*
X567555Y56349D01*
X567546Y56272D01*
X567533Y56196D01*
X567516Y56121D01*
X567496Y56047D01*
X567471Y55974D01*
X567444Y55903D01*
X567413Y55832D01*
X567378Y55764D01*
X567340Y55697D01*
X567299Y55632D01*
X567255Y55569D01*
X567208Y55509D01*
X567157Y55450D01*
X567104Y55395D01*
X567049Y55342D01*
X566990Y55291D01*
X566930Y55244D01*
X566867Y55200D01*
X566802Y55159D01*
X566735Y55121D01*
X566667Y55086D01*
X566596Y55055D01*
X566525Y55028D01*
X566452Y55003D01*
X566378Y54983D01*
X566303Y54966D01*
X566227Y54953D01*
X566150Y54944D01*
X566074Y54938D01*
X565997Y54936D01*
X565997Y54935D02*
X562864Y54935D01*
X562864Y54936D02*
X562787Y54938D01*
X562711Y54944D01*
X562634Y54953D01*
X562558Y54966D01*
X562483Y54983D01*
X562409Y55003D01*
X562336Y55028D01*
X562265Y55055D01*
X562194Y55086D01*
X562126Y55121D01*
X562059Y55159D01*
X561994Y55200D01*
X561931Y55244D01*
X561871Y55291D01*
X561812Y55342D01*
X561757Y55395D01*
X561704Y55450D01*
X561653Y55509D01*
X561606Y55569D01*
X561562Y55632D01*
X561521Y55697D01*
X561483Y55764D01*
X561448Y55832D01*
X561417Y55903D01*
X561390Y55974D01*
X561365Y56047D01*
X561345Y56121D01*
X561328Y56196D01*
X561315Y56272D01*
X561306Y56349D01*
X561300Y56425D01*
X561298Y56502D01*
X561298Y58590D01*
X558165Y62061D02*
X565997Y62061D01*
X566074Y62063D01*
X566150Y62069D01*
X566227Y62078D01*
X566303Y62091D01*
X566378Y62108D01*
X566452Y62128D01*
X566525Y62153D01*
X566596Y62180D01*
X566667Y62211D01*
X566735Y62246D01*
X566802Y62284D01*
X566867Y62325D01*
X566930Y62369D01*
X566990Y62416D01*
X567049Y62467D01*
X567104Y62520D01*
X567157Y62575D01*
X567208Y62634D01*
X567255Y62694D01*
X567299Y62757D01*
X567340Y62822D01*
X567378Y62889D01*
X567413Y62957D01*
X567444Y63028D01*
X567471Y63099D01*
X567496Y63172D01*
X567516Y63246D01*
X567533Y63321D01*
X567546Y63397D01*
X567555Y63474D01*
X567561Y63550D01*
X567563Y63627D01*
X591947Y44557D02*
X591947Y41947D01*
X591947Y44557D02*
X591945Y44658D01*
X591939Y44759D01*
X591929Y44860D01*
X591916Y44960D01*
X591898Y45060D01*
X591877Y45159D01*
X591851Y45257D01*
X591822Y45354D01*
X591790Y45450D01*
X591753Y45544D01*
X591713Y45637D01*
X591669Y45729D01*
X591622Y45818D01*
X591571Y45906D01*
X591517Y45992D01*
X591460Y46075D01*
X591400Y46157D01*
X591336Y46235D01*
X591270Y46312D01*
X591200Y46385D01*
X591128Y46456D01*
X591053Y46524D01*
X590975Y46589D01*
X590895Y46651D01*
X590813Y46710D01*
X590728Y46766D01*
X590642Y46818D01*
X590553Y46867D01*
X590462Y46913D01*
X590370Y46954D01*
X590276Y46993D01*
X590181Y47027D01*
X590085Y47058D01*
X589987Y47085D01*
X589889Y47109D01*
X589789Y47128D01*
X589689Y47144D01*
X589589Y47156D01*
X589488Y47164D01*
X589387Y47168D01*
X589285Y47168D01*
X589184Y47164D01*
X589083Y47156D01*
X588983Y47144D01*
X588883Y47128D01*
X588783Y47109D01*
X588685Y47085D01*
X588587Y47058D01*
X588491Y47027D01*
X588396Y46993D01*
X588302Y46954D01*
X588210Y46913D01*
X588119Y46867D01*
X588031Y46818D01*
X587944Y46766D01*
X587859Y46710D01*
X587777Y46651D01*
X587697Y46589D01*
X587619Y46524D01*
X587544Y46456D01*
X587472Y46385D01*
X587402Y46312D01*
X587336Y46235D01*
X587272Y46157D01*
X587212Y46075D01*
X587155Y45992D01*
X587101Y45906D01*
X587050Y45818D01*
X587003Y45729D01*
X586959Y45637D01*
X586919Y45544D01*
X586882Y45450D01*
X586850Y45354D01*
X586821Y45257D01*
X586795Y45159D01*
X586774Y45060D01*
X586756Y44960D01*
X586743Y44860D01*
X586733Y44759D01*
X586727Y44658D01*
X586725Y44557D01*
X582549Y45079D02*
X582549Y41947D01*
X582549Y45079D02*
X582551Y45169D01*
X582557Y45258D01*
X582566Y45348D01*
X582580Y45437D01*
X582597Y45525D01*
X582618Y45612D01*
X582643Y45699D01*
X582672Y45784D01*
X582704Y45868D01*
X582739Y45950D01*
X582779Y46031D01*
X582821Y46110D01*
X582867Y46187D01*
X582917Y46262D01*
X582969Y46335D01*
X583025Y46406D01*
X583083Y46474D01*
X583145Y46539D01*
X583209Y46602D01*
X583276Y46662D01*
X583345Y46719D01*
X583417Y46773D01*
X583491Y46824D01*
X583567Y46872D01*
X583645Y46916D01*
X583725Y46957D01*
X583807Y46995D01*
X583890Y47029D01*
X583975Y47059D01*
X584061Y47086D01*
X584147Y47109D01*
X584235Y47128D01*
X584324Y47143D01*
X584413Y47155D01*
X584502Y47163D01*
X584592Y47167D01*
X584682Y47167D01*
X584772Y47163D01*
X584861Y47155D01*
X584950Y47143D01*
X585039Y47128D01*
X585127Y47109D01*
X585213Y47086D01*
X585299Y47059D01*
X585384Y47029D01*
X585467Y46995D01*
X585549Y46957D01*
X585629Y46916D01*
X585707Y46872D01*
X585783Y46824D01*
X585857Y46773D01*
X585929Y46719D01*
X585998Y46662D01*
X586065Y46602D01*
X586129Y46539D01*
X586191Y46474D01*
X586249Y46406D01*
X586305Y46335D01*
X586357Y46262D01*
X586407Y46187D01*
X586453Y46110D01*
X586495Y46031D01*
X586535Y45950D01*
X586570Y45868D01*
X586602Y45784D01*
X586631Y45699D01*
X586656Y45612D01*
X586677Y45525D01*
X586694Y45437D01*
X586708Y45348D01*
X586717Y45258D01*
X586723Y45169D01*
X586725Y45079D01*
X586726Y45079D02*
X586726Y42991D01*
X585682Y50698D02*
X591947Y52787D01*
X585682Y54875D01*
X591947Y58406D02*
X591947Y61016D01*
X591945Y61117D01*
X591939Y61218D01*
X591929Y61319D01*
X591916Y61419D01*
X591898Y61519D01*
X591877Y61618D01*
X591851Y61716D01*
X591822Y61813D01*
X591790Y61909D01*
X591753Y62003D01*
X591713Y62096D01*
X591669Y62188D01*
X591622Y62277D01*
X591571Y62365D01*
X591517Y62451D01*
X591460Y62534D01*
X591400Y62616D01*
X591336Y62694D01*
X591270Y62771D01*
X591200Y62844D01*
X591128Y62915D01*
X591053Y62983D01*
X590975Y63048D01*
X590895Y63110D01*
X590813Y63169D01*
X590728Y63225D01*
X590642Y63277D01*
X590553Y63326D01*
X590462Y63372D01*
X590370Y63413D01*
X590276Y63452D01*
X590181Y63486D01*
X590085Y63517D01*
X589987Y63544D01*
X589889Y63568D01*
X589789Y63587D01*
X589689Y63603D01*
X589589Y63615D01*
X589488Y63623D01*
X589387Y63627D01*
X589285Y63627D01*
X589184Y63623D01*
X589083Y63615D01*
X588983Y63603D01*
X588883Y63587D01*
X588783Y63568D01*
X588685Y63544D01*
X588587Y63517D01*
X588491Y63486D01*
X588396Y63452D01*
X588302Y63413D01*
X588210Y63372D01*
X588119Y63326D01*
X588031Y63277D01*
X587944Y63225D01*
X587859Y63169D01*
X587777Y63110D01*
X587697Y63048D01*
X587619Y62983D01*
X587544Y62915D01*
X587472Y62844D01*
X587402Y62771D01*
X587336Y62694D01*
X587272Y62616D01*
X587212Y62534D01*
X587155Y62451D01*
X587101Y62365D01*
X587050Y62277D01*
X587003Y62188D01*
X586959Y62096D01*
X586919Y62003D01*
X586882Y61909D01*
X586850Y61813D01*
X586821Y61716D01*
X586795Y61618D01*
X586774Y61519D01*
X586756Y61419D01*
X586743Y61319D01*
X586733Y61218D01*
X586727Y61117D01*
X586725Y61016D01*
X582549Y61539D02*
X582549Y58406D01*
X582549Y61539D02*
X582551Y61629D01*
X582557Y61718D01*
X582566Y61808D01*
X582580Y61897D01*
X582597Y61985D01*
X582618Y62072D01*
X582643Y62159D01*
X582672Y62244D01*
X582704Y62328D01*
X582739Y62410D01*
X582779Y62491D01*
X582821Y62570D01*
X582867Y62647D01*
X582917Y62722D01*
X582969Y62795D01*
X583025Y62866D01*
X583083Y62934D01*
X583145Y62999D01*
X583209Y63062D01*
X583276Y63122D01*
X583345Y63179D01*
X583417Y63233D01*
X583491Y63284D01*
X583567Y63332D01*
X583645Y63376D01*
X583725Y63417D01*
X583807Y63455D01*
X583890Y63489D01*
X583975Y63519D01*
X584061Y63546D01*
X584147Y63569D01*
X584235Y63588D01*
X584324Y63603D01*
X584413Y63615D01*
X584502Y63623D01*
X584592Y63627D01*
X584682Y63627D01*
X584772Y63623D01*
X584861Y63615D01*
X584950Y63603D01*
X585039Y63588D01*
X585127Y63569D01*
X585213Y63546D01*
X585299Y63519D01*
X585384Y63489D01*
X585467Y63455D01*
X585549Y63417D01*
X585629Y63376D01*
X585707Y63332D01*
X585783Y63284D01*
X585857Y63233D01*
X585929Y63179D01*
X585998Y63122D01*
X586065Y63062D01*
X586129Y62999D01*
X586191Y62934D01*
X586249Y62866D01*
X586305Y62795D01*
X586357Y62722D01*
X586407Y62647D01*
X586453Y62570D01*
X586495Y62491D01*
X586535Y62410D01*
X586570Y62328D01*
X586602Y62244D01*
X586631Y62159D01*
X586656Y62072D01*
X586677Y61985D01*
X586694Y61897D01*
X586708Y61808D01*
X586717Y61718D01*
X586723Y61629D01*
X586725Y61539D01*
X586726Y61539D02*
X586726Y59450D01*
D11*
X540000Y314645D02*
X575355Y350000D01*
X540000Y314645D02*
X504645Y350000D01*
X540000Y385355D01*
X575355Y350000D01*
X536079Y323837D02*
X536081Y323966D01*
X536087Y324096D01*
X536097Y324225D01*
X536111Y324354D01*
X536129Y324482D01*
X536151Y324609D01*
X536176Y324736D01*
X536206Y324862D01*
X536239Y324987D01*
X536277Y325111D01*
X536318Y325234D01*
X536363Y325356D01*
X536412Y325476D01*
X536464Y325594D01*
X536520Y325711D01*
X536579Y325826D01*
X536642Y325939D01*
X536709Y326050D01*
X536779Y326159D01*
X536852Y326266D01*
X536928Y326370D01*
X537008Y326473D01*
X537090Y326572D01*
X537176Y326669D01*
X537265Y326764D01*
X537356Y326855D01*
X537451Y326944D01*
X537548Y327030D01*
X537647Y327112D01*
X537750Y327192D01*
X537854Y327268D01*
X537961Y327341D01*
X538070Y327411D01*
X538181Y327478D01*
X538294Y327541D01*
X538409Y327600D01*
X538526Y327656D01*
X538644Y327708D01*
X538764Y327757D01*
X538886Y327802D01*
X539009Y327843D01*
X539133Y327881D01*
X539258Y327914D01*
X539384Y327944D01*
X539511Y327969D01*
X539638Y327991D01*
X539766Y328009D01*
X539895Y328023D01*
X540024Y328033D01*
X540154Y328039D01*
X540283Y328041D01*
X540412Y328039D01*
X540542Y328033D01*
X540671Y328023D01*
X540800Y328009D01*
X540928Y327991D01*
X541055Y327969D01*
X541182Y327944D01*
X541308Y327914D01*
X541433Y327881D01*
X541557Y327843D01*
X541680Y327802D01*
X541802Y327757D01*
X541922Y327708D01*
X542040Y327656D01*
X542157Y327600D01*
X542272Y327541D01*
X542385Y327478D01*
X542496Y327411D01*
X542605Y327341D01*
X542712Y327268D01*
X542816Y327192D01*
X542919Y327112D01*
X543018Y327030D01*
X543115Y326944D01*
X543210Y326855D01*
X543301Y326764D01*
X543390Y326669D01*
X543476Y326572D01*
X543558Y326473D01*
X543638Y326370D01*
X543714Y326266D01*
X543787Y326159D01*
X543857Y326050D01*
X543924Y325939D01*
X543987Y325826D01*
X544046Y325711D01*
X544102Y325594D01*
X544154Y325476D01*
X544203Y325356D01*
X544248Y325234D01*
X544289Y325111D01*
X544327Y324987D01*
X544360Y324862D01*
X544390Y324736D01*
X544415Y324609D01*
X544437Y324482D01*
X544455Y324354D01*
X544469Y324225D01*
X544479Y324096D01*
X544485Y323966D01*
X544487Y323837D01*
X544485Y323708D01*
X544479Y323578D01*
X544469Y323449D01*
X544455Y323320D01*
X544437Y323192D01*
X544415Y323065D01*
X544390Y322938D01*
X544360Y322812D01*
X544327Y322687D01*
X544289Y322563D01*
X544248Y322440D01*
X544203Y322318D01*
X544154Y322198D01*
X544102Y322080D01*
X544046Y321963D01*
X543987Y321848D01*
X543924Y321735D01*
X543857Y321624D01*
X543787Y321515D01*
X543714Y321408D01*
X543638Y321304D01*
X543558Y321201D01*
X543476Y321102D01*
X543390Y321005D01*
X543301Y320910D01*
X543210Y320819D01*
X543115Y320730D01*
X543018Y320644D01*
X542919Y320562D01*
X542816Y320482D01*
X542712Y320406D01*
X542605Y320333D01*
X542496Y320263D01*
X542385Y320196D01*
X542272Y320133D01*
X542157Y320074D01*
X542040Y320018D01*
X541922Y319966D01*
X541802Y319917D01*
X541680Y319872D01*
X541557Y319831D01*
X541433Y319793D01*
X541308Y319760D01*
X541182Y319730D01*
X541055Y319705D01*
X540928Y319683D01*
X540800Y319665D01*
X540671Y319651D01*
X540542Y319641D01*
X540412Y319635D01*
X540283Y319633D01*
X540154Y319635D01*
X540024Y319641D01*
X539895Y319651D01*
X539766Y319665D01*
X539638Y319683D01*
X539511Y319705D01*
X539384Y319730D01*
X539258Y319760D01*
X539133Y319793D01*
X539009Y319831D01*
X538886Y319872D01*
X538764Y319917D01*
X538644Y319966D01*
X538526Y320018D01*
X538409Y320074D01*
X538294Y320133D01*
X538181Y320196D01*
X538070Y320263D01*
X537961Y320333D01*
X537854Y320406D01*
X537750Y320482D01*
X537647Y320562D01*
X537548Y320644D01*
X537451Y320730D01*
X537356Y320819D01*
X537265Y320910D01*
X537176Y321005D01*
X537090Y321102D01*
X537008Y321201D01*
X536928Y321304D01*
X536852Y321408D01*
X536779Y321515D01*
X536709Y321624D01*
X536642Y321735D01*
X536579Y321848D01*
X536520Y321963D01*
X536464Y322080D01*
X536412Y322198D01*
X536363Y322318D01*
X536318Y322440D01*
X536277Y322563D01*
X536239Y322687D01*
X536206Y322812D01*
X536176Y322938D01*
X536151Y323065D01*
X536129Y323192D01*
X536111Y323320D01*
X536097Y323449D01*
X536087Y323578D01*
X536081Y323708D01*
X536079Y323837D01*
D12*
X577351Y196351D02*
X576000Y195050D01*
X577351Y196351D02*
X577351Y200615D01*
X575976Y201990D01*
X569057Y201990D01*
X568986Y201992D01*
X568915Y201998D01*
X568844Y202008D01*
X568774Y202022D01*
X568705Y202039D01*
X568637Y202061D01*
X568571Y202086D01*
X568506Y202115D01*
X568442Y202147D01*
X568381Y202183D01*
X568321Y202222D01*
X568264Y202265D01*
X568209Y202310D01*
X568157Y202359D01*
X568108Y202410D01*
X568062Y202464D01*
X567991Y202554D01*
X567923Y202648D01*
X567858Y202743D01*
X567796Y202841D01*
X567738Y202940D01*
X567683Y203042D01*
X567632Y203145D01*
X567584Y203250D01*
X567540Y203357D01*
X567499Y203465D01*
X567463Y203574D01*
X567430Y203685D01*
X567400Y203796D01*
X567375Y203909D01*
X567353Y204022D01*
X567336Y204136D01*
X567322Y204251D01*
X567312Y204366D01*
X567306Y204481D01*
X567304Y204597D01*
X576829Y204597D01*
X571901Y225591D02*
X554793Y225591D01*
X554793Y222131D01*
X576000Y195050D02*
X504000Y195050D01*
X502649Y196351D01*
X502649Y200615D01*
X504024Y201990D01*
X510943Y201990D01*
X511014Y201992D01*
X511085Y201998D01*
X511156Y202008D01*
X511226Y202022D01*
X511295Y202039D01*
X511363Y202061D01*
X511429Y202086D01*
X511494Y202115D01*
X511558Y202147D01*
X511619Y202183D01*
X511679Y202222D01*
X511736Y202265D01*
X511791Y202310D01*
X511843Y202359D01*
X511892Y202410D01*
X511938Y202464D01*
X512009Y202554D01*
X512077Y202648D01*
X512142Y202743D01*
X512204Y202841D01*
X512262Y202940D01*
X512317Y203042D01*
X512368Y203145D01*
X512416Y203250D01*
X512460Y203357D01*
X512501Y203465D01*
X512537Y203574D01*
X512570Y203685D01*
X512600Y203796D01*
X512625Y203909D01*
X512647Y204022D01*
X512664Y204136D01*
X512678Y204251D01*
X512688Y204366D01*
X512694Y204481D01*
X512696Y204597D01*
X508099Y225591D02*
X525207Y225591D01*
X525207Y225380D02*
X525207Y222131D01*
X554793Y222131D01*
X513833Y199953D02*
X511274Y195593D01*
X513833Y199953D02*
X516677Y195593D01*
X576000Y180050D02*
X577351Y181351D01*
X577351Y185615D01*
X576000Y180050D02*
X565500Y180050D01*
X555500Y180050D02*
X545000Y180050D01*
X535000Y180050D02*
X524500Y180050D01*
X514500Y180050D02*
X504000Y180050D01*
X502649Y181351D01*
X502649Y185615D01*
X504024Y186990D01*
X575976Y186990D02*
X577351Y185615D01*
X575976Y186990D02*
X569057Y186990D01*
X510943Y186990D02*
X504024Y186990D01*
X511938Y187464D02*
X512009Y187554D01*
X512077Y187648D01*
X512142Y187743D01*
X512204Y187841D01*
X512262Y187940D01*
X512317Y188042D01*
X512368Y188145D01*
X512416Y188250D01*
X512460Y188357D01*
X512501Y188465D01*
X512537Y188574D01*
X512570Y188685D01*
X512600Y188796D01*
X512625Y188909D01*
X512647Y189022D01*
X512664Y189136D01*
X512678Y189251D01*
X512688Y189366D01*
X512694Y189481D01*
X512696Y189597D01*
X567304Y189597D02*
X567306Y189481D01*
X567312Y189366D01*
X567322Y189251D01*
X567336Y189136D01*
X567353Y189022D01*
X567375Y188909D01*
X567400Y188796D01*
X567430Y188685D01*
X567463Y188574D01*
X567499Y188465D01*
X567540Y188357D01*
X567584Y188250D01*
X567632Y188145D01*
X567683Y188042D01*
X567738Y187940D01*
X567796Y187841D01*
X567858Y187743D01*
X567923Y187648D01*
X567991Y187554D01*
X568062Y187464D01*
X568108Y187410D01*
X568157Y187359D01*
X568209Y187310D01*
X568264Y187265D01*
X568321Y187222D01*
X568381Y187183D01*
X568442Y187147D01*
X568506Y187115D01*
X568571Y187086D01*
X568637Y187061D01*
X568705Y187039D01*
X568774Y187022D01*
X568844Y187008D01*
X568915Y186998D01*
X568986Y186992D01*
X569057Y186990D01*
X511938Y187464D02*
X511892Y187410D01*
X511843Y187359D01*
X511791Y187310D01*
X511736Y187265D01*
X511679Y187222D01*
X511619Y187183D01*
X511558Y187147D01*
X511494Y187115D01*
X511429Y187086D01*
X511363Y187061D01*
X511295Y187039D01*
X511226Y187022D01*
X511156Y187008D01*
X511085Y186998D01*
X511014Y186992D01*
X510943Y186990D01*
D13*
X513833Y196588D03*
D14*
X559850Y272700D02*
X572550Y272700D01*
X578900Y266350D01*
X578900Y253650D02*
X572550Y247300D01*
X578900Y266350D02*
X585250Y272700D01*
X597950Y272700D01*
X604300Y266350D01*
X604300Y253650D02*
X597950Y247300D01*
X585250Y247300D01*
X578900Y253650D01*
X534450Y272700D02*
X528100Y266350D01*
X534450Y272700D02*
X547150Y272700D01*
X553500Y266350D01*
X553500Y253650D02*
X547150Y247300D01*
X534450Y247300D01*
X528100Y253650D01*
X553500Y266350D02*
X559850Y272700D01*
X553500Y253650D02*
X559850Y247300D01*
X572550Y247300D01*
X496350Y272700D02*
X483650Y272700D01*
X496350Y272700D02*
X502700Y266350D01*
X502700Y253650D02*
X496350Y247300D01*
X502700Y266350D02*
X509050Y272700D01*
X521750Y272700D01*
X528100Y266350D01*
X528100Y253650D02*
X521750Y247300D01*
X509050Y247300D01*
X502700Y253650D01*
X477300Y253650D02*
X477300Y266350D01*
X483650Y272700D01*
X477300Y253650D02*
X483650Y247300D01*
X496350Y247300D01*
X604300Y253650D02*
X604300Y266350D01*
D15*
X415710Y220000D02*
X415720Y220842D01*
X415751Y221683D01*
X415803Y222523D01*
X415875Y223361D01*
X415968Y224197D01*
X416081Y225031D01*
X416215Y225862D01*
X416369Y226690D01*
X416543Y227513D01*
X416738Y228332D01*
X416952Y229146D01*
X417187Y229954D01*
X417441Y230756D01*
X417714Y231552D01*
X418008Y232341D01*
X418320Y233122D01*
X418652Y233896D01*
X419002Y234661D01*
X419371Y235417D01*
X419759Y236164D01*
X420165Y236901D01*
X420588Y237629D01*
X421030Y238345D01*
X421489Y239051D01*
X421965Y239744D01*
X422458Y240427D01*
X422968Y241096D01*
X423493Y241753D01*
X424035Y242397D01*
X424593Y243028D01*
X425166Y243644D01*
X425753Y244247D01*
X426356Y244834D01*
X426972Y245407D01*
X427603Y245965D01*
X428247Y246507D01*
X428904Y247032D01*
X429573Y247542D01*
X430256Y248035D01*
X430949Y248511D01*
X431655Y248970D01*
X432371Y249412D01*
X433099Y249835D01*
X433836Y250241D01*
X434583Y250629D01*
X435339Y250998D01*
X436104Y251348D01*
X436878Y251680D01*
X437659Y251992D01*
X438448Y252286D01*
X439244Y252559D01*
X440046Y252813D01*
X440854Y253048D01*
X441668Y253262D01*
X442487Y253457D01*
X443310Y253631D01*
X444138Y253785D01*
X444969Y253919D01*
X445803Y254032D01*
X446639Y254125D01*
X447477Y254197D01*
X448317Y254249D01*
X449158Y254280D01*
X450000Y254290D01*
X450842Y254280D01*
X451683Y254249D01*
X452523Y254197D01*
X453361Y254125D01*
X454197Y254032D01*
X455031Y253919D01*
X455862Y253785D01*
X456690Y253631D01*
X457513Y253457D01*
X458332Y253262D01*
X459146Y253048D01*
X459954Y252813D01*
X460756Y252559D01*
X461552Y252286D01*
X462341Y251992D01*
X463122Y251680D01*
X463896Y251348D01*
X464661Y250998D01*
X465417Y250629D01*
X466164Y250241D01*
X466901Y249835D01*
X467629Y249412D01*
X468345Y248970D01*
X469051Y248511D01*
X469744Y248035D01*
X470427Y247542D01*
X471096Y247032D01*
X471753Y246507D01*
X472397Y245965D01*
X473028Y245407D01*
X473644Y244834D01*
X474247Y244247D01*
X474834Y243644D01*
X475407Y243028D01*
X475965Y242397D01*
X476507Y241753D01*
X477032Y241096D01*
X477542Y240427D01*
X478035Y239744D01*
X478511Y239051D01*
X478970Y238345D01*
X479412Y237629D01*
X479835Y236901D01*
X480241Y236164D01*
X480629Y235417D01*
X480998Y234661D01*
X481348Y233896D01*
X481680Y233122D01*
X481992Y232341D01*
X482286Y231552D01*
X482559Y230756D01*
X482813Y229954D01*
X483048Y229146D01*
X483262Y228332D01*
X483457Y227513D01*
X483631Y226690D01*
X483785Y225862D01*
X483919Y225031D01*
X484032Y224197D01*
X484125Y223361D01*
X484197Y222523D01*
X484249Y221683D01*
X484280Y220842D01*
X484290Y220000D01*
X484280Y219158D01*
X484249Y218317D01*
X484197Y217477D01*
X484125Y216639D01*
X484032Y215803D01*
X483919Y214969D01*
X483785Y214138D01*
X483631Y213310D01*
X483457Y212487D01*
X483262Y211668D01*
X483048Y210854D01*
X482813Y210046D01*
X482559Y209244D01*
X482286Y208448D01*
X481992Y207659D01*
X481680Y206878D01*
X481348Y206104D01*
X480998Y205339D01*
X480629Y204583D01*
X480241Y203836D01*
X479835Y203099D01*
X479412Y202371D01*
X478970Y201655D01*
X478511Y200949D01*
X478035Y200256D01*
X477542Y199573D01*
X477032Y198904D01*
X476507Y198247D01*
X475965Y197603D01*
X475407Y196972D01*
X474834Y196356D01*
X474247Y195753D01*
X473644Y195166D01*
X473028Y194593D01*
X472397Y194035D01*
X471753Y193493D01*
X471096Y192968D01*
X470427Y192458D01*
X469744Y191965D01*
X469051Y191489D01*
X468345Y191030D01*
X467629Y190588D01*
X466901Y190165D01*
X466164Y189759D01*
X465417Y189371D01*
X464661Y189002D01*
X463896Y188652D01*
X463122Y188320D01*
X462341Y188008D01*
X461552Y187714D01*
X460756Y187441D01*
X459954Y187187D01*
X459146Y186952D01*
X458332Y186738D01*
X457513Y186543D01*
X456690Y186369D01*
X455862Y186215D01*
X455031Y186081D01*
X454197Y185968D01*
X453361Y185875D01*
X452523Y185803D01*
X451683Y185751D01*
X450842Y185720D01*
X450000Y185710D01*
X449158Y185720D01*
X448317Y185751D01*
X447477Y185803D01*
X446639Y185875D01*
X445803Y185968D01*
X444969Y186081D01*
X444138Y186215D01*
X443310Y186369D01*
X442487Y186543D01*
X441668Y186738D01*
X440854Y186952D01*
X440046Y187187D01*
X439244Y187441D01*
X438448Y187714D01*
X437659Y188008D01*
X436878Y188320D01*
X436104Y188652D01*
X435339Y189002D01*
X434583Y189371D01*
X433836Y189759D01*
X433099Y190165D01*
X432371Y190588D01*
X431655Y191030D01*
X430949Y191489D01*
X430256Y191965D01*
X429573Y192458D01*
X428904Y192968D01*
X428247Y193493D01*
X427603Y194035D01*
X426972Y194593D01*
X426356Y195166D01*
X425753Y195753D01*
X425166Y196356D01*
X424593Y196972D01*
X424035Y197603D01*
X423493Y198247D01*
X422968Y198904D01*
X422458Y199573D01*
X421965Y200256D01*
X421489Y200949D01*
X421030Y201655D01*
X420588Y202371D01*
X420165Y203099D01*
X419759Y203836D01*
X419371Y204583D01*
X419002Y205339D01*
X418652Y206104D01*
X418320Y206878D01*
X418008Y207659D01*
X417714Y208448D01*
X417441Y209244D01*
X417187Y210046D01*
X416952Y210854D01*
X416738Y211668D01*
X416543Y212487D01*
X416369Y213310D01*
X416215Y214138D01*
X416081Y214969D01*
X415968Y215803D01*
X415875Y216639D01*
X415803Y217477D01*
X415751Y218317D01*
X415720Y219158D01*
X415710Y220000D01*
D14*
X434000Y220000D02*
X434005Y220393D01*
X434019Y220785D01*
X434043Y221177D01*
X434077Y221568D01*
X434120Y221959D01*
X434173Y222348D01*
X434236Y222735D01*
X434307Y223121D01*
X434389Y223506D01*
X434479Y223888D01*
X434580Y224267D01*
X434689Y224645D01*
X434808Y225019D01*
X434935Y225390D01*
X435072Y225758D01*
X435218Y226123D01*
X435373Y226484D01*
X435536Y226841D01*
X435708Y227194D01*
X435889Y227542D01*
X436079Y227886D01*
X436276Y228226D01*
X436482Y228560D01*
X436696Y228889D01*
X436919Y229213D01*
X437149Y229531D01*
X437386Y229844D01*
X437632Y230150D01*
X437885Y230451D01*
X438145Y230745D01*
X438412Y231033D01*
X438686Y231314D01*
X438967Y231588D01*
X439255Y231855D01*
X439549Y232115D01*
X439850Y232368D01*
X440156Y232614D01*
X440469Y232851D01*
X440787Y233081D01*
X441111Y233304D01*
X441440Y233518D01*
X441774Y233724D01*
X442114Y233921D01*
X442458Y234111D01*
X442806Y234292D01*
X443159Y234464D01*
X443516Y234627D01*
X443877Y234782D01*
X444242Y234928D01*
X444610Y235065D01*
X444981Y235192D01*
X445355Y235311D01*
X445733Y235420D01*
X446112Y235521D01*
X446494Y235611D01*
X446879Y235693D01*
X447265Y235764D01*
X447652Y235827D01*
X448041Y235880D01*
X448432Y235923D01*
X448823Y235957D01*
X449215Y235981D01*
X449607Y235995D01*
X450000Y236000D01*
X450393Y235995D01*
X450785Y235981D01*
X451177Y235957D01*
X451568Y235923D01*
X451959Y235880D01*
X452348Y235827D01*
X452735Y235764D01*
X453121Y235693D01*
X453506Y235611D01*
X453888Y235521D01*
X454267Y235420D01*
X454645Y235311D01*
X455019Y235192D01*
X455390Y235065D01*
X455758Y234928D01*
X456123Y234782D01*
X456484Y234627D01*
X456841Y234464D01*
X457194Y234292D01*
X457542Y234111D01*
X457886Y233921D01*
X458226Y233724D01*
X458560Y233518D01*
X458889Y233304D01*
X459213Y233081D01*
X459531Y232851D01*
X459844Y232614D01*
X460150Y232368D01*
X460451Y232115D01*
X460745Y231855D01*
X461033Y231588D01*
X461314Y231314D01*
X461588Y231033D01*
X461855Y230745D01*
X462115Y230451D01*
X462368Y230150D01*
X462614Y229844D01*
X462851Y229531D01*
X463081Y229213D01*
X463304Y228889D01*
X463518Y228560D01*
X463724Y228226D01*
X463921Y227886D01*
X464111Y227542D01*
X464292Y227194D01*
X464464Y226841D01*
X464627Y226484D01*
X464782Y226123D01*
X464928Y225758D01*
X465065Y225390D01*
X465192Y225019D01*
X465311Y224645D01*
X465420Y224267D01*
X465521Y223888D01*
X465611Y223506D01*
X465693Y223121D01*
X465764Y222735D01*
X465827Y222348D01*
X465880Y221959D01*
X465923Y221568D01*
X465957Y221177D01*
X465981Y220785D01*
X465995Y220393D01*
X466000Y220000D01*
X465995Y219607D01*
X465981Y219215D01*
X465957Y218823D01*
X465923Y218432D01*
X465880Y218041D01*
X465827Y217652D01*
X465764Y217265D01*
X465693Y216879D01*
X465611Y216494D01*
X465521Y216112D01*
X465420Y215733D01*
X465311Y215355D01*
X465192Y214981D01*
X465065Y214610D01*
X464928Y214242D01*
X464782Y213877D01*
X464627Y213516D01*
X464464Y213159D01*
X464292Y212806D01*
X464111Y212458D01*
X463921Y212114D01*
X463724Y211774D01*
X463518Y211440D01*
X463304Y211111D01*
X463081Y210787D01*
X462851Y210469D01*
X462614Y210156D01*
X462368Y209850D01*
X462115Y209549D01*
X461855Y209255D01*
X461588Y208967D01*
X461314Y208686D01*
X461033Y208412D01*
X460745Y208145D01*
X460451Y207885D01*
X460150Y207632D01*
X459844Y207386D01*
X459531Y207149D01*
X459213Y206919D01*
X458889Y206696D01*
X458560Y206482D01*
X458226Y206276D01*
X457886Y206079D01*
X457542Y205889D01*
X457194Y205708D01*
X456841Y205536D01*
X456484Y205373D01*
X456123Y205218D01*
X455758Y205072D01*
X455390Y204935D01*
X455019Y204808D01*
X454645Y204689D01*
X454267Y204580D01*
X453888Y204479D01*
X453506Y204389D01*
X453121Y204307D01*
X452735Y204236D01*
X452348Y204173D01*
X451959Y204120D01*
X451568Y204077D01*
X451177Y204043D01*
X450785Y204019D01*
X450393Y204005D01*
X450000Y204000D01*
X449607Y204005D01*
X449215Y204019D01*
X448823Y204043D01*
X448432Y204077D01*
X448041Y204120D01*
X447652Y204173D01*
X447265Y204236D01*
X446879Y204307D01*
X446494Y204389D01*
X446112Y204479D01*
X445733Y204580D01*
X445355Y204689D01*
X444981Y204808D01*
X444610Y204935D01*
X444242Y205072D01*
X443877Y205218D01*
X443516Y205373D01*
X443159Y205536D01*
X442806Y205708D01*
X442458Y205889D01*
X442114Y206079D01*
X441774Y206276D01*
X441440Y206482D01*
X441111Y206696D01*
X440787Y206919D01*
X440469Y207149D01*
X440156Y207386D01*
X439850Y207632D01*
X439549Y207885D01*
X439255Y208145D01*
X438967Y208412D01*
X438686Y208686D01*
X438412Y208967D01*
X438145Y209255D01*
X437885Y209549D01*
X437632Y209850D01*
X437386Y210156D01*
X437149Y210469D01*
X436919Y210787D01*
X436696Y211111D01*
X436482Y211440D01*
X436276Y211774D01*
X436079Y212114D01*
X435889Y212458D01*
X435708Y212806D01*
X435536Y213159D01*
X435373Y213516D01*
X435218Y213877D01*
X435072Y214242D01*
X434935Y214610D01*
X434808Y214981D01*
X434689Y215355D01*
X434580Y215733D01*
X434479Y216112D01*
X434389Y216494D01*
X434307Y216879D01*
X434236Y217265D01*
X434173Y217652D01*
X434120Y218041D01*
X434077Y218432D01*
X434043Y218823D01*
X434019Y219215D01*
X434005Y219607D01*
X434000Y220000D01*
D15*
X595710Y220000D02*
X595720Y220842D01*
X595751Y221683D01*
X595803Y222523D01*
X595875Y223361D01*
X595968Y224197D01*
X596081Y225031D01*
X596215Y225862D01*
X596369Y226690D01*
X596543Y227513D01*
X596738Y228332D01*
X596952Y229146D01*
X597187Y229954D01*
X597441Y230756D01*
X597714Y231552D01*
X598008Y232341D01*
X598320Y233122D01*
X598652Y233896D01*
X599002Y234661D01*
X599371Y235417D01*
X599759Y236164D01*
X600165Y236901D01*
X600588Y237629D01*
X601030Y238345D01*
X601489Y239051D01*
X601965Y239744D01*
X602458Y240427D01*
X602968Y241096D01*
X603493Y241753D01*
X604035Y242397D01*
X604593Y243028D01*
X605166Y243644D01*
X605753Y244247D01*
X606356Y244834D01*
X606972Y245407D01*
X607603Y245965D01*
X608247Y246507D01*
X608904Y247032D01*
X609573Y247542D01*
X610256Y248035D01*
X610949Y248511D01*
X611655Y248970D01*
X612371Y249412D01*
X613099Y249835D01*
X613836Y250241D01*
X614583Y250629D01*
X615339Y250998D01*
X616104Y251348D01*
X616878Y251680D01*
X617659Y251992D01*
X618448Y252286D01*
X619244Y252559D01*
X620046Y252813D01*
X620854Y253048D01*
X621668Y253262D01*
X622487Y253457D01*
X623310Y253631D01*
X624138Y253785D01*
X624969Y253919D01*
X625803Y254032D01*
X626639Y254125D01*
X627477Y254197D01*
X628317Y254249D01*
X629158Y254280D01*
X630000Y254290D01*
X630842Y254280D01*
X631683Y254249D01*
X632523Y254197D01*
X633361Y254125D01*
X634197Y254032D01*
X635031Y253919D01*
X635862Y253785D01*
X636690Y253631D01*
X637513Y253457D01*
X638332Y253262D01*
X639146Y253048D01*
X639954Y252813D01*
X640756Y252559D01*
X641552Y252286D01*
X642341Y251992D01*
X643122Y251680D01*
X643896Y251348D01*
X644661Y250998D01*
X645417Y250629D01*
X646164Y250241D01*
X646901Y249835D01*
X647629Y249412D01*
X648345Y248970D01*
X649051Y248511D01*
X649744Y248035D01*
X650427Y247542D01*
X651096Y247032D01*
X651753Y246507D01*
X652397Y245965D01*
X653028Y245407D01*
X653644Y244834D01*
X654247Y244247D01*
X654834Y243644D01*
X655407Y243028D01*
X655965Y242397D01*
X656507Y241753D01*
X657032Y241096D01*
X657542Y240427D01*
X658035Y239744D01*
X658511Y239051D01*
X658970Y238345D01*
X659412Y237629D01*
X659835Y236901D01*
X660241Y236164D01*
X660629Y235417D01*
X660998Y234661D01*
X661348Y233896D01*
X661680Y233122D01*
X661992Y232341D01*
X662286Y231552D01*
X662559Y230756D01*
X662813Y229954D01*
X663048Y229146D01*
X663262Y228332D01*
X663457Y227513D01*
X663631Y226690D01*
X663785Y225862D01*
X663919Y225031D01*
X664032Y224197D01*
X664125Y223361D01*
X664197Y222523D01*
X664249Y221683D01*
X664280Y220842D01*
X664290Y220000D01*
X664280Y219158D01*
X664249Y218317D01*
X664197Y217477D01*
X664125Y216639D01*
X664032Y215803D01*
X663919Y214969D01*
X663785Y214138D01*
X663631Y213310D01*
X663457Y212487D01*
X663262Y211668D01*
X663048Y210854D01*
X662813Y210046D01*
X662559Y209244D01*
X662286Y208448D01*
X661992Y207659D01*
X661680Y206878D01*
X661348Y206104D01*
X660998Y205339D01*
X660629Y204583D01*
X660241Y203836D01*
X659835Y203099D01*
X659412Y202371D01*
X658970Y201655D01*
X658511Y200949D01*
X658035Y200256D01*
X657542Y199573D01*
X657032Y198904D01*
X656507Y198247D01*
X655965Y197603D01*
X655407Y196972D01*
X654834Y196356D01*
X654247Y195753D01*
X653644Y195166D01*
X653028Y194593D01*
X652397Y194035D01*
X651753Y193493D01*
X651096Y192968D01*
X650427Y192458D01*
X649744Y191965D01*
X649051Y191489D01*
X648345Y191030D01*
X647629Y190588D01*
X646901Y190165D01*
X646164Y189759D01*
X645417Y189371D01*
X644661Y189002D01*
X643896Y188652D01*
X643122Y188320D01*
X642341Y188008D01*
X641552Y187714D01*
X640756Y187441D01*
X639954Y187187D01*
X639146Y186952D01*
X638332Y186738D01*
X637513Y186543D01*
X636690Y186369D01*
X635862Y186215D01*
X635031Y186081D01*
X634197Y185968D01*
X633361Y185875D01*
X632523Y185803D01*
X631683Y185751D01*
X630842Y185720D01*
X630000Y185710D01*
X629158Y185720D01*
X628317Y185751D01*
X627477Y185803D01*
X626639Y185875D01*
X625803Y185968D01*
X624969Y186081D01*
X624138Y186215D01*
X623310Y186369D01*
X622487Y186543D01*
X621668Y186738D01*
X620854Y186952D01*
X620046Y187187D01*
X619244Y187441D01*
X618448Y187714D01*
X617659Y188008D01*
X616878Y188320D01*
X616104Y188652D01*
X615339Y189002D01*
X614583Y189371D01*
X613836Y189759D01*
X613099Y190165D01*
X612371Y190588D01*
X611655Y191030D01*
X610949Y191489D01*
X610256Y191965D01*
X609573Y192458D01*
X608904Y192968D01*
X608247Y193493D01*
X607603Y194035D01*
X606972Y194593D01*
X606356Y195166D01*
X605753Y195753D01*
X605166Y196356D01*
X604593Y196972D01*
X604035Y197603D01*
X603493Y198247D01*
X602968Y198904D01*
X602458Y199573D01*
X601965Y200256D01*
X601489Y200949D01*
X601030Y201655D01*
X600588Y202371D01*
X600165Y203099D01*
X599759Y203836D01*
X599371Y204583D01*
X599002Y205339D01*
X598652Y206104D01*
X598320Y206878D01*
X598008Y207659D01*
X597714Y208448D01*
X597441Y209244D01*
X597187Y210046D01*
X596952Y210854D01*
X596738Y211668D01*
X596543Y212487D01*
X596369Y213310D01*
X596215Y214138D01*
X596081Y214969D01*
X595968Y215803D01*
X595875Y216639D01*
X595803Y217477D01*
X595751Y218317D01*
X595720Y219158D01*
X595710Y220000D01*
D14*
X614000Y220000D02*
X614005Y220393D01*
X614019Y220785D01*
X614043Y221177D01*
X614077Y221568D01*
X614120Y221959D01*
X614173Y222348D01*
X614236Y222735D01*
X614307Y223121D01*
X614389Y223506D01*
X614479Y223888D01*
X614580Y224267D01*
X614689Y224645D01*
X614808Y225019D01*
X614935Y225390D01*
X615072Y225758D01*
X615218Y226123D01*
X615373Y226484D01*
X615536Y226841D01*
X615708Y227194D01*
X615889Y227542D01*
X616079Y227886D01*
X616276Y228226D01*
X616482Y228560D01*
X616696Y228889D01*
X616919Y229213D01*
X617149Y229531D01*
X617386Y229844D01*
X617632Y230150D01*
X617885Y230451D01*
X618145Y230745D01*
X618412Y231033D01*
X618686Y231314D01*
X618967Y231588D01*
X619255Y231855D01*
X619549Y232115D01*
X619850Y232368D01*
X620156Y232614D01*
X620469Y232851D01*
X620787Y233081D01*
X621111Y233304D01*
X621440Y233518D01*
X621774Y233724D01*
X622114Y233921D01*
X622458Y234111D01*
X622806Y234292D01*
X623159Y234464D01*
X623516Y234627D01*
X623877Y234782D01*
X624242Y234928D01*
X624610Y235065D01*
X624981Y235192D01*
X625355Y235311D01*
X625733Y235420D01*
X626112Y235521D01*
X626494Y235611D01*
X626879Y235693D01*
X627265Y235764D01*
X627652Y235827D01*
X628041Y235880D01*
X628432Y235923D01*
X628823Y235957D01*
X629215Y235981D01*
X629607Y235995D01*
X630000Y236000D01*
X630393Y235995D01*
X630785Y235981D01*
X631177Y235957D01*
X631568Y235923D01*
X631959Y235880D01*
X632348Y235827D01*
X632735Y235764D01*
X633121Y235693D01*
X633506Y235611D01*
X633888Y235521D01*
X634267Y235420D01*
X634645Y235311D01*
X635019Y235192D01*
X635390Y235065D01*
X635758Y234928D01*
X636123Y234782D01*
X636484Y234627D01*
X636841Y234464D01*
X637194Y234292D01*
X637542Y234111D01*
X637886Y233921D01*
X638226Y233724D01*
X638560Y233518D01*
X638889Y233304D01*
X639213Y233081D01*
X639531Y232851D01*
X639844Y232614D01*
X640150Y232368D01*
X640451Y232115D01*
X640745Y231855D01*
X641033Y231588D01*
X641314Y231314D01*
X641588Y231033D01*
X641855Y230745D01*
X642115Y230451D01*
X642368Y230150D01*
X642614Y229844D01*
X642851Y229531D01*
X643081Y229213D01*
X643304Y228889D01*
X643518Y228560D01*
X643724Y228226D01*
X643921Y227886D01*
X644111Y227542D01*
X644292Y227194D01*
X644464Y226841D01*
X644627Y226484D01*
X644782Y226123D01*
X644928Y225758D01*
X645065Y225390D01*
X645192Y225019D01*
X645311Y224645D01*
X645420Y224267D01*
X645521Y223888D01*
X645611Y223506D01*
X645693Y223121D01*
X645764Y222735D01*
X645827Y222348D01*
X645880Y221959D01*
X645923Y221568D01*
X645957Y221177D01*
X645981Y220785D01*
X645995Y220393D01*
X646000Y220000D01*
X645995Y219607D01*
X645981Y219215D01*
X645957Y218823D01*
X645923Y218432D01*
X645880Y218041D01*
X645827Y217652D01*
X645764Y217265D01*
X645693Y216879D01*
X645611Y216494D01*
X645521Y216112D01*
X645420Y215733D01*
X645311Y215355D01*
X645192Y214981D01*
X645065Y214610D01*
X644928Y214242D01*
X644782Y213877D01*
X644627Y213516D01*
X644464Y213159D01*
X644292Y212806D01*
X644111Y212458D01*
X643921Y212114D01*
X643724Y211774D01*
X643518Y211440D01*
X643304Y211111D01*
X643081Y210787D01*
X642851Y210469D01*
X642614Y210156D01*
X642368Y209850D01*
X642115Y209549D01*
X641855Y209255D01*
X641588Y208967D01*
X641314Y208686D01*
X641033Y208412D01*
X640745Y208145D01*
X640451Y207885D01*
X640150Y207632D01*
X639844Y207386D01*
X639531Y207149D01*
X639213Y206919D01*
X638889Y206696D01*
X638560Y206482D01*
X638226Y206276D01*
X637886Y206079D01*
X637542Y205889D01*
X637194Y205708D01*
X636841Y205536D01*
X636484Y205373D01*
X636123Y205218D01*
X635758Y205072D01*
X635390Y204935D01*
X635019Y204808D01*
X634645Y204689D01*
X634267Y204580D01*
X633888Y204479D01*
X633506Y204389D01*
X633121Y204307D01*
X632735Y204236D01*
X632348Y204173D01*
X631959Y204120D01*
X631568Y204077D01*
X631177Y204043D01*
X630785Y204019D01*
X630393Y204005D01*
X630000Y204000D01*
X629607Y204005D01*
X629215Y204019D01*
X628823Y204043D01*
X628432Y204077D01*
X628041Y204120D01*
X627652Y204173D01*
X627265Y204236D01*
X626879Y204307D01*
X626494Y204389D01*
X626112Y204479D01*
X625733Y204580D01*
X625355Y204689D01*
X624981Y204808D01*
X624610Y204935D01*
X624242Y205072D01*
X623877Y205218D01*
X623516Y205373D01*
X623159Y205536D01*
X622806Y205708D01*
X622458Y205889D01*
X622114Y206079D01*
X621774Y206276D01*
X621440Y206482D01*
X621111Y206696D01*
X620787Y206919D01*
X620469Y207149D01*
X620156Y207386D01*
X619850Y207632D01*
X619549Y207885D01*
X619255Y208145D01*
X618967Y208412D01*
X618686Y208686D01*
X618412Y208967D01*
X618145Y209255D01*
X617885Y209549D01*
X617632Y209850D01*
X617386Y210156D01*
X617149Y210469D01*
X616919Y210787D01*
X616696Y211111D01*
X616482Y211440D01*
X616276Y211774D01*
X616079Y212114D01*
X615889Y212458D01*
X615708Y212806D01*
X615536Y213159D01*
X615373Y213516D01*
X615218Y213877D01*
X615072Y214242D01*
X614935Y214610D01*
X614808Y214981D01*
X614689Y215355D01*
X614580Y215733D01*
X614479Y216112D01*
X614389Y216494D01*
X614307Y216879D01*
X614236Y217265D01*
X614173Y217652D01*
X614120Y218041D01*
X614077Y218432D01*
X614043Y218823D01*
X614019Y219215D01*
X614005Y219607D01*
X614000Y220000D01*
X468904Y284902D02*
X462554Y278552D01*
X468904Y297602D02*
X462554Y303952D01*
X468904Y310302D01*
X468904Y323002D02*
X462554Y329352D01*
X468904Y335702D01*
X468904Y348402D02*
X462554Y354752D01*
X468904Y361102D01*
X468904Y373802D02*
X462554Y380152D01*
X462554Y278552D02*
X424454Y278552D01*
X418104Y284902D01*
X418104Y297602D01*
X424454Y303952D01*
X418104Y310302D01*
X418104Y323002D01*
X424454Y329352D01*
X418104Y335702D01*
X418104Y348402D01*
X424454Y354752D01*
X418104Y361102D01*
X418104Y373802D01*
X424454Y380152D01*
X462554Y380152D01*
X468904Y373802D02*
X468904Y361102D01*
X468904Y348402D02*
X468904Y335702D01*
X468904Y323002D02*
X468904Y310302D01*
X468904Y297602D02*
X468904Y284902D01*
X471444Y284902D02*
X471444Y297602D01*
X468904Y284902D02*
X462554Y278552D01*
X424454Y278552D01*
X418104Y284902D01*
X563872Y438351D02*
X563872Y452001D01*
X559850Y92700D02*
X572550Y92700D01*
X578900Y86350D01*
X578900Y73650D02*
X572550Y67300D01*
X578900Y86350D02*
X585250Y92700D01*
X597950Y92700D01*
X604300Y86350D01*
X604300Y73650D02*
X597950Y67300D01*
X585250Y67300D01*
X578900Y73650D01*
X534450Y92700D02*
X528100Y86350D01*
X534450Y92700D02*
X547150Y92700D01*
X553500Y86350D01*
X553500Y73650D02*
X547150Y67300D01*
X534450Y67300D01*
X528100Y73650D01*
X553500Y86350D02*
X559850Y92700D01*
X553500Y73650D02*
X559850Y67300D01*
X572550Y67300D01*
X496350Y92700D02*
X483650Y92700D01*
X496350Y92700D02*
X502700Y86350D01*
X502700Y73650D02*
X496350Y67300D01*
X502700Y86350D02*
X509050Y92700D01*
X521750Y92700D01*
X528100Y86350D01*
X528100Y73650D02*
X521750Y67300D01*
X509050Y67300D01*
X502700Y73650D01*
X477300Y73650D02*
X477300Y86350D01*
X483650Y92700D01*
X477300Y73650D02*
X483650Y67300D01*
X496350Y67300D01*
X604300Y73650D02*
X604300Y86350D01*
D15*
X415710Y130000D02*
X415720Y130842D01*
X415751Y131683D01*
X415803Y132523D01*
X415875Y133361D01*
X415968Y134197D01*
X416081Y135031D01*
X416215Y135862D01*
X416369Y136690D01*
X416543Y137513D01*
X416738Y138332D01*
X416952Y139146D01*
X417187Y139954D01*
X417441Y140756D01*
X417714Y141552D01*
X418008Y142341D01*
X418320Y143122D01*
X418652Y143896D01*
X419002Y144661D01*
X419371Y145417D01*
X419759Y146164D01*
X420165Y146901D01*
X420588Y147629D01*
X421030Y148345D01*
X421489Y149051D01*
X421965Y149744D01*
X422458Y150427D01*
X422968Y151096D01*
X423493Y151753D01*
X424035Y152397D01*
X424593Y153028D01*
X425166Y153644D01*
X425753Y154247D01*
X426356Y154834D01*
X426972Y155407D01*
X427603Y155965D01*
X428247Y156507D01*
X428904Y157032D01*
X429573Y157542D01*
X430256Y158035D01*
X430949Y158511D01*
X431655Y158970D01*
X432371Y159412D01*
X433099Y159835D01*
X433836Y160241D01*
X434583Y160629D01*
X435339Y160998D01*
X436104Y161348D01*
X436878Y161680D01*
X437659Y161992D01*
X438448Y162286D01*
X439244Y162559D01*
X440046Y162813D01*
X440854Y163048D01*
X441668Y163262D01*
X442487Y163457D01*
X443310Y163631D01*
X444138Y163785D01*
X444969Y163919D01*
X445803Y164032D01*
X446639Y164125D01*
X447477Y164197D01*
X448317Y164249D01*
X449158Y164280D01*
X450000Y164290D01*
X450842Y164280D01*
X451683Y164249D01*
X452523Y164197D01*
X453361Y164125D01*
X454197Y164032D01*
X455031Y163919D01*
X455862Y163785D01*
X456690Y163631D01*
X457513Y163457D01*
X458332Y163262D01*
X459146Y163048D01*
X459954Y162813D01*
X460756Y162559D01*
X461552Y162286D01*
X462341Y161992D01*
X463122Y161680D01*
X463896Y161348D01*
X464661Y160998D01*
X465417Y160629D01*
X466164Y160241D01*
X466901Y159835D01*
X467629Y159412D01*
X468345Y158970D01*
X469051Y158511D01*
X469744Y158035D01*
X470427Y157542D01*
X471096Y157032D01*
X471753Y156507D01*
X472397Y155965D01*
X473028Y155407D01*
X473644Y154834D01*
X474247Y154247D01*
X474834Y153644D01*
X475407Y153028D01*
X475965Y152397D01*
X476507Y151753D01*
X477032Y151096D01*
X477542Y150427D01*
X478035Y149744D01*
X478511Y149051D01*
X478970Y148345D01*
X479412Y147629D01*
X479835Y146901D01*
X480241Y146164D01*
X480629Y145417D01*
X480998Y144661D01*
X481348Y143896D01*
X481680Y143122D01*
X481992Y142341D01*
X482286Y141552D01*
X482559Y140756D01*
X482813Y139954D01*
X483048Y139146D01*
X483262Y138332D01*
X483457Y137513D01*
X483631Y136690D01*
X483785Y135862D01*
X483919Y135031D01*
X484032Y134197D01*
X484125Y133361D01*
X484197Y132523D01*
X484249Y131683D01*
X484280Y130842D01*
X484290Y130000D01*
X484280Y129158D01*
X484249Y128317D01*
X484197Y127477D01*
X484125Y126639D01*
X484032Y125803D01*
X483919Y124969D01*
X483785Y124138D01*
X483631Y123310D01*
X483457Y122487D01*
X483262Y121668D01*
X483048Y120854D01*
X482813Y120046D01*
X482559Y119244D01*
X482286Y118448D01*
X481992Y117659D01*
X481680Y116878D01*
X481348Y116104D01*
X480998Y115339D01*
X480629Y114583D01*
X480241Y113836D01*
X479835Y113099D01*
X479412Y112371D01*
X478970Y111655D01*
X478511Y110949D01*
X478035Y110256D01*
X477542Y109573D01*
X477032Y108904D01*
X476507Y108247D01*
X475965Y107603D01*
X475407Y106972D01*
X474834Y106356D01*
X474247Y105753D01*
X473644Y105166D01*
X473028Y104593D01*
X472397Y104035D01*
X471753Y103493D01*
X471096Y102968D01*
X470427Y102458D01*
X469744Y101965D01*
X469051Y101489D01*
X468345Y101030D01*
X467629Y100588D01*
X466901Y100165D01*
X466164Y99759D01*
X465417Y99371D01*
X464661Y99002D01*
X463896Y98652D01*
X463122Y98320D01*
X462341Y98008D01*
X461552Y97714D01*
X460756Y97441D01*
X459954Y97187D01*
X459146Y96952D01*
X458332Y96738D01*
X457513Y96543D01*
X456690Y96369D01*
X455862Y96215D01*
X455031Y96081D01*
X454197Y95968D01*
X453361Y95875D01*
X452523Y95803D01*
X451683Y95751D01*
X450842Y95720D01*
X450000Y95710D01*
X449158Y95720D01*
X448317Y95751D01*
X447477Y95803D01*
X446639Y95875D01*
X445803Y95968D01*
X444969Y96081D01*
X444138Y96215D01*
X443310Y96369D01*
X442487Y96543D01*
X441668Y96738D01*
X440854Y96952D01*
X440046Y97187D01*
X439244Y97441D01*
X438448Y97714D01*
X437659Y98008D01*
X436878Y98320D01*
X436104Y98652D01*
X435339Y99002D01*
X434583Y99371D01*
X433836Y99759D01*
X433099Y100165D01*
X432371Y100588D01*
X431655Y101030D01*
X430949Y101489D01*
X430256Y101965D01*
X429573Y102458D01*
X428904Y102968D01*
X428247Y103493D01*
X427603Y104035D01*
X426972Y104593D01*
X426356Y105166D01*
X425753Y105753D01*
X425166Y106356D01*
X424593Y106972D01*
X424035Y107603D01*
X423493Y108247D01*
X422968Y108904D01*
X422458Y109573D01*
X421965Y110256D01*
X421489Y110949D01*
X421030Y111655D01*
X420588Y112371D01*
X420165Y113099D01*
X419759Y113836D01*
X419371Y114583D01*
X419002Y115339D01*
X418652Y116104D01*
X418320Y116878D01*
X418008Y117659D01*
X417714Y118448D01*
X417441Y119244D01*
X417187Y120046D01*
X416952Y120854D01*
X416738Y121668D01*
X416543Y122487D01*
X416369Y123310D01*
X416215Y124138D01*
X416081Y124969D01*
X415968Y125803D01*
X415875Y126639D01*
X415803Y127477D01*
X415751Y128317D01*
X415720Y129158D01*
X415710Y130000D01*
D14*
X434000Y130000D02*
X434005Y130393D01*
X434019Y130785D01*
X434043Y131177D01*
X434077Y131568D01*
X434120Y131959D01*
X434173Y132348D01*
X434236Y132735D01*
X434307Y133121D01*
X434389Y133506D01*
X434479Y133888D01*
X434580Y134267D01*
X434689Y134645D01*
X434808Y135019D01*
X434935Y135390D01*
X435072Y135758D01*
X435218Y136123D01*
X435373Y136484D01*
X435536Y136841D01*
X435708Y137194D01*
X435889Y137542D01*
X436079Y137886D01*
X436276Y138226D01*
X436482Y138560D01*
X436696Y138889D01*
X436919Y139213D01*
X437149Y139531D01*
X437386Y139844D01*
X437632Y140150D01*
X437885Y140451D01*
X438145Y140745D01*
X438412Y141033D01*
X438686Y141314D01*
X438967Y141588D01*
X439255Y141855D01*
X439549Y142115D01*
X439850Y142368D01*
X440156Y142614D01*
X440469Y142851D01*
X440787Y143081D01*
X441111Y143304D01*
X441440Y143518D01*
X441774Y143724D01*
X442114Y143921D01*
X442458Y144111D01*
X442806Y144292D01*
X443159Y144464D01*
X443516Y144627D01*
X443877Y144782D01*
X444242Y144928D01*
X444610Y145065D01*
X444981Y145192D01*
X445355Y145311D01*
X445733Y145420D01*
X446112Y145521D01*
X446494Y145611D01*
X446879Y145693D01*
X447265Y145764D01*
X447652Y145827D01*
X448041Y145880D01*
X448432Y145923D01*
X448823Y145957D01*
X449215Y145981D01*
X449607Y145995D01*
X450000Y146000D01*
X450393Y145995D01*
X450785Y145981D01*
X451177Y145957D01*
X451568Y145923D01*
X451959Y145880D01*
X452348Y145827D01*
X452735Y145764D01*
X453121Y145693D01*
X453506Y145611D01*
X453888Y145521D01*
X454267Y145420D01*
X454645Y145311D01*
X455019Y145192D01*
X455390Y145065D01*
X455758Y144928D01*
X456123Y144782D01*
X456484Y144627D01*
X456841Y144464D01*
X457194Y144292D01*
X457542Y144111D01*
X457886Y143921D01*
X458226Y143724D01*
X458560Y143518D01*
X458889Y143304D01*
X459213Y143081D01*
X459531Y142851D01*
X459844Y142614D01*
X460150Y142368D01*
X460451Y142115D01*
X460745Y141855D01*
X461033Y141588D01*
X461314Y141314D01*
X461588Y141033D01*
X461855Y140745D01*
X462115Y140451D01*
X462368Y140150D01*
X462614Y139844D01*
X462851Y139531D01*
X463081Y139213D01*
X463304Y138889D01*
X463518Y138560D01*
X463724Y138226D01*
X463921Y137886D01*
X464111Y137542D01*
X464292Y137194D01*
X464464Y136841D01*
X464627Y136484D01*
X464782Y136123D01*
X464928Y135758D01*
X465065Y135390D01*
X465192Y135019D01*
X465311Y134645D01*
X465420Y134267D01*
X465521Y133888D01*
X465611Y133506D01*
X465693Y133121D01*
X465764Y132735D01*
X465827Y132348D01*
X465880Y131959D01*
X465923Y131568D01*
X465957Y131177D01*
X465981Y130785D01*
X465995Y130393D01*
X466000Y130000D01*
X465995Y129607D01*
X465981Y129215D01*
X465957Y128823D01*
X465923Y128432D01*
X465880Y128041D01*
X465827Y127652D01*
X465764Y127265D01*
X465693Y126879D01*
X465611Y126494D01*
X465521Y126112D01*
X465420Y125733D01*
X465311Y125355D01*
X465192Y124981D01*
X465065Y124610D01*
X464928Y124242D01*
X464782Y123877D01*
X464627Y123516D01*
X464464Y123159D01*
X464292Y122806D01*
X464111Y122458D01*
X463921Y122114D01*
X463724Y121774D01*
X463518Y121440D01*
X463304Y121111D01*
X463081Y120787D01*
X462851Y120469D01*
X462614Y120156D01*
X462368Y119850D01*
X462115Y119549D01*
X461855Y119255D01*
X461588Y118967D01*
X461314Y118686D01*
X461033Y118412D01*
X460745Y118145D01*
X460451Y117885D01*
X460150Y117632D01*
X459844Y117386D01*
X459531Y117149D01*
X459213Y116919D01*
X458889Y116696D01*
X458560Y116482D01*
X458226Y116276D01*
X457886Y116079D01*
X457542Y115889D01*
X457194Y115708D01*
X456841Y115536D01*
X456484Y115373D01*
X456123Y115218D01*
X455758Y115072D01*
X455390Y114935D01*
X455019Y114808D01*
X454645Y114689D01*
X454267Y114580D01*
X453888Y114479D01*
X453506Y114389D01*
X453121Y114307D01*
X452735Y114236D01*
X452348Y114173D01*
X451959Y114120D01*
X451568Y114077D01*
X451177Y114043D01*
X450785Y114019D01*
X450393Y114005D01*
X450000Y114000D01*
X449607Y114005D01*
X449215Y114019D01*
X448823Y114043D01*
X448432Y114077D01*
X448041Y114120D01*
X447652Y114173D01*
X447265Y114236D01*
X446879Y114307D01*
X446494Y114389D01*
X446112Y114479D01*
X445733Y114580D01*
X445355Y114689D01*
X444981Y114808D01*
X444610Y114935D01*
X444242Y115072D01*
X443877Y115218D01*
X443516Y115373D01*
X443159Y115536D01*
X442806Y115708D01*
X442458Y115889D01*
X442114Y116079D01*
X441774Y116276D01*
X441440Y116482D01*
X441111Y116696D01*
X440787Y116919D01*
X440469Y117149D01*
X440156Y117386D01*
X439850Y117632D01*
X439549Y117885D01*
X439255Y118145D01*
X438967Y118412D01*
X438686Y118686D01*
X438412Y118967D01*
X438145Y119255D01*
X437885Y119549D01*
X437632Y119850D01*
X437386Y120156D01*
X437149Y120469D01*
X436919Y120787D01*
X436696Y121111D01*
X436482Y121440D01*
X436276Y121774D01*
X436079Y122114D01*
X435889Y122458D01*
X435708Y122806D01*
X435536Y123159D01*
X435373Y123516D01*
X435218Y123877D01*
X435072Y124242D01*
X434935Y124610D01*
X434808Y124981D01*
X434689Y125355D01*
X434580Y125733D01*
X434479Y126112D01*
X434389Y126494D01*
X434307Y126879D01*
X434236Y127265D01*
X434173Y127652D01*
X434120Y128041D01*
X434077Y128432D01*
X434043Y128823D01*
X434019Y129215D01*
X434005Y129607D01*
X434000Y130000D01*
D15*
X595710Y130000D02*
X595720Y130842D01*
X595751Y131683D01*
X595803Y132523D01*
X595875Y133361D01*
X595968Y134197D01*
X596081Y135031D01*
X596215Y135862D01*
X596369Y136690D01*
X596543Y137513D01*
X596738Y138332D01*
X596952Y139146D01*
X597187Y139954D01*
X597441Y140756D01*
X597714Y141552D01*
X598008Y142341D01*
X598320Y143122D01*
X598652Y143896D01*
X599002Y144661D01*
X599371Y145417D01*
X599759Y146164D01*
X600165Y146901D01*
X600588Y147629D01*
X601030Y148345D01*
X601489Y149051D01*
X601965Y149744D01*
X602458Y150427D01*
X602968Y151096D01*
X603493Y151753D01*
X604035Y152397D01*
X604593Y153028D01*
X605166Y153644D01*
X605753Y154247D01*
X606356Y154834D01*
X606972Y155407D01*
X607603Y155965D01*
X608247Y156507D01*
X608904Y157032D01*
X609573Y157542D01*
X610256Y158035D01*
X610949Y158511D01*
X611655Y158970D01*
X612371Y159412D01*
X613099Y159835D01*
X613836Y160241D01*
X614583Y160629D01*
X615339Y160998D01*
X616104Y161348D01*
X616878Y161680D01*
X617659Y161992D01*
X618448Y162286D01*
X619244Y162559D01*
X620046Y162813D01*
X620854Y163048D01*
X621668Y163262D01*
X622487Y163457D01*
X623310Y163631D01*
X624138Y163785D01*
X624969Y163919D01*
X625803Y164032D01*
X626639Y164125D01*
X627477Y164197D01*
X628317Y164249D01*
X629158Y164280D01*
X630000Y164290D01*
X630842Y164280D01*
X631683Y164249D01*
X632523Y164197D01*
X633361Y164125D01*
X634197Y164032D01*
X635031Y163919D01*
X635862Y163785D01*
X636690Y163631D01*
X637513Y163457D01*
X638332Y163262D01*
X639146Y163048D01*
X639954Y162813D01*
X640756Y162559D01*
X641552Y162286D01*
X642341Y161992D01*
X643122Y161680D01*
X643896Y161348D01*
X644661Y160998D01*
X645417Y160629D01*
X646164Y160241D01*
X646901Y159835D01*
X647629Y159412D01*
X648345Y158970D01*
X649051Y158511D01*
X649744Y158035D01*
X650427Y157542D01*
X651096Y157032D01*
X651753Y156507D01*
X652397Y155965D01*
X653028Y155407D01*
X653644Y154834D01*
X654247Y154247D01*
X654834Y153644D01*
X655407Y153028D01*
X655965Y152397D01*
X656507Y151753D01*
X657032Y151096D01*
X657542Y150427D01*
X658035Y149744D01*
X658511Y149051D01*
X658970Y148345D01*
X659412Y147629D01*
X659835Y146901D01*
X660241Y146164D01*
X660629Y145417D01*
X660998Y144661D01*
X661348Y143896D01*
X661680Y143122D01*
X661992Y142341D01*
X662286Y141552D01*
X662559Y140756D01*
X662813Y139954D01*
X663048Y139146D01*
X663262Y138332D01*
X663457Y137513D01*
X663631Y136690D01*
X663785Y135862D01*
X663919Y135031D01*
X664032Y134197D01*
X664125Y133361D01*
X664197Y132523D01*
X664249Y131683D01*
X664280Y130842D01*
X664290Y130000D01*
X664280Y129158D01*
X664249Y128317D01*
X664197Y127477D01*
X664125Y126639D01*
X664032Y125803D01*
X663919Y124969D01*
X663785Y124138D01*
X663631Y123310D01*
X663457Y122487D01*
X663262Y121668D01*
X663048Y120854D01*
X662813Y120046D01*
X662559Y119244D01*
X662286Y118448D01*
X661992Y117659D01*
X661680Y116878D01*
X661348Y116104D01*
X660998Y115339D01*
X660629Y114583D01*
X660241Y113836D01*
X659835Y113099D01*
X659412Y112371D01*
X658970Y111655D01*
X658511Y110949D01*
X658035Y110256D01*
X657542Y109573D01*
X657032Y108904D01*
X656507Y108247D01*
X655965Y107603D01*
X655407Y106972D01*
X654834Y106356D01*
X654247Y105753D01*
X653644Y105166D01*
X653028Y104593D01*
X652397Y104035D01*
X651753Y103493D01*
X651096Y102968D01*
X650427Y102458D01*
X649744Y101965D01*
X649051Y101489D01*
X648345Y101030D01*
X647629Y100588D01*
X646901Y100165D01*
X646164Y99759D01*
X645417Y99371D01*
X644661Y99002D01*
X643896Y98652D01*
X643122Y98320D01*
X642341Y98008D01*
X641552Y97714D01*
X640756Y97441D01*
X639954Y97187D01*
X639146Y96952D01*
X638332Y96738D01*
X637513Y96543D01*
X636690Y96369D01*
X635862Y96215D01*
X635031Y96081D01*
X634197Y95968D01*
X633361Y95875D01*
X632523Y95803D01*
X631683Y95751D01*
X630842Y95720D01*
X630000Y95710D01*
X629158Y95720D01*
X628317Y95751D01*
X627477Y95803D01*
X626639Y95875D01*
X625803Y95968D01*
X624969Y96081D01*
X624138Y96215D01*
X623310Y96369D01*
X622487Y96543D01*
X621668Y96738D01*
X620854Y96952D01*
X620046Y97187D01*
X619244Y97441D01*
X618448Y97714D01*
X617659Y98008D01*
X616878Y98320D01*
X616104Y98652D01*
X615339Y99002D01*
X614583Y99371D01*
X613836Y99759D01*
X613099Y100165D01*
X612371Y100588D01*
X611655Y101030D01*
X610949Y101489D01*
X610256Y101965D01*
X609573Y102458D01*
X608904Y102968D01*
X608247Y103493D01*
X607603Y104035D01*
X606972Y104593D01*
X606356Y105166D01*
X605753Y105753D01*
X605166Y106356D01*
X604593Y106972D01*
X604035Y107603D01*
X603493Y108247D01*
X602968Y108904D01*
X602458Y109573D01*
X601965Y110256D01*
X601489Y110949D01*
X601030Y111655D01*
X600588Y112371D01*
X600165Y113099D01*
X599759Y113836D01*
X599371Y114583D01*
X599002Y115339D01*
X598652Y116104D01*
X598320Y116878D01*
X598008Y117659D01*
X597714Y118448D01*
X597441Y119244D01*
X597187Y120046D01*
X596952Y120854D01*
X596738Y121668D01*
X596543Y122487D01*
X596369Y123310D01*
X596215Y124138D01*
X596081Y124969D01*
X595968Y125803D01*
X595875Y126639D01*
X595803Y127477D01*
X595751Y128317D01*
X595720Y129158D01*
X595710Y130000D01*
D14*
X614000Y130000D02*
X614005Y130393D01*
X614019Y130785D01*
X614043Y131177D01*
X614077Y131568D01*
X614120Y131959D01*
X614173Y132348D01*
X614236Y132735D01*
X614307Y133121D01*
X614389Y133506D01*
X614479Y133888D01*
X614580Y134267D01*
X614689Y134645D01*
X614808Y135019D01*
X614935Y135390D01*
X615072Y135758D01*
X615218Y136123D01*
X615373Y136484D01*
X615536Y136841D01*
X615708Y137194D01*
X615889Y137542D01*
X616079Y137886D01*
X616276Y138226D01*
X616482Y138560D01*
X616696Y138889D01*
X616919Y139213D01*
X617149Y139531D01*
X617386Y139844D01*
X617632Y140150D01*
X617885Y140451D01*
X618145Y140745D01*
X618412Y141033D01*
X618686Y141314D01*
X618967Y141588D01*
X619255Y141855D01*
X619549Y142115D01*
X619850Y142368D01*
X620156Y142614D01*
X620469Y142851D01*
X620787Y143081D01*
X621111Y143304D01*
X621440Y143518D01*
X621774Y143724D01*
X622114Y143921D01*
X622458Y144111D01*
X622806Y144292D01*
X623159Y144464D01*
X623516Y144627D01*
X623877Y144782D01*
X624242Y144928D01*
X624610Y145065D01*
X624981Y145192D01*
X625355Y145311D01*
X625733Y145420D01*
X626112Y145521D01*
X626494Y145611D01*
X626879Y145693D01*
X627265Y145764D01*
X627652Y145827D01*
X628041Y145880D01*
X628432Y145923D01*
X628823Y145957D01*
X629215Y145981D01*
X629607Y145995D01*
X630000Y146000D01*
X630393Y145995D01*
X630785Y145981D01*
X631177Y145957D01*
X631568Y145923D01*
X631959Y145880D01*
X632348Y145827D01*
X632735Y145764D01*
X633121Y145693D01*
X633506Y145611D01*
X633888Y145521D01*
X634267Y145420D01*
X634645Y145311D01*
X635019Y145192D01*
X635390Y145065D01*
X635758Y144928D01*
X636123Y144782D01*
X636484Y144627D01*
X636841Y144464D01*
X637194Y144292D01*
X637542Y144111D01*
X637886Y143921D01*
X638226Y143724D01*
X638560Y143518D01*
X638889Y143304D01*
X639213Y143081D01*
X639531Y142851D01*
X639844Y142614D01*
X640150Y142368D01*
X640451Y142115D01*
X640745Y141855D01*
X641033Y141588D01*
X641314Y141314D01*
X641588Y141033D01*
X641855Y140745D01*
X642115Y140451D01*
X642368Y140150D01*
X642614Y139844D01*
X642851Y139531D01*
X643081Y139213D01*
X643304Y138889D01*
X643518Y138560D01*
X643724Y138226D01*
X643921Y137886D01*
X644111Y137542D01*
X644292Y137194D01*
X644464Y136841D01*
X644627Y136484D01*
X644782Y136123D01*
X644928Y135758D01*
X645065Y135390D01*
X645192Y135019D01*
X645311Y134645D01*
X645420Y134267D01*
X645521Y133888D01*
X645611Y133506D01*
X645693Y133121D01*
X645764Y132735D01*
X645827Y132348D01*
X645880Y131959D01*
X645923Y131568D01*
X645957Y131177D01*
X645981Y130785D01*
X645995Y130393D01*
X646000Y130000D01*
X645995Y129607D01*
X645981Y129215D01*
X645957Y128823D01*
X645923Y128432D01*
X645880Y128041D01*
X645827Y127652D01*
X645764Y127265D01*
X645693Y126879D01*
X645611Y126494D01*
X645521Y126112D01*
X645420Y125733D01*
X645311Y125355D01*
X645192Y124981D01*
X645065Y124610D01*
X644928Y124242D01*
X644782Y123877D01*
X644627Y123516D01*
X644464Y123159D01*
X644292Y122806D01*
X644111Y122458D01*
X643921Y122114D01*
X643724Y121774D01*
X643518Y121440D01*
X643304Y121111D01*
X643081Y120787D01*
X642851Y120469D01*
X642614Y120156D01*
X642368Y119850D01*
X642115Y119549D01*
X641855Y119255D01*
X641588Y118967D01*
X641314Y118686D01*
X641033Y118412D01*
X640745Y118145D01*
X640451Y117885D01*
X640150Y117632D01*
X639844Y117386D01*
X639531Y117149D01*
X639213Y116919D01*
X638889Y116696D01*
X638560Y116482D01*
X638226Y116276D01*
X637886Y116079D01*
X637542Y115889D01*
X637194Y115708D01*
X636841Y115536D01*
X636484Y115373D01*
X636123Y115218D01*
X635758Y115072D01*
X635390Y114935D01*
X635019Y114808D01*
X634645Y114689D01*
X634267Y114580D01*
X633888Y114479D01*
X633506Y114389D01*
X633121Y114307D01*
X632735Y114236D01*
X632348Y114173D01*
X631959Y114120D01*
X631568Y114077D01*
X631177Y114043D01*
X630785Y114019D01*
X630393Y114005D01*
X630000Y114000D01*
X629607Y114005D01*
X629215Y114019D01*
X628823Y114043D01*
X628432Y114077D01*
X628041Y114120D01*
X627652Y114173D01*
X627265Y114236D01*
X626879Y114307D01*
X626494Y114389D01*
X626112Y114479D01*
X625733Y114580D01*
X625355Y114689D01*
X624981Y114808D01*
X624610Y114935D01*
X624242Y115072D01*
X623877Y115218D01*
X623516Y115373D01*
X623159Y115536D01*
X622806Y115708D01*
X622458Y115889D01*
X622114Y116079D01*
X621774Y116276D01*
X621440Y116482D01*
X621111Y116696D01*
X620787Y116919D01*
X620469Y117149D01*
X620156Y117386D01*
X619850Y117632D01*
X619549Y117885D01*
X619255Y118145D01*
X618967Y118412D01*
X618686Y118686D01*
X618412Y118967D01*
X618145Y119255D01*
X617885Y119549D01*
X617632Y119850D01*
X617386Y120156D01*
X617149Y120469D01*
X616919Y120787D01*
X616696Y121111D01*
X616482Y121440D01*
X616276Y121774D01*
X616079Y122114D01*
X615889Y122458D01*
X615708Y122806D01*
X615536Y123159D01*
X615373Y123516D01*
X615218Y123877D01*
X615072Y124242D01*
X614935Y124610D01*
X614808Y124981D01*
X614689Y125355D01*
X614580Y125733D01*
X614479Y126112D01*
X614389Y126494D01*
X614307Y126879D01*
X614236Y127265D01*
X614173Y127652D01*
X614120Y128041D01*
X614077Y128432D01*
X614043Y128823D01*
X614019Y129215D01*
X614005Y129607D01*
X614000Y130000D01*
D15*
X415710Y30000D02*
X415720Y30842D01*
X415751Y31683D01*
X415803Y32523D01*
X415875Y33361D01*
X415968Y34197D01*
X416081Y35031D01*
X416215Y35862D01*
X416369Y36690D01*
X416543Y37513D01*
X416738Y38332D01*
X416952Y39146D01*
X417187Y39954D01*
X417441Y40756D01*
X417714Y41552D01*
X418008Y42341D01*
X418320Y43122D01*
X418652Y43896D01*
X419002Y44661D01*
X419371Y45417D01*
X419759Y46164D01*
X420165Y46901D01*
X420588Y47629D01*
X421030Y48345D01*
X421489Y49051D01*
X421965Y49744D01*
X422458Y50427D01*
X422968Y51096D01*
X423493Y51753D01*
X424035Y52397D01*
X424593Y53028D01*
X425166Y53644D01*
X425753Y54247D01*
X426356Y54834D01*
X426972Y55407D01*
X427603Y55965D01*
X428247Y56507D01*
X428904Y57032D01*
X429573Y57542D01*
X430256Y58035D01*
X430949Y58511D01*
X431655Y58970D01*
X432371Y59412D01*
X433099Y59835D01*
X433836Y60241D01*
X434583Y60629D01*
X435339Y60998D01*
X436104Y61348D01*
X436878Y61680D01*
X437659Y61992D01*
X438448Y62286D01*
X439244Y62559D01*
X440046Y62813D01*
X440854Y63048D01*
X441668Y63262D01*
X442487Y63457D01*
X443310Y63631D01*
X444138Y63785D01*
X444969Y63919D01*
X445803Y64032D01*
X446639Y64125D01*
X447477Y64197D01*
X448317Y64249D01*
X449158Y64280D01*
X450000Y64290D01*
X450842Y64280D01*
X451683Y64249D01*
X452523Y64197D01*
X453361Y64125D01*
X454197Y64032D01*
X455031Y63919D01*
X455862Y63785D01*
X456690Y63631D01*
X457513Y63457D01*
X458332Y63262D01*
X459146Y63048D01*
X459954Y62813D01*
X460756Y62559D01*
X461552Y62286D01*
X462341Y61992D01*
X463122Y61680D01*
X463896Y61348D01*
X464661Y60998D01*
X465417Y60629D01*
X466164Y60241D01*
X466901Y59835D01*
X467629Y59412D01*
X468345Y58970D01*
X469051Y58511D01*
X469744Y58035D01*
X470427Y57542D01*
X471096Y57032D01*
X471753Y56507D01*
X472397Y55965D01*
X473028Y55407D01*
X473644Y54834D01*
X474247Y54247D01*
X474834Y53644D01*
X475407Y53028D01*
X475965Y52397D01*
X476507Y51753D01*
X477032Y51096D01*
X477542Y50427D01*
X478035Y49744D01*
X478511Y49051D01*
X478970Y48345D01*
X479412Y47629D01*
X479835Y46901D01*
X480241Y46164D01*
X480629Y45417D01*
X480998Y44661D01*
X481348Y43896D01*
X481680Y43122D01*
X481992Y42341D01*
X482286Y41552D01*
X482559Y40756D01*
X482813Y39954D01*
X483048Y39146D01*
X483262Y38332D01*
X483457Y37513D01*
X483631Y36690D01*
X483785Y35862D01*
X483919Y35031D01*
X484032Y34197D01*
X484125Y33361D01*
X484197Y32523D01*
X484249Y31683D01*
X484280Y30842D01*
X484290Y30000D01*
X484280Y29158D01*
X484249Y28317D01*
X484197Y27477D01*
X484125Y26639D01*
X484032Y25803D01*
X483919Y24969D01*
X483785Y24138D01*
X483631Y23310D01*
X483457Y22487D01*
X483262Y21668D01*
X483048Y20854D01*
X482813Y20046D01*
X482559Y19244D01*
X482286Y18448D01*
X481992Y17659D01*
X481680Y16878D01*
X481348Y16104D01*
X480998Y15339D01*
X480629Y14583D01*
X480241Y13836D01*
X479835Y13099D01*
X479412Y12371D01*
X478970Y11655D01*
X478511Y10949D01*
X478035Y10256D01*
X477542Y9573D01*
X477032Y8904D01*
X476507Y8247D01*
X475965Y7603D01*
X475407Y6972D01*
X474834Y6356D01*
X474247Y5753D01*
X473644Y5166D01*
X473028Y4593D01*
X472397Y4035D01*
X471753Y3493D01*
X471096Y2968D01*
X470427Y2458D01*
X469744Y1965D01*
X469051Y1489D01*
X468345Y1030D01*
X467629Y588D01*
X466901Y165D01*
X466164Y-241D01*
X465417Y-629D01*
X464661Y-998D01*
X463896Y-1348D01*
X463122Y-1680D01*
X462341Y-1992D01*
X461552Y-2286D01*
X460756Y-2559D01*
X459954Y-2813D01*
X459146Y-3048D01*
X458332Y-3262D01*
X457513Y-3457D01*
X456690Y-3631D01*
X455862Y-3785D01*
X455031Y-3919D01*
X454197Y-4032D01*
X453361Y-4125D01*
X452523Y-4197D01*
X451683Y-4249D01*
X450842Y-4280D01*
X450000Y-4290D01*
X449158Y-4280D01*
X448317Y-4249D01*
X447477Y-4197D01*
X446639Y-4125D01*
X445803Y-4032D01*
X444969Y-3919D01*
X444138Y-3785D01*
X443310Y-3631D01*
X442487Y-3457D01*
X441668Y-3262D01*
X440854Y-3048D01*
X440046Y-2813D01*
X439244Y-2559D01*
X438448Y-2286D01*
X437659Y-1992D01*
X436878Y-1680D01*
X436104Y-1348D01*
X435339Y-998D01*
X434583Y-629D01*
X433836Y-241D01*
X433099Y165D01*
X432371Y588D01*
X431655Y1030D01*
X430949Y1489D01*
X430256Y1965D01*
X429573Y2458D01*
X428904Y2968D01*
X428247Y3493D01*
X427603Y4035D01*
X426972Y4593D01*
X426356Y5166D01*
X425753Y5753D01*
X425166Y6356D01*
X424593Y6972D01*
X424035Y7603D01*
X423493Y8247D01*
X422968Y8904D01*
X422458Y9573D01*
X421965Y10256D01*
X421489Y10949D01*
X421030Y11655D01*
X420588Y12371D01*
X420165Y13099D01*
X419759Y13836D01*
X419371Y14583D01*
X419002Y15339D01*
X418652Y16104D01*
X418320Y16878D01*
X418008Y17659D01*
X417714Y18448D01*
X417441Y19244D01*
X417187Y20046D01*
X416952Y20854D01*
X416738Y21668D01*
X416543Y22487D01*
X416369Y23310D01*
X416215Y24138D01*
X416081Y24969D01*
X415968Y25803D01*
X415875Y26639D01*
X415803Y27477D01*
X415751Y28317D01*
X415720Y29158D01*
X415710Y30000D01*
D14*
X434000Y30000D02*
X434005Y30393D01*
X434019Y30785D01*
X434043Y31177D01*
X434077Y31568D01*
X434120Y31959D01*
X434173Y32348D01*
X434236Y32735D01*
X434307Y33121D01*
X434389Y33506D01*
X434479Y33888D01*
X434580Y34267D01*
X434689Y34645D01*
X434808Y35019D01*
X434935Y35390D01*
X435072Y35758D01*
X435218Y36123D01*
X435373Y36484D01*
X435536Y36841D01*
X435708Y37194D01*
X435889Y37542D01*
X436079Y37886D01*
X436276Y38226D01*
X436482Y38560D01*
X436696Y38889D01*
X436919Y39213D01*
X437149Y39531D01*
X437386Y39844D01*
X437632Y40150D01*
X437885Y40451D01*
X438145Y40745D01*
X438412Y41033D01*
X438686Y41314D01*
X438967Y41588D01*
X439255Y41855D01*
X439549Y42115D01*
X439850Y42368D01*
X440156Y42614D01*
X440469Y42851D01*
X440787Y43081D01*
X441111Y43304D01*
X441440Y43518D01*
X441774Y43724D01*
X442114Y43921D01*
X442458Y44111D01*
X442806Y44292D01*
X443159Y44464D01*
X443516Y44627D01*
X443877Y44782D01*
X444242Y44928D01*
X444610Y45065D01*
X444981Y45192D01*
X445355Y45311D01*
X445733Y45420D01*
X446112Y45521D01*
X446494Y45611D01*
X446879Y45693D01*
X447265Y45764D01*
X447652Y45827D01*
X448041Y45880D01*
X448432Y45923D01*
X448823Y45957D01*
X449215Y45981D01*
X449607Y45995D01*
X450000Y46000D01*
X450393Y45995D01*
X450785Y45981D01*
X451177Y45957D01*
X451568Y45923D01*
X451959Y45880D01*
X452348Y45827D01*
X452735Y45764D01*
X453121Y45693D01*
X453506Y45611D01*
X453888Y45521D01*
X454267Y45420D01*
X454645Y45311D01*
X455019Y45192D01*
X455390Y45065D01*
X455758Y44928D01*
X456123Y44782D01*
X456484Y44627D01*
X456841Y44464D01*
X457194Y44292D01*
X457542Y44111D01*
X457886Y43921D01*
X458226Y43724D01*
X458560Y43518D01*
X458889Y43304D01*
X459213Y43081D01*
X459531Y42851D01*
X459844Y42614D01*
X460150Y42368D01*
X460451Y42115D01*
X460745Y41855D01*
X461033Y41588D01*
X461314Y41314D01*
X461588Y41033D01*
X461855Y40745D01*
X462115Y40451D01*
X462368Y40150D01*
X462614Y39844D01*
X462851Y39531D01*
X463081Y39213D01*
X463304Y38889D01*
X463518Y38560D01*
X463724Y38226D01*
X463921Y37886D01*
X464111Y37542D01*
X464292Y37194D01*
X464464Y36841D01*
X464627Y36484D01*
X464782Y36123D01*
X464928Y35758D01*
X465065Y35390D01*
X465192Y35019D01*
X465311Y34645D01*
X465420Y34267D01*
X465521Y33888D01*
X465611Y33506D01*
X465693Y33121D01*
X465764Y32735D01*
X465827Y32348D01*
X465880Y31959D01*
X465923Y31568D01*
X465957Y31177D01*
X465981Y30785D01*
X465995Y30393D01*
X466000Y30000D01*
X465995Y29607D01*
X465981Y29215D01*
X465957Y28823D01*
X465923Y28432D01*
X465880Y28041D01*
X465827Y27652D01*
X465764Y27265D01*
X465693Y26879D01*
X465611Y26494D01*
X465521Y26112D01*
X465420Y25733D01*
X465311Y25355D01*
X465192Y24981D01*
X465065Y24610D01*
X464928Y24242D01*
X464782Y23877D01*
X464627Y23516D01*
X464464Y23159D01*
X464292Y22806D01*
X464111Y22458D01*
X463921Y22114D01*
X463724Y21774D01*
X463518Y21440D01*
X463304Y21111D01*
X463081Y20787D01*
X462851Y20469D01*
X462614Y20156D01*
X462368Y19850D01*
X462115Y19549D01*
X461855Y19255D01*
X461588Y18967D01*
X461314Y18686D01*
X461033Y18412D01*
X460745Y18145D01*
X460451Y17885D01*
X460150Y17632D01*
X459844Y17386D01*
X459531Y17149D01*
X459213Y16919D01*
X458889Y16696D01*
X458560Y16482D01*
X458226Y16276D01*
X457886Y16079D01*
X457542Y15889D01*
X457194Y15708D01*
X456841Y15536D01*
X456484Y15373D01*
X456123Y15218D01*
X455758Y15072D01*
X455390Y14935D01*
X455019Y14808D01*
X454645Y14689D01*
X454267Y14580D01*
X453888Y14479D01*
X453506Y14389D01*
X453121Y14307D01*
X452735Y14236D01*
X452348Y14173D01*
X451959Y14120D01*
X451568Y14077D01*
X451177Y14043D01*
X450785Y14019D01*
X450393Y14005D01*
X450000Y14000D01*
X449607Y14005D01*
X449215Y14019D01*
X448823Y14043D01*
X448432Y14077D01*
X448041Y14120D01*
X447652Y14173D01*
X447265Y14236D01*
X446879Y14307D01*
X446494Y14389D01*
X446112Y14479D01*
X445733Y14580D01*
X445355Y14689D01*
X444981Y14808D01*
X444610Y14935D01*
X444242Y15072D01*
X443877Y15218D01*
X443516Y15373D01*
X443159Y15536D01*
X442806Y15708D01*
X442458Y15889D01*
X442114Y16079D01*
X441774Y16276D01*
X441440Y16482D01*
X441111Y16696D01*
X440787Y16919D01*
X440469Y17149D01*
X440156Y17386D01*
X439850Y17632D01*
X439549Y17885D01*
X439255Y18145D01*
X438967Y18412D01*
X438686Y18686D01*
X438412Y18967D01*
X438145Y19255D01*
X437885Y19549D01*
X437632Y19850D01*
X437386Y20156D01*
X437149Y20469D01*
X436919Y20787D01*
X436696Y21111D01*
X436482Y21440D01*
X436276Y21774D01*
X436079Y22114D01*
X435889Y22458D01*
X435708Y22806D01*
X435536Y23159D01*
X435373Y23516D01*
X435218Y23877D01*
X435072Y24242D01*
X434935Y24610D01*
X434808Y24981D01*
X434689Y25355D01*
X434580Y25733D01*
X434479Y26112D01*
X434389Y26494D01*
X434307Y26879D01*
X434236Y27265D01*
X434173Y27652D01*
X434120Y28041D01*
X434077Y28432D01*
X434043Y28823D01*
X434019Y29215D01*
X434005Y29607D01*
X434000Y30000D01*
D15*
X595710Y30000D02*
X595720Y30842D01*
X595751Y31683D01*
X595803Y32523D01*
X595875Y33361D01*
X595968Y34197D01*
X596081Y35031D01*
X596215Y35862D01*
X596369Y36690D01*
X596543Y37513D01*
X596738Y38332D01*
X596952Y39146D01*
X597187Y39954D01*
X597441Y40756D01*
X597714Y41552D01*
X598008Y42341D01*
X598320Y43122D01*
X598652Y43896D01*
X599002Y44661D01*
X599371Y45417D01*
X599759Y46164D01*
X600165Y46901D01*
X600588Y47629D01*
X601030Y48345D01*
X601489Y49051D01*
X601965Y49744D01*
X602458Y50427D01*
X602968Y51096D01*
X603493Y51753D01*
X604035Y52397D01*
X604593Y53028D01*
X605166Y53644D01*
X605753Y54247D01*
X606356Y54834D01*
X606972Y55407D01*
X607603Y55965D01*
X608247Y56507D01*
X608904Y57032D01*
X609573Y57542D01*
X610256Y58035D01*
X610949Y58511D01*
X611655Y58970D01*
X612371Y59412D01*
X613099Y59835D01*
X613836Y60241D01*
X614583Y60629D01*
X615339Y60998D01*
X616104Y61348D01*
X616878Y61680D01*
X617659Y61992D01*
X618448Y62286D01*
X619244Y62559D01*
X620046Y62813D01*
X620854Y63048D01*
X621668Y63262D01*
X622487Y63457D01*
X623310Y63631D01*
X624138Y63785D01*
X624969Y63919D01*
X625803Y64032D01*
X626639Y64125D01*
X627477Y64197D01*
X628317Y64249D01*
X629158Y64280D01*
X630000Y64290D01*
X630842Y64280D01*
X631683Y64249D01*
X632523Y64197D01*
X633361Y64125D01*
X634197Y64032D01*
X635031Y63919D01*
X635862Y63785D01*
X636690Y63631D01*
X637513Y63457D01*
X638332Y63262D01*
X639146Y63048D01*
X639954Y62813D01*
X640756Y62559D01*
X641552Y62286D01*
X642341Y61992D01*
X643122Y61680D01*
X643896Y61348D01*
X644661Y60998D01*
X645417Y60629D01*
X646164Y60241D01*
X646901Y59835D01*
X647629Y59412D01*
X648345Y58970D01*
X649051Y58511D01*
X649744Y58035D01*
X650427Y57542D01*
X651096Y57032D01*
X651753Y56507D01*
X652397Y55965D01*
X653028Y55407D01*
X653644Y54834D01*
X654247Y54247D01*
X654834Y53644D01*
X655407Y53028D01*
X655965Y52397D01*
X656507Y51753D01*
X657032Y51096D01*
X657542Y50427D01*
X658035Y49744D01*
X658511Y49051D01*
X658970Y48345D01*
X659412Y47629D01*
X659835Y46901D01*
X660241Y46164D01*
X660629Y45417D01*
X660998Y44661D01*
X661348Y43896D01*
X661680Y43122D01*
X661992Y42341D01*
X662286Y41552D01*
X662559Y40756D01*
X662813Y39954D01*
X663048Y39146D01*
X663262Y38332D01*
X663457Y37513D01*
X663631Y36690D01*
X663785Y35862D01*
X663919Y35031D01*
X664032Y34197D01*
X664125Y33361D01*
X664197Y32523D01*
X664249Y31683D01*
X664280Y30842D01*
X664290Y30000D01*
X664280Y29158D01*
X664249Y28317D01*
X664197Y27477D01*
X664125Y26639D01*
X664032Y25803D01*
X663919Y24969D01*
X663785Y24138D01*
X663631Y23310D01*
X663457Y22487D01*
X663262Y21668D01*
X663048Y20854D01*
X662813Y20046D01*
X662559Y19244D01*
X662286Y18448D01*
X661992Y17659D01*
X661680Y16878D01*
X661348Y16104D01*
X660998Y15339D01*
X660629Y14583D01*
X660241Y13836D01*
X659835Y13099D01*
X659412Y12371D01*
X658970Y11655D01*
X658511Y10949D01*
X658035Y10256D01*
X657542Y9573D01*
X657032Y8904D01*
X656507Y8247D01*
X655965Y7603D01*
X655407Y6972D01*
X654834Y6356D01*
X654247Y5753D01*
X653644Y5166D01*
X653028Y4593D01*
X652397Y4035D01*
X651753Y3493D01*
X651096Y2968D01*
X650427Y2458D01*
X649744Y1965D01*
X649051Y1489D01*
X648345Y1030D01*
X647629Y588D01*
X646901Y165D01*
X646164Y-241D01*
X645417Y-629D01*
X644661Y-998D01*
X643896Y-1348D01*
X643122Y-1680D01*
X642341Y-1992D01*
X641552Y-2286D01*
X640756Y-2559D01*
X639954Y-2813D01*
X639146Y-3048D01*
X638332Y-3262D01*
X637513Y-3457D01*
X636690Y-3631D01*
X635862Y-3785D01*
X635031Y-3919D01*
X634197Y-4032D01*
X633361Y-4125D01*
X632523Y-4197D01*
X631683Y-4249D01*
X630842Y-4280D01*
X630000Y-4290D01*
X629158Y-4280D01*
X628317Y-4249D01*
X627477Y-4197D01*
X626639Y-4125D01*
X625803Y-4032D01*
X624969Y-3919D01*
X624138Y-3785D01*
X623310Y-3631D01*
X622487Y-3457D01*
X621668Y-3262D01*
X620854Y-3048D01*
X620046Y-2813D01*
X619244Y-2559D01*
X618448Y-2286D01*
X617659Y-1992D01*
X616878Y-1680D01*
X616104Y-1348D01*
X615339Y-998D01*
X614583Y-629D01*
X613836Y-241D01*
X613099Y165D01*
X612371Y588D01*
X611655Y1030D01*
X610949Y1489D01*
X610256Y1965D01*
X609573Y2458D01*
X608904Y2968D01*
X608247Y3493D01*
X607603Y4035D01*
X606972Y4593D01*
X606356Y5166D01*
X605753Y5753D01*
X605166Y6356D01*
X604593Y6972D01*
X604035Y7603D01*
X603493Y8247D01*
X602968Y8904D01*
X602458Y9573D01*
X601965Y10256D01*
X601489Y10949D01*
X601030Y11655D01*
X600588Y12371D01*
X600165Y13099D01*
X599759Y13836D01*
X599371Y14583D01*
X599002Y15339D01*
X598652Y16104D01*
X598320Y16878D01*
X598008Y17659D01*
X597714Y18448D01*
X597441Y19244D01*
X597187Y20046D01*
X596952Y20854D01*
X596738Y21668D01*
X596543Y22487D01*
X596369Y23310D01*
X596215Y24138D01*
X596081Y24969D01*
X595968Y25803D01*
X595875Y26639D01*
X595803Y27477D01*
X595751Y28317D01*
X595720Y29158D01*
X595710Y30000D01*
D14*
X614000Y30000D02*
X614005Y30393D01*
X614019Y30785D01*
X614043Y31177D01*
X614077Y31568D01*
X614120Y31959D01*
X614173Y32348D01*
X614236Y32735D01*
X614307Y33121D01*
X614389Y33506D01*
X614479Y33888D01*
X614580Y34267D01*
X614689Y34645D01*
X614808Y35019D01*
X614935Y35390D01*
X615072Y35758D01*
X615218Y36123D01*
X615373Y36484D01*
X615536Y36841D01*
X615708Y37194D01*
X615889Y37542D01*
X616079Y37886D01*
X616276Y38226D01*
X616482Y38560D01*
X616696Y38889D01*
X616919Y39213D01*
X617149Y39531D01*
X617386Y39844D01*
X617632Y40150D01*
X617885Y40451D01*
X618145Y40745D01*
X618412Y41033D01*
X618686Y41314D01*
X618967Y41588D01*
X619255Y41855D01*
X619549Y42115D01*
X619850Y42368D01*
X620156Y42614D01*
X620469Y42851D01*
X620787Y43081D01*
X621111Y43304D01*
X621440Y43518D01*
X621774Y43724D01*
X622114Y43921D01*
X622458Y44111D01*
X622806Y44292D01*
X623159Y44464D01*
X623516Y44627D01*
X623877Y44782D01*
X624242Y44928D01*
X624610Y45065D01*
X624981Y45192D01*
X625355Y45311D01*
X625733Y45420D01*
X626112Y45521D01*
X626494Y45611D01*
X626879Y45693D01*
X627265Y45764D01*
X627652Y45827D01*
X628041Y45880D01*
X628432Y45923D01*
X628823Y45957D01*
X629215Y45981D01*
X629607Y45995D01*
X630000Y46000D01*
X630393Y45995D01*
X630785Y45981D01*
X631177Y45957D01*
X631568Y45923D01*
X631959Y45880D01*
X632348Y45827D01*
X632735Y45764D01*
X633121Y45693D01*
X633506Y45611D01*
X633888Y45521D01*
X634267Y45420D01*
X634645Y45311D01*
X635019Y45192D01*
X635390Y45065D01*
X635758Y44928D01*
X636123Y44782D01*
X636484Y44627D01*
X636841Y44464D01*
X637194Y44292D01*
X637542Y44111D01*
X637886Y43921D01*
X638226Y43724D01*
X638560Y43518D01*
X638889Y43304D01*
X639213Y43081D01*
X639531Y42851D01*
X639844Y42614D01*
X640150Y42368D01*
X640451Y42115D01*
X640745Y41855D01*
X641033Y41588D01*
X641314Y41314D01*
X641588Y41033D01*
X641855Y40745D01*
X642115Y40451D01*
X642368Y40150D01*
X642614Y39844D01*
X642851Y39531D01*
X643081Y39213D01*
X643304Y38889D01*
X643518Y38560D01*
X643724Y38226D01*
X643921Y37886D01*
X644111Y37542D01*
X644292Y37194D01*
X644464Y36841D01*
X644627Y36484D01*
X644782Y36123D01*
X644928Y35758D01*
X645065Y35390D01*
X645192Y35019D01*
X645311Y34645D01*
X645420Y34267D01*
X645521Y33888D01*
X645611Y33506D01*
X645693Y33121D01*
X645764Y32735D01*
X645827Y32348D01*
X645880Y31959D01*
X645923Y31568D01*
X645957Y31177D01*
X645981Y30785D01*
X645995Y30393D01*
X646000Y30000D01*
X645995Y29607D01*
X645981Y29215D01*
X645957Y28823D01*
X645923Y28432D01*
X645880Y28041D01*
X645827Y27652D01*
X645764Y27265D01*
X645693Y26879D01*
X645611Y26494D01*
X645521Y26112D01*
X645420Y25733D01*
X645311Y25355D01*
X645192Y24981D01*
X645065Y24610D01*
X644928Y24242D01*
X644782Y23877D01*
X644627Y23516D01*
X644464Y23159D01*
X644292Y22806D01*
X644111Y22458D01*
X643921Y22114D01*
X643724Y21774D01*
X643518Y21440D01*
X643304Y21111D01*
X643081Y20787D01*
X642851Y20469D01*
X642614Y20156D01*
X642368Y19850D01*
X642115Y19549D01*
X641855Y19255D01*
X641588Y18967D01*
X641314Y18686D01*
X641033Y18412D01*
X640745Y18145D01*
X640451Y17885D01*
X640150Y17632D01*
X639844Y17386D01*
X639531Y17149D01*
X639213Y16919D01*
X638889Y16696D01*
X638560Y16482D01*
X638226Y16276D01*
X637886Y16079D01*
X637542Y15889D01*
X637194Y15708D01*
X636841Y15536D01*
X636484Y15373D01*
X636123Y15218D01*
X635758Y15072D01*
X635390Y14935D01*
X635019Y14808D01*
X634645Y14689D01*
X634267Y14580D01*
X633888Y14479D01*
X633506Y14389D01*
X633121Y14307D01*
X632735Y14236D01*
X632348Y14173D01*
X631959Y14120D01*
X631568Y14077D01*
X631177Y14043D01*
X630785Y14019D01*
X630393Y14005D01*
X630000Y14000D01*
X629607Y14005D01*
X629215Y14019D01*
X628823Y14043D01*
X628432Y14077D01*
X628041Y14120D01*
X627652Y14173D01*
X627265Y14236D01*
X626879Y14307D01*
X626494Y14389D01*
X626112Y14479D01*
X625733Y14580D01*
X625355Y14689D01*
X624981Y14808D01*
X624610Y14935D01*
X624242Y15072D01*
X623877Y15218D01*
X623516Y15373D01*
X623159Y15536D01*
X622806Y15708D01*
X622458Y15889D01*
X622114Y16079D01*
X621774Y16276D01*
X621440Y16482D01*
X621111Y16696D01*
X620787Y16919D01*
X620469Y17149D01*
X620156Y17386D01*
X619850Y17632D01*
X619549Y17885D01*
X619255Y18145D01*
X618967Y18412D01*
X618686Y18686D01*
X618412Y18967D01*
X618145Y19255D01*
X617885Y19549D01*
X617632Y19850D01*
X617386Y20156D01*
X617149Y20469D01*
X616919Y20787D01*
X616696Y21111D01*
X616482Y21440D01*
X616276Y21774D01*
X616079Y22114D01*
X615889Y22458D01*
X615708Y22806D01*
X615536Y23159D01*
X615373Y23516D01*
X615218Y23877D01*
X615072Y24242D01*
X614935Y24610D01*
X614808Y24981D01*
X614689Y25355D01*
X614580Y25733D01*
X614479Y26112D01*
X614389Y26494D01*
X614307Y26879D01*
X614236Y27265D01*
X614173Y27652D01*
X614120Y28041D01*
X614077Y28432D01*
X614043Y28823D01*
X614019Y29215D01*
X614005Y29607D01*
X614000Y30000D01*
D12*
X502649Y153649D02*
X504000Y154950D01*
X502649Y153649D02*
X502649Y149385D01*
X504024Y148010D01*
X510943Y148010D01*
X511014Y148008D01*
X511085Y148002D01*
X511156Y147992D01*
X511226Y147978D01*
X511295Y147961D01*
X511363Y147939D01*
X511429Y147914D01*
X511494Y147885D01*
X511558Y147853D01*
X511619Y147817D01*
X511679Y147778D01*
X511736Y147735D01*
X511791Y147690D01*
X511843Y147641D01*
X511892Y147590D01*
X511938Y147536D01*
X512009Y147446D01*
X512077Y147352D01*
X512142Y147257D01*
X512204Y147159D01*
X512262Y147060D01*
X512317Y146958D01*
X512368Y146855D01*
X512416Y146750D01*
X512460Y146643D01*
X512501Y146535D01*
X512537Y146426D01*
X512570Y146315D01*
X512600Y146204D01*
X512625Y146091D01*
X512647Y145978D01*
X512664Y145864D01*
X512678Y145749D01*
X512688Y145634D01*
X512694Y145519D01*
X512696Y145403D01*
X503171Y145403D01*
X508099Y124409D02*
X525207Y124409D01*
X525207Y127869D01*
X504000Y154950D02*
X576000Y154950D01*
X577351Y153649D01*
X577351Y149385D01*
X575976Y148010D01*
X569057Y148010D01*
X568986Y148008D01*
X568915Y148002D01*
X568844Y147992D01*
X568774Y147978D01*
X568705Y147961D01*
X568637Y147939D01*
X568571Y147914D01*
X568506Y147885D01*
X568442Y147853D01*
X568381Y147817D01*
X568321Y147778D01*
X568264Y147735D01*
X568209Y147690D01*
X568157Y147641D01*
X568108Y147590D01*
X568062Y147536D01*
X567991Y147446D01*
X567923Y147352D01*
X567858Y147257D01*
X567796Y147159D01*
X567738Y147060D01*
X567683Y146958D01*
X567632Y146855D01*
X567584Y146750D01*
X567540Y146643D01*
X567499Y146535D01*
X567463Y146426D01*
X567430Y146315D01*
X567400Y146204D01*
X567375Y146091D01*
X567353Y145978D01*
X567336Y145864D01*
X567322Y145749D01*
X567312Y145634D01*
X567306Y145519D01*
X567304Y145403D01*
X571901Y124409D02*
X554793Y124409D01*
X554793Y124620D02*
X554793Y127869D01*
X525207Y127869D01*
X566167Y150047D02*
X568726Y154407D01*
X566167Y150047D02*
X563323Y154407D01*
X504000Y169950D02*
X502649Y168649D01*
X502649Y164385D01*
X504000Y169950D02*
X514500Y169950D01*
X524500Y169950D02*
X535000Y169950D01*
X545000Y169950D02*
X555500Y169950D01*
X565500Y169950D02*
X576000Y169950D01*
X577351Y168649D01*
X577351Y164385D01*
X575976Y163010D01*
X504024Y163010D02*
X502649Y164385D01*
X504024Y163010D02*
X510943Y163010D01*
X569057Y163010D02*
X575976Y163010D01*
X568062Y162536D02*
X567991Y162446D01*
X567923Y162352D01*
X567858Y162257D01*
X567796Y162159D01*
X567738Y162060D01*
X567683Y161958D01*
X567632Y161855D01*
X567584Y161750D01*
X567540Y161643D01*
X567499Y161535D01*
X567463Y161426D01*
X567430Y161315D01*
X567400Y161204D01*
X567375Y161091D01*
X567353Y160978D01*
X567336Y160864D01*
X567322Y160749D01*
X567312Y160634D01*
X567306Y160519D01*
X567304Y160403D01*
X512696Y160403D02*
X512694Y160519D01*
X512688Y160634D01*
X512678Y160749D01*
X512664Y160864D01*
X512647Y160978D01*
X512625Y161091D01*
X512600Y161204D01*
X512570Y161315D01*
X512537Y161426D01*
X512501Y161535D01*
X512460Y161643D01*
X512416Y161750D01*
X512368Y161855D01*
X512317Y161958D01*
X512262Y162060D01*
X512204Y162159D01*
X512142Y162257D01*
X512077Y162352D01*
X512009Y162446D01*
X511938Y162536D01*
X511892Y162590D01*
X511843Y162641D01*
X511791Y162690D01*
X511736Y162735D01*
X511679Y162778D01*
X511619Y162817D01*
X511558Y162853D01*
X511494Y162885D01*
X511429Y162914D01*
X511363Y162939D01*
X511295Y162961D01*
X511226Y162978D01*
X511156Y162992D01*
X511085Y163002D01*
X511014Y163008D01*
X510943Y163010D01*
X568062Y162536D02*
X568108Y162590D01*
X568157Y162641D01*
X568209Y162690D01*
X568264Y162735D01*
X568321Y162778D01*
X568381Y162817D01*
X568442Y162853D01*
X568506Y162885D01*
X568571Y162914D01*
X568637Y162939D01*
X568705Y162961D01*
X568774Y162978D01*
X568844Y162992D01*
X568915Y163002D01*
X568986Y163008D01*
X569057Y163010D01*
D13*
X566167Y153412D03*
M02*
