G04 EAGLE Gerber RS-274X export*
G75*
%MOMM*%
%FSLAX34Y34*%
%LPD*%
%INSilkscreen Bottom*%
%IPPOS*%
%AMOC8*
5,1,8,0,0,1.08239X$1,22.5*%
G01*
%ADD10C,0.406400*%
%ADD11C,0.076200*%
%ADD12C,0.127000*%
%ADD13C,0.203200*%
%ADD14C,0.152400*%


D10*
X52192Y384216D02*
X52194Y384326D01*
X52200Y384436D01*
X52210Y384546D01*
X52224Y384655D01*
X52242Y384763D01*
X52263Y384871D01*
X52289Y384978D01*
X52318Y385084D01*
X52352Y385189D01*
X52389Y385293D01*
X52429Y385395D01*
X52474Y385496D01*
X52522Y385595D01*
X52573Y385692D01*
X52628Y385787D01*
X52687Y385881D01*
X52748Y385972D01*
X52814Y386061D01*
X52882Y386147D01*
X52953Y386231D01*
X53027Y386312D01*
X53104Y386391D01*
X53184Y386466D01*
X53267Y386539D01*
X53352Y386609D01*
X53440Y386675D01*
X53530Y386739D01*
X53622Y386799D01*
X53716Y386856D01*
X53812Y386909D01*
X53910Y386959D01*
X54010Y387005D01*
X54112Y387048D01*
X54215Y387086D01*
X54319Y387122D01*
X54425Y387153D01*
X54531Y387180D01*
X54639Y387204D01*
X54747Y387224D01*
X54856Y387240D01*
X54965Y387252D01*
X55075Y387260D01*
X55185Y387264D01*
X55295Y387264D01*
X55405Y387260D01*
X55515Y387252D01*
X55624Y387240D01*
X55733Y387224D01*
X55841Y387204D01*
X55949Y387180D01*
X56055Y387153D01*
X56161Y387122D01*
X56265Y387086D01*
X56368Y387048D01*
X56470Y387005D01*
X56570Y386959D01*
X56668Y386909D01*
X56764Y386856D01*
X56858Y386799D01*
X56950Y386739D01*
X57040Y386675D01*
X57128Y386609D01*
X57213Y386539D01*
X57296Y386466D01*
X57376Y386391D01*
X57453Y386312D01*
X57527Y386231D01*
X57598Y386147D01*
X57666Y386061D01*
X57732Y385972D01*
X57793Y385881D01*
X57852Y385787D01*
X57907Y385692D01*
X57958Y385595D01*
X58006Y385496D01*
X58051Y385395D01*
X58091Y385293D01*
X58128Y385189D01*
X58162Y385084D01*
X58191Y384978D01*
X58217Y384871D01*
X58238Y384763D01*
X58256Y384655D01*
X58270Y384546D01*
X58280Y384436D01*
X58286Y384326D01*
X58288Y384216D01*
X58286Y384106D01*
X58280Y383996D01*
X58270Y383886D01*
X58256Y383777D01*
X58238Y383669D01*
X58217Y383561D01*
X58191Y383454D01*
X58162Y383348D01*
X58128Y383243D01*
X58091Y383139D01*
X58051Y383037D01*
X58006Y382936D01*
X57958Y382837D01*
X57907Y382740D01*
X57852Y382645D01*
X57793Y382551D01*
X57732Y382460D01*
X57666Y382371D01*
X57598Y382285D01*
X57527Y382201D01*
X57453Y382120D01*
X57376Y382041D01*
X57296Y381966D01*
X57213Y381893D01*
X57128Y381823D01*
X57040Y381757D01*
X56950Y381693D01*
X56858Y381633D01*
X56764Y381576D01*
X56668Y381523D01*
X56570Y381473D01*
X56470Y381427D01*
X56368Y381384D01*
X56265Y381346D01*
X56161Y381310D01*
X56055Y381279D01*
X55949Y381252D01*
X55841Y381228D01*
X55733Y381208D01*
X55624Y381192D01*
X55515Y381180D01*
X55405Y381172D01*
X55295Y381168D01*
X55185Y381168D01*
X55075Y381172D01*
X54965Y381180D01*
X54856Y381192D01*
X54747Y381208D01*
X54639Y381228D01*
X54531Y381252D01*
X54425Y381279D01*
X54319Y381310D01*
X54215Y381346D01*
X54112Y381384D01*
X54010Y381427D01*
X53910Y381473D01*
X53812Y381523D01*
X53716Y381576D01*
X53622Y381633D01*
X53530Y381693D01*
X53440Y381757D01*
X53352Y381823D01*
X53267Y381893D01*
X53184Y381966D01*
X53104Y382041D01*
X53027Y382120D01*
X52953Y382201D01*
X52882Y382285D01*
X52814Y382371D01*
X52748Y382460D01*
X52687Y382551D01*
X52628Y382645D01*
X52573Y382740D01*
X52522Y382837D01*
X52474Y382936D01*
X52429Y383037D01*
X52389Y383139D01*
X52352Y383243D01*
X52318Y383348D01*
X52289Y383454D01*
X52263Y383561D01*
X52242Y383669D01*
X52224Y383777D01*
X52210Y383886D01*
X52200Y383996D01*
X52194Y384106D01*
X52192Y384216D01*
X152776Y399456D02*
X152778Y399566D01*
X152784Y399676D01*
X152794Y399786D01*
X152808Y399895D01*
X152826Y400003D01*
X152847Y400111D01*
X152873Y400218D01*
X152902Y400324D01*
X152936Y400429D01*
X152973Y400533D01*
X153013Y400635D01*
X153058Y400736D01*
X153106Y400835D01*
X153157Y400932D01*
X153212Y401027D01*
X153271Y401121D01*
X153332Y401212D01*
X153398Y401301D01*
X153466Y401387D01*
X153537Y401471D01*
X153611Y401552D01*
X153688Y401631D01*
X153768Y401706D01*
X153851Y401779D01*
X153936Y401849D01*
X154024Y401915D01*
X154114Y401979D01*
X154206Y402039D01*
X154300Y402096D01*
X154396Y402149D01*
X154494Y402199D01*
X154594Y402245D01*
X154696Y402288D01*
X154799Y402326D01*
X154903Y402362D01*
X155009Y402393D01*
X155115Y402420D01*
X155223Y402444D01*
X155331Y402464D01*
X155440Y402480D01*
X155549Y402492D01*
X155659Y402500D01*
X155769Y402504D01*
X155879Y402504D01*
X155989Y402500D01*
X156099Y402492D01*
X156208Y402480D01*
X156317Y402464D01*
X156425Y402444D01*
X156533Y402420D01*
X156639Y402393D01*
X156745Y402362D01*
X156849Y402326D01*
X156952Y402288D01*
X157054Y402245D01*
X157154Y402199D01*
X157252Y402149D01*
X157348Y402096D01*
X157442Y402039D01*
X157534Y401979D01*
X157624Y401915D01*
X157712Y401849D01*
X157797Y401779D01*
X157880Y401706D01*
X157960Y401631D01*
X158037Y401552D01*
X158111Y401471D01*
X158182Y401387D01*
X158250Y401301D01*
X158316Y401212D01*
X158377Y401121D01*
X158436Y401027D01*
X158491Y400932D01*
X158542Y400835D01*
X158590Y400736D01*
X158635Y400635D01*
X158675Y400533D01*
X158712Y400429D01*
X158746Y400324D01*
X158775Y400218D01*
X158801Y400111D01*
X158822Y400003D01*
X158840Y399895D01*
X158854Y399786D01*
X158864Y399676D01*
X158870Y399566D01*
X158872Y399456D01*
X158870Y399346D01*
X158864Y399236D01*
X158854Y399126D01*
X158840Y399017D01*
X158822Y398909D01*
X158801Y398801D01*
X158775Y398694D01*
X158746Y398588D01*
X158712Y398483D01*
X158675Y398379D01*
X158635Y398277D01*
X158590Y398176D01*
X158542Y398077D01*
X158491Y397980D01*
X158436Y397885D01*
X158377Y397791D01*
X158316Y397700D01*
X158250Y397611D01*
X158182Y397525D01*
X158111Y397441D01*
X158037Y397360D01*
X157960Y397281D01*
X157880Y397206D01*
X157797Y397133D01*
X157712Y397063D01*
X157624Y396997D01*
X157534Y396933D01*
X157442Y396873D01*
X157348Y396816D01*
X157252Y396763D01*
X157154Y396713D01*
X157054Y396667D01*
X156952Y396624D01*
X156849Y396586D01*
X156745Y396550D01*
X156639Y396519D01*
X156533Y396492D01*
X156425Y396468D01*
X156317Y396448D01*
X156208Y396432D01*
X156099Y396420D01*
X155989Y396412D01*
X155879Y396408D01*
X155769Y396408D01*
X155659Y396412D01*
X155549Y396420D01*
X155440Y396432D01*
X155331Y396448D01*
X155223Y396468D01*
X155115Y396492D01*
X155009Y396519D01*
X154903Y396550D01*
X154799Y396586D01*
X154696Y396624D01*
X154594Y396667D01*
X154494Y396713D01*
X154396Y396763D01*
X154300Y396816D01*
X154206Y396873D01*
X154114Y396933D01*
X154024Y396997D01*
X153936Y397063D01*
X153851Y397133D01*
X153768Y397206D01*
X153688Y397281D01*
X153611Y397360D01*
X153537Y397441D01*
X153466Y397525D01*
X153398Y397611D01*
X153332Y397700D01*
X153271Y397791D01*
X153212Y397885D01*
X153157Y397980D01*
X153106Y398077D01*
X153058Y398176D01*
X153013Y398277D01*
X152973Y398379D01*
X152936Y398483D01*
X152902Y398588D01*
X152873Y398694D01*
X152847Y398801D01*
X152826Y398909D01*
X152808Y399017D01*
X152794Y399126D01*
X152784Y399236D01*
X152778Y399346D01*
X152776Y399456D01*
X253360Y432984D02*
X253362Y433094D01*
X253368Y433204D01*
X253378Y433314D01*
X253392Y433423D01*
X253410Y433531D01*
X253431Y433639D01*
X253457Y433746D01*
X253486Y433852D01*
X253520Y433957D01*
X253557Y434061D01*
X253597Y434163D01*
X253642Y434264D01*
X253690Y434363D01*
X253741Y434460D01*
X253796Y434555D01*
X253855Y434649D01*
X253916Y434740D01*
X253982Y434829D01*
X254050Y434915D01*
X254121Y434999D01*
X254195Y435080D01*
X254272Y435159D01*
X254352Y435234D01*
X254435Y435307D01*
X254520Y435377D01*
X254608Y435443D01*
X254698Y435507D01*
X254790Y435567D01*
X254884Y435624D01*
X254980Y435677D01*
X255078Y435727D01*
X255178Y435773D01*
X255280Y435816D01*
X255383Y435854D01*
X255487Y435890D01*
X255593Y435921D01*
X255699Y435948D01*
X255807Y435972D01*
X255915Y435992D01*
X256024Y436008D01*
X256133Y436020D01*
X256243Y436028D01*
X256353Y436032D01*
X256463Y436032D01*
X256573Y436028D01*
X256683Y436020D01*
X256792Y436008D01*
X256901Y435992D01*
X257009Y435972D01*
X257117Y435948D01*
X257223Y435921D01*
X257329Y435890D01*
X257433Y435854D01*
X257536Y435816D01*
X257638Y435773D01*
X257738Y435727D01*
X257836Y435677D01*
X257932Y435624D01*
X258026Y435567D01*
X258118Y435507D01*
X258208Y435443D01*
X258296Y435377D01*
X258381Y435307D01*
X258464Y435234D01*
X258544Y435159D01*
X258621Y435080D01*
X258695Y434999D01*
X258766Y434915D01*
X258834Y434829D01*
X258900Y434740D01*
X258961Y434649D01*
X259020Y434555D01*
X259075Y434460D01*
X259126Y434363D01*
X259174Y434264D01*
X259219Y434163D01*
X259259Y434061D01*
X259296Y433957D01*
X259330Y433852D01*
X259359Y433746D01*
X259385Y433639D01*
X259406Y433531D01*
X259424Y433423D01*
X259438Y433314D01*
X259448Y433204D01*
X259454Y433094D01*
X259456Y432984D01*
X259454Y432874D01*
X259448Y432764D01*
X259438Y432654D01*
X259424Y432545D01*
X259406Y432437D01*
X259385Y432329D01*
X259359Y432222D01*
X259330Y432116D01*
X259296Y432011D01*
X259259Y431907D01*
X259219Y431805D01*
X259174Y431704D01*
X259126Y431605D01*
X259075Y431508D01*
X259020Y431413D01*
X258961Y431319D01*
X258900Y431228D01*
X258834Y431139D01*
X258766Y431053D01*
X258695Y430969D01*
X258621Y430888D01*
X258544Y430809D01*
X258464Y430734D01*
X258381Y430661D01*
X258296Y430591D01*
X258208Y430525D01*
X258118Y430461D01*
X258026Y430401D01*
X257932Y430344D01*
X257836Y430291D01*
X257738Y430241D01*
X257638Y430195D01*
X257536Y430152D01*
X257433Y430114D01*
X257329Y430078D01*
X257223Y430047D01*
X257117Y430020D01*
X257009Y429996D01*
X256901Y429976D01*
X256792Y429960D01*
X256683Y429948D01*
X256573Y429940D01*
X256463Y429936D01*
X256353Y429936D01*
X256243Y429940D01*
X256133Y429948D01*
X256024Y429960D01*
X255915Y429976D01*
X255807Y429996D01*
X255699Y430020D01*
X255593Y430047D01*
X255487Y430078D01*
X255383Y430114D01*
X255280Y430152D01*
X255178Y430195D01*
X255078Y430241D01*
X254980Y430291D01*
X254884Y430344D01*
X254790Y430401D01*
X254698Y430461D01*
X254608Y430525D01*
X254520Y430591D01*
X254435Y430661D01*
X254352Y430734D01*
X254272Y430809D01*
X254195Y430888D01*
X254121Y430969D01*
X254050Y431053D01*
X253982Y431139D01*
X253916Y431228D01*
X253855Y431319D01*
X253796Y431413D01*
X253741Y431508D01*
X253690Y431605D01*
X253642Y431704D01*
X253597Y431805D01*
X253557Y431907D01*
X253520Y432011D01*
X253486Y432116D01*
X253457Y432222D01*
X253431Y432329D01*
X253410Y432437D01*
X253392Y432545D01*
X253378Y432654D01*
X253368Y432764D01*
X253362Y432874D01*
X253360Y432984D01*
X350896Y442128D02*
X350898Y442238D01*
X350904Y442348D01*
X350914Y442458D01*
X350928Y442567D01*
X350946Y442675D01*
X350967Y442783D01*
X350993Y442890D01*
X351022Y442996D01*
X351056Y443101D01*
X351093Y443205D01*
X351133Y443307D01*
X351178Y443408D01*
X351226Y443507D01*
X351277Y443604D01*
X351332Y443699D01*
X351391Y443793D01*
X351452Y443884D01*
X351518Y443973D01*
X351586Y444059D01*
X351657Y444143D01*
X351731Y444224D01*
X351808Y444303D01*
X351888Y444378D01*
X351971Y444451D01*
X352056Y444521D01*
X352144Y444587D01*
X352234Y444651D01*
X352326Y444711D01*
X352420Y444768D01*
X352516Y444821D01*
X352614Y444871D01*
X352714Y444917D01*
X352816Y444960D01*
X352919Y444998D01*
X353023Y445034D01*
X353129Y445065D01*
X353235Y445092D01*
X353343Y445116D01*
X353451Y445136D01*
X353560Y445152D01*
X353669Y445164D01*
X353779Y445172D01*
X353889Y445176D01*
X353999Y445176D01*
X354109Y445172D01*
X354219Y445164D01*
X354328Y445152D01*
X354437Y445136D01*
X354545Y445116D01*
X354653Y445092D01*
X354759Y445065D01*
X354865Y445034D01*
X354969Y444998D01*
X355072Y444960D01*
X355174Y444917D01*
X355274Y444871D01*
X355372Y444821D01*
X355468Y444768D01*
X355562Y444711D01*
X355654Y444651D01*
X355744Y444587D01*
X355832Y444521D01*
X355917Y444451D01*
X356000Y444378D01*
X356080Y444303D01*
X356157Y444224D01*
X356231Y444143D01*
X356302Y444059D01*
X356370Y443973D01*
X356436Y443884D01*
X356497Y443793D01*
X356556Y443699D01*
X356611Y443604D01*
X356662Y443507D01*
X356710Y443408D01*
X356755Y443307D01*
X356795Y443205D01*
X356832Y443101D01*
X356866Y442996D01*
X356895Y442890D01*
X356921Y442783D01*
X356942Y442675D01*
X356960Y442567D01*
X356974Y442458D01*
X356984Y442348D01*
X356990Y442238D01*
X356992Y442128D01*
X356990Y442018D01*
X356984Y441908D01*
X356974Y441798D01*
X356960Y441689D01*
X356942Y441581D01*
X356921Y441473D01*
X356895Y441366D01*
X356866Y441260D01*
X356832Y441155D01*
X356795Y441051D01*
X356755Y440949D01*
X356710Y440848D01*
X356662Y440749D01*
X356611Y440652D01*
X356556Y440557D01*
X356497Y440463D01*
X356436Y440372D01*
X356370Y440283D01*
X356302Y440197D01*
X356231Y440113D01*
X356157Y440032D01*
X356080Y439953D01*
X356000Y439878D01*
X355917Y439805D01*
X355832Y439735D01*
X355744Y439669D01*
X355654Y439605D01*
X355562Y439545D01*
X355468Y439488D01*
X355372Y439435D01*
X355274Y439385D01*
X355174Y439339D01*
X355072Y439296D01*
X354969Y439258D01*
X354865Y439222D01*
X354759Y439191D01*
X354653Y439164D01*
X354545Y439140D01*
X354437Y439120D01*
X354328Y439104D01*
X354219Y439092D01*
X354109Y439084D01*
X353999Y439080D01*
X353889Y439080D01*
X353779Y439084D01*
X353669Y439092D01*
X353560Y439104D01*
X353451Y439120D01*
X353343Y439140D01*
X353235Y439164D01*
X353129Y439191D01*
X353023Y439222D01*
X352919Y439258D01*
X352816Y439296D01*
X352714Y439339D01*
X352614Y439385D01*
X352516Y439435D01*
X352420Y439488D01*
X352326Y439545D01*
X352234Y439605D01*
X352144Y439669D01*
X352056Y439735D01*
X351971Y439805D01*
X351888Y439878D01*
X351808Y439953D01*
X351731Y440032D01*
X351657Y440113D01*
X351586Y440197D01*
X351518Y440283D01*
X351452Y440372D01*
X351391Y440463D01*
X351332Y440557D01*
X351277Y440652D01*
X351226Y440749D01*
X351178Y440848D01*
X351133Y440949D01*
X351093Y441051D01*
X351056Y441155D01*
X351022Y441260D01*
X350993Y441366D01*
X350967Y441473D01*
X350946Y441581D01*
X350928Y441689D01*
X350914Y441798D01*
X350904Y441908D01*
X350898Y442018D01*
X350896Y442128D01*
X451480Y457368D02*
X451482Y457478D01*
X451488Y457588D01*
X451498Y457698D01*
X451512Y457807D01*
X451530Y457915D01*
X451551Y458023D01*
X451577Y458130D01*
X451606Y458236D01*
X451640Y458341D01*
X451677Y458445D01*
X451717Y458547D01*
X451762Y458648D01*
X451810Y458747D01*
X451861Y458844D01*
X451916Y458939D01*
X451975Y459033D01*
X452036Y459124D01*
X452102Y459213D01*
X452170Y459299D01*
X452241Y459383D01*
X452315Y459464D01*
X452392Y459543D01*
X452472Y459618D01*
X452555Y459691D01*
X452640Y459761D01*
X452728Y459827D01*
X452818Y459891D01*
X452910Y459951D01*
X453004Y460008D01*
X453100Y460061D01*
X453198Y460111D01*
X453298Y460157D01*
X453400Y460200D01*
X453503Y460238D01*
X453607Y460274D01*
X453713Y460305D01*
X453819Y460332D01*
X453927Y460356D01*
X454035Y460376D01*
X454144Y460392D01*
X454253Y460404D01*
X454363Y460412D01*
X454473Y460416D01*
X454583Y460416D01*
X454693Y460412D01*
X454803Y460404D01*
X454912Y460392D01*
X455021Y460376D01*
X455129Y460356D01*
X455237Y460332D01*
X455343Y460305D01*
X455449Y460274D01*
X455553Y460238D01*
X455656Y460200D01*
X455758Y460157D01*
X455858Y460111D01*
X455956Y460061D01*
X456052Y460008D01*
X456146Y459951D01*
X456238Y459891D01*
X456328Y459827D01*
X456416Y459761D01*
X456501Y459691D01*
X456584Y459618D01*
X456664Y459543D01*
X456741Y459464D01*
X456815Y459383D01*
X456886Y459299D01*
X456954Y459213D01*
X457020Y459124D01*
X457081Y459033D01*
X457140Y458939D01*
X457195Y458844D01*
X457246Y458747D01*
X457294Y458648D01*
X457339Y458547D01*
X457379Y458445D01*
X457416Y458341D01*
X457450Y458236D01*
X457479Y458130D01*
X457505Y458023D01*
X457526Y457915D01*
X457544Y457807D01*
X457558Y457698D01*
X457568Y457588D01*
X457574Y457478D01*
X457576Y457368D01*
X457574Y457258D01*
X457568Y457148D01*
X457558Y457038D01*
X457544Y456929D01*
X457526Y456821D01*
X457505Y456713D01*
X457479Y456606D01*
X457450Y456500D01*
X457416Y456395D01*
X457379Y456291D01*
X457339Y456189D01*
X457294Y456088D01*
X457246Y455989D01*
X457195Y455892D01*
X457140Y455797D01*
X457081Y455703D01*
X457020Y455612D01*
X456954Y455523D01*
X456886Y455437D01*
X456815Y455353D01*
X456741Y455272D01*
X456664Y455193D01*
X456584Y455118D01*
X456501Y455045D01*
X456416Y454975D01*
X456328Y454909D01*
X456238Y454845D01*
X456146Y454785D01*
X456052Y454728D01*
X455956Y454675D01*
X455858Y454625D01*
X455758Y454579D01*
X455656Y454536D01*
X455553Y454498D01*
X455449Y454462D01*
X455343Y454431D01*
X455237Y454404D01*
X455129Y454380D01*
X455021Y454360D01*
X454912Y454344D01*
X454803Y454332D01*
X454693Y454324D01*
X454583Y454320D01*
X454473Y454320D01*
X454363Y454324D01*
X454253Y454332D01*
X454144Y454344D01*
X454035Y454360D01*
X453927Y454380D01*
X453819Y454404D01*
X453713Y454431D01*
X453607Y454462D01*
X453503Y454498D01*
X453400Y454536D01*
X453298Y454579D01*
X453198Y454625D01*
X453100Y454675D01*
X453004Y454728D01*
X452910Y454785D01*
X452818Y454845D01*
X452728Y454909D01*
X452640Y454975D01*
X452555Y455045D01*
X452472Y455118D01*
X452392Y455193D01*
X452315Y455272D01*
X452241Y455353D01*
X452170Y455437D01*
X452102Y455523D01*
X452036Y455612D01*
X451975Y455703D01*
X451916Y455797D01*
X451861Y455892D01*
X451810Y455989D01*
X451762Y456088D01*
X451717Y456189D01*
X451677Y456291D01*
X451640Y456395D01*
X451606Y456500D01*
X451577Y456606D01*
X451551Y456713D01*
X451530Y456821D01*
X451512Y456929D01*
X451498Y457038D01*
X451488Y457148D01*
X451482Y457258D01*
X451480Y457368D01*
X622168Y454320D02*
X622170Y454430D01*
X622176Y454540D01*
X622186Y454650D01*
X622200Y454759D01*
X622218Y454867D01*
X622239Y454975D01*
X622265Y455082D01*
X622294Y455188D01*
X622328Y455293D01*
X622365Y455397D01*
X622405Y455499D01*
X622450Y455600D01*
X622498Y455699D01*
X622549Y455796D01*
X622604Y455891D01*
X622663Y455985D01*
X622724Y456076D01*
X622790Y456165D01*
X622858Y456251D01*
X622929Y456335D01*
X623003Y456416D01*
X623080Y456495D01*
X623160Y456570D01*
X623243Y456643D01*
X623328Y456713D01*
X623416Y456779D01*
X623506Y456843D01*
X623598Y456903D01*
X623692Y456960D01*
X623788Y457013D01*
X623886Y457063D01*
X623986Y457109D01*
X624088Y457152D01*
X624191Y457190D01*
X624295Y457226D01*
X624401Y457257D01*
X624507Y457284D01*
X624615Y457308D01*
X624723Y457328D01*
X624832Y457344D01*
X624941Y457356D01*
X625051Y457364D01*
X625161Y457368D01*
X625271Y457368D01*
X625381Y457364D01*
X625491Y457356D01*
X625600Y457344D01*
X625709Y457328D01*
X625817Y457308D01*
X625925Y457284D01*
X626031Y457257D01*
X626137Y457226D01*
X626241Y457190D01*
X626344Y457152D01*
X626446Y457109D01*
X626546Y457063D01*
X626644Y457013D01*
X626740Y456960D01*
X626834Y456903D01*
X626926Y456843D01*
X627016Y456779D01*
X627104Y456713D01*
X627189Y456643D01*
X627272Y456570D01*
X627352Y456495D01*
X627429Y456416D01*
X627503Y456335D01*
X627574Y456251D01*
X627642Y456165D01*
X627708Y456076D01*
X627769Y455985D01*
X627828Y455891D01*
X627883Y455796D01*
X627934Y455699D01*
X627982Y455600D01*
X628027Y455499D01*
X628067Y455397D01*
X628104Y455293D01*
X628138Y455188D01*
X628167Y455082D01*
X628193Y454975D01*
X628214Y454867D01*
X628232Y454759D01*
X628246Y454650D01*
X628256Y454540D01*
X628262Y454430D01*
X628264Y454320D01*
X628262Y454210D01*
X628256Y454100D01*
X628246Y453990D01*
X628232Y453881D01*
X628214Y453773D01*
X628193Y453665D01*
X628167Y453558D01*
X628138Y453452D01*
X628104Y453347D01*
X628067Y453243D01*
X628027Y453141D01*
X627982Y453040D01*
X627934Y452941D01*
X627883Y452844D01*
X627828Y452749D01*
X627769Y452655D01*
X627708Y452564D01*
X627642Y452475D01*
X627574Y452389D01*
X627503Y452305D01*
X627429Y452224D01*
X627352Y452145D01*
X627272Y452070D01*
X627189Y451997D01*
X627104Y451927D01*
X627016Y451861D01*
X626926Y451797D01*
X626834Y451737D01*
X626740Y451680D01*
X626644Y451627D01*
X626546Y451577D01*
X626446Y451531D01*
X626344Y451488D01*
X626241Y451450D01*
X626137Y451414D01*
X626031Y451383D01*
X625925Y451356D01*
X625817Y451332D01*
X625709Y451312D01*
X625600Y451296D01*
X625491Y451284D01*
X625381Y451276D01*
X625271Y451272D01*
X625161Y451272D01*
X625051Y451276D01*
X624941Y451284D01*
X624832Y451296D01*
X624723Y451312D01*
X624615Y451332D01*
X624507Y451356D01*
X624401Y451383D01*
X624295Y451414D01*
X624191Y451450D01*
X624088Y451488D01*
X623986Y451531D01*
X623886Y451577D01*
X623788Y451627D01*
X623692Y451680D01*
X623598Y451737D01*
X623506Y451797D01*
X623416Y451861D01*
X623328Y451927D01*
X623243Y451997D01*
X623160Y452070D01*
X623080Y452145D01*
X623003Y452224D01*
X622929Y452305D01*
X622858Y452389D01*
X622790Y452475D01*
X622724Y452564D01*
X622663Y452655D01*
X622604Y452749D01*
X622549Y452844D01*
X622498Y452941D01*
X622450Y453040D01*
X622405Y453141D01*
X622365Y453243D01*
X622328Y453347D01*
X622294Y453452D01*
X622265Y453558D01*
X622239Y453665D01*
X622218Y453773D01*
X622200Y453881D01*
X622186Y453990D01*
X622176Y454100D01*
X622170Y454210D01*
X622168Y454320D01*
X722752Y448224D02*
X722754Y448334D01*
X722760Y448444D01*
X722770Y448554D01*
X722784Y448663D01*
X722802Y448771D01*
X722823Y448879D01*
X722849Y448986D01*
X722878Y449092D01*
X722912Y449197D01*
X722949Y449301D01*
X722989Y449403D01*
X723034Y449504D01*
X723082Y449603D01*
X723133Y449700D01*
X723188Y449795D01*
X723247Y449889D01*
X723308Y449980D01*
X723374Y450069D01*
X723442Y450155D01*
X723513Y450239D01*
X723587Y450320D01*
X723664Y450399D01*
X723744Y450474D01*
X723827Y450547D01*
X723912Y450617D01*
X724000Y450683D01*
X724090Y450747D01*
X724182Y450807D01*
X724276Y450864D01*
X724372Y450917D01*
X724470Y450967D01*
X724570Y451013D01*
X724672Y451056D01*
X724775Y451094D01*
X724879Y451130D01*
X724985Y451161D01*
X725091Y451188D01*
X725199Y451212D01*
X725307Y451232D01*
X725416Y451248D01*
X725525Y451260D01*
X725635Y451268D01*
X725745Y451272D01*
X725855Y451272D01*
X725965Y451268D01*
X726075Y451260D01*
X726184Y451248D01*
X726293Y451232D01*
X726401Y451212D01*
X726509Y451188D01*
X726615Y451161D01*
X726721Y451130D01*
X726825Y451094D01*
X726928Y451056D01*
X727030Y451013D01*
X727130Y450967D01*
X727228Y450917D01*
X727324Y450864D01*
X727418Y450807D01*
X727510Y450747D01*
X727600Y450683D01*
X727688Y450617D01*
X727773Y450547D01*
X727856Y450474D01*
X727936Y450399D01*
X728013Y450320D01*
X728087Y450239D01*
X728158Y450155D01*
X728226Y450069D01*
X728292Y449980D01*
X728353Y449889D01*
X728412Y449795D01*
X728467Y449700D01*
X728518Y449603D01*
X728566Y449504D01*
X728611Y449403D01*
X728651Y449301D01*
X728688Y449197D01*
X728722Y449092D01*
X728751Y448986D01*
X728777Y448879D01*
X728798Y448771D01*
X728816Y448663D01*
X728830Y448554D01*
X728840Y448444D01*
X728846Y448334D01*
X728848Y448224D01*
X728846Y448114D01*
X728840Y448004D01*
X728830Y447894D01*
X728816Y447785D01*
X728798Y447677D01*
X728777Y447569D01*
X728751Y447462D01*
X728722Y447356D01*
X728688Y447251D01*
X728651Y447147D01*
X728611Y447045D01*
X728566Y446944D01*
X728518Y446845D01*
X728467Y446748D01*
X728412Y446653D01*
X728353Y446559D01*
X728292Y446468D01*
X728226Y446379D01*
X728158Y446293D01*
X728087Y446209D01*
X728013Y446128D01*
X727936Y446049D01*
X727856Y445974D01*
X727773Y445901D01*
X727688Y445831D01*
X727600Y445765D01*
X727510Y445701D01*
X727418Y445641D01*
X727324Y445584D01*
X727228Y445531D01*
X727130Y445481D01*
X727030Y445435D01*
X726928Y445392D01*
X726825Y445354D01*
X726721Y445318D01*
X726615Y445287D01*
X726509Y445260D01*
X726401Y445236D01*
X726293Y445216D01*
X726184Y445200D01*
X726075Y445188D01*
X725965Y445180D01*
X725855Y445176D01*
X725745Y445176D01*
X725635Y445180D01*
X725525Y445188D01*
X725416Y445200D01*
X725307Y445216D01*
X725199Y445236D01*
X725091Y445260D01*
X724985Y445287D01*
X724879Y445318D01*
X724775Y445354D01*
X724672Y445392D01*
X724570Y445435D01*
X724470Y445481D01*
X724372Y445531D01*
X724276Y445584D01*
X724182Y445641D01*
X724090Y445701D01*
X724000Y445765D01*
X723912Y445831D01*
X723827Y445901D01*
X723744Y445974D01*
X723664Y446049D01*
X723587Y446128D01*
X723513Y446209D01*
X723442Y446293D01*
X723374Y446379D01*
X723308Y446468D01*
X723247Y446559D01*
X723188Y446653D01*
X723133Y446748D01*
X723082Y446845D01*
X723034Y446944D01*
X722989Y447045D01*
X722949Y447147D01*
X722912Y447251D01*
X722878Y447356D01*
X722849Y447462D01*
X722823Y447569D01*
X722802Y447677D01*
X722784Y447785D01*
X722770Y447894D01*
X722760Y448004D01*
X722754Y448114D01*
X722752Y448224D01*
X823336Y432984D02*
X823338Y433094D01*
X823344Y433204D01*
X823354Y433314D01*
X823368Y433423D01*
X823386Y433531D01*
X823407Y433639D01*
X823433Y433746D01*
X823462Y433852D01*
X823496Y433957D01*
X823533Y434061D01*
X823573Y434163D01*
X823618Y434264D01*
X823666Y434363D01*
X823717Y434460D01*
X823772Y434555D01*
X823831Y434649D01*
X823892Y434740D01*
X823958Y434829D01*
X824026Y434915D01*
X824097Y434999D01*
X824171Y435080D01*
X824248Y435159D01*
X824328Y435234D01*
X824411Y435307D01*
X824496Y435377D01*
X824584Y435443D01*
X824674Y435507D01*
X824766Y435567D01*
X824860Y435624D01*
X824956Y435677D01*
X825054Y435727D01*
X825154Y435773D01*
X825256Y435816D01*
X825359Y435854D01*
X825463Y435890D01*
X825569Y435921D01*
X825675Y435948D01*
X825783Y435972D01*
X825891Y435992D01*
X826000Y436008D01*
X826109Y436020D01*
X826219Y436028D01*
X826329Y436032D01*
X826439Y436032D01*
X826549Y436028D01*
X826659Y436020D01*
X826768Y436008D01*
X826877Y435992D01*
X826985Y435972D01*
X827093Y435948D01*
X827199Y435921D01*
X827305Y435890D01*
X827409Y435854D01*
X827512Y435816D01*
X827614Y435773D01*
X827714Y435727D01*
X827812Y435677D01*
X827908Y435624D01*
X828002Y435567D01*
X828094Y435507D01*
X828184Y435443D01*
X828272Y435377D01*
X828357Y435307D01*
X828440Y435234D01*
X828520Y435159D01*
X828597Y435080D01*
X828671Y434999D01*
X828742Y434915D01*
X828810Y434829D01*
X828876Y434740D01*
X828937Y434649D01*
X828996Y434555D01*
X829051Y434460D01*
X829102Y434363D01*
X829150Y434264D01*
X829195Y434163D01*
X829235Y434061D01*
X829272Y433957D01*
X829306Y433852D01*
X829335Y433746D01*
X829361Y433639D01*
X829382Y433531D01*
X829400Y433423D01*
X829414Y433314D01*
X829424Y433204D01*
X829430Y433094D01*
X829432Y432984D01*
X829430Y432874D01*
X829424Y432764D01*
X829414Y432654D01*
X829400Y432545D01*
X829382Y432437D01*
X829361Y432329D01*
X829335Y432222D01*
X829306Y432116D01*
X829272Y432011D01*
X829235Y431907D01*
X829195Y431805D01*
X829150Y431704D01*
X829102Y431605D01*
X829051Y431508D01*
X828996Y431413D01*
X828937Y431319D01*
X828876Y431228D01*
X828810Y431139D01*
X828742Y431053D01*
X828671Y430969D01*
X828597Y430888D01*
X828520Y430809D01*
X828440Y430734D01*
X828357Y430661D01*
X828272Y430591D01*
X828184Y430525D01*
X828094Y430461D01*
X828002Y430401D01*
X827908Y430344D01*
X827812Y430291D01*
X827714Y430241D01*
X827614Y430195D01*
X827512Y430152D01*
X827409Y430114D01*
X827305Y430078D01*
X827199Y430047D01*
X827093Y430020D01*
X826985Y429996D01*
X826877Y429976D01*
X826768Y429960D01*
X826659Y429948D01*
X826549Y429940D01*
X826439Y429936D01*
X826329Y429936D01*
X826219Y429940D01*
X826109Y429948D01*
X826000Y429960D01*
X825891Y429976D01*
X825783Y429996D01*
X825675Y430020D01*
X825569Y430047D01*
X825463Y430078D01*
X825359Y430114D01*
X825256Y430152D01*
X825154Y430195D01*
X825054Y430241D01*
X824956Y430291D01*
X824860Y430344D01*
X824766Y430401D01*
X824674Y430461D01*
X824584Y430525D01*
X824496Y430591D01*
X824411Y430661D01*
X824328Y430734D01*
X824248Y430809D01*
X824171Y430888D01*
X824097Y430969D01*
X824026Y431053D01*
X823958Y431139D01*
X823892Y431228D01*
X823831Y431319D01*
X823772Y431413D01*
X823717Y431508D01*
X823666Y431605D01*
X823618Y431704D01*
X823573Y431805D01*
X823533Y431907D01*
X823496Y432011D01*
X823462Y432116D01*
X823433Y432222D01*
X823407Y432329D01*
X823386Y432437D01*
X823368Y432545D01*
X823354Y432654D01*
X823344Y432764D01*
X823338Y432874D01*
X823336Y432984D01*
X923920Y408600D02*
X923922Y408710D01*
X923928Y408820D01*
X923938Y408930D01*
X923952Y409039D01*
X923970Y409147D01*
X923991Y409255D01*
X924017Y409362D01*
X924046Y409468D01*
X924080Y409573D01*
X924117Y409677D01*
X924157Y409779D01*
X924202Y409880D01*
X924250Y409979D01*
X924301Y410076D01*
X924356Y410171D01*
X924415Y410265D01*
X924476Y410356D01*
X924542Y410445D01*
X924610Y410531D01*
X924681Y410615D01*
X924755Y410696D01*
X924832Y410775D01*
X924912Y410850D01*
X924995Y410923D01*
X925080Y410993D01*
X925168Y411059D01*
X925258Y411123D01*
X925350Y411183D01*
X925444Y411240D01*
X925540Y411293D01*
X925638Y411343D01*
X925738Y411389D01*
X925840Y411432D01*
X925943Y411470D01*
X926047Y411506D01*
X926153Y411537D01*
X926259Y411564D01*
X926367Y411588D01*
X926475Y411608D01*
X926584Y411624D01*
X926693Y411636D01*
X926803Y411644D01*
X926913Y411648D01*
X927023Y411648D01*
X927133Y411644D01*
X927243Y411636D01*
X927352Y411624D01*
X927461Y411608D01*
X927569Y411588D01*
X927677Y411564D01*
X927783Y411537D01*
X927889Y411506D01*
X927993Y411470D01*
X928096Y411432D01*
X928198Y411389D01*
X928298Y411343D01*
X928396Y411293D01*
X928492Y411240D01*
X928586Y411183D01*
X928678Y411123D01*
X928768Y411059D01*
X928856Y410993D01*
X928941Y410923D01*
X929024Y410850D01*
X929104Y410775D01*
X929181Y410696D01*
X929255Y410615D01*
X929326Y410531D01*
X929394Y410445D01*
X929460Y410356D01*
X929521Y410265D01*
X929580Y410171D01*
X929635Y410076D01*
X929686Y409979D01*
X929734Y409880D01*
X929779Y409779D01*
X929819Y409677D01*
X929856Y409573D01*
X929890Y409468D01*
X929919Y409362D01*
X929945Y409255D01*
X929966Y409147D01*
X929984Y409039D01*
X929998Y408930D01*
X930008Y408820D01*
X930014Y408710D01*
X930016Y408600D01*
X930014Y408490D01*
X930008Y408380D01*
X929998Y408270D01*
X929984Y408161D01*
X929966Y408053D01*
X929945Y407945D01*
X929919Y407838D01*
X929890Y407732D01*
X929856Y407627D01*
X929819Y407523D01*
X929779Y407421D01*
X929734Y407320D01*
X929686Y407221D01*
X929635Y407124D01*
X929580Y407029D01*
X929521Y406935D01*
X929460Y406844D01*
X929394Y406755D01*
X929326Y406669D01*
X929255Y406585D01*
X929181Y406504D01*
X929104Y406425D01*
X929024Y406350D01*
X928941Y406277D01*
X928856Y406207D01*
X928768Y406141D01*
X928678Y406077D01*
X928586Y406017D01*
X928492Y405960D01*
X928396Y405907D01*
X928298Y405857D01*
X928198Y405811D01*
X928096Y405768D01*
X927993Y405730D01*
X927889Y405694D01*
X927783Y405663D01*
X927677Y405636D01*
X927569Y405612D01*
X927461Y405592D01*
X927352Y405576D01*
X927243Y405564D01*
X927133Y405556D01*
X927023Y405552D01*
X926913Y405552D01*
X926803Y405556D01*
X926693Y405564D01*
X926584Y405576D01*
X926475Y405592D01*
X926367Y405612D01*
X926259Y405636D01*
X926153Y405663D01*
X926047Y405694D01*
X925943Y405730D01*
X925840Y405768D01*
X925738Y405811D01*
X925638Y405857D01*
X925540Y405907D01*
X925444Y405960D01*
X925350Y406017D01*
X925258Y406077D01*
X925168Y406141D01*
X925080Y406207D01*
X924995Y406277D01*
X924912Y406350D01*
X924832Y406425D01*
X924755Y406504D01*
X924681Y406585D01*
X924610Y406669D01*
X924542Y406755D01*
X924476Y406844D01*
X924415Y406935D01*
X924356Y407029D01*
X924301Y407124D01*
X924250Y407221D01*
X924202Y407320D01*
X924157Y407421D01*
X924117Y407523D01*
X924080Y407627D01*
X924046Y407732D01*
X924017Y407838D01*
X923991Y407945D01*
X923970Y408053D01*
X923952Y408161D01*
X923938Y408270D01*
X923928Y408380D01*
X923922Y408490D01*
X923920Y408600D01*
X1021456Y387264D02*
X1021458Y387374D01*
X1021464Y387484D01*
X1021474Y387594D01*
X1021488Y387703D01*
X1021506Y387811D01*
X1021527Y387919D01*
X1021553Y388026D01*
X1021582Y388132D01*
X1021616Y388237D01*
X1021653Y388341D01*
X1021693Y388443D01*
X1021738Y388544D01*
X1021786Y388643D01*
X1021837Y388740D01*
X1021892Y388835D01*
X1021951Y388929D01*
X1022012Y389020D01*
X1022078Y389109D01*
X1022146Y389195D01*
X1022217Y389279D01*
X1022291Y389360D01*
X1022368Y389439D01*
X1022448Y389514D01*
X1022531Y389587D01*
X1022616Y389657D01*
X1022704Y389723D01*
X1022794Y389787D01*
X1022886Y389847D01*
X1022980Y389904D01*
X1023076Y389957D01*
X1023174Y390007D01*
X1023274Y390053D01*
X1023376Y390096D01*
X1023479Y390134D01*
X1023583Y390170D01*
X1023689Y390201D01*
X1023795Y390228D01*
X1023903Y390252D01*
X1024011Y390272D01*
X1024120Y390288D01*
X1024229Y390300D01*
X1024339Y390308D01*
X1024449Y390312D01*
X1024559Y390312D01*
X1024669Y390308D01*
X1024779Y390300D01*
X1024888Y390288D01*
X1024997Y390272D01*
X1025105Y390252D01*
X1025213Y390228D01*
X1025319Y390201D01*
X1025425Y390170D01*
X1025529Y390134D01*
X1025632Y390096D01*
X1025734Y390053D01*
X1025834Y390007D01*
X1025932Y389957D01*
X1026028Y389904D01*
X1026122Y389847D01*
X1026214Y389787D01*
X1026304Y389723D01*
X1026392Y389657D01*
X1026477Y389587D01*
X1026560Y389514D01*
X1026640Y389439D01*
X1026717Y389360D01*
X1026791Y389279D01*
X1026862Y389195D01*
X1026930Y389109D01*
X1026996Y389020D01*
X1027057Y388929D01*
X1027116Y388835D01*
X1027171Y388740D01*
X1027222Y388643D01*
X1027270Y388544D01*
X1027315Y388443D01*
X1027355Y388341D01*
X1027392Y388237D01*
X1027426Y388132D01*
X1027455Y388026D01*
X1027481Y387919D01*
X1027502Y387811D01*
X1027520Y387703D01*
X1027534Y387594D01*
X1027544Y387484D01*
X1027550Y387374D01*
X1027552Y387264D01*
X1027550Y387154D01*
X1027544Y387044D01*
X1027534Y386934D01*
X1027520Y386825D01*
X1027502Y386717D01*
X1027481Y386609D01*
X1027455Y386502D01*
X1027426Y386396D01*
X1027392Y386291D01*
X1027355Y386187D01*
X1027315Y386085D01*
X1027270Y385984D01*
X1027222Y385885D01*
X1027171Y385788D01*
X1027116Y385693D01*
X1027057Y385599D01*
X1026996Y385508D01*
X1026930Y385419D01*
X1026862Y385333D01*
X1026791Y385249D01*
X1026717Y385168D01*
X1026640Y385089D01*
X1026560Y385014D01*
X1026477Y384941D01*
X1026392Y384871D01*
X1026304Y384805D01*
X1026214Y384741D01*
X1026122Y384681D01*
X1026028Y384624D01*
X1025932Y384571D01*
X1025834Y384521D01*
X1025734Y384475D01*
X1025632Y384432D01*
X1025529Y384394D01*
X1025425Y384358D01*
X1025319Y384327D01*
X1025213Y384300D01*
X1025105Y384276D01*
X1024997Y384256D01*
X1024888Y384240D01*
X1024779Y384228D01*
X1024669Y384220D01*
X1024559Y384216D01*
X1024449Y384216D01*
X1024339Y384220D01*
X1024229Y384228D01*
X1024120Y384240D01*
X1024011Y384256D01*
X1023903Y384276D01*
X1023795Y384300D01*
X1023689Y384327D01*
X1023583Y384358D01*
X1023479Y384394D01*
X1023376Y384432D01*
X1023274Y384475D01*
X1023174Y384521D01*
X1023076Y384571D01*
X1022980Y384624D01*
X1022886Y384681D01*
X1022794Y384741D01*
X1022704Y384805D01*
X1022616Y384871D01*
X1022531Y384941D01*
X1022448Y385014D01*
X1022368Y385089D01*
X1022291Y385168D01*
X1022217Y385249D01*
X1022146Y385333D01*
X1022078Y385419D01*
X1022012Y385508D01*
X1021951Y385599D01*
X1021892Y385693D01*
X1021837Y385788D01*
X1021786Y385885D01*
X1021738Y385984D01*
X1021693Y386085D01*
X1021653Y386187D01*
X1021616Y386291D01*
X1021582Y386396D01*
X1021553Y386502D01*
X1021527Y386609D01*
X1021506Y386717D01*
X1021488Y386825D01*
X1021474Y386934D01*
X1021464Y387044D01*
X1021458Y387154D01*
X1021456Y387264D01*
D11*
X487421Y226863D02*
X487421Y224253D01*
X487423Y224176D01*
X487429Y224100D01*
X487438Y224023D01*
X487451Y223947D01*
X487468Y223872D01*
X487488Y223798D01*
X487513Y223725D01*
X487540Y223654D01*
X487571Y223583D01*
X487606Y223515D01*
X487644Y223448D01*
X487685Y223383D01*
X487729Y223320D01*
X487776Y223260D01*
X487827Y223201D01*
X487880Y223146D01*
X487935Y223093D01*
X487994Y223042D01*
X488054Y222995D01*
X488117Y222951D01*
X488182Y222910D01*
X488249Y222872D01*
X488317Y222837D01*
X488388Y222806D01*
X488459Y222779D01*
X488532Y222754D01*
X488606Y222734D01*
X488681Y222717D01*
X488757Y222704D01*
X488834Y222695D01*
X488910Y222689D01*
X488987Y222687D01*
X488987Y222686D02*
X492120Y222686D01*
X492120Y222687D02*
X492197Y222689D01*
X492273Y222695D01*
X492350Y222704D01*
X492426Y222717D01*
X492501Y222734D01*
X492575Y222754D01*
X492648Y222779D01*
X492719Y222806D01*
X492790Y222837D01*
X492858Y222872D01*
X492925Y222910D01*
X492990Y222951D01*
X493053Y222995D01*
X493113Y223042D01*
X493172Y223093D01*
X493227Y223146D01*
X493280Y223201D01*
X493331Y223260D01*
X493378Y223320D01*
X493422Y223383D01*
X493463Y223448D01*
X493501Y223515D01*
X493536Y223583D01*
X493567Y223654D01*
X493594Y223725D01*
X493619Y223798D01*
X493639Y223872D01*
X493656Y223947D01*
X493669Y224023D01*
X493678Y224100D01*
X493684Y224176D01*
X493686Y224253D01*
X493686Y226863D01*
X485855Y226863D01*
X485778Y226861D01*
X485702Y226855D01*
X485625Y226846D01*
X485549Y226833D01*
X485474Y226816D01*
X485400Y226796D01*
X485327Y226771D01*
X485256Y226744D01*
X485185Y226713D01*
X485117Y226678D01*
X485050Y226640D01*
X484985Y226599D01*
X484922Y226555D01*
X484862Y226508D01*
X484803Y226457D01*
X484748Y226404D01*
X484695Y226349D01*
X484644Y226290D01*
X484597Y226230D01*
X484553Y226167D01*
X484512Y226102D01*
X484474Y226035D01*
X484439Y225967D01*
X484408Y225896D01*
X484381Y225825D01*
X484356Y225752D01*
X484336Y225678D01*
X484319Y225603D01*
X484306Y225527D01*
X484297Y225451D01*
X484291Y225374D01*
X484289Y225297D01*
X484288Y225297D02*
X484288Y223208D01*
X487421Y231266D02*
X493686Y231266D01*
X493686Y233877D01*
X493684Y233954D01*
X493678Y234030D01*
X493669Y234107D01*
X493656Y234183D01*
X493639Y234258D01*
X493619Y234332D01*
X493594Y234405D01*
X493567Y234476D01*
X493536Y234547D01*
X493501Y234615D01*
X493463Y234682D01*
X493422Y234747D01*
X493378Y234810D01*
X493331Y234870D01*
X493280Y234929D01*
X493227Y234984D01*
X493172Y235037D01*
X493113Y235088D01*
X493053Y235135D01*
X492990Y235179D01*
X492925Y235220D01*
X492858Y235258D01*
X492790Y235293D01*
X492719Y235324D01*
X492648Y235351D01*
X492575Y235376D01*
X492501Y235396D01*
X492426Y235413D01*
X492350Y235426D01*
X492273Y235435D01*
X492197Y235441D01*
X492120Y235443D01*
X487421Y235443D01*
X487421Y243627D02*
X496819Y243627D01*
X487421Y243627D02*
X487421Y241016D01*
X487423Y240939D01*
X487429Y240863D01*
X487438Y240786D01*
X487451Y240710D01*
X487468Y240635D01*
X487488Y240561D01*
X487513Y240488D01*
X487540Y240417D01*
X487571Y240346D01*
X487606Y240278D01*
X487644Y240211D01*
X487685Y240146D01*
X487729Y240083D01*
X487776Y240023D01*
X487827Y239964D01*
X487880Y239909D01*
X487935Y239856D01*
X487994Y239805D01*
X488054Y239758D01*
X488117Y239714D01*
X488182Y239673D01*
X488249Y239635D01*
X488317Y239600D01*
X488388Y239569D01*
X488459Y239542D01*
X488532Y239517D01*
X488606Y239497D01*
X488681Y239480D01*
X488757Y239467D01*
X488834Y239458D01*
X488910Y239452D01*
X488987Y239450D01*
X492120Y239450D01*
X492197Y239452D01*
X492273Y239458D01*
X492350Y239467D01*
X492426Y239480D01*
X492501Y239497D01*
X492575Y239517D01*
X492648Y239542D01*
X492719Y239569D01*
X492790Y239600D01*
X492858Y239635D01*
X492925Y239673D01*
X492990Y239714D01*
X493053Y239758D01*
X493113Y239805D01*
X493172Y239856D01*
X493227Y239909D01*
X493280Y239964D01*
X493331Y240023D01*
X493378Y240083D01*
X493422Y240146D01*
X493463Y240211D01*
X493501Y240278D01*
X493536Y240346D01*
X493567Y240417D01*
X493594Y240488D01*
X493619Y240561D01*
X493639Y240635D01*
X493656Y240710D01*
X493669Y240786D01*
X493678Y240863D01*
X493684Y240939D01*
X493686Y241016D01*
X493686Y243627D01*
X584957Y224557D02*
X584957Y221947D01*
X584957Y224557D02*
X584959Y224658D01*
X584965Y224759D01*
X584975Y224860D01*
X584988Y224960D01*
X585006Y225060D01*
X585027Y225159D01*
X585053Y225257D01*
X585082Y225354D01*
X585114Y225450D01*
X585151Y225544D01*
X585191Y225637D01*
X585235Y225729D01*
X585282Y225818D01*
X585333Y225906D01*
X585387Y225992D01*
X585444Y226075D01*
X585504Y226157D01*
X585568Y226235D01*
X585634Y226312D01*
X585704Y226385D01*
X585776Y226456D01*
X585851Y226524D01*
X585929Y226589D01*
X586009Y226651D01*
X586091Y226710D01*
X586176Y226766D01*
X586263Y226818D01*
X586351Y226867D01*
X586442Y226913D01*
X586534Y226954D01*
X586628Y226993D01*
X586723Y227027D01*
X586819Y227058D01*
X586917Y227085D01*
X587015Y227109D01*
X587115Y227128D01*
X587215Y227144D01*
X587315Y227156D01*
X587416Y227164D01*
X587517Y227168D01*
X587619Y227168D01*
X587720Y227164D01*
X587821Y227156D01*
X587921Y227144D01*
X588021Y227128D01*
X588121Y227109D01*
X588219Y227085D01*
X588317Y227058D01*
X588413Y227027D01*
X588508Y226993D01*
X588602Y226954D01*
X588694Y226913D01*
X588785Y226867D01*
X588874Y226818D01*
X588960Y226766D01*
X589045Y226710D01*
X589127Y226651D01*
X589207Y226589D01*
X589285Y226524D01*
X589360Y226456D01*
X589432Y226385D01*
X589502Y226312D01*
X589568Y226235D01*
X589632Y226157D01*
X589692Y226075D01*
X589749Y225992D01*
X589803Y225906D01*
X589854Y225818D01*
X589901Y225729D01*
X589945Y225637D01*
X589985Y225544D01*
X590022Y225450D01*
X590054Y225354D01*
X590083Y225257D01*
X590109Y225159D01*
X590130Y225060D01*
X590148Y224960D01*
X590161Y224860D01*
X590171Y224759D01*
X590177Y224658D01*
X590179Y224557D01*
X594355Y225079D02*
X594355Y221947D01*
X594355Y225079D02*
X594353Y225169D01*
X594347Y225258D01*
X594338Y225348D01*
X594324Y225437D01*
X594307Y225525D01*
X594286Y225612D01*
X594261Y225699D01*
X594232Y225784D01*
X594200Y225868D01*
X594165Y225950D01*
X594125Y226031D01*
X594083Y226110D01*
X594037Y226187D01*
X593987Y226262D01*
X593935Y226335D01*
X593879Y226406D01*
X593821Y226474D01*
X593759Y226539D01*
X593695Y226602D01*
X593628Y226662D01*
X593559Y226719D01*
X593487Y226773D01*
X593413Y226824D01*
X593337Y226872D01*
X593259Y226916D01*
X593179Y226957D01*
X593097Y226995D01*
X593014Y227029D01*
X592929Y227059D01*
X592843Y227086D01*
X592757Y227109D01*
X592669Y227128D01*
X592580Y227143D01*
X592491Y227155D01*
X592402Y227163D01*
X592312Y227167D01*
X592222Y227167D01*
X592132Y227163D01*
X592043Y227155D01*
X591954Y227143D01*
X591865Y227128D01*
X591777Y227109D01*
X591691Y227086D01*
X591605Y227059D01*
X591520Y227029D01*
X591437Y226995D01*
X591355Y226957D01*
X591275Y226916D01*
X591197Y226872D01*
X591121Y226824D01*
X591047Y226773D01*
X590975Y226719D01*
X590906Y226662D01*
X590839Y226602D01*
X590775Y226539D01*
X590713Y226474D01*
X590655Y226406D01*
X590599Y226335D01*
X590547Y226262D01*
X590497Y226187D01*
X590451Y226110D01*
X590409Y226031D01*
X590369Y225950D01*
X590334Y225868D01*
X590302Y225784D01*
X590273Y225699D01*
X590248Y225612D01*
X590227Y225525D01*
X590210Y225437D01*
X590196Y225348D01*
X590187Y225258D01*
X590181Y225169D01*
X590179Y225079D01*
X590178Y225079D02*
X590178Y222991D01*
X591222Y230698D02*
X584957Y232787D01*
X591222Y234875D01*
X584957Y238406D02*
X584957Y241016D01*
X584959Y241117D01*
X584965Y241218D01*
X584975Y241319D01*
X584988Y241419D01*
X585006Y241519D01*
X585027Y241618D01*
X585053Y241716D01*
X585082Y241813D01*
X585114Y241909D01*
X585151Y242003D01*
X585191Y242096D01*
X585235Y242188D01*
X585282Y242277D01*
X585333Y242365D01*
X585387Y242451D01*
X585444Y242534D01*
X585504Y242616D01*
X585568Y242694D01*
X585634Y242771D01*
X585704Y242844D01*
X585776Y242915D01*
X585851Y242983D01*
X585929Y243048D01*
X586009Y243110D01*
X586091Y243169D01*
X586176Y243225D01*
X586263Y243277D01*
X586351Y243326D01*
X586442Y243372D01*
X586534Y243413D01*
X586628Y243452D01*
X586723Y243486D01*
X586819Y243517D01*
X586917Y243544D01*
X587015Y243568D01*
X587115Y243587D01*
X587215Y243603D01*
X587315Y243615D01*
X587416Y243623D01*
X587517Y243627D01*
X587619Y243627D01*
X587720Y243623D01*
X587821Y243615D01*
X587921Y243603D01*
X588021Y243587D01*
X588121Y243568D01*
X588219Y243544D01*
X588317Y243517D01*
X588413Y243486D01*
X588508Y243452D01*
X588602Y243413D01*
X588694Y243372D01*
X588785Y243326D01*
X588874Y243277D01*
X588960Y243225D01*
X589045Y243169D01*
X589127Y243110D01*
X589207Y243048D01*
X589285Y242983D01*
X589360Y242915D01*
X589432Y242844D01*
X589502Y242771D01*
X589568Y242694D01*
X589632Y242616D01*
X589692Y242534D01*
X589749Y242451D01*
X589803Y242365D01*
X589854Y242277D01*
X589901Y242188D01*
X589945Y242096D01*
X589985Y242003D01*
X590022Y241909D01*
X590054Y241813D01*
X590083Y241716D01*
X590109Y241618D01*
X590130Y241519D01*
X590148Y241419D01*
X590161Y241319D01*
X590171Y241218D01*
X590177Y241117D01*
X590179Y241016D01*
X594355Y241539D02*
X594355Y238406D01*
X594355Y241539D02*
X594353Y241629D01*
X594347Y241718D01*
X594338Y241808D01*
X594324Y241897D01*
X594307Y241985D01*
X594286Y242072D01*
X594261Y242159D01*
X594232Y242244D01*
X594200Y242328D01*
X594165Y242410D01*
X594125Y242491D01*
X594083Y242570D01*
X594037Y242647D01*
X593987Y242722D01*
X593935Y242795D01*
X593879Y242866D01*
X593821Y242934D01*
X593759Y242999D01*
X593695Y243062D01*
X593628Y243122D01*
X593559Y243179D01*
X593487Y243233D01*
X593413Y243284D01*
X593337Y243332D01*
X593259Y243376D01*
X593179Y243417D01*
X593097Y243455D01*
X593014Y243489D01*
X592929Y243519D01*
X592843Y243546D01*
X592757Y243569D01*
X592669Y243588D01*
X592580Y243603D01*
X592491Y243615D01*
X592402Y243623D01*
X592312Y243627D01*
X592222Y243627D01*
X592132Y243623D01*
X592043Y243615D01*
X591954Y243603D01*
X591865Y243588D01*
X591777Y243569D01*
X591691Y243546D01*
X591605Y243519D01*
X591520Y243489D01*
X591437Y243455D01*
X591355Y243417D01*
X591275Y243376D01*
X591197Y243332D01*
X591121Y243284D01*
X591047Y243233D01*
X590975Y243179D01*
X590906Y243122D01*
X590839Y243062D01*
X590775Y242999D01*
X590713Y242934D01*
X590655Y242866D01*
X590599Y242795D01*
X590547Y242722D01*
X590497Y242647D01*
X590451Y242570D01*
X590409Y242491D01*
X590369Y242410D01*
X590334Y242328D01*
X590302Y242244D01*
X590273Y242159D01*
X590248Y242072D01*
X590227Y241985D01*
X590210Y241897D01*
X590196Y241808D01*
X590187Y241718D01*
X590181Y241629D01*
X590179Y241539D01*
X590178Y241539D02*
X590178Y239450D01*
X564228Y227783D02*
X563184Y230394D01*
X564228Y227783D02*
X564256Y227717D01*
X564289Y227652D01*
X564324Y227589D01*
X564363Y227528D01*
X564405Y227469D01*
X564450Y227413D01*
X564498Y227359D01*
X564549Y227308D01*
X564602Y227259D01*
X564659Y227214D01*
X564717Y227171D01*
X564777Y227132D01*
X564840Y227095D01*
X564905Y227063D01*
X564971Y227034D01*
X565038Y227008D01*
X565107Y226986D01*
X565177Y226968D01*
X565248Y226953D01*
X565319Y226942D01*
X565391Y226935D01*
X565463Y226932D01*
X565535Y226933D01*
X565608Y226938D01*
X565679Y226946D01*
X565751Y226958D01*
X565821Y226974D01*
X565890Y226994D01*
X565959Y227018D01*
X566026Y227045D01*
X566091Y227075D01*
X566155Y227109D01*
X566217Y227147D01*
X566277Y227187D01*
X566334Y227231D01*
X566389Y227278D01*
X566442Y227328D01*
X566491Y227380D01*
X566538Y227435D01*
X566582Y227492D01*
X566623Y227552D01*
X566660Y227614D01*
X566695Y227678D01*
X566725Y227743D01*
X566753Y227810D01*
X566776Y227878D01*
X566796Y227948D01*
X566812Y228018D01*
X566825Y228089D01*
X566833Y228161D01*
X566838Y228233D01*
X566839Y228305D01*
X566838Y228306D02*
X566834Y228457D01*
X566826Y228608D01*
X566815Y228759D01*
X566799Y228910D01*
X566779Y229060D01*
X566756Y229210D01*
X566729Y229359D01*
X566698Y229507D01*
X566663Y229655D01*
X566625Y229801D01*
X566582Y229947D01*
X566536Y230091D01*
X566487Y230234D01*
X566434Y230376D01*
X566377Y230516D01*
X566316Y230655D01*
X563184Y230394D02*
X563156Y230460D01*
X563123Y230525D01*
X563088Y230588D01*
X563049Y230649D01*
X563007Y230708D01*
X562962Y230764D01*
X562914Y230818D01*
X562863Y230869D01*
X562810Y230918D01*
X562753Y230963D01*
X562695Y231006D01*
X562635Y231045D01*
X562572Y231082D01*
X562507Y231114D01*
X562441Y231143D01*
X562374Y231169D01*
X562305Y231191D01*
X562235Y231209D01*
X562164Y231224D01*
X562093Y231235D01*
X562021Y231242D01*
X561949Y231245D01*
X561877Y231244D01*
X561804Y231239D01*
X561733Y231231D01*
X561661Y231219D01*
X561591Y231203D01*
X561522Y231183D01*
X561453Y231159D01*
X561386Y231132D01*
X561321Y231102D01*
X561257Y231068D01*
X561195Y231030D01*
X561135Y230990D01*
X561078Y230946D01*
X561023Y230899D01*
X560970Y230849D01*
X560921Y230797D01*
X560874Y230742D01*
X560830Y230685D01*
X560789Y230625D01*
X560752Y230563D01*
X560717Y230499D01*
X560687Y230434D01*
X560659Y230367D01*
X560636Y230299D01*
X560616Y230229D01*
X560600Y230159D01*
X560587Y230088D01*
X560579Y230016D01*
X560574Y229944D01*
X560573Y229872D01*
X560578Y229662D01*
X560589Y229453D01*
X560604Y229244D01*
X560624Y229036D01*
X560650Y228828D01*
X560680Y228621D01*
X560715Y228414D01*
X560755Y228209D01*
X560799Y228004D01*
X560849Y227801D01*
X560903Y227598D01*
X560963Y227397D01*
X561026Y227198D01*
X561095Y227000D01*
X560573Y236502D02*
X560573Y238590D01*
X560573Y236502D02*
X560575Y236425D01*
X560581Y236349D01*
X560590Y236272D01*
X560603Y236196D01*
X560620Y236121D01*
X560640Y236047D01*
X560665Y235974D01*
X560692Y235903D01*
X560723Y235832D01*
X560758Y235764D01*
X560796Y235697D01*
X560837Y235632D01*
X560881Y235569D01*
X560928Y235509D01*
X560979Y235450D01*
X561032Y235395D01*
X561087Y235342D01*
X561146Y235291D01*
X561206Y235244D01*
X561269Y235200D01*
X561334Y235159D01*
X561401Y235121D01*
X561469Y235086D01*
X561540Y235055D01*
X561611Y235028D01*
X561684Y235003D01*
X561758Y234983D01*
X561833Y234966D01*
X561909Y234953D01*
X561986Y234944D01*
X562062Y234938D01*
X562139Y234936D01*
X562139Y234935D02*
X565272Y234935D01*
X565272Y234936D02*
X565349Y234938D01*
X565425Y234944D01*
X565502Y234953D01*
X565578Y234966D01*
X565653Y234983D01*
X565727Y235003D01*
X565800Y235028D01*
X565871Y235055D01*
X565942Y235086D01*
X566010Y235121D01*
X566077Y235159D01*
X566142Y235200D01*
X566205Y235244D01*
X566265Y235291D01*
X566324Y235342D01*
X566379Y235395D01*
X566432Y235450D01*
X566483Y235509D01*
X566530Y235569D01*
X566574Y235632D01*
X566615Y235697D01*
X566653Y235764D01*
X566688Y235832D01*
X566719Y235903D01*
X566746Y235974D01*
X566771Y236047D01*
X566791Y236121D01*
X566808Y236196D01*
X566821Y236272D01*
X566830Y236349D01*
X566836Y236425D01*
X566838Y236502D01*
X566838Y238590D01*
X569971Y242061D02*
X562139Y242061D01*
X562062Y242063D01*
X561986Y242069D01*
X561909Y242078D01*
X561833Y242091D01*
X561758Y242108D01*
X561684Y242128D01*
X561611Y242153D01*
X561540Y242180D01*
X561469Y242211D01*
X561401Y242246D01*
X561334Y242284D01*
X561269Y242325D01*
X561206Y242369D01*
X561146Y242416D01*
X561087Y242467D01*
X561032Y242520D01*
X560979Y242575D01*
X560928Y242634D01*
X560881Y242694D01*
X560837Y242757D01*
X560796Y242822D01*
X560758Y242889D01*
X560723Y242957D01*
X560692Y243028D01*
X560665Y243099D01*
X560640Y243172D01*
X560620Y243246D01*
X560603Y243321D01*
X560590Y243397D01*
X560581Y243474D01*
X560575Y243550D01*
X560573Y243627D01*
X538800Y226735D02*
X539844Y224125D01*
X539844Y224124D02*
X539872Y224058D01*
X539905Y223993D01*
X539940Y223930D01*
X539979Y223869D01*
X540021Y223810D01*
X540066Y223754D01*
X540114Y223700D01*
X540165Y223649D01*
X540218Y223600D01*
X540275Y223555D01*
X540333Y223512D01*
X540393Y223473D01*
X540456Y223436D01*
X540521Y223404D01*
X540587Y223375D01*
X540654Y223349D01*
X540723Y223327D01*
X540793Y223309D01*
X540864Y223294D01*
X540935Y223283D01*
X541007Y223276D01*
X541079Y223273D01*
X541151Y223274D01*
X541224Y223279D01*
X541295Y223287D01*
X541367Y223299D01*
X541437Y223315D01*
X541506Y223335D01*
X541575Y223359D01*
X541642Y223386D01*
X541707Y223416D01*
X541771Y223450D01*
X541833Y223488D01*
X541893Y223528D01*
X541950Y223572D01*
X542005Y223619D01*
X542058Y223669D01*
X542107Y223721D01*
X542154Y223776D01*
X542198Y223833D01*
X542239Y223893D01*
X542276Y223955D01*
X542311Y224019D01*
X542341Y224084D01*
X542369Y224151D01*
X542392Y224219D01*
X542412Y224289D01*
X542428Y224359D01*
X542441Y224430D01*
X542449Y224502D01*
X542454Y224574D01*
X542455Y224646D01*
X542454Y224647D02*
X542450Y224798D01*
X542442Y224949D01*
X542431Y225100D01*
X542415Y225251D01*
X542395Y225401D01*
X542372Y225551D01*
X542345Y225700D01*
X542314Y225848D01*
X542279Y225996D01*
X542241Y226142D01*
X542198Y226288D01*
X542152Y226432D01*
X542103Y226575D01*
X542050Y226717D01*
X541993Y226857D01*
X541932Y226996D01*
X538800Y226735D02*
X538772Y226801D01*
X538739Y226866D01*
X538704Y226929D01*
X538665Y226990D01*
X538623Y227049D01*
X538578Y227105D01*
X538530Y227159D01*
X538479Y227210D01*
X538426Y227259D01*
X538369Y227304D01*
X538311Y227347D01*
X538251Y227386D01*
X538188Y227423D01*
X538123Y227455D01*
X538057Y227484D01*
X537990Y227510D01*
X537921Y227532D01*
X537851Y227550D01*
X537780Y227565D01*
X537709Y227576D01*
X537637Y227583D01*
X537565Y227586D01*
X537493Y227585D01*
X537420Y227580D01*
X537349Y227572D01*
X537277Y227560D01*
X537207Y227544D01*
X537138Y227524D01*
X537069Y227500D01*
X537002Y227473D01*
X536937Y227443D01*
X536873Y227409D01*
X536811Y227371D01*
X536751Y227331D01*
X536694Y227287D01*
X536639Y227240D01*
X536586Y227190D01*
X536537Y227138D01*
X536490Y227083D01*
X536446Y227026D01*
X536405Y226966D01*
X536368Y226904D01*
X536333Y226840D01*
X536303Y226775D01*
X536275Y226708D01*
X536252Y226640D01*
X536232Y226570D01*
X536216Y226500D01*
X536203Y226429D01*
X536195Y226357D01*
X536190Y226285D01*
X536189Y226213D01*
X536194Y226003D01*
X536205Y225794D01*
X536220Y225585D01*
X536240Y225377D01*
X536266Y225169D01*
X536296Y224962D01*
X536331Y224755D01*
X536371Y224550D01*
X536415Y224345D01*
X536465Y224142D01*
X536519Y223939D01*
X536579Y223738D01*
X536642Y223539D01*
X536711Y223341D01*
X536189Y235397D02*
X545587Y235397D01*
X536189Y235397D02*
X536189Y232787D01*
X536191Y232710D01*
X536197Y232634D01*
X536206Y232557D01*
X536219Y232481D01*
X536236Y232406D01*
X536256Y232332D01*
X536281Y232259D01*
X536308Y232188D01*
X536339Y232117D01*
X536374Y232049D01*
X536412Y231982D01*
X536453Y231917D01*
X536497Y231854D01*
X536544Y231794D01*
X536595Y231735D01*
X536648Y231680D01*
X536703Y231627D01*
X536762Y231576D01*
X536822Y231529D01*
X536885Y231485D01*
X536950Y231444D01*
X537017Y231406D01*
X537085Y231371D01*
X537156Y231340D01*
X537227Y231313D01*
X537300Y231288D01*
X537374Y231268D01*
X537449Y231251D01*
X537525Y231238D01*
X537602Y231229D01*
X537678Y231223D01*
X537755Y231221D01*
X540888Y231221D01*
X540965Y231223D01*
X541041Y231229D01*
X541118Y231238D01*
X541194Y231251D01*
X541269Y231268D01*
X541343Y231288D01*
X541416Y231313D01*
X541487Y231340D01*
X541558Y231371D01*
X541626Y231406D01*
X541693Y231444D01*
X541758Y231485D01*
X541821Y231529D01*
X541881Y231576D01*
X541940Y231627D01*
X541995Y231680D01*
X542048Y231735D01*
X542099Y231794D01*
X542146Y231854D01*
X542190Y231917D01*
X542231Y231982D01*
X542269Y232049D01*
X542304Y232117D01*
X542335Y232188D01*
X542362Y232259D01*
X542387Y232332D01*
X542407Y232406D01*
X542424Y232481D01*
X542437Y232557D01*
X542446Y232634D01*
X542452Y232710D01*
X542454Y232787D01*
X542454Y235397D01*
X539844Y241278D02*
X539844Y243627D01*
X539843Y241278D02*
X539841Y241194D01*
X539835Y241109D01*
X539825Y241026D01*
X539812Y240942D01*
X539794Y240860D01*
X539773Y240778D01*
X539748Y240697D01*
X539720Y240618D01*
X539687Y240540D01*
X539651Y240464D01*
X539612Y240389D01*
X539569Y240316D01*
X539523Y240245D01*
X539474Y240177D01*
X539422Y240111D01*
X539366Y240047D01*
X539308Y239986D01*
X539247Y239928D01*
X539183Y239872D01*
X539117Y239820D01*
X539049Y239771D01*
X538978Y239725D01*
X538905Y239682D01*
X538830Y239643D01*
X538754Y239607D01*
X538676Y239574D01*
X538597Y239546D01*
X538516Y239521D01*
X538434Y239500D01*
X538352Y239482D01*
X538268Y239469D01*
X538185Y239459D01*
X538100Y239453D01*
X538016Y239451D01*
X537932Y239453D01*
X537847Y239459D01*
X537764Y239469D01*
X537680Y239482D01*
X537598Y239500D01*
X537516Y239521D01*
X537435Y239546D01*
X537356Y239574D01*
X537278Y239607D01*
X537202Y239643D01*
X537127Y239682D01*
X537054Y239725D01*
X536983Y239771D01*
X536915Y239820D01*
X536849Y239872D01*
X536785Y239928D01*
X536724Y239986D01*
X536666Y240047D01*
X536610Y240111D01*
X536558Y240177D01*
X536509Y240245D01*
X536463Y240316D01*
X536420Y240389D01*
X536381Y240464D01*
X536345Y240540D01*
X536312Y240618D01*
X536284Y240697D01*
X536259Y240778D01*
X536238Y240860D01*
X536220Y240942D01*
X536207Y241026D01*
X536197Y241109D01*
X536191Y241194D01*
X536189Y241278D01*
X536189Y243627D01*
X540888Y243627D01*
X540965Y243625D01*
X541041Y243619D01*
X541118Y243610D01*
X541194Y243597D01*
X541269Y243580D01*
X541343Y243560D01*
X541416Y243535D01*
X541487Y243508D01*
X541558Y243477D01*
X541626Y243442D01*
X541693Y243404D01*
X541758Y243363D01*
X541821Y243319D01*
X541881Y243272D01*
X541940Y243221D01*
X541995Y243168D01*
X542048Y243113D01*
X542099Y243054D01*
X542146Y242994D01*
X542190Y242931D01*
X542231Y242866D01*
X542269Y242799D01*
X542304Y242731D01*
X542335Y242660D01*
X542362Y242589D01*
X542387Y242516D01*
X542407Y242442D01*
X542424Y242367D01*
X542437Y242291D01*
X542446Y242214D01*
X542452Y242138D01*
X542454Y242061D01*
X542454Y239972D01*
X515022Y211444D02*
X508757Y211444D01*
X515022Y211444D02*
X515022Y214577D01*
X513978Y214577D01*
X508757Y219055D02*
X508757Y221666D01*
X508757Y219055D02*
X508759Y218978D01*
X508765Y218902D01*
X508774Y218825D01*
X508787Y218749D01*
X508804Y218674D01*
X508824Y218600D01*
X508849Y218527D01*
X508876Y218456D01*
X508907Y218385D01*
X508942Y218317D01*
X508980Y218250D01*
X509021Y218185D01*
X509065Y218122D01*
X509112Y218062D01*
X509163Y218003D01*
X509216Y217948D01*
X509271Y217895D01*
X509330Y217844D01*
X509390Y217797D01*
X509453Y217753D01*
X509518Y217712D01*
X509585Y217674D01*
X509653Y217639D01*
X509724Y217608D01*
X509795Y217581D01*
X509868Y217556D01*
X509942Y217536D01*
X510017Y217519D01*
X510093Y217506D01*
X510170Y217497D01*
X510246Y217491D01*
X510323Y217489D01*
X512934Y217489D01*
X513024Y217491D01*
X513113Y217497D01*
X513203Y217506D01*
X513292Y217520D01*
X513380Y217537D01*
X513467Y217558D01*
X513554Y217583D01*
X513639Y217612D01*
X513723Y217644D01*
X513805Y217679D01*
X513886Y217719D01*
X513965Y217761D01*
X514042Y217807D01*
X514117Y217857D01*
X514190Y217909D01*
X514261Y217965D01*
X514329Y218023D01*
X514394Y218085D01*
X514457Y218149D01*
X514517Y218216D01*
X514574Y218285D01*
X514628Y218357D01*
X514679Y218431D01*
X514727Y218507D01*
X514771Y218585D01*
X514812Y218665D01*
X514850Y218747D01*
X514884Y218830D01*
X514914Y218915D01*
X514941Y219001D01*
X514964Y219087D01*
X514983Y219175D01*
X514998Y219264D01*
X515010Y219353D01*
X515018Y219442D01*
X515022Y219532D01*
X515022Y219622D01*
X515018Y219712D01*
X515010Y219801D01*
X514998Y219890D01*
X514983Y219979D01*
X514964Y220067D01*
X514941Y220153D01*
X514914Y220239D01*
X514884Y220324D01*
X514850Y220407D01*
X514812Y220489D01*
X514771Y220569D01*
X514727Y220647D01*
X514679Y220723D01*
X514628Y220797D01*
X514574Y220869D01*
X514517Y220938D01*
X514457Y221005D01*
X514394Y221069D01*
X514329Y221131D01*
X514261Y221189D01*
X514190Y221245D01*
X514117Y221297D01*
X514042Y221347D01*
X513965Y221393D01*
X513886Y221435D01*
X513805Y221475D01*
X513723Y221510D01*
X513639Y221542D01*
X513554Y221571D01*
X513467Y221596D01*
X513380Y221617D01*
X513292Y221634D01*
X513203Y221648D01*
X513113Y221657D01*
X513024Y221663D01*
X512934Y221665D01*
X512934Y221666D02*
X511890Y221666D01*
X511890Y217489D01*
X512412Y226197D02*
X511368Y228807D01*
X512412Y226196D02*
X512440Y226130D01*
X512473Y226065D01*
X512508Y226002D01*
X512547Y225941D01*
X512589Y225882D01*
X512634Y225826D01*
X512682Y225772D01*
X512733Y225721D01*
X512786Y225672D01*
X512843Y225627D01*
X512901Y225584D01*
X512961Y225545D01*
X513024Y225508D01*
X513089Y225476D01*
X513155Y225447D01*
X513222Y225421D01*
X513291Y225399D01*
X513361Y225381D01*
X513432Y225366D01*
X513503Y225355D01*
X513575Y225348D01*
X513647Y225345D01*
X513719Y225346D01*
X513792Y225351D01*
X513863Y225359D01*
X513935Y225371D01*
X514005Y225387D01*
X514074Y225407D01*
X514143Y225431D01*
X514210Y225458D01*
X514275Y225488D01*
X514339Y225522D01*
X514401Y225560D01*
X514461Y225600D01*
X514518Y225644D01*
X514573Y225691D01*
X514626Y225741D01*
X514675Y225793D01*
X514722Y225848D01*
X514766Y225905D01*
X514807Y225965D01*
X514844Y226027D01*
X514879Y226091D01*
X514909Y226156D01*
X514937Y226223D01*
X514960Y226291D01*
X514980Y226361D01*
X514996Y226431D01*
X515009Y226502D01*
X515017Y226574D01*
X515022Y226646D01*
X515023Y226718D01*
X515022Y226719D02*
X515018Y226870D01*
X515010Y227021D01*
X514999Y227172D01*
X514983Y227323D01*
X514963Y227473D01*
X514940Y227623D01*
X514913Y227772D01*
X514882Y227920D01*
X514847Y228068D01*
X514809Y228214D01*
X514766Y228360D01*
X514720Y228504D01*
X514671Y228647D01*
X514618Y228789D01*
X514561Y228929D01*
X514500Y229068D01*
X511368Y228807D02*
X511340Y228873D01*
X511307Y228938D01*
X511272Y229001D01*
X511233Y229062D01*
X511191Y229121D01*
X511146Y229177D01*
X511098Y229231D01*
X511047Y229282D01*
X510994Y229331D01*
X510937Y229376D01*
X510879Y229419D01*
X510819Y229458D01*
X510756Y229495D01*
X510691Y229527D01*
X510625Y229556D01*
X510558Y229582D01*
X510489Y229604D01*
X510419Y229622D01*
X510348Y229637D01*
X510277Y229648D01*
X510205Y229655D01*
X510133Y229658D01*
X510061Y229657D01*
X509988Y229652D01*
X509917Y229644D01*
X509845Y229632D01*
X509775Y229616D01*
X509706Y229596D01*
X509637Y229572D01*
X509570Y229545D01*
X509505Y229515D01*
X509441Y229481D01*
X509379Y229443D01*
X509319Y229403D01*
X509262Y229359D01*
X509207Y229312D01*
X509154Y229262D01*
X509105Y229210D01*
X509058Y229155D01*
X509014Y229098D01*
X508973Y229038D01*
X508936Y228976D01*
X508901Y228912D01*
X508871Y228847D01*
X508843Y228780D01*
X508820Y228712D01*
X508800Y228642D01*
X508784Y228572D01*
X508771Y228501D01*
X508763Y228429D01*
X508758Y228357D01*
X508757Y228285D01*
X508762Y228075D01*
X508773Y227866D01*
X508788Y227657D01*
X508808Y227449D01*
X508834Y227241D01*
X508864Y227034D01*
X508899Y226827D01*
X508939Y226622D01*
X508983Y226417D01*
X509033Y226214D01*
X509087Y226011D01*
X509147Y225810D01*
X509210Y225611D01*
X509279Y225413D01*
X508757Y234905D02*
X508757Y237515D01*
X508757Y234905D02*
X508759Y234828D01*
X508765Y234752D01*
X508774Y234675D01*
X508787Y234599D01*
X508804Y234524D01*
X508824Y234450D01*
X508849Y234377D01*
X508876Y234306D01*
X508907Y234235D01*
X508942Y234167D01*
X508980Y234100D01*
X509021Y234035D01*
X509065Y233972D01*
X509112Y233912D01*
X509163Y233853D01*
X509216Y233798D01*
X509271Y233745D01*
X509330Y233694D01*
X509390Y233647D01*
X509453Y233603D01*
X509518Y233562D01*
X509585Y233524D01*
X509653Y233489D01*
X509724Y233458D01*
X509795Y233431D01*
X509868Y233406D01*
X509942Y233386D01*
X510017Y233369D01*
X510093Y233356D01*
X510170Y233347D01*
X510246Y233341D01*
X510323Y233339D01*
X510323Y233338D02*
X512934Y233338D01*
X512934Y233339D02*
X513024Y233341D01*
X513113Y233347D01*
X513203Y233356D01*
X513292Y233370D01*
X513380Y233387D01*
X513467Y233408D01*
X513554Y233433D01*
X513639Y233462D01*
X513723Y233494D01*
X513805Y233529D01*
X513886Y233569D01*
X513965Y233611D01*
X514042Y233657D01*
X514117Y233707D01*
X514190Y233759D01*
X514261Y233815D01*
X514329Y233873D01*
X514394Y233935D01*
X514457Y233999D01*
X514517Y234066D01*
X514574Y234135D01*
X514628Y234207D01*
X514679Y234281D01*
X514727Y234357D01*
X514771Y234435D01*
X514812Y234515D01*
X514850Y234597D01*
X514884Y234680D01*
X514914Y234765D01*
X514941Y234851D01*
X514964Y234937D01*
X514983Y235025D01*
X514998Y235114D01*
X515010Y235203D01*
X515018Y235292D01*
X515022Y235382D01*
X515022Y235472D01*
X515018Y235562D01*
X515010Y235651D01*
X514998Y235740D01*
X514983Y235829D01*
X514964Y235917D01*
X514941Y236003D01*
X514914Y236089D01*
X514884Y236174D01*
X514850Y236257D01*
X514812Y236339D01*
X514771Y236419D01*
X514727Y236497D01*
X514679Y236573D01*
X514628Y236647D01*
X514574Y236719D01*
X514517Y236788D01*
X514457Y236855D01*
X514394Y236919D01*
X514329Y236981D01*
X514261Y237039D01*
X514190Y237095D01*
X514117Y237147D01*
X514042Y237197D01*
X513965Y237243D01*
X513886Y237285D01*
X513805Y237325D01*
X513723Y237360D01*
X513639Y237392D01*
X513554Y237421D01*
X513467Y237446D01*
X513380Y237467D01*
X513292Y237484D01*
X513203Y237498D01*
X513113Y237507D01*
X513024Y237513D01*
X512934Y237515D01*
X511890Y237515D01*
X511890Y233338D01*
X515022Y240494D02*
X515022Y243627D01*
X518155Y241539D02*
X510323Y241539D01*
X510246Y241541D01*
X510170Y241547D01*
X510093Y241556D01*
X510017Y241569D01*
X509942Y241586D01*
X509868Y241606D01*
X509795Y241631D01*
X509724Y241658D01*
X509653Y241689D01*
X509585Y241724D01*
X509518Y241762D01*
X509453Y241803D01*
X509390Y241847D01*
X509330Y241894D01*
X509271Y241945D01*
X509216Y241998D01*
X509163Y242053D01*
X509112Y242112D01*
X509065Y242172D01*
X509021Y242235D01*
X508980Y242300D01*
X508942Y242367D01*
X508907Y242435D01*
X508876Y242506D01*
X508849Y242577D01*
X508824Y242650D01*
X508804Y242724D01*
X508787Y242799D01*
X508774Y242875D01*
X508765Y242952D01*
X508759Y243028D01*
X508757Y243105D01*
X508757Y243627D01*
X469387Y265725D02*
X466776Y265725D01*
X466675Y265727D01*
X466574Y265733D01*
X466473Y265743D01*
X466373Y265756D01*
X466273Y265774D01*
X466174Y265795D01*
X466076Y265821D01*
X465979Y265850D01*
X465883Y265882D01*
X465789Y265919D01*
X465696Y265959D01*
X465604Y266003D01*
X465515Y266050D01*
X465427Y266101D01*
X465341Y266155D01*
X465258Y266212D01*
X465176Y266272D01*
X465098Y266336D01*
X465021Y266402D01*
X464948Y266472D01*
X464877Y266544D01*
X464809Y266619D01*
X464744Y266697D01*
X464682Y266777D01*
X464623Y266859D01*
X464567Y266944D01*
X464515Y267031D01*
X464466Y267119D01*
X464420Y267210D01*
X464379Y267302D01*
X464340Y267396D01*
X464306Y267491D01*
X464275Y267587D01*
X464248Y267685D01*
X464224Y267783D01*
X464205Y267883D01*
X464189Y267983D01*
X464177Y268083D01*
X464169Y268184D01*
X464165Y268285D01*
X464165Y268387D01*
X464169Y268488D01*
X464177Y268589D01*
X464189Y268689D01*
X464205Y268789D01*
X464224Y268889D01*
X464248Y268987D01*
X464275Y269085D01*
X464306Y269181D01*
X464340Y269276D01*
X464379Y269370D01*
X464420Y269462D01*
X464466Y269553D01*
X464515Y269642D01*
X464567Y269728D01*
X464623Y269813D01*
X464682Y269895D01*
X464744Y269975D01*
X464809Y270053D01*
X464877Y270128D01*
X464948Y270200D01*
X465021Y270270D01*
X465098Y270336D01*
X465176Y270400D01*
X465258Y270460D01*
X465341Y270517D01*
X465427Y270571D01*
X465515Y270622D01*
X465604Y270669D01*
X465696Y270713D01*
X465789Y270753D01*
X465883Y270790D01*
X465979Y270822D01*
X466076Y270851D01*
X466174Y270877D01*
X466273Y270898D01*
X466373Y270916D01*
X466473Y270929D01*
X466574Y270939D01*
X466675Y270945D01*
X466776Y270947D01*
X466254Y275123D02*
X469387Y275123D01*
X466254Y275123D02*
X466164Y275121D01*
X466075Y275115D01*
X465985Y275106D01*
X465896Y275092D01*
X465808Y275075D01*
X465721Y275054D01*
X465634Y275029D01*
X465549Y275000D01*
X465465Y274968D01*
X465383Y274933D01*
X465302Y274893D01*
X465223Y274851D01*
X465146Y274805D01*
X465071Y274755D01*
X464998Y274703D01*
X464927Y274647D01*
X464859Y274589D01*
X464794Y274527D01*
X464731Y274463D01*
X464671Y274396D01*
X464614Y274327D01*
X464560Y274255D01*
X464509Y274181D01*
X464461Y274105D01*
X464417Y274027D01*
X464376Y273947D01*
X464338Y273865D01*
X464304Y273782D01*
X464274Y273697D01*
X464247Y273611D01*
X464224Y273525D01*
X464205Y273437D01*
X464190Y273348D01*
X464178Y273259D01*
X464170Y273170D01*
X464166Y273080D01*
X464166Y272990D01*
X464170Y272900D01*
X464178Y272811D01*
X464190Y272722D01*
X464205Y272633D01*
X464224Y272545D01*
X464247Y272459D01*
X464274Y272373D01*
X464304Y272288D01*
X464338Y272205D01*
X464376Y272123D01*
X464417Y272043D01*
X464461Y271965D01*
X464509Y271889D01*
X464560Y271815D01*
X464614Y271743D01*
X464671Y271674D01*
X464731Y271607D01*
X464794Y271543D01*
X464859Y271481D01*
X464927Y271423D01*
X464998Y271367D01*
X465071Y271315D01*
X465146Y271265D01*
X465223Y271219D01*
X465302Y271177D01*
X465383Y271137D01*
X465465Y271102D01*
X465549Y271070D01*
X465634Y271041D01*
X465721Y271016D01*
X465808Y270995D01*
X465896Y270978D01*
X465985Y270964D01*
X466075Y270955D01*
X466164Y270949D01*
X466254Y270947D01*
X466254Y270946D02*
X468343Y270946D01*
X460635Y271990D02*
X458547Y265725D01*
X456458Y271990D01*
X452928Y265725D02*
X450317Y265725D01*
X450216Y265727D01*
X450115Y265733D01*
X450014Y265743D01*
X449914Y265756D01*
X449814Y265774D01*
X449715Y265795D01*
X449617Y265821D01*
X449520Y265850D01*
X449424Y265882D01*
X449330Y265919D01*
X449237Y265959D01*
X449145Y266003D01*
X449056Y266050D01*
X448968Y266101D01*
X448882Y266155D01*
X448799Y266212D01*
X448717Y266272D01*
X448639Y266336D01*
X448562Y266402D01*
X448489Y266472D01*
X448418Y266544D01*
X448350Y266619D01*
X448285Y266697D01*
X448223Y266777D01*
X448164Y266859D01*
X448108Y266944D01*
X448056Y267031D01*
X448007Y267119D01*
X447961Y267210D01*
X447920Y267302D01*
X447881Y267396D01*
X447847Y267491D01*
X447816Y267587D01*
X447789Y267685D01*
X447765Y267783D01*
X447746Y267883D01*
X447730Y267983D01*
X447718Y268083D01*
X447710Y268184D01*
X447706Y268285D01*
X447706Y268387D01*
X447710Y268488D01*
X447718Y268589D01*
X447730Y268689D01*
X447746Y268789D01*
X447765Y268889D01*
X447789Y268987D01*
X447816Y269085D01*
X447847Y269181D01*
X447881Y269276D01*
X447920Y269370D01*
X447961Y269462D01*
X448007Y269553D01*
X448056Y269642D01*
X448108Y269728D01*
X448164Y269813D01*
X448223Y269895D01*
X448285Y269975D01*
X448350Y270053D01*
X448418Y270128D01*
X448489Y270200D01*
X448562Y270270D01*
X448639Y270336D01*
X448717Y270400D01*
X448799Y270460D01*
X448882Y270517D01*
X448968Y270571D01*
X449056Y270622D01*
X449145Y270669D01*
X449237Y270713D01*
X449330Y270753D01*
X449424Y270790D01*
X449520Y270822D01*
X449617Y270851D01*
X449715Y270877D01*
X449814Y270898D01*
X449914Y270916D01*
X450014Y270929D01*
X450115Y270939D01*
X450216Y270945D01*
X450317Y270947D01*
X449795Y275123D02*
X452928Y275123D01*
X449795Y275123D02*
X449705Y275121D01*
X449616Y275115D01*
X449526Y275106D01*
X449437Y275092D01*
X449349Y275075D01*
X449262Y275054D01*
X449175Y275029D01*
X449090Y275000D01*
X449006Y274968D01*
X448924Y274933D01*
X448843Y274893D01*
X448764Y274851D01*
X448687Y274805D01*
X448612Y274755D01*
X448539Y274703D01*
X448468Y274647D01*
X448400Y274589D01*
X448335Y274527D01*
X448272Y274463D01*
X448212Y274396D01*
X448155Y274327D01*
X448101Y274255D01*
X448050Y274181D01*
X448002Y274105D01*
X447958Y274027D01*
X447917Y273947D01*
X447879Y273865D01*
X447845Y273782D01*
X447815Y273697D01*
X447788Y273611D01*
X447765Y273525D01*
X447746Y273437D01*
X447731Y273348D01*
X447719Y273259D01*
X447711Y273170D01*
X447707Y273080D01*
X447707Y272990D01*
X447711Y272900D01*
X447719Y272811D01*
X447731Y272722D01*
X447746Y272633D01*
X447765Y272545D01*
X447788Y272459D01*
X447815Y272373D01*
X447845Y272288D01*
X447879Y272205D01*
X447917Y272123D01*
X447958Y272043D01*
X448002Y271965D01*
X448050Y271889D01*
X448101Y271815D01*
X448155Y271743D01*
X448212Y271674D01*
X448272Y271607D01*
X448335Y271543D01*
X448400Y271481D01*
X448468Y271423D01*
X448539Y271367D01*
X448612Y271315D01*
X448687Y271265D01*
X448764Y271219D01*
X448843Y271177D01*
X448924Y271137D01*
X449006Y271102D01*
X449090Y271070D01*
X449175Y271041D01*
X449262Y271016D01*
X449349Y270995D01*
X449437Y270978D01*
X449526Y270964D01*
X449616Y270955D01*
X449705Y270949D01*
X449795Y270947D01*
X449795Y270946D02*
X451884Y270946D01*
X465577Y383581D02*
X468187Y383581D01*
X468264Y383583D01*
X468340Y383589D01*
X468417Y383598D01*
X468493Y383611D01*
X468568Y383628D01*
X468642Y383648D01*
X468715Y383673D01*
X468786Y383700D01*
X468857Y383731D01*
X468925Y383766D01*
X468992Y383804D01*
X469057Y383845D01*
X469120Y383889D01*
X469180Y383936D01*
X469239Y383987D01*
X469294Y384040D01*
X469347Y384095D01*
X469398Y384154D01*
X469445Y384214D01*
X469489Y384277D01*
X469530Y384342D01*
X469568Y384409D01*
X469603Y384477D01*
X469634Y384548D01*
X469661Y384619D01*
X469686Y384692D01*
X469706Y384766D01*
X469723Y384841D01*
X469736Y384917D01*
X469745Y384994D01*
X469751Y385070D01*
X469753Y385147D01*
X469754Y385147D02*
X469754Y388280D01*
X469753Y388280D02*
X469751Y388357D01*
X469745Y388433D01*
X469736Y388510D01*
X469723Y388586D01*
X469706Y388661D01*
X469686Y388735D01*
X469661Y388808D01*
X469634Y388879D01*
X469603Y388950D01*
X469568Y389018D01*
X469530Y389085D01*
X469489Y389150D01*
X469445Y389213D01*
X469398Y389273D01*
X469347Y389332D01*
X469294Y389387D01*
X469239Y389440D01*
X469180Y389491D01*
X469120Y389538D01*
X469057Y389582D01*
X468992Y389623D01*
X468925Y389661D01*
X468857Y389696D01*
X468786Y389727D01*
X468715Y389754D01*
X468642Y389779D01*
X468568Y389799D01*
X468493Y389816D01*
X468417Y389829D01*
X468340Y389838D01*
X468264Y389844D01*
X468187Y389846D01*
X465577Y389846D01*
X465577Y382015D01*
X465579Y381938D01*
X465585Y381862D01*
X465594Y381785D01*
X465607Y381709D01*
X465624Y381634D01*
X465644Y381560D01*
X465669Y381487D01*
X465696Y381416D01*
X465727Y381345D01*
X465762Y381277D01*
X465800Y381210D01*
X465841Y381145D01*
X465885Y381082D01*
X465932Y381022D01*
X465983Y380963D01*
X466036Y380908D01*
X466091Y380855D01*
X466150Y380804D01*
X466210Y380757D01*
X466273Y380713D01*
X466338Y380672D01*
X466405Y380634D01*
X466473Y380599D01*
X466544Y380568D01*
X466615Y380541D01*
X466688Y380516D01*
X466762Y380496D01*
X466837Y380479D01*
X466913Y380466D01*
X466990Y380457D01*
X467066Y380451D01*
X467143Y380449D01*
X467143Y380448D02*
X469232Y380448D01*
X461174Y383581D02*
X461174Y389846D01*
X458563Y389846D01*
X458486Y389844D01*
X458410Y389838D01*
X458333Y389829D01*
X458257Y389816D01*
X458183Y389799D01*
X458108Y389779D01*
X458035Y389754D01*
X457964Y389727D01*
X457893Y389696D01*
X457825Y389661D01*
X457758Y389623D01*
X457693Y389582D01*
X457630Y389538D01*
X457570Y389491D01*
X457511Y389440D01*
X457456Y389387D01*
X457403Y389332D01*
X457352Y389273D01*
X457305Y389213D01*
X457261Y389150D01*
X457220Y389085D01*
X457182Y389018D01*
X457147Y388950D01*
X457116Y388879D01*
X457089Y388808D01*
X457064Y388735D01*
X457044Y388661D01*
X457027Y388586D01*
X457014Y388510D01*
X457005Y388434D01*
X456999Y388357D01*
X456997Y388280D01*
X456997Y383581D01*
X448813Y383581D02*
X448813Y392979D01*
X448813Y383581D02*
X451424Y383581D01*
X451501Y383583D01*
X451577Y383589D01*
X451654Y383598D01*
X451730Y383611D01*
X451805Y383628D01*
X451879Y383648D01*
X451952Y383673D01*
X452023Y383700D01*
X452094Y383731D01*
X452162Y383766D01*
X452229Y383804D01*
X452294Y383845D01*
X452357Y383889D01*
X452417Y383936D01*
X452476Y383987D01*
X452531Y384040D01*
X452584Y384095D01*
X452635Y384154D01*
X452682Y384214D01*
X452726Y384277D01*
X452767Y384342D01*
X452805Y384409D01*
X452840Y384477D01*
X452871Y384548D01*
X452898Y384619D01*
X452923Y384692D01*
X452943Y384766D01*
X452960Y384841D01*
X452973Y384917D01*
X452982Y384994D01*
X452988Y385070D01*
X452990Y385147D01*
X452990Y388280D01*
X452988Y388357D01*
X452982Y388433D01*
X452973Y388510D01*
X452960Y388586D01*
X452943Y388661D01*
X452923Y388735D01*
X452898Y388808D01*
X452871Y388879D01*
X452840Y388950D01*
X452805Y389018D01*
X452767Y389085D01*
X452726Y389150D01*
X452682Y389213D01*
X452635Y389273D01*
X452584Y389332D01*
X452531Y389387D01*
X452476Y389440D01*
X452417Y389491D01*
X452357Y389538D01*
X452294Y389582D01*
X452229Y389623D01*
X452162Y389661D01*
X452094Y389696D01*
X452023Y389727D01*
X451952Y389754D01*
X451879Y389779D01*
X451805Y389799D01*
X451730Y389816D01*
X451654Y389829D01*
X451577Y389838D01*
X451501Y389844D01*
X451424Y389846D01*
X448813Y389846D01*
X519524Y340006D02*
X519524Y337656D01*
X519523Y337656D02*
X519521Y337572D01*
X519515Y337487D01*
X519505Y337404D01*
X519492Y337320D01*
X519474Y337238D01*
X519453Y337156D01*
X519428Y337075D01*
X519400Y336996D01*
X519367Y336918D01*
X519331Y336842D01*
X519292Y336767D01*
X519249Y336694D01*
X519203Y336623D01*
X519154Y336555D01*
X519102Y336489D01*
X519046Y336425D01*
X518988Y336364D01*
X518927Y336306D01*
X518863Y336250D01*
X518797Y336198D01*
X518729Y336149D01*
X518658Y336103D01*
X518585Y336060D01*
X518510Y336021D01*
X518434Y335985D01*
X518356Y335952D01*
X518277Y335924D01*
X518196Y335899D01*
X518114Y335878D01*
X518032Y335860D01*
X517948Y335847D01*
X517865Y335837D01*
X517780Y335831D01*
X517696Y335829D01*
X517612Y335831D01*
X517527Y335837D01*
X517444Y335847D01*
X517360Y335860D01*
X517278Y335878D01*
X517196Y335899D01*
X517115Y335924D01*
X517036Y335952D01*
X516958Y335985D01*
X516882Y336021D01*
X516807Y336060D01*
X516734Y336103D01*
X516663Y336149D01*
X516595Y336198D01*
X516529Y336250D01*
X516465Y336306D01*
X516404Y336364D01*
X516346Y336425D01*
X516290Y336489D01*
X516238Y336555D01*
X516189Y336623D01*
X516143Y336694D01*
X516100Y336767D01*
X516061Y336842D01*
X516025Y336918D01*
X515992Y336996D01*
X515964Y337075D01*
X515939Y337156D01*
X515918Y337238D01*
X515900Y337320D01*
X515887Y337404D01*
X515877Y337487D01*
X515871Y337572D01*
X515869Y337656D01*
X515869Y340006D01*
X520568Y340006D01*
X520645Y340004D01*
X520721Y339998D01*
X520798Y339989D01*
X520874Y339976D01*
X520949Y339959D01*
X521023Y339939D01*
X521096Y339914D01*
X521167Y339887D01*
X521238Y339856D01*
X521306Y339821D01*
X521373Y339783D01*
X521438Y339742D01*
X521501Y339698D01*
X521561Y339651D01*
X521620Y339600D01*
X521675Y339547D01*
X521728Y339492D01*
X521779Y339433D01*
X521826Y339373D01*
X521870Y339310D01*
X521911Y339245D01*
X521949Y339178D01*
X521984Y339110D01*
X522015Y339039D01*
X522042Y338968D01*
X522067Y338895D01*
X522087Y338821D01*
X522104Y338746D01*
X522117Y338670D01*
X522126Y338593D01*
X522132Y338517D01*
X522134Y338440D01*
X522134Y336351D01*
X525267Y348235D02*
X515869Y348235D01*
X515869Y345625D01*
X515871Y345548D01*
X515877Y345472D01*
X515886Y345395D01*
X515899Y345319D01*
X515916Y345244D01*
X515936Y345170D01*
X515961Y345097D01*
X515988Y345026D01*
X516019Y344955D01*
X516054Y344887D01*
X516092Y344820D01*
X516133Y344755D01*
X516177Y344692D01*
X516224Y344632D01*
X516275Y344573D01*
X516328Y344518D01*
X516383Y344465D01*
X516442Y344414D01*
X516502Y344367D01*
X516565Y344323D01*
X516630Y344282D01*
X516697Y344244D01*
X516765Y344209D01*
X516836Y344178D01*
X516907Y344151D01*
X516980Y344126D01*
X517054Y344106D01*
X517129Y344089D01*
X517205Y344076D01*
X517282Y344067D01*
X517358Y344061D01*
X517435Y344059D01*
X520568Y344059D01*
X520645Y344061D01*
X520721Y344067D01*
X520798Y344076D01*
X520874Y344089D01*
X520949Y344106D01*
X521023Y344126D01*
X521096Y344151D01*
X521167Y344178D01*
X521238Y344209D01*
X521306Y344244D01*
X521373Y344282D01*
X521438Y344323D01*
X521501Y344367D01*
X521561Y344414D01*
X521620Y344465D01*
X521675Y344518D01*
X521728Y344573D01*
X521779Y344632D01*
X521826Y344692D01*
X521870Y344755D01*
X521911Y344820D01*
X521949Y344887D01*
X521984Y344955D01*
X522015Y345026D01*
X522042Y345097D01*
X522067Y345170D01*
X522087Y345244D01*
X522104Y345319D01*
X522117Y345395D01*
X522126Y345472D01*
X522132Y345548D01*
X522134Y345625D01*
X522134Y348235D01*
X522134Y352690D02*
X515869Y352690D01*
X522134Y352690D02*
X522134Y355823D01*
X521090Y355823D01*
X437909Y389846D02*
X434776Y389846D01*
X436865Y392979D02*
X436865Y385147D01*
X436864Y385147D02*
X436862Y385070D01*
X436856Y384994D01*
X436847Y384917D01*
X436834Y384841D01*
X436817Y384766D01*
X436797Y384692D01*
X436772Y384619D01*
X436745Y384548D01*
X436714Y384477D01*
X436679Y384409D01*
X436641Y384342D01*
X436600Y384277D01*
X436556Y384214D01*
X436509Y384154D01*
X436458Y384095D01*
X436405Y384040D01*
X436350Y383987D01*
X436291Y383936D01*
X436231Y383889D01*
X436168Y383845D01*
X436103Y383804D01*
X436036Y383766D01*
X435968Y383731D01*
X435897Y383700D01*
X435826Y383673D01*
X435753Y383648D01*
X435679Y383628D01*
X435604Y383611D01*
X435528Y383598D01*
X435451Y383589D01*
X435375Y383583D01*
X435298Y383581D01*
X434776Y383581D01*
X431654Y383581D02*
X427477Y389846D01*
X431654Y389846D02*
X427477Y383581D01*
X1031094Y350109D02*
X1031096Y350020D01*
X1031102Y349932D01*
X1031111Y349844D01*
X1031124Y349756D01*
X1031141Y349669D01*
X1031161Y349583D01*
X1031186Y349498D01*
X1031213Y349413D01*
X1031245Y349330D01*
X1031279Y349249D01*
X1031318Y349169D01*
X1031359Y349091D01*
X1031404Y349014D01*
X1031452Y348940D01*
X1031503Y348867D01*
X1031557Y348797D01*
X1031615Y348730D01*
X1031675Y348664D01*
X1031737Y348602D01*
X1031803Y348542D01*
X1031870Y348484D01*
X1031940Y348430D01*
X1032013Y348379D01*
X1032087Y348331D01*
X1032164Y348286D01*
X1032242Y348245D01*
X1032322Y348206D01*
X1032403Y348172D01*
X1032486Y348140D01*
X1032571Y348113D01*
X1032656Y348088D01*
X1032742Y348068D01*
X1032829Y348051D01*
X1032917Y348038D01*
X1033005Y348029D01*
X1033093Y348023D01*
X1033182Y348021D01*
X1033311Y348023D01*
X1033440Y348029D01*
X1033569Y348038D01*
X1033697Y348051D01*
X1033825Y348068D01*
X1033952Y348089D01*
X1034079Y348113D01*
X1034205Y348141D01*
X1034330Y348173D01*
X1034454Y348208D01*
X1034577Y348247D01*
X1034699Y348290D01*
X1034819Y348336D01*
X1034938Y348386D01*
X1035056Y348439D01*
X1035172Y348495D01*
X1035286Y348555D01*
X1035399Y348618D01*
X1035509Y348685D01*
X1035618Y348754D01*
X1035724Y348827D01*
X1035829Y348903D01*
X1035931Y348982D01*
X1036031Y349064D01*
X1036128Y349148D01*
X1036223Y349236D01*
X1036315Y349326D01*
X1036054Y355331D02*
X1036052Y355420D01*
X1036046Y355508D01*
X1036037Y355596D01*
X1036024Y355684D01*
X1036007Y355771D01*
X1035987Y355857D01*
X1035962Y355942D01*
X1035935Y356027D01*
X1035903Y356110D01*
X1035869Y356191D01*
X1035830Y356271D01*
X1035789Y356349D01*
X1035744Y356426D01*
X1035696Y356500D01*
X1035645Y356573D01*
X1035591Y356643D01*
X1035533Y356710D01*
X1035473Y356776D01*
X1035411Y356838D01*
X1035345Y356898D01*
X1035278Y356956D01*
X1035208Y357010D01*
X1035135Y357061D01*
X1035061Y357109D01*
X1034984Y357154D01*
X1034906Y357195D01*
X1034826Y357234D01*
X1034745Y357268D01*
X1034662Y357300D01*
X1034577Y357327D01*
X1034492Y357352D01*
X1034406Y357372D01*
X1034319Y357389D01*
X1034231Y357402D01*
X1034143Y357411D01*
X1034055Y357417D01*
X1033966Y357419D01*
X1033846Y357417D01*
X1033726Y357412D01*
X1033607Y357402D01*
X1033487Y357390D01*
X1033368Y357373D01*
X1033250Y357353D01*
X1033132Y357329D01*
X1033016Y357302D01*
X1032900Y357271D01*
X1032785Y357237D01*
X1032671Y357199D01*
X1032558Y357157D01*
X1032447Y357112D01*
X1032337Y357064D01*
X1032229Y357013D01*
X1032122Y356958D01*
X1032017Y356900D01*
X1031914Y356838D01*
X1031813Y356774D01*
X1031713Y356706D01*
X1031616Y356636D01*
X1035010Y353504D02*
X1035088Y353552D01*
X1035164Y353604D01*
X1035237Y353658D01*
X1035308Y353716D01*
X1035377Y353777D01*
X1035443Y353841D01*
X1035506Y353908D01*
X1035566Y353977D01*
X1035623Y354049D01*
X1035677Y354123D01*
X1035727Y354200D01*
X1035775Y354279D01*
X1035818Y354359D01*
X1035859Y354442D01*
X1035895Y354526D01*
X1035928Y354611D01*
X1035957Y354698D01*
X1035983Y354787D01*
X1036005Y354876D01*
X1036022Y354966D01*
X1036036Y355056D01*
X1036046Y355148D01*
X1036052Y355239D01*
X1036054Y355331D01*
X1032138Y351936D02*
X1032060Y351888D01*
X1031984Y351836D01*
X1031911Y351782D01*
X1031840Y351724D01*
X1031771Y351663D01*
X1031705Y351599D01*
X1031642Y351532D01*
X1031582Y351463D01*
X1031525Y351391D01*
X1031471Y351317D01*
X1031421Y351240D01*
X1031373Y351161D01*
X1031330Y351081D01*
X1031289Y350998D01*
X1031253Y350914D01*
X1031220Y350829D01*
X1031191Y350742D01*
X1031165Y350653D01*
X1031143Y350564D01*
X1031126Y350474D01*
X1031112Y350384D01*
X1031102Y350292D01*
X1031096Y350201D01*
X1031094Y350109D01*
X1032138Y351937D02*
X1035010Y353503D01*
X1027476Y352720D02*
X1027474Y352905D01*
X1027467Y353090D01*
X1027456Y353274D01*
X1027441Y353458D01*
X1027421Y353642D01*
X1027397Y353826D01*
X1027368Y354008D01*
X1027335Y354190D01*
X1027298Y354371D01*
X1027256Y354551D01*
X1027210Y354731D01*
X1027160Y354909D01*
X1027106Y355085D01*
X1027047Y355261D01*
X1026985Y355435D01*
X1026918Y355607D01*
X1026847Y355778D01*
X1026772Y355947D01*
X1026693Y356114D01*
X1026663Y356194D01*
X1026630Y356273D01*
X1026593Y356350D01*
X1026553Y356426D01*
X1026510Y356500D01*
X1026464Y356572D01*
X1026414Y356641D01*
X1026362Y356709D01*
X1026306Y356774D01*
X1026248Y356837D01*
X1026186Y356896D01*
X1026123Y356954D01*
X1026056Y357008D01*
X1025988Y357059D01*
X1025917Y357107D01*
X1025844Y357152D01*
X1025770Y357194D01*
X1025693Y357232D01*
X1025615Y357267D01*
X1025536Y357299D01*
X1025455Y357327D01*
X1025373Y357351D01*
X1025289Y357372D01*
X1025206Y357389D01*
X1025121Y357402D01*
X1025036Y357411D01*
X1024951Y357417D01*
X1024865Y357419D01*
X1024779Y357417D01*
X1024694Y357411D01*
X1024609Y357402D01*
X1024524Y357389D01*
X1024441Y357372D01*
X1024357Y357351D01*
X1024275Y357327D01*
X1024195Y357299D01*
X1024115Y357267D01*
X1024037Y357232D01*
X1023960Y357194D01*
X1023886Y357152D01*
X1023813Y357107D01*
X1023742Y357059D01*
X1023674Y357008D01*
X1023607Y356954D01*
X1023544Y356896D01*
X1023483Y356837D01*
X1023424Y356774D01*
X1023369Y356709D01*
X1023316Y356641D01*
X1023266Y356572D01*
X1023220Y356500D01*
X1023177Y356426D01*
X1023137Y356350D01*
X1023100Y356273D01*
X1023067Y356194D01*
X1023037Y356114D01*
X1022958Y355947D01*
X1022883Y355778D01*
X1022812Y355607D01*
X1022745Y355435D01*
X1022683Y355261D01*
X1022624Y355085D01*
X1022570Y354909D01*
X1022520Y354731D01*
X1022474Y354551D01*
X1022432Y354371D01*
X1022395Y354190D01*
X1022362Y354008D01*
X1022333Y353826D01*
X1022309Y353642D01*
X1022289Y353458D01*
X1022274Y353274D01*
X1022263Y353090D01*
X1022256Y352905D01*
X1022254Y352720D01*
X1027476Y352720D02*
X1027474Y352535D01*
X1027467Y352350D01*
X1027456Y352166D01*
X1027441Y351982D01*
X1027421Y351798D01*
X1027397Y351614D01*
X1027368Y351432D01*
X1027335Y351250D01*
X1027298Y351069D01*
X1027256Y350889D01*
X1027210Y350709D01*
X1027160Y350531D01*
X1027106Y350355D01*
X1027047Y350179D01*
X1026985Y350005D01*
X1026918Y349833D01*
X1026847Y349662D01*
X1026772Y349493D01*
X1026693Y349326D01*
X1026663Y349246D01*
X1026630Y349167D01*
X1026593Y349090D01*
X1026553Y349014D01*
X1026510Y348940D01*
X1026464Y348868D01*
X1026414Y348799D01*
X1026361Y348731D01*
X1026306Y348666D01*
X1026247Y348603D01*
X1026186Y348544D01*
X1026123Y348486D01*
X1026056Y348432D01*
X1025988Y348381D01*
X1025917Y348333D01*
X1025844Y348288D01*
X1025770Y348246D01*
X1025693Y348208D01*
X1025615Y348173D01*
X1025536Y348141D01*
X1025455Y348113D01*
X1025373Y348089D01*
X1025289Y348068D01*
X1025206Y348051D01*
X1025121Y348038D01*
X1025036Y348029D01*
X1024951Y348023D01*
X1024865Y348021D01*
X1023038Y349326D02*
X1022959Y349493D01*
X1022884Y349662D01*
X1022813Y349833D01*
X1022746Y350005D01*
X1022684Y350179D01*
X1022625Y350355D01*
X1022571Y350531D01*
X1022521Y350709D01*
X1022475Y350889D01*
X1022433Y351069D01*
X1022396Y351250D01*
X1022363Y351432D01*
X1022334Y351614D01*
X1022310Y351798D01*
X1022290Y351982D01*
X1022275Y352166D01*
X1022264Y352350D01*
X1022257Y352535D01*
X1022255Y352720D01*
X1023037Y349326D02*
X1023067Y349246D01*
X1023100Y349167D01*
X1023137Y349090D01*
X1023177Y349014D01*
X1023220Y348940D01*
X1023266Y348868D01*
X1023316Y348799D01*
X1023369Y348731D01*
X1023424Y348666D01*
X1023483Y348603D01*
X1023544Y348544D01*
X1023607Y348486D01*
X1023674Y348432D01*
X1023742Y348381D01*
X1023813Y348333D01*
X1023886Y348288D01*
X1023960Y348246D01*
X1024037Y348208D01*
X1024115Y348173D01*
X1024195Y348141D01*
X1024275Y348113D01*
X1024357Y348089D01*
X1024441Y348068D01*
X1024524Y348051D01*
X1024609Y348038D01*
X1024694Y348029D01*
X1024779Y348023D01*
X1024865Y348021D01*
X1026954Y350109D02*
X1022777Y355331D01*
X51726Y348021D02*
X51637Y348023D01*
X51549Y348029D01*
X51461Y348038D01*
X51373Y348051D01*
X51286Y348068D01*
X51200Y348088D01*
X51115Y348113D01*
X51030Y348140D01*
X50947Y348172D01*
X50866Y348206D01*
X50786Y348245D01*
X50708Y348286D01*
X50631Y348331D01*
X50557Y348379D01*
X50484Y348430D01*
X50414Y348484D01*
X50347Y348542D01*
X50281Y348602D01*
X50219Y348664D01*
X50159Y348730D01*
X50101Y348797D01*
X50047Y348867D01*
X49996Y348940D01*
X49948Y349014D01*
X49903Y349091D01*
X49862Y349169D01*
X49823Y349249D01*
X49789Y349330D01*
X49757Y349413D01*
X49730Y349498D01*
X49705Y349583D01*
X49685Y349669D01*
X49668Y349756D01*
X49655Y349844D01*
X49646Y349932D01*
X49640Y350020D01*
X49638Y350109D01*
X51726Y348021D02*
X51855Y348023D01*
X51984Y348029D01*
X52113Y348038D01*
X52241Y348051D01*
X52369Y348068D01*
X52496Y348089D01*
X52623Y348113D01*
X52749Y348141D01*
X52874Y348173D01*
X52998Y348208D01*
X53121Y348247D01*
X53243Y348290D01*
X53363Y348336D01*
X53482Y348386D01*
X53600Y348439D01*
X53716Y348495D01*
X53830Y348555D01*
X53943Y348618D01*
X54053Y348685D01*
X54162Y348754D01*
X54268Y348827D01*
X54373Y348903D01*
X54475Y348982D01*
X54575Y349064D01*
X54672Y349148D01*
X54767Y349236D01*
X54859Y349326D01*
X54598Y355331D02*
X54596Y355420D01*
X54590Y355508D01*
X54581Y355596D01*
X54568Y355684D01*
X54551Y355771D01*
X54531Y355857D01*
X54506Y355942D01*
X54479Y356027D01*
X54447Y356110D01*
X54413Y356191D01*
X54374Y356271D01*
X54333Y356349D01*
X54288Y356426D01*
X54240Y356500D01*
X54189Y356573D01*
X54135Y356643D01*
X54077Y356710D01*
X54017Y356776D01*
X53955Y356838D01*
X53889Y356898D01*
X53822Y356956D01*
X53752Y357010D01*
X53679Y357061D01*
X53605Y357109D01*
X53528Y357154D01*
X53450Y357195D01*
X53370Y357234D01*
X53289Y357268D01*
X53206Y357300D01*
X53121Y357327D01*
X53036Y357352D01*
X52950Y357372D01*
X52863Y357389D01*
X52775Y357402D01*
X52687Y357411D01*
X52599Y357417D01*
X52510Y357419D01*
X52390Y357417D01*
X52270Y357412D01*
X52151Y357402D01*
X52031Y357390D01*
X51912Y357373D01*
X51794Y357353D01*
X51676Y357329D01*
X51560Y357302D01*
X51444Y357271D01*
X51329Y357237D01*
X51215Y357199D01*
X51102Y357157D01*
X50991Y357112D01*
X50881Y357064D01*
X50773Y357013D01*
X50666Y356958D01*
X50561Y356900D01*
X50458Y356838D01*
X50357Y356774D01*
X50257Y356706D01*
X50160Y356636D01*
X53554Y353504D02*
X53632Y353552D01*
X53708Y353604D01*
X53781Y353658D01*
X53852Y353716D01*
X53921Y353777D01*
X53987Y353841D01*
X54050Y353908D01*
X54110Y353977D01*
X54167Y354049D01*
X54221Y354123D01*
X54271Y354200D01*
X54319Y354279D01*
X54362Y354359D01*
X54403Y354442D01*
X54439Y354526D01*
X54472Y354611D01*
X54501Y354698D01*
X54527Y354787D01*
X54549Y354876D01*
X54566Y354966D01*
X54580Y355056D01*
X54590Y355148D01*
X54596Y355239D01*
X54598Y355331D01*
X50682Y351936D02*
X50604Y351888D01*
X50528Y351836D01*
X50455Y351782D01*
X50384Y351724D01*
X50315Y351663D01*
X50249Y351599D01*
X50186Y351532D01*
X50126Y351463D01*
X50069Y351391D01*
X50015Y351317D01*
X49965Y351240D01*
X49917Y351161D01*
X49874Y351081D01*
X49833Y350998D01*
X49797Y350914D01*
X49764Y350829D01*
X49735Y350742D01*
X49709Y350653D01*
X49687Y350564D01*
X49670Y350474D01*
X49656Y350384D01*
X49646Y350292D01*
X49640Y350201D01*
X49638Y350109D01*
X50682Y351937D02*
X53554Y353503D01*
X43931Y352198D02*
X40799Y352198D01*
X43931Y352198D02*
X44020Y352200D01*
X44108Y352206D01*
X44196Y352215D01*
X44284Y352228D01*
X44371Y352245D01*
X44457Y352265D01*
X44542Y352290D01*
X44627Y352317D01*
X44710Y352349D01*
X44791Y352383D01*
X44871Y352422D01*
X44949Y352463D01*
X45026Y352508D01*
X45100Y352556D01*
X45173Y352607D01*
X45243Y352661D01*
X45310Y352719D01*
X45376Y352779D01*
X45438Y352841D01*
X45498Y352907D01*
X45556Y352974D01*
X45610Y353044D01*
X45661Y353117D01*
X45709Y353191D01*
X45754Y353268D01*
X45795Y353346D01*
X45834Y353426D01*
X45868Y353507D01*
X45900Y353590D01*
X45927Y353675D01*
X45952Y353760D01*
X45972Y353846D01*
X45989Y353933D01*
X46002Y354021D01*
X46011Y354109D01*
X46017Y354197D01*
X46019Y354286D01*
X46020Y354286D02*
X46020Y354808D01*
X46018Y354909D01*
X46012Y355010D01*
X46002Y355111D01*
X45989Y355211D01*
X45971Y355311D01*
X45950Y355410D01*
X45924Y355508D01*
X45895Y355605D01*
X45863Y355701D01*
X45826Y355795D01*
X45786Y355888D01*
X45742Y355980D01*
X45695Y356069D01*
X45644Y356157D01*
X45590Y356243D01*
X45533Y356326D01*
X45473Y356408D01*
X45409Y356486D01*
X45343Y356563D01*
X45273Y356636D01*
X45201Y356707D01*
X45126Y356775D01*
X45048Y356840D01*
X44968Y356902D01*
X44886Y356961D01*
X44801Y357017D01*
X44715Y357069D01*
X44626Y357118D01*
X44535Y357164D01*
X44443Y357205D01*
X44349Y357244D01*
X44254Y357278D01*
X44158Y357309D01*
X44060Y357336D01*
X43962Y357360D01*
X43862Y357379D01*
X43762Y357395D01*
X43662Y357407D01*
X43561Y357415D01*
X43460Y357419D01*
X43358Y357419D01*
X43257Y357415D01*
X43156Y357407D01*
X43056Y357395D01*
X42956Y357379D01*
X42856Y357360D01*
X42758Y357336D01*
X42660Y357309D01*
X42564Y357278D01*
X42469Y357244D01*
X42375Y357205D01*
X42283Y357164D01*
X42192Y357118D01*
X42104Y357069D01*
X42017Y357017D01*
X41932Y356961D01*
X41850Y356902D01*
X41770Y356840D01*
X41692Y356775D01*
X41617Y356707D01*
X41545Y356636D01*
X41475Y356563D01*
X41409Y356486D01*
X41345Y356408D01*
X41285Y356326D01*
X41228Y356243D01*
X41174Y356157D01*
X41123Y356069D01*
X41076Y355980D01*
X41032Y355888D01*
X40992Y355795D01*
X40955Y355701D01*
X40923Y355605D01*
X40894Y355508D01*
X40868Y355410D01*
X40847Y355311D01*
X40829Y355211D01*
X40816Y355111D01*
X40806Y355010D01*
X40800Y354909D01*
X40798Y354808D01*
X40799Y354808D02*
X40799Y352198D01*
X40801Y352072D01*
X40807Y351946D01*
X40816Y351820D01*
X40829Y351695D01*
X40847Y351570D01*
X40867Y351445D01*
X40892Y351321D01*
X40920Y351198D01*
X40952Y351076D01*
X40988Y350955D01*
X41027Y350835D01*
X41070Y350717D01*
X41117Y350600D01*
X41167Y350484D01*
X41221Y350369D01*
X41277Y350257D01*
X41338Y350146D01*
X41401Y350037D01*
X41468Y349930D01*
X41538Y349825D01*
X41612Y349722D01*
X41688Y349622D01*
X41767Y349524D01*
X41849Y349428D01*
X41935Y349335D01*
X42022Y349244D01*
X42113Y349157D01*
X42206Y349071D01*
X42302Y348989D01*
X42400Y348910D01*
X42500Y348834D01*
X42603Y348760D01*
X42708Y348690D01*
X42815Y348623D01*
X42924Y348560D01*
X43035Y348499D01*
X43147Y348443D01*
X43262Y348389D01*
X43378Y348339D01*
X43495Y348292D01*
X43613Y348249D01*
X43733Y348210D01*
X43854Y348174D01*
X43976Y348142D01*
X44099Y348114D01*
X44223Y348089D01*
X44348Y348069D01*
X44473Y348051D01*
X44598Y348038D01*
X44724Y348029D01*
X44850Y348023D01*
X44976Y348021D01*
X147174Y380589D02*
X147176Y380500D01*
X147182Y380412D01*
X147191Y380324D01*
X147204Y380236D01*
X147221Y380149D01*
X147241Y380063D01*
X147266Y379978D01*
X147293Y379893D01*
X147325Y379810D01*
X147359Y379729D01*
X147398Y379649D01*
X147439Y379571D01*
X147484Y379494D01*
X147532Y379420D01*
X147583Y379347D01*
X147637Y379277D01*
X147695Y379210D01*
X147755Y379144D01*
X147817Y379082D01*
X147883Y379022D01*
X147950Y378964D01*
X148020Y378910D01*
X148093Y378859D01*
X148167Y378811D01*
X148244Y378766D01*
X148322Y378725D01*
X148402Y378686D01*
X148483Y378652D01*
X148566Y378620D01*
X148651Y378593D01*
X148736Y378568D01*
X148822Y378548D01*
X148909Y378531D01*
X148997Y378518D01*
X149085Y378509D01*
X149173Y378503D01*
X149262Y378501D01*
X149391Y378503D01*
X149520Y378509D01*
X149649Y378518D01*
X149777Y378531D01*
X149905Y378548D01*
X150032Y378569D01*
X150159Y378593D01*
X150285Y378621D01*
X150410Y378653D01*
X150534Y378688D01*
X150657Y378727D01*
X150779Y378770D01*
X150899Y378816D01*
X151018Y378866D01*
X151136Y378919D01*
X151252Y378975D01*
X151366Y379035D01*
X151479Y379098D01*
X151589Y379165D01*
X151698Y379234D01*
X151804Y379307D01*
X151909Y379383D01*
X152011Y379462D01*
X152111Y379544D01*
X152208Y379628D01*
X152303Y379716D01*
X152395Y379806D01*
X152134Y385811D02*
X152132Y385900D01*
X152126Y385988D01*
X152117Y386076D01*
X152104Y386164D01*
X152087Y386251D01*
X152067Y386337D01*
X152042Y386422D01*
X152015Y386507D01*
X151983Y386590D01*
X151949Y386671D01*
X151910Y386751D01*
X151869Y386829D01*
X151824Y386906D01*
X151776Y386980D01*
X151725Y387053D01*
X151671Y387123D01*
X151613Y387190D01*
X151553Y387256D01*
X151491Y387318D01*
X151425Y387378D01*
X151358Y387436D01*
X151288Y387490D01*
X151215Y387541D01*
X151141Y387589D01*
X151064Y387634D01*
X150986Y387675D01*
X150906Y387714D01*
X150825Y387748D01*
X150742Y387780D01*
X150657Y387807D01*
X150572Y387832D01*
X150486Y387852D01*
X150399Y387869D01*
X150311Y387882D01*
X150223Y387891D01*
X150135Y387897D01*
X150046Y387899D01*
X149926Y387897D01*
X149806Y387892D01*
X149687Y387882D01*
X149567Y387870D01*
X149448Y387853D01*
X149330Y387833D01*
X149212Y387809D01*
X149096Y387782D01*
X148980Y387751D01*
X148865Y387717D01*
X148751Y387679D01*
X148638Y387637D01*
X148527Y387592D01*
X148417Y387544D01*
X148309Y387493D01*
X148202Y387438D01*
X148097Y387380D01*
X147994Y387318D01*
X147893Y387254D01*
X147793Y387186D01*
X147696Y387116D01*
X151090Y383984D02*
X151168Y384032D01*
X151244Y384084D01*
X151317Y384138D01*
X151388Y384196D01*
X151457Y384257D01*
X151523Y384321D01*
X151586Y384388D01*
X151646Y384457D01*
X151703Y384529D01*
X151757Y384603D01*
X151807Y384680D01*
X151855Y384759D01*
X151898Y384839D01*
X151939Y384922D01*
X151975Y385006D01*
X152008Y385091D01*
X152037Y385178D01*
X152063Y385267D01*
X152085Y385356D01*
X152102Y385446D01*
X152116Y385536D01*
X152126Y385628D01*
X152132Y385719D01*
X152134Y385811D01*
X148218Y382416D02*
X148140Y382368D01*
X148064Y382316D01*
X147991Y382262D01*
X147920Y382204D01*
X147851Y382143D01*
X147785Y382079D01*
X147722Y382012D01*
X147662Y381943D01*
X147605Y381871D01*
X147551Y381797D01*
X147501Y381720D01*
X147453Y381641D01*
X147410Y381561D01*
X147369Y381478D01*
X147333Y381394D01*
X147300Y381309D01*
X147271Y381222D01*
X147245Y381133D01*
X147223Y381044D01*
X147206Y380954D01*
X147192Y380864D01*
X147182Y380772D01*
X147176Y380681D01*
X147174Y380589D01*
X148218Y382417D02*
X151090Y383983D01*
X143556Y381112D02*
X143554Y381213D01*
X143548Y381314D01*
X143538Y381415D01*
X143525Y381515D01*
X143507Y381615D01*
X143486Y381714D01*
X143460Y381812D01*
X143431Y381909D01*
X143399Y382005D01*
X143362Y382099D01*
X143322Y382192D01*
X143278Y382284D01*
X143231Y382373D01*
X143180Y382461D01*
X143126Y382547D01*
X143069Y382630D01*
X143009Y382712D01*
X142945Y382790D01*
X142879Y382867D01*
X142809Y382940D01*
X142737Y383011D01*
X142662Y383079D01*
X142584Y383144D01*
X142504Y383206D01*
X142422Y383265D01*
X142337Y383321D01*
X142251Y383373D01*
X142162Y383422D01*
X142071Y383468D01*
X141979Y383509D01*
X141885Y383548D01*
X141790Y383582D01*
X141694Y383613D01*
X141596Y383640D01*
X141498Y383664D01*
X141398Y383683D01*
X141298Y383699D01*
X141198Y383711D01*
X141097Y383719D01*
X140996Y383723D01*
X140894Y383723D01*
X140793Y383719D01*
X140692Y383711D01*
X140592Y383699D01*
X140492Y383683D01*
X140392Y383664D01*
X140294Y383640D01*
X140196Y383613D01*
X140100Y383582D01*
X140005Y383548D01*
X139911Y383509D01*
X139819Y383468D01*
X139728Y383422D01*
X139640Y383373D01*
X139553Y383321D01*
X139468Y383265D01*
X139386Y383206D01*
X139306Y383144D01*
X139228Y383079D01*
X139153Y383011D01*
X139081Y382940D01*
X139011Y382867D01*
X138945Y382790D01*
X138881Y382712D01*
X138821Y382630D01*
X138764Y382547D01*
X138710Y382461D01*
X138659Y382373D01*
X138612Y382284D01*
X138568Y382192D01*
X138528Y382099D01*
X138491Y382005D01*
X138459Y381909D01*
X138430Y381812D01*
X138404Y381714D01*
X138383Y381615D01*
X138365Y381515D01*
X138352Y381415D01*
X138342Y381314D01*
X138336Y381213D01*
X138334Y381112D01*
X138336Y381011D01*
X138342Y380910D01*
X138352Y380809D01*
X138365Y380709D01*
X138383Y380609D01*
X138404Y380510D01*
X138430Y380412D01*
X138459Y380315D01*
X138491Y380219D01*
X138528Y380125D01*
X138568Y380032D01*
X138612Y379940D01*
X138659Y379851D01*
X138710Y379763D01*
X138764Y379677D01*
X138821Y379594D01*
X138881Y379512D01*
X138945Y379434D01*
X139011Y379357D01*
X139081Y379284D01*
X139153Y379213D01*
X139228Y379145D01*
X139306Y379080D01*
X139386Y379018D01*
X139468Y378959D01*
X139553Y378903D01*
X139640Y378851D01*
X139728Y378802D01*
X139819Y378756D01*
X139911Y378715D01*
X140005Y378676D01*
X140100Y378642D01*
X140196Y378611D01*
X140294Y378584D01*
X140392Y378560D01*
X140492Y378541D01*
X140592Y378525D01*
X140692Y378513D01*
X140793Y378505D01*
X140894Y378501D01*
X140996Y378501D01*
X141097Y378505D01*
X141198Y378513D01*
X141298Y378525D01*
X141398Y378541D01*
X141498Y378560D01*
X141596Y378584D01*
X141694Y378611D01*
X141790Y378642D01*
X141885Y378676D01*
X141979Y378715D01*
X142071Y378756D01*
X142162Y378802D01*
X142250Y378851D01*
X142337Y378903D01*
X142422Y378959D01*
X142504Y379018D01*
X142584Y379080D01*
X142662Y379145D01*
X142737Y379213D01*
X142809Y379284D01*
X142879Y379357D01*
X142945Y379434D01*
X143009Y379512D01*
X143069Y379594D01*
X143126Y379677D01*
X143180Y379763D01*
X143231Y379851D01*
X143278Y379940D01*
X143322Y380032D01*
X143362Y380125D01*
X143399Y380219D01*
X143431Y380315D01*
X143460Y380412D01*
X143486Y380510D01*
X143507Y380609D01*
X143525Y380709D01*
X143538Y380809D01*
X143548Y380910D01*
X143554Y381011D01*
X143556Y381112D01*
X143033Y385811D02*
X143031Y385901D01*
X143025Y385990D01*
X143016Y386080D01*
X143002Y386169D01*
X142985Y386257D01*
X142964Y386344D01*
X142939Y386431D01*
X142910Y386516D01*
X142878Y386600D01*
X142843Y386682D01*
X142803Y386763D01*
X142761Y386842D01*
X142715Y386919D01*
X142665Y386994D01*
X142613Y387067D01*
X142557Y387138D01*
X142499Y387206D01*
X142437Y387271D01*
X142373Y387334D01*
X142306Y387394D01*
X142237Y387451D01*
X142165Y387505D01*
X142091Y387556D01*
X142015Y387604D01*
X141937Y387648D01*
X141857Y387689D01*
X141775Y387727D01*
X141692Y387761D01*
X141607Y387791D01*
X141521Y387818D01*
X141435Y387841D01*
X141347Y387860D01*
X141258Y387875D01*
X141169Y387887D01*
X141080Y387895D01*
X140990Y387899D01*
X140900Y387899D01*
X140810Y387895D01*
X140721Y387887D01*
X140632Y387875D01*
X140543Y387860D01*
X140455Y387841D01*
X140369Y387818D01*
X140283Y387791D01*
X140198Y387761D01*
X140115Y387727D01*
X140033Y387689D01*
X139953Y387648D01*
X139875Y387604D01*
X139799Y387556D01*
X139725Y387505D01*
X139653Y387451D01*
X139584Y387394D01*
X139517Y387334D01*
X139453Y387271D01*
X139391Y387206D01*
X139333Y387138D01*
X139277Y387067D01*
X139225Y386994D01*
X139175Y386919D01*
X139129Y386842D01*
X139087Y386763D01*
X139047Y386682D01*
X139012Y386600D01*
X138980Y386516D01*
X138951Y386431D01*
X138926Y386344D01*
X138905Y386257D01*
X138888Y386169D01*
X138874Y386080D01*
X138865Y385990D01*
X138859Y385901D01*
X138857Y385811D01*
X138859Y385721D01*
X138865Y385632D01*
X138874Y385542D01*
X138888Y385453D01*
X138905Y385365D01*
X138926Y385278D01*
X138951Y385191D01*
X138980Y385106D01*
X139012Y385022D01*
X139047Y384940D01*
X139087Y384859D01*
X139129Y384780D01*
X139175Y384703D01*
X139225Y384628D01*
X139277Y384555D01*
X139333Y384484D01*
X139391Y384416D01*
X139453Y384351D01*
X139517Y384288D01*
X139584Y384228D01*
X139653Y384171D01*
X139725Y384117D01*
X139799Y384066D01*
X139875Y384018D01*
X139953Y383974D01*
X140033Y383933D01*
X140115Y383895D01*
X140198Y383861D01*
X140283Y383831D01*
X140369Y383804D01*
X140455Y383781D01*
X140543Y383762D01*
X140632Y383747D01*
X140721Y383735D01*
X140810Y383727D01*
X140900Y383723D01*
X140990Y383723D01*
X141080Y383727D01*
X141169Y383735D01*
X141258Y383747D01*
X141347Y383762D01*
X141435Y383781D01*
X141521Y383804D01*
X141607Y383831D01*
X141692Y383861D01*
X141775Y383895D01*
X141857Y383933D01*
X141937Y383974D01*
X142015Y384018D01*
X142091Y384066D01*
X142165Y384117D01*
X142237Y384171D01*
X142306Y384228D01*
X142373Y384288D01*
X142437Y384351D01*
X142499Y384416D01*
X142557Y384484D01*
X142613Y384555D01*
X142665Y384628D01*
X142715Y384703D01*
X142761Y384780D01*
X142803Y384859D01*
X142843Y384940D01*
X142878Y385022D01*
X142910Y385106D01*
X142939Y385191D01*
X142964Y385278D01*
X142985Y385365D01*
X143002Y385453D01*
X143016Y385542D01*
X143025Y385632D01*
X143031Y385721D01*
X143033Y385811D01*
X250806Y404973D02*
X250808Y404884D01*
X250814Y404796D01*
X250823Y404708D01*
X250836Y404620D01*
X250853Y404533D01*
X250873Y404447D01*
X250898Y404362D01*
X250925Y404277D01*
X250957Y404194D01*
X250991Y404113D01*
X251030Y404033D01*
X251071Y403955D01*
X251116Y403878D01*
X251164Y403804D01*
X251215Y403731D01*
X251269Y403661D01*
X251327Y403594D01*
X251387Y403528D01*
X251449Y403466D01*
X251515Y403406D01*
X251582Y403348D01*
X251652Y403294D01*
X251725Y403243D01*
X251799Y403195D01*
X251876Y403150D01*
X251954Y403109D01*
X252034Y403070D01*
X252115Y403036D01*
X252198Y403004D01*
X252283Y402977D01*
X252368Y402952D01*
X252454Y402932D01*
X252541Y402915D01*
X252629Y402902D01*
X252717Y402893D01*
X252805Y402887D01*
X252894Y402885D01*
X253023Y402887D01*
X253152Y402893D01*
X253281Y402902D01*
X253409Y402915D01*
X253537Y402932D01*
X253664Y402953D01*
X253791Y402977D01*
X253917Y403005D01*
X254042Y403037D01*
X254166Y403072D01*
X254289Y403111D01*
X254411Y403154D01*
X254531Y403200D01*
X254650Y403250D01*
X254768Y403303D01*
X254884Y403359D01*
X254998Y403419D01*
X255111Y403482D01*
X255221Y403549D01*
X255330Y403618D01*
X255436Y403691D01*
X255541Y403767D01*
X255643Y403846D01*
X255743Y403928D01*
X255840Y404012D01*
X255935Y404100D01*
X256027Y404190D01*
X255766Y410195D02*
X255764Y410284D01*
X255758Y410372D01*
X255749Y410460D01*
X255736Y410548D01*
X255719Y410635D01*
X255699Y410721D01*
X255674Y410806D01*
X255647Y410891D01*
X255615Y410974D01*
X255581Y411055D01*
X255542Y411135D01*
X255501Y411213D01*
X255456Y411290D01*
X255408Y411364D01*
X255357Y411437D01*
X255303Y411507D01*
X255245Y411574D01*
X255185Y411640D01*
X255123Y411702D01*
X255057Y411762D01*
X254990Y411820D01*
X254920Y411874D01*
X254847Y411925D01*
X254773Y411973D01*
X254696Y412018D01*
X254618Y412059D01*
X254538Y412098D01*
X254457Y412132D01*
X254374Y412164D01*
X254289Y412191D01*
X254204Y412216D01*
X254118Y412236D01*
X254031Y412253D01*
X253943Y412266D01*
X253855Y412275D01*
X253767Y412281D01*
X253678Y412283D01*
X253558Y412281D01*
X253438Y412276D01*
X253319Y412266D01*
X253199Y412254D01*
X253080Y412237D01*
X252962Y412217D01*
X252844Y412193D01*
X252728Y412166D01*
X252612Y412135D01*
X252497Y412101D01*
X252383Y412063D01*
X252270Y412021D01*
X252159Y411976D01*
X252049Y411928D01*
X251941Y411877D01*
X251834Y411822D01*
X251729Y411764D01*
X251626Y411702D01*
X251525Y411638D01*
X251425Y411570D01*
X251328Y411500D01*
X254722Y408368D02*
X254800Y408416D01*
X254876Y408468D01*
X254949Y408522D01*
X255020Y408580D01*
X255089Y408641D01*
X255155Y408705D01*
X255218Y408772D01*
X255278Y408841D01*
X255335Y408913D01*
X255389Y408987D01*
X255439Y409064D01*
X255487Y409143D01*
X255530Y409223D01*
X255571Y409306D01*
X255607Y409390D01*
X255640Y409475D01*
X255669Y409562D01*
X255695Y409651D01*
X255717Y409740D01*
X255734Y409830D01*
X255748Y409920D01*
X255758Y410012D01*
X255764Y410103D01*
X255766Y410195D01*
X251850Y406800D02*
X251772Y406752D01*
X251696Y406700D01*
X251623Y406646D01*
X251552Y406588D01*
X251483Y406527D01*
X251417Y406463D01*
X251354Y406396D01*
X251294Y406327D01*
X251237Y406255D01*
X251183Y406181D01*
X251133Y406104D01*
X251085Y406025D01*
X251042Y405945D01*
X251001Y405862D01*
X250965Y405778D01*
X250932Y405693D01*
X250903Y405606D01*
X250877Y405517D01*
X250855Y405428D01*
X250838Y405338D01*
X250824Y405248D01*
X250814Y405156D01*
X250808Y405065D01*
X250806Y404973D01*
X251850Y406801D02*
X254722Y408367D01*
X247188Y411239D02*
X247188Y412283D01*
X241967Y412283D01*
X244577Y402885D01*
X351390Y414117D02*
X351392Y414028D01*
X351398Y413940D01*
X351407Y413852D01*
X351420Y413764D01*
X351437Y413677D01*
X351457Y413591D01*
X351482Y413506D01*
X351509Y413421D01*
X351541Y413338D01*
X351575Y413257D01*
X351614Y413177D01*
X351655Y413099D01*
X351700Y413022D01*
X351748Y412948D01*
X351799Y412875D01*
X351853Y412805D01*
X351911Y412738D01*
X351971Y412672D01*
X352033Y412610D01*
X352099Y412550D01*
X352166Y412492D01*
X352236Y412438D01*
X352309Y412387D01*
X352383Y412339D01*
X352460Y412294D01*
X352538Y412253D01*
X352618Y412214D01*
X352699Y412180D01*
X352782Y412148D01*
X352867Y412121D01*
X352952Y412096D01*
X353038Y412076D01*
X353125Y412059D01*
X353213Y412046D01*
X353301Y412037D01*
X353389Y412031D01*
X353478Y412029D01*
X353607Y412031D01*
X353736Y412037D01*
X353865Y412046D01*
X353993Y412059D01*
X354121Y412076D01*
X354248Y412097D01*
X354375Y412121D01*
X354501Y412149D01*
X354626Y412181D01*
X354750Y412216D01*
X354873Y412255D01*
X354995Y412298D01*
X355115Y412344D01*
X355234Y412394D01*
X355352Y412447D01*
X355468Y412503D01*
X355582Y412563D01*
X355695Y412626D01*
X355805Y412693D01*
X355914Y412762D01*
X356020Y412835D01*
X356125Y412911D01*
X356227Y412990D01*
X356327Y413072D01*
X356424Y413156D01*
X356519Y413244D01*
X356611Y413334D01*
X356350Y419339D02*
X356348Y419428D01*
X356342Y419516D01*
X356333Y419604D01*
X356320Y419692D01*
X356303Y419779D01*
X356283Y419865D01*
X356258Y419950D01*
X356231Y420035D01*
X356199Y420118D01*
X356165Y420199D01*
X356126Y420279D01*
X356085Y420357D01*
X356040Y420434D01*
X355992Y420508D01*
X355941Y420581D01*
X355887Y420651D01*
X355829Y420718D01*
X355769Y420784D01*
X355707Y420846D01*
X355641Y420906D01*
X355574Y420964D01*
X355504Y421018D01*
X355431Y421069D01*
X355357Y421117D01*
X355280Y421162D01*
X355202Y421203D01*
X355122Y421242D01*
X355041Y421276D01*
X354958Y421308D01*
X354873Y421335D01*
X354788Y421360D01*
X354702Y421380D01*
X354615Y421397D01*
X354527Y421410D01*
X354439Y421419D01*
X354351Y421425D01*
X354262Y421427D01*
X354142Y421425D01*
X354022Y421420D01*
X353903Y421410D01*
X353783Y421398D01*
X353664Y421381D01*
X353546Y421361D01*
X353428Y421337D01*
X353312Y421310D01*
X353196Y421279D01*
X353081Y421245D01*
X352967Y421207D01*
X352854Y421165D01*
X352743Y421120D01*
X352633Y421072D01*
X352525Y421021D01*
X352418Y420966D01*
X352313Y420908D01*
X352210Y420846D01*
X352109Y420782D01*
X352009Y420714D01*
X351912Y420644D01*
X355306Y417512D02*
X355384Y417560D01*
X355460Y417612D01*
X355533Y417666D01*
X355604Y417724D01*
X355673Y417785D01*
X355739Y417849D01*
X355802Y417916D01*
X355862Y417985D01*
X355919Y418057D01*
X355973Y418131D01*
X356023Y418208D01*
X356071Y418287D01*
X356114Y418367D01*
X356155Y418450D01*
X356191Y418534D01*
X356224Y418619D01*
X356253Y418706D01*
X356279Y418795D01*
X356301Y418884D01*
X356318Y418974D01*
X356332Y419064D01*
X356342Y419156D01*
X356348Y419247D01*
X356350Y419339D01*
X352434Y415944D02*
X352356Y415896D01*
X352280Y415844D01*
X352207Y415790D01*
X352136Y415732D01*
X352067Y415671D01*
X352001Y415607D01*
X351938Y415540D01*
X351878Y415471D01*
X351821Y415399D01*
X351767Y415325D01*
X351717Y415248D01*
X351669Y415169D01*
X351626Y415089D01*
X351585Y415006D01*
X351549Y414922D01*
X351516Y414837D01*
X351487Y414750D01*
X351461Y414661D01*
X351439Y414572D01*
X351422Y414482D01*
X351408Y414392D01*
X351398Y414300D01*
X351392Y414209D01*
X351390Y414117D01*
X352434Y415945D02*
X355306Y417511D01*
X347772Y417250D02*
X344639Y417250D01*
X344550Y417248D01*
X344462Y417242D01*
X344374Y417233D01*
X344286Y417220D01*
X344199Y417203D01*
X344113Y417183D01*
X344028Y417158D01*
X343943Y417131D01*
X343860Y417099D01*
X343779Y417065D01*
X343699Y417026D01*
X343621Y416985D01*
X343544Y416940D01*
X343470Y416892D01*
X343397Y416841D01*
X343327Y416787D01*
X343260Y416729D01*
X343194Y416669D01*
X343132Y416607D01*
X343072Y416541D01*
X343014Y416474D01*
X342960Y416404D01*
X342909Y416331D01*
X342861Y416257D01*
X342816Y416180D01*
X342775Y416102D01*
X342736Y416022D01*
X342702Y415941D01*
X342670Y415858D01*
X342643Y415773D01*
X342618Y415688D01*
X342598Y415602D01*
X342581Y415515D01*
X342568Y415427D01*
X342559Y415339D01*
X342553Y415251D01*
X342551Y415162D01*
X342551Y414640D01*
X342550Y414640D02*
X342552Y414539D01*
X342558Y414438D01*
X342568Y414337D01*
X342581Y414237D01*
X342599Y414137D01*
X342620Y414038D01*
X342646Y413940D01*
X342675Y413843D01*
X342707Y413747D01*
X342744Y413653D01*
X342784Y413560D01*
X342828Y413468D01*
X342875Y413379D01*
X342926Y413291D01*
X342980Y413205D01*
X343037Y413122D01*
X343097Y413040D01*
X343161Y412962D01*
X343227Y412885D01*
X343297Y412812D01*
X343369Y412741D01*
X343444Y412673D01*
X343522Y412608D01*
X343602Y412546D01*
X343684Y412487D01*
X343769Y412431D01*
X343856Y412379D01*
X343944Y412330D01*
X344035Y412284D01*
X344127Y412243D01*
X344221Y412204D01*
X344316Y412170D01*
X344412Y412139D01*
X344510Y412112D01*
X344608Y412088D01*
X344708Y412069D01*
X344808Y412053D01*
X344908Y412041D01*
X345009Y412033D01*
X345110Y412029D01*
X345212Y412029D01*
X345313Y412033D01*
X345414Y412041D01*
X345514Y412053D01*
X345614Y412069D01*
X345714Y412088D01*
X345812Y412112D01*
X345910Y412139D01*
X346006Y412170D01*
X346101Y412204D01*
X346195Y412243D01*
X346287Y412284D01*
X346378Y412330D01*
X346466Y412379D01*
X346553Y412431D01*
X346638Y412487D01*
X346720Y412546D01*
X346800Y412608D01*
X346878Y412673D01*
X346953Y412741D01*
X347025Y412812D01*
X347095Y412885D01*
X347161Y412962D01*
X347225Y413040D01*
X347285Y413122D01*
X347342Y413205D01*
X347396Y413291D01*
X347447Y413379D01*
X347494Y413468D01*
X347538Y413560D01*
X347578Y413653D01*
X347615Y413747D01*
X347647Y413843D01*
X347676Y413940D01*
X347702Y414038D01*
X347723Y414137D01*
X347741Y414237D01*
X347754Y414337D01*
X347764Y414438D01*
X347770Y414539D01*
X347772Y414640D01*
X347772Y417250D01*
X347770Y417376D01*
X347764Y417502D01*
X347755Y417628D01*
X347742Y417753D01*
X347724Y417878D01*
X347704Y418003D01*
X347679Y418127D01*
X347651Y418250D01*
X347619Y418372D01*
X347583Y418493D01*
X347544Y418613D01*
X347501Y418731D01*
X347454Y418848D01*
X347404Y418964D01*
X347350Y419079D01*
X347294Y419191D01*
X347233Y419302D01*
X347170Y419411D01*
X347103Y419518D01*
X347033Y419623D01*
X346959Y419726D01*
X346883Y419826D01*
X346804Y419924D01*
X346722Y420020D01*
X346636Y420113D01*
X346549Y420204D01*
X346458Y420291D01*
X346365Y420377D01*
X346269Y420459D01*
X346171Y420538D01*
X346071Y420614D01*
X345968Y420688D01*
X345863Y420758D01*
X345756Y420825D01*
X345647Y420888D01*
X345536Y420949D01*
X345424Y421005D01*
X345309Y421059D01*
X345193Y421109D01*
X345076Y421156D01*
X344958Y421199D01*
X344838Y421238D01*
X344717Y421274D01*
X344595Y421306D01*
X344472Y421334D01*
X344348Y421359D01*
X344223Y421379D01*
X344098Y421397D01*
X343973Y421410D01*
X343847Y421419D01*
X343721Y421425D01*
X343595Y421427D01*
X451974Y426309D02*
X451976Y426220D01*
X451982Y426132D01*
X451991Y426044D01*
X452004Y425956D01*
X452021Y425869D01*
X452041Y425783D01*
X452066Y425698D01*
X452093Y425613D01*
X452125Y425530D01*
X452159Y425449D01*
X452198Y425369D01*
X452239Y425291D01*
X452284Y425214D01*
X452332Y425140D01*
X452383Y425067D01*
X452437Y424997D01*
X452495Y424930D01*
X452555Y424864D01*
X452617Y424802D01*
X452683Y424742D01*
X452750Y424684D01*
X452820Y424630D01*
X452893Y424579D01*
X452967Y424531D01*
X453044Y424486D01*
X453122Y424445D01*
X453202Y424406D01*
X453283Y424372D01*
X453366Y424340D01*
X453451Y424313D01*
X453536Y424288D01*
X453622Y424268D01*
X453709Y424251D01*
X453797Y424238D01*
X453885Y424229D01*
X453973Y424223D01*
X454062Y424221D01*
X454191Y424223D01*
X454320Y424229D01*
X454449Y424238D01*
X454577Y424251D01*
X454705Y424268D01*
X454832Y424289D01*
X454959Y424313D01*
X455085Y424341D01*
X455210Y424373D01*
X455334Y424408D01*
X455457Y424447D01*
X455579Y424490D01*
X455699Y424536D01*
X455818Y424586D01*
X455936Y424639D01*
X456052Y424695D01*
X456166Y424755D01*
X456279Y424818D01*
X456389Y424885D01*
X456498Y424954D01*
X456604Y425027D01*
X456709Y425103D01*
X456811Y425182D01*
X456911Y425264D01*
X457008Y425348D01*
X457103Y425436D01*
X457195Y425526D01*
X456934Y431531D02*
X456932Y431620D01*
X456926Y431708D01*
X456917Y431796D01*
X456904Y431884D01*
X456887Y431971D01*
X456867Y432057D01*
X456842Y432142D01*
X456815Y432227D01*
X456783Y432310D01*
X456749Y432391D01*
X456710Y432471D01*
X456669Y432549D01*
X456624Y432626D01*
X456576Y432700D01*
X456525Y432773D01*
X456471Y432843D01*
X456413Y432910D01*
X456353Y432976D01*
X456291Y433038D01*
X456225Y433098D01*
X456158Y433156D01*
X456088Y433210D01*
X456015Y433261D01*
X455941Y433309D01*
X455864Y433354D01*
X455786Y433395D01*
X455706Y433434D01*
X455625Y433468D01*
X455542Y433500D01*
X455457Y433527D01*
X455372Y433552D01*
X455286Y433572D01*
X455199Y433589D01*
X455111Y433602D01*
X455023Y433611D01*
X454935Y433617D01*
X454846Y433619D01*
X454726Y433617D01*
X454606Y433612D01*
X454487Y433602D01*
X454367Y433590D01*
X454248Y433573D01*
X454130Y433553D01*
X454012Y433529D01*
X453896Y433502D01*
X453780Y433471D01*
X453665Y433437D01*
X453551Y433399D01*
X453438Y433357D01*
X453327Y433312D01*
X453217Y433264D01*
X453109Y433213D01*
X453002Y433158D01*
X452897Y433100D01*
X452794Y433038D01*
X452693Y432974D01*
X452593Y432906D01*
X452496Y432836D01*
X455890Y429704D02*
X455968Y429752D01*
X456044Y429804D01*
X456117Y429858D01*
X456188Y429916D01*
X456257Y429977D01*
X456323Y430041D01*
X456386Y430108D01*
X456446Y430177D01*
X456503Y430249D01*
X456557Y430323D01*
X456607Y430400D01*
X456655Y430479D01*
X456698Y430559D01*
X456739Y430642D01*
X456775Y430726D01*
X456808Y430811D01*
X456837Y430898D01*
X456863Y430987D01*
X456885Y431076D01*
X456902Y431166D01*
X456916Y431256D01*
X456926Y431348D01*
X456932Y431439D01*
X456934Y431531D01*
X453018Y428136D02*
X452940Y428088D01*
X452864Y428036D01*
X452791Y427982D01*
X452720Y427924D01*
X452651Y427863D01*
X452585Y427799D01*
X452522Y427732D01*
X452462Y427663D01*
X452405Y427591D01*
X452351Y427517D01*
X452301Y427440D01*
X452253Y427361D01*
X452210Y427281D01*
X452169Y427198D01*
X452133Y427114D01*
X452100Y427029D01*
X452071Y426942D01*
X452045Y426853D01*
X452023Y426764D01*
X452006Y426674D01*
X451992Y426584D01*
X451982Y426492D01*
X451976Y426401D01*
X451974Y426309D01*
X453018Y428137D02*
X455890Y429703D01*
X448356Y424221D02*
X445223Y424221D01*
X445134Y424223D01*
X445046Y424229D01*
X444958Y424238D01*
X444870Y424251D01*
X444783Y424268D01*
X444697Y424288D01*
X444612Y424313D01*
X444527Y424340D01*
X444444Y424372D01*
X444363Y424406D01*
X444283Y424445D01*
X444205Y424486D01*
X444128Y424531D01*
X444054Y424579D01*
X443981Y424630D01*
X443911Y424684D01*
X443844Y424742D01*
X443778Y424802D01*
X443716Y424864D01*
X443656Y424930D01*
X443598Y424997D01*
X443544Y425067D01*
X443493Y425140D01*
X443445Y425214D01*
X443400Y425291D01*
X443359Y425369D01*
X443320Y425449D01*
X443286Y425530D01*
X443254Y425613D01*
X443227Y425698D01*
X443202Y425783D01*
X443182Y425869D01*
X443165Y425956D01*
X443152Y426044D01*
X443143Y426132D01*
X443137Y426220D01*
X443135Y426309D01*
X443135Y427354D01*
X443137Y427443D01*
X443143Y427531D01*
X443152Y427619D01*
X443165Y427707D01*
X443182Y427794D01*
X443202Y427880D01*
X443227Y427965D01*
X443254Y428050D01*
X443286Y428133D01*
X443320Y428214D01*
X443359Y428294D01*
X443400Y428372D01*
X443445Y428449D01*
X443493Y428523D01*
X443544Y428596D01*
X443598Y428666D01*
X443656Y428733D01*
X443716Y428799D01*
X443778Y428861D01*
X443844Y428921D01*
X443911Y428979D01*
X443981Y429033D01*
X444054Y429084D01*
X444128Y429132D01*
X444205Y429177D01*
X444283Y429218D01*
X444363Y429257D01*
X444444Y429291D01*
X444527Y429323D01*
X444612Y429350D01*
X444697Y429375D01*
X444783Y429395D01*
X444870Y429412D01*
X444958Y429425D01*
X445046Y429434D01*
X445134Y429440D01*
X445223Y429442D01*
X448356Y429442D01*
X448356Y433619D01*
X443135Y433619D01*
X631806Y423261D02*
X631808Y423172D01*
X631814Y423084D01*
X631823Y422996D01*
X631836Y422908D01*
X631853Y422821D01*
X631873Y422735D01*
X631898Y422650D01*
X631925Y422565D01*
X631957Y422482D01*
X631991Y422401D01*
X632030Y422321D01*
X632071Y422243D01*
X632116Y422166D01*
X632164Y422092D01*
X632215Y422019D01*
X632269Y421949D01*
X632327Y421882D01*
X632387Y421816D01*
X632449Y421754D01*
X632515Y421694D01*
X632582Y421636D01*
X632652Y421582D01*
X632725Y421531D01*
X632799Y421483D01*
X632876Y421438D01*
X632954Y421397D01*
X633034Y421358D01*
X633115Y421324D01*
X633198Y421292D01*
X633283Y421265D01*
X633368Y421240D01*
X633454Y421220D01*
X633541Y421203D01*
X633629Y421190D01*
X633717Y421181D01*
X633805Y421175D01*
X633894Y421173D01*
X634023Y421175D01*
X634152Y421181D01*
X634281Y421190D01*
X634409Y421203D01*
X634537Y421220D01*
X634664Y421241D01*
X634791Y421265D01*
X634917Y421293D01*
X635042Y421325D01*
X635166Y421360D01*
X635289Y421399D01*
X635411Y421442D01*
X635531Y421488D01*
X635650Y421538D01*
X635768Y421591D01*
X635884Y421647D01*
X635998Y421707D01*
X636111Y421770D01*
X636221Y421837D01*
X636330Y421906D01*
X636436Y421979D01*
X636541Y422055D01*
X636643Y422134D01*
X636743Y422216D01*
X636840Y422300D01*
X636935Y422388D01*
X637027Y422478D01*
X636766Y428483D02*
X636764Y428572D01*
X636758Y428660D01*
X636749Y428748D01*
X636736Y428836D01*
X636719Y428923D01*
X636699Y429009D01*
X636674Y429094D01*
X636647Y429179D01*
X636615Y429262D01*
X636581Y429343D01*
X636542Y429423D01*
X636501Y429501D01*
X636456Y429578D01*
X636408Y429652D01*
X636357Y429725D01*
X636303Y429795D01*
X636245Y429862D01*
X636185Y429928D01*
X636123Y429990D01*
X636057Y430050D01*
X635990Y430108D01*
X635920Y430162D01*
X635847Y430213D01*
X635773Y430261D01*
X635696Y430306D01*
X635618Y430347D01*
X635538Y430386D01*
X635457Y430420D01*
X635374Y430452D01*
X635289Y430479D01*
X635204Y430504D01*
X635118Y430524D01*
X635031Y430541D01*
X634943Y430554D01*
X634855Y430563D01*
X634767Y430569D01*
X634678Y430571D01*
X634558Y430569D01*
X634438Y430564D01*
X634319Y430554D01*
X634199Y430542D01*
X634080Y430525D01*
X633962Y430505D01*
X633844Y430481D01*
X633728Y430454D01*
X633612Y430423D01*
X633497Y430389D01*
X633383Y430351D01*
X633270Y430309D01*
X633159Y430264D01*
X633049Y430216D01*
X632941Y430165D01*
X632834Y430110D01*
X632729Y430052D01*
X632626Y429990D01*
X632525Y429926D01*
X632425Y429858D01*
X632328Y429788D01*
X635722Y426656D02*
X635800Y426704D01*
X635876Y426756D01*
X635949Y426810D01*
X636020Y426868D01*
X636089Y426929D01*
X636155Y426993D01*
X636218Y427060D01*
X636278Y427129D01*
X636335Y427201D01*
X636389Y427275D01*
X636439Y427352D01*
X636487Y427431D01*
X636530Y427511D01*
X636571Y427594D01*
X636607Y427678D01*
X636640Y427763D01*
X636669Y427850D01*
X636695Y427939D01*
X636717Y428028D01*
X636734Y428118D01*
X636748Y428208D01*
X636758Y428300D01*
X636764Y428391D01*
X636766Y428483D01*
X632850Y425088D02*
X632772Y425040D01*
X632696Y424988D01*
X632623Y424934D01*
X632552Y424876D01*
X632483Y424815D01*
X632417Y424751D01*
X632354Y424684D01*
X632294Y424615D01*
X632237Y424543D01*
X632183Y424469D01*
X632133Y424392D01*
X632085Y424313D01*
X632042Y424233D01*
X632001Y424150D01*
X631965Y424066D01*
X631932Y423981D01*
X631903Y423894D01*
X631877Y423805D01*
X631855Y423716D01*
X631838Y423626D01*
X631824Y423536D01*
X631814Y423444D01*
X631808Y423353D01*
X631806Y423261D01*
X632850Y425089D02*
X635722Y426655D01*
X628188Y423261D02*
X626099Y430571D01*
X628188Y423261D02*
X622967Y423261D01*
X624533Y425350D02*
X624533Y421173D01*
X738486Y411069D02*
X738488Y410980D01*
X738494Y410892D01*
X738503Y410804D01*
X738516Y410716D01*
X738533Y410629D01*
X738553Y410543D01*
X738578Y410458D01*
X738605Y410373D01*
X738637Y410290D01*
X738671Y410209D01*
X738710Y410129D01*
X738751Y410051D01*
X738796Y409974D01*
X738844Y409900D01*
X738895Y409827D01*
X738949Y409757D01*
X739007Y409690D01*
X739067Y409624D01*
X739129Y409562D01*
X739195Y409502D01*
X739262Y409444D01*
X739332Y409390D01*
X739405Y409339D01*
X739479Y409291D01*
X739556Y409246D01*
X739634Y409205D01*
X739714Y409166D01*
X739795Y409132D01*
X739878Y409100D01*
X739963Y409073D01*
X740048Y409048D01*
X740134Y409028D01*
X740221Y409011D01*
X740309Y408998D01*
X740397Y408989D01*
X740485Y408983D01*
X740574Y408981D01*
X740703Y408983D01*
X740832Y408989D01*
X740961Y408998D01*
X741089Y409011D01*
X741217Y409028D01*
X741344Y409049D01*
X741471Y409073D01*
X741597Y409101D01*
X741722Y409133D01*
X741846Y409168D01*
X741969Y409207D01*
X742091Y409250D01*
X742211Y409296D01*
X742330Y409346D01*
X742448Y409399D01*
X742564Y409455D01*
X742678Y409515D01*
X742791Y409578D01*
X742901Y409645D01*
X743010Y409714D01*
X743116Y409787D01*
X743221Y409863D01*
X743323Y409942D01*
X743423Y410024D01*
X743520Y410108D01*
X743615Y410196D01*
X743707Y410286D01*
X743446Y416291D02*
X743444Y416380D01*
X743438Y416468D01*
X743429Y416556D01*
X743416Y416644D01*
X743399Y416731D01*
X743379Y416817D01*
X743354Y416902D01*
X743327Y416987D01*
X743295Y417070D01*
X743261Y417151D01*
X743222Y417231D01*
X743181Y417309D01*
X743136Y417386D01*
X743088Y417460D01*
X743037Y417533D01*
X742983Y417603D01*
X742925Y417670D01*
X742865Y417736D01*
X742803Y417798D01*
X742737Y417858D01*
X742670Y417916D01*
X742600Y417970D01*
X742527Y418021D01*
X742453Y418069D01*
X742376Y418114D01*
X742298Y418155D01*
X742218Y418194D01*
X742137Y418228D01*
X742054Y418260D01*
X741969Y418287D01*
X741884Y418312D01*
X741798Y418332D01*
X741711Y418349D01*
X741623Y418362D01*
X741535Y418371D01*
X741447Y418377D01*
X741358Y418379D01*
X741238Y418377D01*
X741118Y418372D01*
X740999Y418362D01*
X740879Y418350D01*
X740760Y418333D01*
X740642Y418313D01*
X740524Y418289D01*
X740408Y418262D01*
X740292Y418231D01*
X740177Y418197D01*
X740063Y418159D01*
X739950Y418117D01*
X739839Y418072D01*
X739729Y418024D01*
X739621Y417973D01*
X739514Y417918D01*
X739409Y417860D01*
X739306Y417798D01*
X739205Y417734D01*
X739105Y417666D01*
X739008Y417596D01*
X742402Y414464D02*
X742480Y414512D01*
X742556Y414564D01*
X742629Y414618D01*
X742700Y414676D01*
X742769Y414737D01*
X742835Y414801D01*
X742898Y414868D01*
X742958Y414937D01*
X743015Y415009D01*
X743069Y415083D01*
X743119Y415160D01*
X743167Y415239D01*
X743210Y415319D01*
X743251Y415402D01*
X743287Y415486D01*
X743320Y415571D01*
X743349Y415658D01*
X743375Y415747D01*
X743397Y415836D01*
X743414Y415926D01*
X743428Y416016D01*
X743438Y416108D01*
X743444Y416199D01*
X743446Y416291D01*
X739530Y412896D02*
X739452Y412848D01*
X739376Y412796D01*
X739303Y412742D01*
X739232Y412684D01*
X739163Y412623D01*
X739097Y412559D01*
X739034Y412492D01*
X738974Y412423D01*
X738917Y412351D01*
X738863Y412277D01*
X738813Y412200D01*
X738765Y412121D01*
X738722Y412041D01*
X738681Y411958D01*
X738645Y411874D01*
X738612Y411789D01*
X738583Y411702D01*
X738557Y411613D01*
X738535Y411524D01*
X738518Y411434D01*
X738504Y411344D01*
X738494Y411252D01*
X738488Y411161D01*
X738486Y411069D01*
X739530Y412897D02*
X742402Y414463D01*
X734868Y408981D02*
X732257Y408981D01*
X732156Y408983D01*
X732055Y408989D01*
X731954Y408999D01*
X731854Y409012D01*
X731754Y409030D01*
X731655Y409051D01*
X731557Y409077D01*
X731460Y409106D01*
X731364Y409138D01*
X731270Y409175D01*
X731177Y409215D01*
X731085Y409259D01*
X730996Y409306D01*
X730908Y409357D01*
X730822Y409411D01*
X730739Y409468D01*
X730657Y409528D01*
X730579Y409592D01*
X730502Y409658D01*
X730429Y409728D01*
X730358Y409800D01*
X730290Y409875D01*
X730225Y409953D01*
X730163Y410033D01*
X730104Y410115D01*
X730048Y410200D01*
X729996Y410287D01*
X729947Y410375D01*
X729901Y410466D01*
X729860Y410558D01*
X729821Y410652D01*
X729787Y410747D01*
X729756Y410843D01*
X729729Y410941D01*
X729705Y411039D01*
X729686Y411139D01*
X729670Y411239D01*
X729658Y411339D01*
X729650Y411440D01*
X729646Y411541D01*
X729646Y411643D01*
X729650Y411744D01*
X729658Y411845D01*
X729670Y411945D01*
X729686Y412045D01*
X729705Y412145D01*
X729729Y412243D01*
X729756Y412341D01*
X729787Y412437D01*
X729821Y412532D01*
X729860Y412626D01*
X729901Y412718D01*
X729947Y412809D01*
X729996Y412898D01*
X730048Y412984D01*
X730104Y413069D01*
X730163Y413151D01*
X730225Y413231D01*
X730290Y413309D01*
X730358Y413384D01*
X730429Y413456D01*
X730502Y413526D01*
X730579Y413592D01*
X730657Y413656D01*
X730739Y413716D01*
X730822Y413773D01*
X730908Y413827D01*
X730996Y413878D01*
X731085Y413925D01*
X731177Y413969D01*
X731270Y414009D01*
X731364Y414046D01*
X731460Y414078D01*
X731557Y414107D01*
X731655Y414133D01*
X731754Y414154D01*
X731854Y414172D01*
X731954Y414185D01*
X732055Y414195D01*
X732156Y414201D01*
X732257Y414203D01*
X731735Y418379D02*
X734868Y418379D01*
X731735Y418379D02*
X731645Y418377D01*
X731556Y418371D01*
X731466Y418362D01*
X731377Y418348D01*
X731289Y418331D01*
X731202Y418310D01*
X731115Y418285D01*
X731030Y418256D01*
X730946Y418224D01*
X730864Y418189D01*
X730783Y418149D01*
X730704Y418107D01*
X730627Y418061D01*
X730552Y418011D01*
X730479Y417959D01*
X730408Y417903D01*
X730340Y417845D01*
X730275Y417783D01*
X730212Y417719D01*
X730152Y417652D01*
X730095Y417583D01*
X730041Y417511D01*
X729990Y417437D01*
X729942Y417361D01*
X729898Y417283D01*
X729857Y417203D01*
X729819Y417121D01*
X729785Y417038D01*
X729755Y416953D01*
X729728Y416867D01*
X729705Y416781D01*
X729686Y416693D01*
X729671Y416604D01*
X729659Y416515D01*
X729651Y416426D01*
X729647Y416336D01*
X729647Y416246D01*
X729651Y416156D01*
X729659Y416067D01*
X729671Y415978D01*
X729686Y415889D01*
X729705Y415801D01*
X729728Y415715D01*
X729755Y415629D01*
X729785Y415544D01*
X729819Y415461D01*
X729857Y415379D01*
X729898Y415299D01*
X729942Y415221D01*
X729990Y415145D01*
X730041Y415071D01*
X730095Y414999D01*
X730152Y414930D01*
X730212Y414863D01*
X730275Y414799D01*
X730340Y414737D01*
X730408Y414679D01*
X730479Y414623D01*
X730552Y414571D01*
X730627Y414521D01*
X730704Y414475D01*
X730783Y414433D01*
X730864Y414393D01*
X730946Y414358D01*
X731030Y414326D01*
X731115Y414297D01*
X731202Y414272D01*
X731289Y414251D01*
X731377Y414234D01*
X731466Y414220D01*
X731556Y414211D01*
X731645Y414205D01*
X731735Y414203D01*
X731735Y414202D02*
X733824Y414202D01*
X839070Y395829D02*
X839072Y395740D01*
X839078Y395652D01*
X839087Y395564D01*
X839100Y395476D01*
X839117Y395389D01*
X839137Y395303D01*
X839162Y395218D01*
X839189Y395133D01*
X839221Y395050D01*
X839255Y394969D01*
X839294Y394889D01*
X839335Y394811D01*
X839380Y394734D01*
X839428Y394660D01*
X839479Y394587D01*
X839533Y394517D01*
X839591Y394450D01*
X839651Y394384D01*
X839713Y394322D01*
X839779Y394262D01*
X839846Y394204D01*
X839916Y394150D01*
X839989Y394099D01*
X840063Y394051D01*
X840140Y394006D01*
X840218Y393965D01*
X840298Y393926D01*
X840379Y393892D01*
X840462Y393860D01*
X840547Y393833D01*
X840632Y393808D01*
X840718Y393788D01*
X840805Y393771D01*
X840893Y393758D01*
X840981Y393749D01*
X841069Y393743D01*
X841158Y393741D01*
X841287Y393743D01*
X841416Y393749D01*
X841545Y393758D01*
X841673Y393771D01*
X841801Y393788D01*
X841928Y393809D01*
X842055Y393833D01*
X842181Y393861D01*
X842306Y393893D01*
X842430Y393928D01*
X842553Y393967D01*
X842675Y394010D01*
X842795Y394056D01*
X842914Y394106D01*
X843032Y394159D01*
X843148Y394215D01*
X843262Y394275D01*
X843375Y394338D01*
X843485Y394405D01*
X843594Y394474D01*
X843700Y394547D01*
X843805Y394623D01*
X843907Y394702D01*
X844007Y394784D01*
X844104Y394868D01*
X844199Y394956D01*
X844291Y395046D01*
X844030Y401051D02*
X844028Y401140D01*
X844022Y401228D01*
X844013Y401316D01*
X844000Y401404D01*
X843983Y401491D01*
X843963Y401577D01*
X843938Y401662D01*
X843911Y401747D01*
X843879Y401830D01*
X843845Y401911D01*
X843806Y401991D01*
X843765Y402069D01*
X843720Y402146D01*
X843672Y402220D01*
X843621Y402293D01*
X843567Y402363D01*
X843509Y402430D01*
X843449Y402496D01*
X843387Y402558D01*
X843321Y402618D01*
X843254Y402676D01*
X843184Y402730D01*
X843111Y402781D01*
X843037Y402829D01*
X842960Y402874D01*
X842882Y402915D01*
X842802Y402954D01*
X842721Y402988D01*
X842638Y403020D01*
X842553Y403047D01*
X842468Y403072D01*
X842382Y403092D01*
X842295Y403109D01*
X842207Y403122D01*
X842119Y403131D01*
X842031Y403137D01*
X841942Y403139D01*
X841822Y403137D01*
X841702Y403132D01*
X841583Y403122D01*
X841463Y403110D01*
X841344Y403093D01*
X841226Y403073D01*
X841108Y403049D01*
X840992Y403022D01*
X840876Y402991D01*
X840761Y402957D01*
X840647Y402919D01*
X840534Y402877D01*
X840423Y402832D01*
X840313Y402784D01*
X840205Y402733D01*
X840098Y402678D01*
X839993Y402620D01*
X839890Y402558D01*
X839789Y402494D01*
X839689Y402426D01*
X839592Y402356D01*
X842986Y399224D02*
X843064Y399272D01*
X843140Y399324D01*
X843213Y399378D01*
X843284Y399436D01*
X843353Y399497D01*
X843419Y399561D01*
X843482Y399628D01*
X843542Y399697D01*
X843599Y399769D01*
X843653Y399843D01*
X843703Y399920D01*
X843751Y399999D01*
X843794Y400079D01*
X843835Y400162D01*
X843871Y400246D01*
X843904Y400331D01*
X843933Y400418D01*
X843959Y400507D01*
X843981Y400596D01*
X843998Y400686D01*
X844012Y400776D01*
X844022Y400868D01*
X844028Y400959D01*
X844030Y401051D01*
X840114Y397656D02*
X840036Y397608D01*
X839960Y397556D01*
X839887Y397502D01*
X839816Y397444D01*
X839747Y397383D01*
X839681Y397319D01*
X839618Y397252D01*
X839558Y397183D01*
X839501Y397111D01*
X839447Y397037D01*
X839397Y396960D01*
X839349Y396881D01*
X839306Y396801D01*
X839265Y396718D01*
X839229Y396634D01*
X839196Y396549D01*
X839167Y396462D01*
X839141Y396373D01*
X839119Y396284D01*
X839102Y396194D01*
X839088Y396104D01*
X839078Y396012D01*
X839072Y395921D01*
X839070Y395829D01*
X840114Y397657D02*
X842986Y399223D01*
X832580Y403140D02*
X832485Y403138D01*
X832391Y403132D01*
X832297Y403123D01*
X832203Y403110D01*
X832110Y403093D01*
X832018Y403072D01*
X831926Y403047D01*
X831836Y403019D01*
X831747Y402987D01*
X831659Y402952D01*
X831573Y402913D01*
X831488Y402871D01*
X831405Y402825D01*
X831324Y402776D01*
X831245Y402724D01*
X831168Y402669D01*
X831094Y402610D01*
X831022Y402549D01*
X830952Y402485D01*
X830885Y402418D01*
X830821Y402348D01*
X830760Y402276D01*
X830701Y402202D01*
X830646Y402125D01*
X830594Y402046D01*
X830545Y401965D01*
X830499Y401882D01*
X830457Y401797D01*
X830418Y401711D01*
X830383Y401623D01*
X830351Y401534D01*
X830323Y401444D01*
X830298Y401352D01*
X830277Y401260D01*
X830260Y401167D01*
X830247Y401073D01*
X830238Y400979D01*
X830232Y400885D01*
X830230Y400790D01*
X832580Y403139D02*
X832688Y403137D01*
X832797Y403131D01*
X832905Y403121D01*
X833012Y403108D01*
X833119Y403090D01*
X833226Y403069D01*
X833331Y403044D01*
X833436Y403015D01*
X833539Y402983D01*
X833641Y402946D01*
X833742Y402906D01*
X833841Y402863D01*
X833939Y402816D01*
X834035Y402765D01*
X834129Y402711D01*
X834221Y402654D01*
X834311Y402593D01*
X834399Y402529D01*
X834484Y402463D01*
X834567Y402393D01*
X834647Y402320D01*
X834725Y402244D01*
X834800Y402166D01*
X834872Y402085D01*
X834941Y402001D01*
X835007Y401915D01*
X835070Y401827D01*
X835129Y401736D01*
X835186Y401644D01*
X835239Y401549D01*
X835288Y401452D01*
X835334Y401354D01*
X835377Y401255D01*
X835416Y401153D01*
X835451Y401051D01*
X831013Y398962D02*
X830944Y399031D01*
X830878Y399102D01*
X830814Y399175D01*
X830753Y399251D01*
X830695Y399330D01*
X830641Y399410D01*
X830589Y399493D01*
X830541Y399577D01*
X830495Y399663D01*
X830454Y399751D01*
X830415Y399841D01*
X830380Y399932D01*
X830349Y400024D01*
X830321Y400117D01*
X830297Y400211D01*
X830277Y400306D01*
X830260Y400402D01*
X830247Y400499D01*
X830238Y400596D01*
X830232Y400693D01*
X830230Y400790D01*
X831014Y398962D02*
X835452Y393741D01*
X830231Y393741D01*
X936606Y377541D02*
X936608Y377452D01*
X936614Y377364D01*
X936623Y377276D01*
X936636Y377188D01*
X936653Y377101D01*
X936673Y377015D01*
X936698Y376930D01*
X936725Y376845D01*
X936757Y376762D01*
X936791Y376681D01*
X936830Y376601D01*
X936871Y376523D01*
X936916Y376446D01*
X936964Y376372D01*
X937015Y376299D01*
X937069Y376229D01*
X937127Y376162D01*
X937187Y376096D01*
X937249Y376034D01*
X937315Y375974D01*
X937382Y375916D01*
X937452Y375862D01*
X937525Y375811D01*
X937599Y375763D01*
X937676Y375718D01*
X937754Y375677D01*
X937834Y375638D01*
X937915Y375604D01*
X937998Y375572D01*
X938083Y375545D01*
X938168Y375520D01*
X938254Y375500D01*
X938341Y375483D01*
X938429Y375470D01*
X938517Y375461D01*
X938605Y375455D01*
X938694Y375453D01*
X938823Y375455D01*
X938952Y375461D01*
X939081Y375470D01*
X939209Y375483D01*
X939337Y375500D01*
X939464Y375521D01*
X939591Y375545D01*
X939717Y375573D01*
X939842Y375605D01*
X939966Y375640D01*
X940089Y375679D01*
X940211Y375722D01*
X940331Y375768D01*
X940450Y375818D01*
X940568Y375871D01*
X940684Y375927D01*
X940798Y375987D01*
X940911Y376050D01*
X941021Y376117D01*
X941130Y376186D01*
X941236Y376259D01*
X941341Y376335D01*
X941443Y376414D01*
X941543Y376496D01*
X941640Y376580D01*
X941735Y376668D01*
X941827Y376758D01*
X941566Y382763D02*
X941564Y382852D01*
X941558Y382940D01*
X941549Y383028D01*
X941536Y383116D01*
X941519Y383203D01*
X941499Y383289D01*
X941474Y383374D01*
X941447Y383459D01*
X941415Y383542D01*
X941381Y383623D01*
X941342Y383703D01*
X941301Y383781D01*
X941256Y383858D01*
X941208Y383932D01*
X941157Y384005D01*
X941103Y384075D01*
X941045Y384142D01*
X940985Y384208D01*
X940923Y384270D01*
X940857Y384330D01*
X940790Y384388D01*
X940720Y384442D01*
X940647Y384493D01*
X940573Y384541D01*
X940496Y384586D01*
X940418Y384627D01*
X940338Y384666D01*
X940257Y384700D01*
X940174Y384732D01*
X940089Y384759D01*
X940004Y384784D01*
X939918Y384804D01*
X939831Y384821D01*
X939743Y384834D01*
X939655Y384843D01*
X939567Y384849D01*
X939478Y384851D01*
X939358Y384849D01*
X939238Y384844D01*
X939119Y384834D01*
X938999Y384822D01*
X938880Y384805D01*
X938762Y384785D01*
X938644Y384761D01*
X938528Y384734D01*
X938412Y384703D01*
X938297Y384669D01*
X938183Y384631D01*
X938070Y384589D01*
X937959Y384544D01*
X937849Y384496D01*
X937741Y384445D01*
X937634Y384390D01*
X937529Y384332D01*
X937426Y384270D01*
X937325Y384206D01*
X937225Y384138D01*
X937128Y384068D01*
X940522Y380936D02*
X940600Y380984D01*
X940676Y381036D01*
X940749Y381090D01*
X940820Y381148D01*
X940889Y381209D01*
X940955Y381273D01*
X941018Y381340D01*
X941078Y381409D01*
X941135Y381481D01*
X941189Y381555D01*
X941239Y381632D01*
X941287Y381711D01*
X941330Y381791D01*
X941371Y381874D01*
X941407Y381958D01*
X941440Y382043D01*
X941469Y382130D01*
X941495Y382219D01*
X941517Y382308D01*
X941534Y382398D01*
X941548Y382488D01*
X941558Y382580D01*
X941564Y382671D01*
X941566Y382763D01*
X937650Y379368D02*
X937572Y379320D01*
X937496Y379268D01*
X937423Y379214D01*
X937352Y379156D01*
X937283Y379095D01*
X937217Y379031D01*
X937154Y378964D01*
X937094Y378895D01*
X937037Y378823D01*
X936983Y378749D01*
X936933Y378672D01*
X936885Y378593D01*
X936842Y378513D01*
X936801Y378430D01*
X936765Y378346D01*
X936732Y378261D01*
X936703Y378174D01*
X936677Y378085D01*
X936655Y377996D01*
X936638Y377906D01*
X936624Y377816D01*
X936614Y377724D01*
X936608Y377633D01*
X936606Y377541D01*
X937650Y379369D02*
X940522Y380935D01*
X932988Y382763D02*
X930377Y384851D01*
X930377Y375453D01*
X927767Y375453D02*
X932988Y375453D01*
X487421Y46007D02*
X487421Y43397D01*
X487423Y43320D01*
X487429Y43244D01*
X487438Y43167D01*
X487451Y43091D01*
X487468Y43016D01*
X487488Y42942D01*
X487513Y42869D01*
X487540Y42798D01*
X487571Y42727D01*
X487606Y42659D01*
X487644Y42592D01*
X487685Y42527D01*
X487729Y42464D01*
X487776Y42404D01*
X487827Y42345D01*
X487880Y42290D01*
X487935Y42237D01*
X487994Y42186D01*
X488054Y42139D01*
X488117Y42095D01*
X488182Y42054D01*
X488249Y42016D01*
X488317Y41981D01*
X488388Y41950D01*
X488459Y41923D01*
X488532Y41898D01*
X488606Y41878D01*
X488681Y41861D01*
X488757Y41848D01*
X488834Y41839D01*
X488910Y41833D01*
X488987Y41831D01*
X488987Y41830D02*
X492120Y41830D01*
X492120Y41831D02*
X492197Y41833D01*
X492273Y41839D01*
X492350Y41848D01*
X492426Y41861D01*
X492501Y41878D01*
X492575Y41898D01*
X492648Y41923D01*
X492719Y41950D01*
X492790Y41981D01*
X492858Y42016D01*
X492925Y42054D01*
X492990Y42095D01*
X493053Y42139D01*
X493113Y42186D01*
X493172Y42237D01*
X493227Y42290D01*
X493280Y42345D01*
X493331Y42404D01*
X493378Y42464D01*
X493422Y42527D01*
X493463Y42592D01*
X493501Y42659D01*
X493536Y42727D01*
X493567Y42798D01*
X493594Y42869D01*
X493619Y42942D01*
X493639Y43016D01*
X493656Y43091D01*
X493669Y43167D01*
X493678Y43244D01*
X493684Y43320D01*
X493686Y43397D01*
X493686Y46007D01*
X485855Y46007D01*
X485778Y46005D01*
X485702Y45999D01*
X485625Y45990D01*
X485549Y45977D01*
X485474Y45960D01*
X485400Y45940D01*
X485327Y45915D01*
X485256Y45888D01*
X485185Y45857D01*
X485117Y45822D01*
X485050Y45784D01*
X484985Y45743D01*
X484922Y45699D01*
X484862Y45652D01*
X484803Y45601D01*
X484748Y45548D01*
X484695Y45493D01*
X484644Y45434D01*
X484597Y45374D01*
X484553Y45311D01*
X484512Y45246D01*
X484474Y45179D01*
X484439Y45111D01*
X484408Y45040D01*
X484381Y44969D01*
X484356Y44896D01*
X484336Y44822D01*
X484319Y44747D01*
X484306Y44671D01*
X484297Y44595D01*
X484291Y44518D01*
X484289Y44441D01*
X484288Y44441D02*
X484288Y42352D01*
X487421Y50410D02*
X493686Y50410D01*
X493686Y53021D01*
X493684Y53098D01*
X493678Y53174D01*
X493669Y53251D01*
X493656Y53327D01*
X493639Y53402D01*
X493619Y53476D01*
X493594Y53549D01*
X493567Y53620D01*
X493536Y53691D01*
X493501Y53759D01*
X493463Y53826D01*
X493422Y53891D01*
X493378Y53954D01*
X493331Y54014D01*
X493280Y54073D01*
X493227Y54128D01*
X493172Y54181D01*
X493113Y54232D01*
X493053Y54279D01*
X492990Y54323D01*
X492925Y54364D01*
X492858Y54402D01*
X492790Y54437D01*
X492719Y54468D01*
X492648Y54495D01*
X492575Y54520D01*
X492501Y54540D01*
X492426Y54557D01*
X492350Y54570D01*
X492273Y54579D01*
X492197Y54585D01*
X492120Y54587D01*
X487421Y54587D01*
X487421Y62771D02*
X496819Y62771D01*
X487421Y62771D02*
X487421Y60160D01*
X487423Y60083D01*
X487429Y60007D01*
X487438Y59930D01*
X487451Y59854D01*
X487468Y59779D01*
X487488Y59705D01*
X487513Y59632D01*
X487540Y59561D01*
X487571Y59490D01*
X487606Y59422D01*
X487644Y59355D01*
X487685Y59290D01*
X487729Y59227D01*
X487776Y59167D01*
X487827Y59108D01*
X487880Y59053D01*
X487935Y59000D01*
X487994Y58949D01*
X488054Y58902D01*
X488117Y58858D01*
X488182Y58817D01*
X488249Y58779D01*
X488317Y58744D01*
X488388Y58713D01*
X488459Y58686D01*
X488532Y58661D01*
X488606Y58641D01*
X488681Y58624D01*
X488757Y58611D01*
X488834Y58602D01*
X488910Y58596D01*
X488987Y58594D01*
X492120Y58594D01*
X492197Y58596D01*
X492273Y58602D01*
X492350Y58611D01*
X492426Y58624D01*
X492501Y58641D01*
X492575Y58661D01*
X492648Y58686D01*
X492719Y58713D01*
X492790Y58744D01*
X492858Y58779D01*
X492925Y58817D01*
X492990Y58858D01*
X493053Y58902D01*
X493113Y58949D01*
X493172Y59000D01*
X493227Y59053D01*
X493280Y59108D01*
X493331Y59167D01*
X493378Y59227D01*
X493422Y59290D01*
X493463Y59355D01*
X493501Y59422D01*
X493536Y59490D01*
X493567Y59561D01*
X493594Y59632D01*
X493619Y59705D01*
X493639Y59779D01*
X493656Y59854D01*
X493669Y59930D01*
X493678Y60007D01*
X493684Y60083D01*
X493686Y60160D01*
X493686Y62771D01*
X508757Y31612D02*
X515022Y31612D01*
X515022Y34745D01*
X513978Y34745D01*
X508757Y39223D02*
X508757Y41834D01*
X508757Y39223D02*
X508759Y39146D01*
X508765Y39070D01*
X508774Y38993D01*
X508787Y38917D01*
X508804Y38842D01*
X508824Y38768D01*
X508849Y38695D01*
X508876Y38624D01*
X508907Y38553D01*
X508942Y38485D01*
X508980Y38418D01*
X509021Y38353D01*
X509065Y38290D01*
X509112Y38230D01*
X509163Y38171D01*
X509216Y38116D01*
X509271Y38063D01*
X509330Y38012D01*
X509390Y37965D01*
X509453Y37921D01*
X509518Y37880D01*
X509585Y37842D01*
X509653Y37807D01*
X509724Y37776D01*
X509795Y37749D01*
X509868Y37724D01*
X509942Y37704D01*
X510017Y37687D01*
X510093Y37674D01*
X510170Y37665D01*
X510246Y37659D01*
X510323Y37657D01*
X512934Y37657D01*
X513024Y37659D01*
X513113Y37665D01*
X513203Y37674D01*
X513292Y37688D01*
X513380Y37705D01*
X513467Y37726D01*
X513554Y37751D01*
X513639Y37780D01*
X513723Y37812D01*
X513805Y37847D01*
X513886Y37887D01*
X513965Y37929D01*
X514042Y37975D01*
X514117Y38025D01*
X514190Y38077D01*
X514261Y38133D01*
X514329Y38191D01*
X514394Y38253D01*
X514457Y38317D01*
X514517Y38384D01*
X514574Y38453D01*
X514628Y38525D01*
X514679Y38599D01*
X514727Y38675D01*
X514771Y38753D01*
X514812Y38833D01*
X514850Y38915D01*
X514884Y38998D01*
X514914Y39083D01*
X514941Y39169D01*
X514964Y39255D01*
X514983Y39343D01*
X514998Y39432D01*
X515010Y39521D01*
X515018Y39610D01*
X515022Y39700D01*
X515022Y39790D01*
X515018Y39880D01*
X515010Y39969D01*
X514998Y40058D01*
X514983Y40147D01*
X514964Y40235D01*
X514941Y40321D01*
X514914Y40407D01*
X514884Y40492D01*
X514850Y40575D01*
X514812Y40657D01*
X514771Y40737D01*
X514727Y40815D01*
X514679Y40891D01*
X514628Y40965D01*
X514574Y41037D01*
X514517Y41106D01*
X514457Y41173D01*
X514394Y41237D01*
X514329Y41299D01*
X514261Y41357D01*
X514190Y41413D01*
X514117Y41465D01*
X514042Y41515D01*
X513965Y41561D01*
X513886Y41603D01*
X513805Y41643D01*
X513723Y41678D01*
X513639Y41710D01*
X513554Y41739D01*
X513467Y41764D01*
X513380Y41785D01*
X513292Y41802D01*
X513203Y41816D01*
X513113Y41825D01*
X513024Y41831D01*
X512934Y41833D01*
X512934Y41834D02*
X511890Y41834D01*
X511890Y37657D01*
X512412Y46365D02*
X511368Y48975D01*
X512412Y46364D02*
X512440Y46298D01*
X512473Y46233D01*
X512508Y46170D01*
X512547Y46109D01*
X512589Y46050D01*
X512634Y45994D01*
X512682Y45940D01*
X512733Y45889D01*
X512786Y45840D01*
X512843Y45795D01*
X512901Y45752D01*
X512961Y45713D01*
X513024Y45676D01*
X513089Y45644D01*
X513155Y45615D01*
X513222Y45589D01*
X513291Y45567D01*
X513361Y45549D01*
X513432Y45534D01*
X513503Y45523D01*
X513575Y45516D01*
X513647Y45513D01*
X513719Y45514D01*
X513792Y45519D01*
X513863Y45527D01*
X513935Y45539D01*
X514005Y45555D01*
X514074Y45575D01*
X514143Y45599D01*
X514210Y45626D01*
X514275Y45656D01*
X514339Y45690D01*
X514401Y45728D01*
X514461Y45768D01*
X514518Y45812D01*
X514573Y45859D01*
X514626Y45909D01*
X514675Y45961D01*
X514722Y46016D01*
X514766Y46073D01*
X514807Y46133D01*
X514844Y46195D01*
X514879Y46259D01*
X514909Y46324D01*
X514937Y46391D01*
X514960Y46459D01*
X514980Y46529D01*
X514996Y46599D01*
X515009Y46670D01*
X515017Y46742D01*
X515022Y46814D01*
X515023Y46886D01*
X515022Y46887D02*
X515018Y47038D01*
X515010Y47189D01*
X514999Y47340D01*
X514983Y47491D01*
X514963Y47641D01*
X514940Y47791D01*
X514913Y47940D01*
X514882Y48088D01*
X514847Y48236D01*
X514809Y48382D01*
X514766Y48528D01*
X514720Y48672D01*
X514671Y48815D01*
X514618Y48957D01*
X514561Y49097D01*
X514500Y49236D01*
X511368Y48975D02*
X511340Y49041D01*
X511307Y49106D01*
X511272Y49169D01*
X511233Y49230D01*
X511191Y49289D01*
X511146Y49345D01*
X511098Y49399D01*
X511047Y49450D01*
X510994Y49499D01*
X510937Y49544D01*
X510879Y49587D01*
X510819Y49626D01*
X510756Y49663D01*
X510691Y49695D01*
X510625Y49724D01*
X510558Y49750D01*
X510489Y49772D01*
X510419Y49790D01*
X510348Y49805D01*
X510277Y49816D01*
X510205Y49823D01*
X510133Y49826D01*
X510061Y49825D01*
X509988Y49820D01*
X509917Y49812D01*
X509845Y49800D01*
X509775Y49784D01*
X509706Y49764D01*
X509637Y49740D01*
X509570Y49713D01*
X509505Y49683D01*
X509441Y49649D01*
X509379Y49611D01*
X509319Y49571D01*
X509262Y49527D01*
X509207Y49480D01*
X509154Y49430D01*
X509105Y49378D01*
X509058Y49323D01*
X509014Y49266D01*
X508973Y49206D01*
X508936Y49144D01*
X508901Y49080D01*
X508871Y49015D01*
X508843Y48948D01*
X508820Y48880D01*
X508800Y48810D01*
X508784Y48740D01*
X508771Y48669D01*
X508763Y48597D01*
X508758Y48525D01*
X508757Y48453D01*
X508762Y48243D01*
X508773Y48034D01*
X508788Y47825D01*
X508808Y47617D01*
X508834Y47409D01*
X508864Y47202D01*
X508899Y46995D01*
X508939Y46790D01*
X508983Y46585D01*
X509033Y46382D01*
X509087Y46179D01*
X509147Y45978D01*
X509210Y45779D01*
X509279Y45581D01*
X508757Y55073D02*
X508757Y57683D01*
X508757Y55073D02*
X508759Y54996D01*
X508765Y54920D01*
X508774Y54843D01*
X508787Y54767D01*
X508804Y54692D01*
X508824Y54618D01*
X508849Y54545D01*
X508876Y54474D01*
X508907Y54403D01*
X508942Y54335D01*
X508980Y54268D01*
X509021Y54203D01*
X509065Y54140D01*
X509112Y54080D01*
X509163Y54021D01*
X509216Y53966D01*
X509271Y53913D01*
X509330Y53862D01*
X509390Y53815D01*
X509453Y53771D01*
X509518Y53730D01*
X509585Y53692D01*
X509653Y53657D01*
X509724Y53626D01*
X509795Y53599D01*
X509868Y53574D01*
X509942Y53554D01*
X510017Y53537D01*
X510093Y53524D01*
X510170Y53515D01*
X510246Y53509D01*
X510323Y53507D01*
X510323Y53506D02*
X512934Y53506D01*
X512934Y53507D02*
X513024Y53509D01*
X513113Y53515D01*
X513203Y53524D01*
X513292Y53538D01*
X513380Y53555D01*
X513467Y53576D01*
X513554Y53601D01*
X513639Y53630D01*
X513723Y53662D01*
X513805Y53697D01*
X513886Y53737D01*
X513965Y53779D01*
X514042Y53825D01*
X514117Y53875D01*
X514190Y53927D01*
X514261Y53983D01*
X514329Y54041D01*
X514394Y54103D01*
X514457Y54167D01*
X514517Y54234D01*
X514574Y54303D01*
X514628Y54375D01*
X514679Y54449D01*
X514727Y54525D01*
X514771Y54603D01*
X514812Y54683D01*
X514850Y54765D01*
X514884Y54848D01*
X514914Y54933D01*
X514941Y55019D01*
X514964Y55105D01*
X514983Y55193D01*
X514998Y55282D01*
X515010Y55371D01*
X515018Y55460D01*
X515022Y55550D01*
X515022Y55640D01*
X515018Y55730D01*
X515010Y55819D01*
X514998Y55908D01*
X514983Y55997D01*
X514964Y56085D01*
X514941Y56171D01*
X514914Y56257D01*
X514884Y56342D01*
X514850Y56425D01*
X514812Y56507D01*
X514771Y56587D01*
X514727Y56665D01*
X514679Y56741D01*
X514628Y56815D01*
X514574Y56887D01*
X514517Y56956D01*
X514457Y57023D01*
X514394Y57087D01*
X514329Y57149D01*
X514261Y57207D01*
X514190Y57263D01*
X514117Y57315D01*
X514042Y57365D01*
X513965Y57411D01*
X513886Y57453D01*
X513805Y57493D01*
X513723Y57528D01*
X513639Y57560D01*
X513554Y57589D01*
X513467Y57614D01*
X513380Y57635D01*
X513292Y57652D01*
X513203Y57666D01*
X513113Y57675D01*
X513024Y57681D01*
X512934Y57683D01*
X511890Y57683D01*
X511890Y53506D01*
X515022Y60662D02*
X515022Y63795D01*
X518155Y61707D02*
X510323Y61707D01*
X510246Y61709D01*
X510170Y61715D01*
X510093Y61724D01*
X510017Y61737D01*
X509942Y61754D01*
X509868Y61774D01*
X509795Y61799D01*
X509724Y61826D01*
X509653Y61857D01*
X509585Y61892D01*
X509518Y61930D01*
X509453Y61971D01*
X509390Y62015D01*
X509330Y62062D01*
X509271Y62113D01*
X509216Y62166D01*
X509163Y62221D01*
X509112Y62280D01*
X509065Y62340D01*
X509021Y62403D01*
X508980Y62468D01*
X508942Y62535D01*
X508907Y62603D01*
X508876Y62674D01*
X508849Y62745D01*
X508824Y62818D01*
X508804Y62892D01*
X508787Y62967D01*
X508774Y63043D01*
X508765Y63120D01*
X508759Y63196D01*
X508757Y63273D01*
X508757Y63795D01*
X535752Y46903D02*
X536796Y44293D01*
X536796Y44292D02*
X536824Y44226D01*
X536857Y44161D01*
X536892Y44098D01*
X536931Y44037D01*
X536973Y43978D01*
X537018Y43922D01*
X537066Y43868D01*
X537117Y43817D01*
X537170Y43768D01*
X537227Y43723D01*
X537285Y43680D01*
X537345Y43641D01*
X537408Y43604D01*
X537473Y43572D01*
X537539Y43543D01*
X537606Y43517D01*
X537675Y43495D01*
X537745Y43477D01*
X537816Y43462D01*
X537887Y43451D01*
X537959Y43444D01*
X538031Y43441D01*
X538103Y43442D01*
X538176Y43447D01*
X538247Y43455D01*
X538319Y43467D01*
X538389Y43483D01*
X538458Y43503D01*
X538527Y43527D01*
X538594Y43554D01*
X538659Y43584D01*
X538723Y43618D01*
X538785Y43656D01*
X538845Y43696D01*
X538902Y43740D01*
X538957Y43787D01*
X539010Y43837D01*
X539059Y43889D01*
X539106Y43944D01*
X539150Y44001D01*
X539191Y44061D01*
X539228Y44123D01*
X539263Y44187D01*
X539293Y44252D01*
X539321Y44319D01*
X539344Y44387D01*
X539364Y44457D01*
X539380Y44527D01*
X539393Y44598D01*
X539401Y44670D01*
X539406Y44742D01*
X539407Y44814D01*
X539406Y44815D02*
X539402Y44966D01*
X539394Y45117D01*
X539383Y45268D01*
X539367Y45419D01*
X539347Y45569D01*
X539324Y45719D01*
X539297Y45868D01*
X539266Y46016D01*
X539231Y46164D01*
X539193Y46310D01*
X539150Y46456D01*
X539104Y46600D01*
X539055Y46743D01*
X539002Y46885D01*
X538945Y47025D01*
X538884Y47164D01*
X535752Y46903D02*
X535724Y46969D01*
X535691Y47034D01*
X535656Y47097D01*
X535617Y47158D01*
X535575Y47217D01*
X535530Y47273D01*
X535482Y47327D01*
X535431Y47378D01*
X535378Y47427D01*
X535321Y47472D01*
X535263Y47515D01*
X535203Y47554D01*
X535140Y47591D01*
X535075Y47623D01*
X535009Y47652D01*
X534942Y47678D01*
X534873Y47700D01*
X534803Y47718D01*
X534732Y47733D01*
X534661Y47744D01*
X534589Y47751D01*
X534517Y47754D01*
X534445Y47753D01*
X534372Y47748D01*
X534301Y47740D01*
X534229Y47728D01*
X534159Y47712D01*
X534090Y47692D01*
X534021Y47668D01*
X533954Y47641D01*
X533889Y47611D01*
X533825Y47577D01*
X533763Y47539D01*
X533703Y47499D01*
X533646Y47455D01*
X533591Y47408D01*
X533538Y47358D01*
X533489Y47306D01*
X533442Y47251D01*
X533398Y47194D01*
X533357Y47134D01*
X533320Y47072D01*
X533285Y47008D01*
X533255Y46943D01*
X533227Y46876D01*
X533204Y46808D01*
X533184Y46738D01*
X533168Y46668D01*
X533155Y46597D01*
X533147Y46525D01*
X533142Y46453D01*
X533141Y46381D01*
X533146Y46171D01*
X533157Y45962D01*
X533172Y45753D01*
X533192Y45545D01*
X533218Y45337D01*
X533248Y45130D01*
X533283Y44923D01*
X533323Y44718D01*
X533367Y44513D01*
X533417Y44310D01*
X533471Y44107D01*
X533531Y43906D01*
X533594Y43707D01*
X533663Y43509D01*
X533141Y55565D02*
X542539Y55565D01*
X533141Y55565D02*
X533141Y52955D01*
X533143Y52878D01*
X533149Y52802D01*
X533158Y52725D01*
X533171Y52649D01*
X533188Y52574D01*
X533208Y52500D01*
X533233Y52427D01*
X533260Y52356D01*
X533291Y52285D01*
X533326Y52217D01*
X533364Y52150D01*
X533405Y52085D01*
X533449Y52022D01*
X533496Y51962D01*
X533547Y51903D01*
X533600Y51848D01*
X533655Y51795D01*
X533714Y51744D01*
X533774Y51697D01*
X533837Y51653D01*
X533902Y51612D01*
X533969Y51574D01*
X534037Y51539D01*
X534108Y51508D01*
X534179Y51481D01*
X534252Y51456D01*
X534326Y51436D01*
X534401Y51419D01*
X534477Y51406D01*
X534554Y51397D01*
X534630Y51391D01*
X534707Y51389D01*
X537840Y51389D01*
X537917Y51391D01*
X537993Y51397D01*
X538070Y51406D01*
X538146Y51419D01*
X538221Y51436D01*
X538295Y51456D01*
X538368Y51481D01*
X538439Y51508D01*
X538510Y51539D01*
X538578Y51574D01*
X538645Y51612D01*
X538710Y51653D01*
X538773Y51697D01*
X538833Y51744D01*
X538892Y51795D01*
X538947Y51848D01*
X539000Y51903D01*
X539051Y51962D01*
X539098Y52022D01*
X539142Y52085D01*
X539183Y52150D01*
X539221Y52217D01*
X539256Y52285D01*
X539287Y52356D01*
X539314Y52427D01*
X539339Y52500D01*
X539359Y52574D01*
X539376Y52649D01*
X539389Y52725D01*
X539398Y52802D01*
X539404Y52878D01*
X539406Y52955D01*
X539406Y55565D01*
X536796Y61446D02*
X536796Y63795D01*
X536795Y61446D02*
X536793Y61362D01*
X536787Y61277D01*
X536777Y61194D01*
X536764Y61110D01*
X536746Y61028D01*
X536725Y60946D01*
X536700Y60865D01*
X536672Y60786D01*
X536639Y60708D01*
X536603Y60632D01*
X536564Y60557D01*
X536521Y60484D01*
X536475Y60413D01*
X536426Y60345D01*
X536374Y60279D01*
X536318Y60215D01*
X536260Y60154D01*
X536199Y60096D01*
X536135Y60040D01*
X536069Y59988D01*
X536001Y59939D01*
X535930Y59893D01*
X535857Y59850D01*
X535782Y59811D01*
X535706Y59775D01*
X535628Y59742D01*
X535549Y59714D01*
X535468Y59689D01*
X535386Y59668D01*
X535304Y59650D01*
X535220Y59637D01*
X535137Y59627D01*
X535052Y59621D01*
X534968Y59619D01*
X534884Y59621D01*
X534799Y59627D01*
X534716Y59637D01*
X534632Y59650D01*
X534550Y59668D01*
X534468Y59689D01*
X534387Y59714D01*
X534308Y59742D01*
X534230Y59775D01*
X534154Y59811D01*
X534079Y59850D01*
X534006Y59893D01*
X533935Y59939D01*
X533867Y59988D01*
X533801Y60040D01*
X533737Y60096D01*
X533676Y60154D01*
X533618Y60215D01*
X533562Y60279D01*
X533510Y60345D01*
X533461Y60413D01*
X533415Y60484D01*
X533372Y60557D01*
X533333Y60632D01*
X533297Y60708D01*
X533264Y60786D01*
X533236Y60865D01*
X533211Y60946D01*
X533190Y61028D01*
X533172Y61110D01*
X533159Y61194D01*
X533149Y61277D01*
X533143Y61362D01*
X533141Y61446D01*
X533141Y63795D01*
X537840Y63795D01*
X537917Y63793D01*
X537993Y63787D01*
X538070Y63778D01*
X538146Y63765D01*
X538221Y63748D01*
X538295Y63728D01*
X538368Y63703D01*
X538439Y63676D01*
X538510Y63645D01*
X538578Y63610D01*
X538645Y63572D01*
X538710Y63531D01*
X538773Y63487D01*
X538833Y63440D01*
X538892Y63389D01*
X538947Y63336D01*
X539000Y63281D01*
X539051Y63222D01*
X539098Y63162D01*
X539142Y63099D01*
X539183Y63034D01*
X539221Y62967D01*
X539256Y62899D01*
X539287Y62828D01*
X539314Y62757D01*
X539339Y62684D01*
X539359Y62610D01*
X539376Y62535D01*
X539389Y62459D01*
X539398Y62382D01*
X539404Y62306D01*
X539406Y62229D01*
X539406Y60140D01*
X560136Y50562D02*
X561180Y47951D01*
X561208Y47885D01*
X561241Y47820D01*
X561276Y47757D01*
X561315Y47696D01*
X561357Y47637D01*
X561402Y47581D01*
X561450Y47527D01*
X561501Y47476D01*
X561554Y47427D01*
X561611Y47382D01*
X561669Y47339D01*
X561729Y47300D01*
X561792Y47263D01*
X561857Y47231D01*
X561923Y47202D01*
X561990Y47176D01*
X562059Y47154D01*
X562129Y47136D01*
X562200Y47121D01*
X562271Y47110D01*
X562343Y47103D01*
X562415Y47100D01*
X562487Y47101D01*
X562560Y47106D01*
X562631Y47114D01*
X562703Y47126D01*
X562773Y47142D01*
X562842Y47162D01*
X562911Y47186D01*
X562978Y47213D01*
X563043Y47243D01*
X563107Y47277D01*
X563169Y47315D01*
X563229Y47355D01*
X563286Y47399D01*
X563341Y47446D01*
X563394Y47496D01*
X563443Y47548D01*
X563490Y47603D01*
X563534Y47660D01*
X563575Y47720D01*
X563612Y47782D01*
X563647Y47846D01*
X563677Y47911D01*
X563705Y47978D01*
X563728Y48046D01*
X563748Y48116D01*
X563764Y48186D01*
X563777Y48257D01*
X563785Y48329D01*
X563790Y48401D01*
X563791Y48473D01*
X563790Y48474D02*
X563786Y48625D01*
X563778Y48776D01*
X563767Y48927D01*
X563751Y49078D01*
X563731Y49228D01*
X563708Y49378D01*
X563681Y49527D01*
X563650Y49675D01*
X563615Y49823D01*
X563577Y49969D01*
X563534Y50115D01*
X563488Y50259D01*
X563439Y50402D01*
X563386Y50544D01*
X563329Y50684D01*
X563268Y50823D01*
X560136Y50562D02*
X560108Y50628D01*
X560075Y50693D01*
X560040Y50756D01*
X560001Y50817D01*
X559959Y50876D01*
X559914Y50932D01*
X559866Y50986D01*
X559815Y51037D01*
X559762Y51086D01*
X559705Y51131D01*
X559647Y51174D01*
X559587Y51213D01*
X559524Y51250D01*
X559459Y51282D01*
X559393Y51311D01*
X559326Y51337D01*
X559257Y51359D01*
X559187Y51377D01*
X559116Y51392D01*
X559045Y51403D01*
X558973Y51410D01*
X558901Y51413D01*
X558829Y51412D01*
X558756Y51407D01*
X558685Y51399D01*
X558613Y51387D01*
X558543Y51371D01*
X558474Y51351D01*
X558405Y51327D01*
X558338Y51300D01*
X558273Y51270D01*
X558209Y51236D01*
X558147Y51198D01*
X558087Y51158D01*
X558030Y51114D01*
X557975Y51067D01*
X557922Y51017D01*
X557873Y50965D01*
X557826Y50910D01*
X557782Y50853D01*
X557741Y50793D01*
X557704Y50731D01*
X557669Y50667D01*
X557639Y50602D01*
X557611Y50535D01*
X557588Y50467D01*
X557568Y50397D01*
X557552Y50327D01*
X557539Y50256D01*
X557531Y50184D01*
X557526Y50112D01*
X557525Y50040D01*
X557530Y49830D01*
X557541Y49621D01*
X557556Y49412D01*
X557576Y49204D01*
X557602Y48996D01*
X557632Y48789D01*
X557667Y48582D01*
X557707Y48377D01*
X557751Y48172D01*
X557801Y47969D01*
X557855Y47766D01*
X557915Y47565D01*
X557978Y47366D01*
X558047Y47168D01*
X557525Y56670D02*
X557525Y58758D01*
X557525Y56670D02*
X557527Y56593D01*
X557533Y56517D01*
X557542Y56440D01*
X557555Y56364D01*
X557572Y56289D01*
X557592Y56215D01*
X557617Y56142D01*
X557644Y56071D01*
X557675Y56000D01*
X557710Y55932D01*
X557748Y55865D01*
X557789Y55800D01*
X557833Y55737D01*
X557880Y55677D01*
X557931Y55618D01*
X557984Y55563D01*
X558039Y55510D01*
X558098Y55459D01*
X558158Y55412D01*
X558221Y55368D01*
X558286Y55327D01*
X558353Y55289D01*
X558421Y55254D01*
X558492Y55223D01*
X558563Y55196D01*
X558636Y55171D01*
X558710Y55151D01*
X558785Y55134D01*
X558861Y55121D01*
X558938Y55112D01*
X559014Y55106D01*
X559091Y55104D01*
X559091Y55103D02*
X562224Y55103D01*
X562224Y55104D02*
X562301Y55106D01*
X562377Y55112D01*
X562454Y55121D01*
X562530Y55134D01*
X562605Y55151D01*
X562679Y55171D01*
X562752Y55196D01*
X562823Y55223D01*
X562894Y55254D01*
X562962Y55289D01*
X563029Y55327D01*
X563094Y55368D01*
X563157Y55412D01*
X563217Y55459D01*
X563276Y55510D01*
X563331Y55563D01*
X563384Y55618D01*
X563435Y55677D01*
X563482Y55737D01*
X563526Y55800D01*
X563567Y55865D01*
X563605Y55932D01*
X563640Y56000D01*
X563671Y56071D01*
X563698Y56142D01*
X563723Y56215D01*
X563743Y56289D01*
X563760Y56364D01*
X563773Y56440D01*
X563782Y56517D01*
X563788Y56593D01*
X563790Y56670D01*
X563790Y58758D01*
X566923Y62229D02*
X559091Y62229D01*
X559014Y62231D01*
X558938Y62237D01*
X558861Y62246D01*
X558785Y62259D01*
X558710Y62276D01*
X558636Y62296D01*
X558563Y62321D01*
X558492Y62348D01*
X558421Y62379D01*
X558353Y62414D01*
X558286Y62452D01*
X558221Y62493D01*
X558158Y62537D01*
X558098Y62584D01*
X558039Y62635D01*
X557984Y62688D01*
X557931Y62743D01*
X557880Y62802D01*
X557833Y62862D01*
X557789Y62925D01*
X557748Y62990D01*
X557710Y63057D01*
X557675Y63125D01*
X557644Y63196D01*
X557617Y63267D01*
X557592Y63340D01*
X557572Y63414D01*
X557555Y63489D01*
X557542Y63565D01*
X557533Y63642D01*
X557527Y63718D01*
X557525Y63795D01*
X584957Y44725D02*
X584957Y42115D01*
X584957Y44725D02*
X584959Y44826D01*
X584965Y44927D01*
X584975Y45028D01*
X584988Y45128D01*
X585006Y45228D01*
X585027Y45327D01*
X585053Y45425D01*
X585082Y45522D01*
X585114Y45618D01*
X585151Y45712D01*
X585191Y45805D01*
X585235Y45897D01*
X585282Y45986D01*
X585333Y46074D01*
X585387Y46160D01*
X585444Y46243D01*
X585504Y46325D01*
X585568Y46403D01*
X585634Y46480D01*
X585704Y46553D01*
X585776Y46624D01*
X585851Y46692D01*
X585929Y46757D01*
X586009Y46819D01*
X586091Y46878D01*
X586176Y46934D01*
X586263Y46986D01*
X586351Y47035D01*
X586442Y47081D01*
X586534Y47122D01*
X586628Y47161D01*
X586723Y47195D01*
X586819Y47226D01*
X586917Y47253D01*
X587015Y47277D01*
X587115Y47296D01*
X587215Y47312D01*
X587315Y47324D01*
X587416Y47332D01*
X587517Y47336D01*
X587619Y47336D01*
X587720Y47332D01*
X587821Y47324D01*
X587921Y47312D01*
X588021Y47296D01*
X588121Y47277D01*
X588219Y47253D01*
X588317Y47226D01*
X588413Y47195D01*
X588508Y47161D01*
X588602Y47122D01*
X588694Y47081D01*
X588785Y47035D01*
X588874Y46986D01*
X588960Y46934D01*
X589045Y46878D01*
X589127Y46819D01*
X589207Y46757D01*
X589285Y46692D01*
X589360Y46624D01*
X589432Y46553D01*
X589502Y46480D01*
X589568Y46403D01*
X589632Y46325D01*
X589692Y46243D01*
X589749Y46160D01*
X589803Y46074D01*
X589854Y45986D01*
X589901Y45897D01*
X589945Y45805D01*
X589985Y45712D01*
X590022Y45618D01*
X590054Y45522D01*
X590083Y45425D01*
X590109Y45327D01*
X590130Y45228D01*
X590148Y45128D01*
X590161Y45028D01*
X590171Y44927D01*
X590177Y44826D01*
X590179Y44725D01*
X594355Y45247D02*
X594355Y42115D01*
X594355Y45247D02*
X594353Y45337D01*
X594347Y45426D01*
X594338Y45516D01*
X594324Y45605D01*
X594307Y45693D01*
X594286Y45780D01*
X594261Y45867D01*
X594232Y45952D01*
X594200Y46036D01*
X594165Y46118D01*
X594125Y46199D01*
X594083Y46278D01*
X594037Y46355D01*
X593987Y46430D01*
X593935Y46503D01*
X593879Y46574D01*
X593821Y46642D01*
X593759Y46707D01*
X593695Y46770D01*
X593628Y46830D01*
X593559Y46887D01*
X593487Y46941D01*
X593413Y46992D01*
X593337Y47040D01*
X593259Y47084D01*
X593179Y47125D01*
X593097Y47163D01*
X593014Y47197D01*
X592929Y47227D01*
X592843Y47254D01*
X592757Y47277D01*
X592669Y47296D01*
X592580Y47311D01*
X592491Y47323D01*
X592402Y47331D01*
X592312Y47335D01*
X592222Y47335D01*
X592132Y47331D01*
X592043Y47323D01*
X591954Y47311D01*
X591865Y47296D01*
X591777Y47277D01*
X591691Y47254D01*
X591605Y47227D01*
X591520Y47197D01*
X591437Y47163D01*
X591355Y47125D01*
X591275Y47084D01*
X591197Y47040D01*
X591121Y46992D01*
X591047Y46941D01*
X590975Y46887D01*
X590906Y46830D01*
X590839Y46770D01*
X590775Y46707D01*
X590713Y46642D01*
X590655Y46574D01*
X590599Y46503D01*
X590547Y46430D01*
X590497Y46355D01*
X590451Y46278D01*
X590409Y46199D01*
X590369Y46118D01*
X590334Y46036D01*
X590302Y45952D01*
X590273Y45867D01*
X590248Y45780D01*
X590227Y45693D01*
X590210Y45605D01*
X590196Y45516D01*
X590187Y45426D01*
X590181Y45337D01*
X590179Y45247D01*
X590178Y45247D02*
X590178Y43159D01*
X591222Y50866D02*
X584957Y52955D01*
X591222Y55043D01*
X584957Y58574D02*
X584957Y61184D01*
X584959Y61285D01*
X584965Y61386D01*
X584975Y61487D01*
X584988Y61587D01*
X585006Y61687D01*
X585027Y61786D01*
X585053Y61884D01*
X585082Y61981D01*
X585114Y62077D01*
X585151Y62171D01*
X585191Y62264D01*
X585235Y62356D01*
X585282Y62445D01*
X585333Y62533D01*
X585387Y62619D01*
X585444Y62702D01*
X585504Y62784D01*
X585568Y62862D01*
X585634Y62939D01*
X585704Y63012D01*
X585776Y63083D01*
X585851Y63151D01*
X585929Y63216D01*
X586009Y63278D01*
X586091Y63337D01*
X586176Y63393D01*
X586263Y63445D01*
X586351Y63494D01*
X586442Y63540D01*
X586534Y63581D01*
X586628Y63620D01*
X586723Y63654D01*
X586819Y63685D01*
X586917Y63712D01*
X587015Y63736D01*
X587115Y63755D01*
X587215Y63771D01*
X587315Y63783D01*
X587416Y63791D01*
X587517Y63795D01*
X587619Y63795D01*
X587720Y63791D01*
X587821Y63783D01*
X587921Y63771D01*
X588021Y63755D01*
X588121Y63736D01*
X588219Y63712D01*
X588317Y63685D01*
X588413Y63654D01*
X588508Y63620D01*
X588602Y63581D01*
X588694Y63540D01*
X588785Y63494D01*
X588874Y63445D01*
X588960Y63393D01*
X589045Y63337D01*
X589127Y63278D01*
X589207Y63216D01*
X589285Y63151D01*
X589360Y63083D01*
X589432Y63012D01*
X589502Y62939D01*
X589568Y62862D01*
X589632Y62784D01*
X589692Y62702D01*
X589749Y62619D01*
X589803Y62533D01*
X589854Y62445D01*
X589901Y62356D01*
X589945Y62264D01*
X589985Y62171D01*
X590022Y62077D01*
X590054Y61981D01*
X590083Y61884D01*
X590109Y61786D01*
X590130Y61687D01*
X590148Y61587D01*
X590161Y61487D01*
X590171Y61386D01*
X590177Y61285D01*
X590179Y61184D01*
X594355Y61707D02*
X594355Y58574D01*
X594355Y61707D02*
X594353Y61797D01*
X594347Y61886D01*
X594338Y61976D01*
X594324Y62065D01*
X594307Y62153D01*
X594286Y62240D01*
X594261Y62327D01*
X594232Y62412D01*
X594200Y62496D01*
X594165Y62578D01*
X594125Y62659D01*
X594083Y62738D01*
X594037Y62815D01*
X593987Y62890D01*
X593935Y62963D01*
X593879Y63034D01*
X593821Y63102D01*
X593759Y63167D01*
X593695Y63230D01*
X593628Y63290D01*
X593559Y63347D01*
X593487Y63401D01*
X593413Y63452D01*
X593337Y63500D01*
X593259Y63544D01*
X593179Y63585D01*
X593097Y63623D01*
X593014Y63657D01*
X592929Y63687D01*
X592843Y63714D01*
X592757Y63737D01*
X592669Y63756D01*
X592580Y63771D01*
X592491Y63783D01*
X592402Y63791D01*
X592312Y63795D01*
X592222Y63795D01*
X592132Y63791D01*
X592043Y63783D01*
X591954Y63771D01*
X591865Y63756D01*
X591777Y63737D01*
X591691Y63714D01*
X591605Y63687D01*
X591520Y63657D01*
X591437Y63623D01*
X591355Y63585D01*
X591275Y63544D01*
X591197Y63500D01*
X591121Y63452D01*
X591047Y63401D01*
X590975Y63347D01*
X590906Y63290D01*
X590839Y63230D01*
X590775Y63167D01*
X590713Y63102D01*
X590655Y63034D01*
X590599Y62963D01*
X590547Y62890D01*
X590497Y62815D01*
X590451Y62738D01*
X590409Y62659D01*
X590369Y62578D01*
X590334Y62496D01*
X590302Y62412D01*
X590273Y62327D01*
X590248Y62240D01*
X590227Y62153D01*
X590210Y62065D01*
X590196Y61976D01*
X590187Y61886D01*
X590181Y61797D01*
X590179Y61707D01*
X590178Y61707D02*
X590178Y59618D01*
D12*
X1015500Y373500D02*
X1015500Y379500D01*
X1015500Y421500D01*
X999500Y421500D01*
X999500Y373500D01*
X1009500Y373500D01*
X1015500Y373500D01*
X1009500Y373500D02*
X1015500Y379500D01*
X918000Y401000D02*
X918000Y407000D01*
X918000Y449000D01*
X902000Y449000D01*
X902000Y401000D01*
X912000Y401000D01*
X918000Y401000D01*
X912000Y401000D02*
X918000Y407000D01*
X818000Y423500D02*
X818000Y429500D01*
X818000Y471500D01*
X802000Y471500D01*
X802000Y423500D01*
X812000Y423500D01*
X818000Y423500D01*
X812000Y423500D02*
X818000Y429500D01*
X718000Y438500D02*
X718000Y444500D01*
X718000Y486500D01*
X702000Y486500D01*
X702000Y438500D01*
X712000Y438500D01*
X718000Y438500D01*
X712000Y438500D02*
X718000Y444500D01*
X618000Y446000D02*
X618000Y452000D01*
X618000Y494000D01*
X602000Y494000D01*
X602000Y446000D01*
X612000Y446000D01*
X618000Y446000D01*
X612000Y446000D02*
X618000Y452000D01*
X478000Y452000D02*
X478000Y446000D01*
X478000Y452000D02*
X478000Y494000D01*
X462000Y494000D01*
X462000Y446000D01*
X472000Y446000D01*
X478000Y446000D01*
X472000Y446000D02*
X478000Y452000D01*
X378000Y442000D02*
X378000Y436000D01*
X378000Y442000D02*
X378000Y484000D01*
X362000Y484000D01*
X362000Y436000D01*
X372000Y436000D01*
X378000Y436000D01*
X372000Y436000D02*
X378000Y442000D01*
X278000Y429500D02*
X278000Y423500D01*
X278000Y429500D02*
X278000Y471500D01*
X262000Y471500D01*
X262000Y423500D01*
X272000Y423500D01*
X278000Y423500D01*
X272000Y423500D02*
X278000Y429500D01*
X178000Y407000D02*
X178000Y401000D01*
X178000Y407000D02*
X178000Y449000D01*
X162000Y449000D01*
X162000Y401000D01*
X172000Y401000D01*
X178000Y401000D01*
X172000Y401000D02*
X178000Y407000D01*
X78000Y379500D02*
X78000Y373500D01*
X78000Y379500D02*
X78000Y421500D01*
X62000Y421500D01*
X62000Y373500D01*
X72000Y373500D01*
X78000Y373500D01*
X72000Y373500D02*
X78000Y379500D01*
D13*
X973175Y421500D02*
X986825Y421500D01*
X886825Y449000D02*
X873175Y449000D01*
X786825Y476500D02*
X773175Y476500D01*
X686825Y486500D02*
X673175Y486500D01*
X586825Y494000D02*
X573175Y494000D01*
X506825Y494000D02*
X493175Y494000D01*
X406825Y484000D02*
X393175Y484000D01*
X306825Y471500D02*
X293175Y471500D01*
X206825Y449000D02*
X193175Y449000D01*
X106825Y424000D02*
X93175Y424000D01*
X471444Y297602D02*
X471444Y284902D01*
D14*
X510408Y330622D02*
X510408Y358562D01*
X490088Y330622D02*
X490090Y330522D01*
X490096Y330423D01*
X490106Y330323D01*
X490119Y330225D01*
X490137Y330126D01*
X490158Y330029D01*
X490183Y329933D01*
X490212Y329837D01*
X490245Y329743D01*
X490281Y329650D01*
X490321Y329559D01*
X490365Y329469D01*
X490412Y329381D01*
X490462Y329295D01*
X490516Y329211D01*
X490573Y329129D01*
X490633Y329050D01*
X490697Y328972D01*
X490763Y328898D01*
X490832Y328826D01*
X490904Y328757D01*
X490978Y328691D01*
X491056Y328627D01*
X491135Y328567D01*
X491217Y328510D01*
X491301Y328456D01*
X491387Y328406D01*
X491475Y328359D01*
X491565Y328315D01*
X491656Y328275D01*
X491749Y328239D01*
X491843Y328206D01*
X491939Y328177D01*
X492035Y328152D01*
X492132Y328131D01*
X492231Y328113D01*
X492329Y328100D01*
X492429Y328090D01*
X492528Y328084D01*
X492628Y328082D01*
X490088Y358562D02*
X490090Y358662D01*
X490096Y358761D01*
X490106Y358861D01*
X490119Y358959D01*
X490137Y359058D01*
X490158Y359155D01*
X490183Y359251D01*
X490212Y359347D01*
X490245Y359441D01*
X490281Y359534D01*
X490321Y359625D01*
X490365Y359715D01*
X490412Y359803D01*
X490462Y359889D01*
X490516Y359973D01*
X490573Y360055D01*
X490633Y360134D01*
X490697Y360212D01*
X490763Y360286D01*
X490832Y360358D01*
X490904Y360427D01*
X490978Y360493D01*
X491056Y360557D01*
X491135Y360617D01*
X491217Y360674D01*
X491301Y360728D01*
X491387Y360778D01*
X491475Y360825D01*
X491565Y360869D01*
X491656Y360909D01*
X491749Y360945D01*
X491843Y360978D01*
X491939Y361007D01*
X492035Y361032D01*
X492132Y361053D01*
X492231Y361071D01*
X492329Y361084D01*
X492429Y361094D01*
X492528Y361100D01*
X492628Y361102D01*
X507868Y361102D02*
X507968Y361100D01*
X508067Y361094D01*
X508167Y361084D01*
X508265Y361071D01*
X508364Y361053D01*
X508461Y361032D01*
X508557Y361007D01*
X508653Y360978D01*
X508747Y360945D01*
X508840Y360909D01*
X508931Y360869D01*
X509021Y360825D01*
X509109Y360778D01*
X509195Y360728D01*
X509279Y360674D01*
X509361Y360617D01*
X509440Y360557D01*
X509518Y360493D01*
X509592Y360427D01*
X509664Y360358D01*
X509733Y360286D01*
X509799Y360212D01*
X509863Y360134D01*
X509923Y360055D01*
X509980Y359973D01*
X510034Y359889D01*
X510084Y359803D01*
X510131Y359715D01*
X510175Y359625D01*
X510215Y359534D01*
X510251Y359441D01*
X510284Y359347D01*
X510313Y359251D01*
X510338Y359155D01*
X510359Y359058D01*
X510377Y358959D01*
X510390Y358861D01*
X510400Y358761D01*
X510406Y358662D01*
X510408Y358562D01*
X510408Y330622D02*
X510406Y330522D01*
X510400Y330423D01*
X510390Y330323D01*
X510377Y330225D01*
X510359Y330126D01*
X510338Y330029D01*
X510313Y329933D01*
X510284Y329837D01*
X510251Y329743D01*
X510215Y329650D01*
X510175Y329559D01*
X510131Y329469D01*
X510084Y329381D01*
X510034Y329295D01*
X509980Y329211D01*
X509923Y329129D01*
X509863Y329050D01*
X509799Y328972D01*
X509733Y328898D01*
X509664Y328826D01*
X509592Y328757D01*
X509518Y328691D01*
X509440Y328627D01*
X509361Y328567D01*
X509279Y328510D01*
X509195Y328456D01*
X509109Y328406D01*
X509021Y328359D01*
X508931Y328315D01*
X508840Y328275D01*
X508747Y328239D01*
X508653Y328206D01*
X508557Y328177D01*
X508461Y328152D01*
X508364Y328131D01*
X508265Y328113D01*
X508167Y328100D01*
X508067Y328090D01*
X507968Y328084D01*
X507868Y328082D01*
X492628Y328082D01*
X492628Y361102D02*
X507868Y361102D01*
X490088Y358562D02*
X490088Y330622D01*
M02*
