G04 EAGLE Gerber RS-274X export*
G75*
%MOMM*%
%FSLAX34Y34*%
%LPD*%
%INSilkscreen Top*%
%IPPOS*%
%AMOC8*
5,1,8,0,0,1.08239X$1,22.5*%
G01*
%ADD10C,0.076200*%
%ADD11C,0.101600*%
%ADD12C,0.189600*%
%ADD13C,0.203200*%
%ADD14C,0.127000*%
%ADD15C,0.152400*%


D10*
X491603Y284431D02*
X491603Y281821D01*
X491601Y281744D01*
X491595Y281668D01*
X491586Y281591D01*
X491573Y281515D01*
X491556Y281440D01*
X491536Y281366D01*
X491511Y281293D01*
X491484Y281222D01*
X491453Y281151D01*
X491418Y281083D01*
X491380Y281016D01*
X491339Y280951D01*
X491295Y280888D01*
X491248Y280828D01*
X491197Y280769D01*
X491144Y280714D01*
X491089Y280661D01*
X491030Y280610D01*
X490970Y280563D01*
X490907Y280519D01*
X490842Y280478D01*
X490775Y280440D01*
X490707Y280405D01*
X490636Y280374D01*
X490565Y280347D01*
X490492Y280322D01*
X490418Y280302D01*
X490343Y280285D01*
X490267Y280272D01*
X490190Y280263D01*
X490114Y280257D01*
X490037Y280255D01*
X490037Y280254D02*
X486904Y280254D01*
X486904Y280255D02*
X486827Y280257D01*
X486751Y280263D01*
X486674Y280272D01*
X486598Y280285D01*
X486523Y280302D01*
X486449Y280322D01*
X486376Y280347D01*
X486305Y280374D01*
X486234Y280405D01*
X486166Y280440D01*
X486099Y280478D01*
X486034Y280519D01*
X485971Y280563D01*
X485911Y280610D01*
X485852Y280661D01*
X485797Y280714D01*
X485744Y280769D01*
X485693Y280828D01*
X485646Y280888D01*
X485602Y280951D01*
X485561Y281016D01*
X485523Y281083D01*
X485488Y281151D01*
X485457Y281222D01*
X485430Y281293D01*
X485405Y281366D01*
X485385Y281440D01*
X485368Y281515D01*
X485355Y281591D01*
X485346Y281668D01*
X485340Y281744D01*
X485338Y281821D01*
X485338Y284431D01*
X493169Y284431D01*
X493246Y284429D01*
X493322Y284423D01*
X493399Y284414D01*
X493475Y284401D01*
X493550Y284384D01*
X493624Y284364D01*
X493697Y284339D01*
X493768Y284312D01*
X493839Y284281D01*
X493907Y284246D01*
X493974Y284208D01*
X494039Y284167D01*
X494102Y284123D01*
X494162Y284076D01*
X494221Y284025D01*
X494276Y283972D01*
X494329Y283917D01*
X494380Y283858D01*
X494427Y283798D01*
X494471Y283735D01*
X494512Y283670D01*
X494550Y283603D01*
X494585Y283535D01*
X494616Y283464D01*
X494643Y283393D01*
X494668Y283320D01*
X494688Y283246D01*
X494705Y283171D01*
X494718Y283095D01*
X494727Y283018D01*
X494733Y282942D01*
X494735Y282865D01*
X494736Y282865D02*
X494736Y280776D01*
X491603Y288834D02*
X485338Y288834D01*
X485338Y291445D01*
X485340Y291522D01*
X485346Y291598D01*
X485355Y291675D01*
X485368Y291751D01*
X485385Y291826D01*
X485405Y291900D01*
X485430Y291973D01*
X485457Y292044D01*
X485488Y292115D01*
X485523Y292183D01*
X485561Y292250D01*
X485602Y292315D01*
X485646Y292378D01*
X485693Y292438D01*
X485744Y292497D01*
X485797Y292552D01*
X485852Y292605D01*
X485911Y292656D01*
X485971Y292703D01*
X486034Y292747D01*
X486099Y292788D01*
X486166Y292826D01*
X486234Y292861D01*
X486305Y292892D01*
X486376Y292919D01*
X486449Y292944D01*
X486523Y292964D01*
X486598Y292981D01*
X486674Y292994D01*
X486750Y293003D01*
X486827Y293009D01*
X486904Y293011D01*
X491603Y293011D01*
X491603Y301195D02*
X482205Y301195D01*
X491603Y301195D02*
X491603Y298584D01*
X491601Y298507D01*
X491595Y298431D01*
X491586Y298354D01*
X491573Y298278D01*
X491556Y298203D01*
X491536Y298129D01*
X491511Y298056D01*
X491484Y297985D01*
X491453Y297914D01*
X491418Y297846D01*
X491380Y297779D01*
X491339Y297714D01*
X491295Y297651D01*
X491248Y297591D01*
X491197Y297532D01*
X491144Y297477D01*
X491089Y297424D01*
X491030Y297373D01*
X490970Y297326D01*
X490907Y297282D01*
X490842Y297241D01*
X490775Y297203D01*
X490707Y297168D01*
X490636Y297137D01*
X490565Y297110D01*
X490492Y297085D01*
X490418Y297065D01*
X490343Y297048D01*
X490267Y297035D01*
X490190Y297026D01*
X490114Y297020D01*
X490037Y297018D01*
X486904Y297018D01*
X486827Y297020D01*
X486751Y297026D01*
X486674Y297035D01*
X486598Y297048D01*
X486523Y297065D01*
X486449Y297085D01*
X486376Y297110D01*
X486305Y297137D01*
X486234Y297168D01*
X486166Y297203D01*
X486099Y297241D01*
X486034Y297282D01*
X485971Y297326D01*
X485911Y297373D01*
X485852Y297424D01*
X485797Y297477D01*
X485744Y297532D01*
X485693Y297591D01*
X485646Y297651D01*
X485602Y297714D01*
X485561Y297779D01*
X485523Y297846D01*
X485488Y297914D01*
X485457Y297985D01*
X485430Y298056D01*
X485405Y298129D01*
X485385Y298203D01*
X485368Y298278D01*
X485355Y298354D01*
X485346Y298431D01*
X485340Y298507D01*
X485338Y298584D01*
X485338Y301195D01*
X607530Y251444D02*
X613795Y251444D01*
X607530Y251444D02*
X607530Y254577D01*
X608574Y254577D01*
X613795Y259055D02*
X613795Y261666D01*
X613795Y259055D02*
X613793Y258978D01*
X613787Y258902D01*
X613778Y258825D01*
X613765Y258749D01*
X613748Y258674D01*
X613728Y258600D01*
X613703Y258527D01*
X613676Y258456D01*
X613645Y258385D01*
X613610Y258317D01*
X613572Y258250D01*
X613531Y258185D01*
X613487Y258122D01*
X613440Y258062D01*
X613389Y258003D01*
X613336Y257948D01*
X613281Y257895D01*
X613222Y257844D01*
X613162Y257797D01*
X613099Y257753D01*
X613034Y257712D01*
X612967Y257674D01*
X612899Y257639D01*
X612828Y257608D01*
X612757Y257581D01*
X612684Y257556D01*
X612610Y257536D01*
X612535Y257519D01*
X612459Y257506D01*
X612382Y257497D01*
X612306Y257491D01*
X612229Y257489D01*
X609618Y257489D01*
X609528Y257491D01*
X609439Y257497D01*
X609349Y257506D01*
X609260Y257520D01*
X609172Y257537D01*
X609085Y257558D01*
X608998Y257583D01*
X608913Y257612D01*
X608829Y257644D01*
X608747Y257679D01*
X608666Y257719D01*
X608587Y257761D01*
X608510Y257807D01*
X608435Y257857D01*
X608362Y257909D01*
X608291Y257965D01*
X608223Y258023D01*
X608158Y258085D01*
X608095Y258149D01*
X608035Y258216D01*
X607978Y258285D01*
X607924Y258357D01*
X607873Y258431D01*
X607825Y258507D01*
X607781Y258585D01*
X607740Y258665D01*
X607702Y258747D01*
X607668Y258830D01*
X607638Y258915D01*
X607611Y259001D01*
X607588Y259087D01*
X607569Y259175D01*
X607554Y259264D01*
X607542Y259353D01*
X607534Y259442D01*
X607530Y259532D01*
X607530Y259622D01*
X607534Y259712D01*
X607542Y259801D01*
X607554Y259890D01*
X607569Y259979D01*
X607588Y260067D01*
X607611Y260153D01*
X607638Y260239D01*
X607668Y260324D01*
X607702Y260407D01*
X607740Y260489D01*
X607781Y260569D01*
X607825Y260647D01*
X607873Y260723D01*
X607924Y260797D01*
X607978Y260869D01*
X608035Y260938D01*
X608095Y261005D01*
X608158Y261069D01*
X608223Y261131D01*
X608291Y261189D01*
X608362Y261245D01*
X608435Y261297D01*
X608510Y261347D01*
X608587Y261393D01*
X608666Y261435D01*
X608747Y261475D01*
X608829Y261510D01*
X608913Y261542D01*
X608998Y261571D01*
X609085Y261596D01*
X609172Y261617D01*
X609260Y261634D01*
X609349Y261648D01*
X609439Y261657D01*
X609528Y261663D01*
X609618Y261665D01*
X609618Y261666D02*
X610662Y261666D01*
X610662Y257489D01*
X610140Y266197D02*
X611184Y268807D01*
X610140Y266196D02*
X610112Y266130D01*
X610079Y266065D01*
X610044Y266002D01*
X610005Y265941D01*
X609963Y265882D01*
X609918Y265826D01*
X609870Y265772D01*
X609819Y265721D01*
X609766Y265672D01*
X609709Y265627D01*
X609651Y265584D01*
X609591Y265545D01*
X609528Y265508D01*
X609463Y265476D01*
X609397Y265447D01*
X609330Y265421D01*
X609261Y265399D01*
X609191Y265381D01*
X609120Y265366D01*
X609049Y265355D01*
X608977Y265348D01*
X608905Y265345D01*
X608833Y265346D01*
X608760Y265351D01*
X608689Y265359D01*
X608617Y265371D01*
X608547Y265387D01*
X608478Y265407D01*
X608409Y265431D01*
X608342Y265458D01*
X608277Y265488D01*
X608213Y265522D01*
X608151Y265560D01*
X608091Y265600D01*
X608034Y265644D01*
X607979Y265691D01*
X607926Y265741D01*
X607877Y265793D01*
X607830Y265848D01*
X607786Y265905D01*
X607745Y265965D01*
X607708Y266027D01*
X607673Y266091D01*
X607643Y266156D01*
X607615Y266223D01*
X607592Y266291D01*
X607572Y266361D01*
X607556Y266431D01*
X607543Y266502D01*
X607535Y266574D01*
X607530Y266646D01*
X607529Y266718D01*
X607530Y266719D02*
X607534Y266870D01*
X607542Y267021D01*
X607553Y267172D01*
X607569Y267323D01*
X607589Y267473D01*
X607612Y267623D01*
X607639Y267772D01*
X607670Y267920D01*
X607705Y268068D01*
X607743Y268214D01*
X607786Y268360D01*
X607832Y268504D01*
X607881Y268647D01*
X607934Y268789D01*
X607991Y268929D01*
X608052Y269068D01*
X611184Y268807D02*
X611212Y268873D01*
X611245Y268938D01*
X611280Y269001D01*
X611319Y269062D01*
X611361Y269121D01*
X611406Y269177D01*
X611454Y269231D01*
X611505Y269282D01*
X611558Y269331D01*
X611615Y269377D01*
X611673Y269419D01*
X611733Y269458D01*
X611796Y269495D01*
X611861Y269527D01*
X611927Y269556D01*
X611994Y269582D01*
X612063Y269604D01*
X612133Y269622D01*
X612204Y269637D01*
X612275Y269648D01*
X612347Y269655D01*
X612419Y269658D01*
X612491Y269657D01*
X612564Y269652D01*
X612635Y269644D01*
X612707Y269632D01*
X612777Y269616D01*
X612846Y269596D01*
X612915Y269572D01*
X612982Y269545D01*
X613047Y269515D01*
X613111Y269481D01*
X613173Y269443D01*
X613233Y269403D01*
X613290Y269359D01*
X613345Y269312D01*
X613398Y269262D01*
X613447Y269210D01*
X613494Y269155D01*
X613538Y269098D01*
X613579Y269038D01*
X613616Y268976D01*
X613651Y268912D01*
X613681Y268847D01*
X613709Y268780D01*
X613732Y268712D01*
X613752Y268642D01*
X613768Y268572D01*
X613781Y268501D01*
X613789Y268429D01*
X613794Y268357D01*
X613795Y268285D01*
X613790Y268075D01*
X613779Y267866D01*
X613764Y267657D01*
X613744Y267449D01*
X613718Y267241D01*
X613688Y267034D01*
X613653Y266827D01*
X613613Y266622D01*
X613569Y266417D01*
X613519Y266214D01*
X613465Y266011D01*
X613405Y265810D01*
X613342Y265611D01*
X613273Y265413D01*
X613795Y274905D02*
X613795Y277515D01*
X613795Y274905D02*
X613793Y274828D01*
X613787Y274752D01*
X613778Y274675D01*
X613765Y274599D01*
X613748Y274524D01*
X613728Y274450D01*
X613703Y274377D01*
X613676Y274306D01*
X613645Y274235D01*
X613610Y274167D01*
X613572Y274100D01*
X613531Y274035D01*
X613487Y273972D01*
X613440Y273912D01*
X613389Y273853D01*
X613336Y273798D01*
X613281Y273745D01*
X613222Y273694D01*
X613162Y273647D01*
X613099Y273603D01*
X613034Y273562D01*
X612967Y273524D01*
X612899Y273489D01*
X612828Y273458D01*
X612757Y273431D01*
X612684Y273406D01*
X612610Y273386D01*
X612535Y273369D01*
X612459Y273356D01*
X612382Y273347D01*
X612306Y273341D01*
X612229Y273339D01*
X612229Y273338D02*
X609618Y273338D01*
X609618Y273339D02*
X609528Y273341D01*
X609439Y273347D01*
X609349Y273356D01*
X609260Y273370D01*
X609172Y273387D01*
X609085Y273408D01*
X608998Y273433D01*
X608913Y273462D01*
X608829Y273494D01*
X608747Y273529D01*
X608666Y273569D01*
X608587Y273611D01*
X608510Y273657D01*
X608435Y273707D01*
X608362Y273759D01*
X608291Y273815D01*
X608223Y273873D01*
X608158Y273935D01*
X608095Y273999D01*
X608035Y274066D01*
X607978Y274135D01*
X607924Y274207D01*
X607873Y274281D01*
X607825Y274357D01*
X607781Y274435D01*
X607740Y274515D01*
X607702Y274597D01*
X607668Y274680D01*
X607638Y274765D01*
X607611Y274851D01*
X607588Y274937D01*
X607569Y275025D01*
X607554Y275114D01*
X607542Y275203D01*
X607534Y275292D01*
X607530Y275382D01*
X607530Y275472D01*
X607534Y275562D01*
X607542Y275651D01*
X607554Y275740D01*
X607569Y275829D01*
X607588Y275917D01*
X607611Y276003D01*
X607638Y276089D01*
X607668Y276174D01*
X607702Y276257D01*
X607740Y276339D01*
X607781Y276419D01*
X607825Y276497D01*
X607873Y276573D01*
X607924Y276647D01*
X607978Y276719D01*
X608035Y276788D01*
X608095Y276855D01*
X608158Y276919D01*
X608223Y276981D01*
X608291Y277039D01*
X608362Y277095D01*
X608435Y277147D01*
X608510Y277197D01*
X608587Y277243D01*
X608666Y277285D01*
X608747Y277325D01*
X608829Y277360D01*
X608913Y277392D01*
X608998Y277421D01*
X609085Y277446D01*
X609172Y277467D01*
X609260Y277484D01*
X609349Y277498D01*
X609439Y277507D01*
X609528Y277513D01*
X609618Y277515D01*
X610662Y277515D01*
X610662Y273338D01*
X607530Y280494D02*
X607530Y283627D01*
X604397Y281539D02*
X612229Y281539D01*
X612306Y281541D01*
X612382Y281547D01*
X612459Y281556D01*
X612535Y281569D01*
X612610Y281586D01*
X612684Y281606D01*
X612757Y281631D01*
X612828Y281658D01*
X612899Y281689D01*
X612967Y281724D01*
X613034Y281762D01*
X613099Y281803D01*
X613162Y281847D01*
X613222Y281894D01*
X613281Y281945D01*
X613336Y281998D01*
X613389Y282053D01*
X613440Y282112D01*
X613487Y282172D01*
X613531Y282235D01*
X613572Y282300D01*
X613610Y282367D01*
X613645Y282435D01*
X613676Y282506D01*
X613703Y282577D01*
X613728Y282650D01*
X613748Y282724D01*
X613765Y282799D01*
X613778Y282875D01*
X613787Y282952D01*
X613793Y283028D01*
X613795Y283105D01*
X613795Y283627D01*
X625568Y266735D02*
X624524Y264125D01*
X624524Y264124D02*
X624496Y264058D01*
X624463Y263993D01*
X624428Y263930D01*
X624389Y263869D01*
X624347Y263810D01*
X624302Y263754D01*
X624254Y263700D01*
X624203Y263649D01*
X624150Y263600D01*
X624093Y263555D01*
X624035Y263512D01*
X623975Y263473D01*
X623912Y263436D01*
X623847Y263404D01*
X623781Y263375D01*
X623714Y263349D01*
X623645Y263327D01*
X623575Y263309D01*
X623504Y263294D01*
X623433Y263283D01*
X623361Y263276D01*
X623289Y263273D01*
X623217Y263274D01*
X623144Y263279D01*
X623073Y263287D01*
X623001Y263299D01*
X622931Y263315D01*
X622862Y263335D01*
X622793Y263359D01*
X622726Y263386D01*
X622661Y263416D01*
X622597Y263450D01*
X622535Y263488D01*
X622475Y263528D01*
X622418Y263572D01*
X622363Y263619D01*
X622310Y263669D01*
X622261Y263721D01*
X622214Y263776D01*
X622170Y263833D01*
X622129Y263893D01*
X622092Y263955D01*
X622057Y264019D01*
X622027Y264084D01*
X621999Y264151D01*
X621976Y264219D01*
X621956Y264289D01*
X621940Y264359D01*
X621927Y264430D01*
X621919Y264502D01*
X621914Y264574D01*
X621913Y264646D01*
X621914Y264647D02*
X621918Y264798D01*
X621926Y264949D01*
X621937Y265100D01*
X621953Y265251D01*
X621973Y265401D01*
X621996Y265551D01*
X622023Y265700D01*
X622054Y265848D01*
X622089Y265996D01*
X622127Y266142D01*
X622170Y266288D01*
X622216Y266432D01*
X622265Y266575D01*
X622318Y266717D01*
X622375Y266857D01*
X622436Y266996D01*
X625568Y266735D02*
X625596Y266801D01*
X625629Y266866D01*
X625664Y266929D01*
X625703Y266990D01*
X625745Y267049D01*
X625790Y267105D01*
X625838Y267159D01*
X625889Y267210D01*
X625942Y267259D01*
X625999Y267305D01*
X626057Y267347D01*
X626117Y267386D01*
X626180Y267423D01*
X626245Y267455D01*
X626311Y267484D01*
X626378Y267510D01*
X626447Y267532D01*
X626517Y267550D01*
X626588Y267565D01*
X626659Y267576D01*
X626731Y267583D01*
X626803Y267586D01*
X626875Y267585D01*
X626948Y267580D01*
X627019Y267572D01*
X627091Y267560D01*
X627161Y267544D01*
X627230Y267524D01*
X627299Y267500D01*
X627366Y267473D01*
X627431Y267443D01*
X627495Y267409D01*
X627557Y267371D01*
X627617Y267331D01*
X627674Y267287D01*
X627729Y267240D01*
X627782Y267190D01*
X627831Y267138D01*
X627878Y267083D01*
X627922Y267026D01*
X627963Y266966D01*
X628000Y266904D01*
X628035Y266840D01*
X628065Y266775D01*
X628093Y266708D01*
X628116Y266640D01*
X628136Y266570D01*
X628152Y266500D01*
X628165Y266429D01*
X628173Y266357D01*
X628178Y266285D01*
X628179Y266213D01*
X628174Y266003D01*
X628163Y265794D01*
X628148Y265585D01*
X628128Y265377D01*
X628102Y265169D01*
X628072Y264962D01*
X628037Y264755D01*
X627997Y264550D01*
X627953Y264345D01*
X627903Y264142D01*
X627849Y263939D01*
X627789Y263738D01*
X627726Y263539D01*
X627657Y263341D01*
X628179Y275397D02*
X618781Y275397D01*
X628179Y275397D02*
X628179Y272787D01*
X628177Y272710D01*
X628171Y272634D01*
X628162Y272557D01*
X628149Y272481D01*
X628132Y272406D01*
X628112Y272332D01*
X628087Y272259D01*
X628060Y272188D01*
X628029Y272117D01*
X627994Y272049D01*
X627956Y271982D01*
X627915Y271917D01*
X627871Y271854D01*
X627824Y271794D01*
X627773Y271735D01*
X627720Y271680D01*
X627665Y271627D01*
X627606Y271576D01*
X627546Y271529D01*
X627483Y271485D01*
X627418Y271444D01*
X627351Y271406D01*
X627283Y271371D01*
X627212Y271340D01*
X627141Y271313D01*
X627068Y271288D01*
X626994Y271268D01*
X626919Y271251D01*
X626843Y271238D01*
X626766Y271229D01*
X626690Y271223D01*
X626613Y271221D01*
X623480Y271221D01*
X623403Y271223D01*
X623327Y271229D01*
X623250Y271238D01*
X623174Y271251D01*
X623099Y271268D01*
X623025Y271288D01*
X622952Y271313D01*
X622881Y271340D01*
X622810Y271371D01*
X622742Y271406D01*
X622675Y271444D01*
X622610Y271485D01*
X622547Y271529D01*
X622487Y271576D01*
X622428Y271627D01*
X622373Y271680D01*
X622320Y271735D01*
X622269Y271794D01*
X622222Y271854D01*
X622178Y271917D01*
X622137Y271982D01*
X622099Y272049D01*
X622064Y272117D01*
X622033Y272188D01*
X622006Y272259D01*
X621981Y272332D01*
X621961Y272406D01*
X621944Y272481D01*
X621931Y272557D01*
X621922Y272634D01*
X621916Y272710D01*
X621914Y272787D01*
X621914Y275397D01*
X624524Y281278D02*
X624524Y283627D01*
X624525Y281278D02*
X624527Y281194D01*
X624533Y281109D01*
X624543Y281026D01*
X624556Y280942D01*
X624574Y280860D01*
X624595Y280778D01*
X624620Y280697D01*
X624648Y280618D01*
X624681Y280540D01*
X624717Y280464D01*
X624756Y280389D01*
X624799Y280316D01*
X624845Y280245D01*
X624894Y280177D01*
X624946Y280111D01*
X625002Y280047D01*
X625060Y279986D01*
X625121Y279928D01*
X625185Y279872D01*
X625251Y279820D01*
X625319Y279771D01*
X625390Y279725D01*
X625463Y279682D01*
X625538Y279643D01*
X625614Y279607D01*
X625692Y279574D01*
X625771Y279546D01*
X625852Y279521D01*
X625934Y279500D01*
X626016Y279482D01*
X626100Y279469D01*
X626183Y279459D01*
X626268Y279453D01*
X626352Y279451D01*
X626436Y279453D01*
X626521Y279459D01*
X626604Y279469D01*
X626688Y279482D01*
X626770Y279500D01*
X626852Y279521D01*
X626933Y279546D01*
X627012Y279574D01*
X627090Y279607D01*
X627166Y279643D01*
X627241Y279682D01*
X627314Y279725D01*
X627385Y279771D01*
X627453Y279820D01*
X627519Y279872D01*
X627583Y279928D01*
X627644Y279986D01*
X627702Y280047D01*
X627758Y280111D01*
X627810Y280177D01*
X627859Y280245D01*
X627905Y280316D01*
X627948Y280389D01*
X627987Y280464D01*
X628023Y280540D01*
X628056Y280618D01*
X628084Y280697D01*
X628109Y280778D01*
X628130Y280860D01*
X628148Y280942D01*
X628161Y281026D01*
X628171Y281109D01*
X628177Y281194D01*
X628179Y281278D01*
X628179Y283627D01*
X623480Y283627D01*
X623403Y283625D01*
X623327Y283619D01*
X623250Y283610D01*
X623174Y283597D01*
X623099Y283580D01*
X623025Y283560D01*
X622952Y283535D01*
X622881Y283508D01*
X622810Y283477D01*
X622742Y283442D01*
X622675Y283404D01*
X622610Y283363D01*
X622547Y283319D01*
X622487Y283272D01*
X622428Y283221D01*
X622373Y283168D01*
X622320Y283113D01*
X622269Y283054D01*
X622222Y282994D01*
X622178Y282931D01*
X622137Y282866D01*
X622099Y282799D01*
X622064Y282731D01*
X622033Y282660D01*
X622006Y282589D01*
X621981Y282516D01*
X621961Y282442D01*
X621944Y282367D01*
X621931Y282291D01*
X621922Y282214D01*
X621916Y282138D01*
X621914Y282061D01*
X621914Y279972D01*
X639952Y270394D02*
X638908Y267783D01*
X638880Y267717D01*
X638847Y267652D01*
X638812Y267589D01*
X638773Y267528D01*
X638731Y267469D01*
X638686Y267413D01*
X638638Y267359D01*
X638587Y267308D01*
X638534Y267259D01*
X638477Y267214D01*
X638419Y267171D01*
X638359Y267132D01*
X638296Y267095D01*
X638231Y267063D01*
X638165Y267034D01*
X638098Y267008D01*
X638029Y266986D01*
X637959Y266968D01*
X637888Y266953D01*
X637817Y266942D01*
X637745Y266935D01*
X637673Y266932D01*
X637601Y266933D01*
X637528Y266938D01*
X637457Y266946D01*
X637385Y266958D01*
X637315Y266974D01*
X637246Y266994D01*
X637177Y267018D01*
X637110Y267045D01*
X637045Y267075D01*
X636981Y267109D01*
X636919Y267147D01*
X636859Y267187D01*
X636802Y267231D01*
X636747Y267278D01*
X636694Y267328D01*
X636645Y267380D01*
X636598Y267435D01*
X636554Y267492D01*
X636513Y267552D01*
X636476Y267614D01*
X636441Y267678D01*
X636411Y267743D01*
X636383Y267810D01*
X636360Y267878D01*
X636340Y267948D01*
X636324Y268018D01*
X636311Y268089D01*
X636303Y268161D01*
X636298Y268233D01*
X636297Y268305D01*
X636298Y268306D02*
X636302Y268457D01*
X636310Y268608D01*
X636321Y268759D01*
X636337Y268910D01*
X636357Y269060D01*
X636380Y269210D01*
X636407Y269359D01*
X636438Y269507D01*
X636473Y269655D01*
X636511Y269801D01*
X636554Y269947D01*
X636600Y270091D01*
X636649Y270234D01*
X636702Y270376D01*
X636759Y270516D01*
X636820Y270655D01*
X639952Y270394D02*
X639980Y270460D01*
X640013Y270525D01*
X640048Y270588D01*
X640087Y270649D01*
X640129Y270708D01*
X640174Y270764D01*
X640222Y270818D01*
X640273Y270869D01*
X640326Y270918D01*
X640383Y270964D01*
X640441Y271006D01*
X640501Y271045D01*
X640564Y271082D01*
X640629Y271114D01*
X640695Y271143D01*
X640762Y271169D01*
X640831Y271191D01*
X640901Y271209D01*
X640972Y271224D01*
X641043Y271235D01*
X641115Y271242D01*
X641187Y271245D01*
X641259Y271244D01*
X641332Y271239D01*
X641403Y271231D01*
X641475Y271219D01*
X641545Y271203D01*
X641614Y271183D01*
X641683Y271159D01*
X641750Y271132D01*
X641815Y271102D01*
X641879Y271068D01*
X641941Y271030D01*
X642001Y270990D01*
X642058Y270946D01*
X642113Y270899D01*
X642166Y270849D01*
X642215Y270797D01*
X642262Y270742D01*
X642306Y270685D01*
X642347Y270625D01*
X642384Y270563D01*
X642419Y270499D01*
X642449Y270434D01*
X642477Y270367D01*
X642500Y270299D01*
X642520Y270229D01*
X642536Y270159D01*
X642549Y270088D01*
X642557Y270016D01*
X642562Y269944D01*
X642563Y269872D01*
X642558Y269662D01*
X642547Y269453D01*
X642532Y269244D01*
X642512Y269036D01*
X642486Y268828D01*
X642456Y268621D01*
X642421Y268414D01*
X642381Y268209D01*
X642337Y268004D01*
X642287Y267801D01*
X642233Y267598D01*
X642173Y267397D01*
X642110Y267198D01*
X642041Y267000D01*
X642563Y276502D02*
X642563Y278590D01*
X642563Y276502D02*
X642561Y276425D01*
X642555Y276349D01*
X642546Y276272D01*
X642533Y276196D01*
X642516Y276121D01*
X642496Y276047D01*
X642471Y275974D01*
X642444Y275903D01*
X642413Y275832D01*
X642378Y275764D01*
X642340Y275697D01*
X642299Y275632D01*
X642255Y275569D01*
X642208Y275509D01*
X642157Y275450D01*
X642104Y275395D01*
X642049Y275342D01*
X641990Y275291D01*
X641930Y275244D01*
X641867Y275200D01*
X641802Y275159D01*
X641735Y275121D01*
X641667Y275086D01*
X641596Y275055D01*
X641525Y275028D01*
X641452Y275003D01*
X641378Y274983D01*
X641303Y274966D01*
X641227Y274953D01*
X641150Y274944D01*
X641074Y274938D01*
X640997Y274936D01*
X640997Y274935D02*
X637864Y274935D01*
X637864Y274936D02*
X637787Y274938D01*
X637711Y274944D01*
X637634Y274953D01*
X637558Y274966D01*
X637483Y274983D01*
X637409Y275003D01*
X637336Y275028D01*
X637265Y275055D01*
X637194Y275086D01*
X637126Y275121D01*
X637059Y275159D01*
X636994Y275200D01*
X636931Y275244D01*
X636871Y275291D01*
X636812Y275342D01*
X636757Y275395D01*
X636704Y275450D01*
X636653Y275509D01*
X636606Y275569D01*
X636562Y275632D01*
X636521Y275697D01*
X636483Y275764D01*
X636448Y275832D01*
X636417Y275903D01*
X636390Y275974D01*
X636365Y276047D01*
X636345Y276121D01*
X636328Y276196D01*
X636315Y276272D01*
X636306Y276349D01*
X636300Y276425D01*
X636298Y276502D01*
X636298Y278590D01*
X633165Y282061D02*
X640997Y282061D01*
X641074Y282063D01*
X641150Y282069D01*
X641227Y282078D01*
X641303Y282091D01*
X641378Y282108D01*
X641452Y282128D01*
X641525Y282153D01*
X641596Y282180D01*
X641667Y282211D01*
X641735Y282246D01*
X641802Y282284D01*
X641867Y282325D01*
X641930Y282369D01*
X641990Y282416D01*
X642049Y282467D01*
X642104Y282520D01*
X642157Y282575D01*
X642208Y282634D01*
X642255Y282694D01*
X642299Y282757D01*
X642340Y282822D01*
X642378Y282889D01*
X642413Y282957D01*
X642444Y283028D01*
X642471Y283099D01*
X642496Y283172D01*
X642516Y283246D01*
X642533Y283321D01*
X642546Y283397D01*
X642555Y283474D01*
X642561Y283550D01*
X642563Y283627D01*
X656947Y264557D02*
X656947Y261947D01*
X656947Y264557D02*
X656945Y264658D01*
X656939Y264759D01*
X656929Y264860D01*
X656916Y264960D01*
X656898Y265060D01*
X656877Y265159D01*
X656851Y265257D01*
X656822Y265354D01*
X656790Y265450D01*
X656753Y265544D01*
X656713Y265637D01*
X656669Y265729D01*
X656622Y265818D01*
X656571Y265906D01*
X656517Y265992D01*
X656460Y266075D01*
X656400Y266157D01*
X656336Y266235D01*
X656270Y266312D01*
X656200Y266385D01*
X656128Y266456D01*
X656053Y266524D01*
X655975Y266589D01*
X655895Y266651D01*
X655813Y266710D01*
X655728Y266766D01*
X655642Y266818D01*
X655553Y266867D01*
X655462Y266913D01*
X655370Y266954D01*
X655276Y266993D01*
X655181Y267027D01*
X655085Y267058D01*
X654987Y267085D01*
X654889Y267109D01*
X654789Y267128D01*
X654689Y267144D01*
X654589Y267156D01*
X654488Y267164D01*
X654387Y267168D01*
X654285Y267168D01*
X654184Y267164D01*
X654083Y267156D01*
X653983Y267144D01*
X653883Y267128D01*
X653783Y267109D01*
X653685Y267085D01*
X653587Y267058D01*
X653491Y267027D01*
X653396Y266993D01*
X653302Y266954D01*
X653210Y266913D01*
X653119Y266867D01*
X653031Y266818D01*
X652944Y266766D01*
X652859Y266710D01*
X652777Y266651D01*
X652697Y266589D01*
X652619Y266524D01*
X652544Y266456D01*
X652472Y266385D01*
X652402Y266312D01*
X652336Y266235D01*
X652272Y266157D01*
X652212Y266075D01*
X652155Y265992D01*
X652101Y265906D01*
X652050Y265818D01*
X652003Y265729D01*
X651959Y265637D01*
X651919Y265544D01*
X651882Y265450D01*
X651850Y265354D01*
X651821Y265257D01*
X651795Y265159D01*
X651774Y265060D01*
X651756Y264960D01*
X651743Y264860D01*
X651733Y264759D01*
X651727Y264658D01*
X651725Y264557D01*
X647549Y265079D02*
X647549Y261947D01*
X647549Y265079D02*
X647551Y265169D01*
X647557Y265258D01*
X647566Y265348D01*
X647580Y265437D01*
X647597Y265525D01*
X647618Y265612D01*
X647643Y265699D01*
X647672Y265784D01*
X647704Y265868D01*
X647739Y265950D01*
X647779Y266031D01*
X647821Y266110D01*
X647867Y266187D01*
X647917Y266262D01*
X647969Y266335D01*
X648025Y266406D01*
X648083Y266474D01*
X648145Y266539D01*
X648209Y266602D01*
X648276Y266662D01*
X648345Y266719D01*
X648417Y266773D01*
X648491Y266824D01*
X648567Y266872D01*
X648645Y266916D01*
X648725Y266957D01*
X648807Y266995D01*
X648890Y267029D01*
X648975Y267059D01*
X649061Y267086D01*
X649147Y267109D01*
X649235Y267128D01*
X649324Y267143D01*
X649413Y267155D01*
X649502Y267163D01*
X649592Y267167D01*
X649682Y267167D01*
X649772Y267163D01*
X649861Y267155D01*
X649950Y267143D01*
X650039Y267128D01*
X650127Y267109D01*
X650213Y267086D01*
X650299Y267059D01*
X650384Y267029D01*
X650467Y266995D01*
X650549Y266957D01*
X650629Y266916D01*
X650707Y266872D01*
X650783Y266824D01*
X650857Y266773D01*
X650929Y266719D01*
X650998Y266662D01*
X651065Y266602D01*
X651129Y266539D01*
X651191Y266474D01*
X651249Y266406D01*
X651305Y266335D01*
X651357Y266262D01*
X651407Y266187D01*
X651453Y266110D01*
X651495Y266031D01*
X651535Y265950D01*
X651570Y265868D01*
X651602Y265784D01*
X651631Y265699D01*
X651656Y265612D01*
X651677Y265525D01*
X651694Y265437D01*
X651708Y265348D01*
X651717Y265258D01*
X651723Y265169D01*
X651725Y265079D01*
X651726Y265079D02*
X651726Y262991D01*
X650682Y270698D02*
X656947Y272787D01*
X650682Y274875D01*
X656947Y278406D02*
X656947Y281016D01*
X656945Y281117D01*
X656939Y281218D01*
X656929Y281319D01*
X656916Y281419D01*
X656898Y281519D01*
X656877Y281618D01*
X656851Y281716D01*
X656822Y281813D01*
X656790Y281909D01*
X656753Y282003D01*
X656713Y282096D01*
X656669Y282188D01*
X656622Y282277D01*
X656571Y282365D01*
X656517Y282451D01*
X656460Y282534D01*
X656400Y282616D01*
X656336Y282694D01*
X656270Y282771D01*
X656200Y282844D01*
X656128Y282915D01*
X656053Y282983D01*
X655975Y283048D01*
X655895Y283110D01*
X655813Y283169D01*
X655728Y283225D01*
X655642Y283277D01*
X655553Y283326D01*
X655462Y283372D01*
X655370Y283413D01*
X655276Y283452D01*
X655181Y283486D01*
X655085Y283517D01*
X654987Y283544D01*
X654889Y283568D01*
X654789Y283587D01*
X654689Y283603D01*
X654589Y283615D01*
X654488Y283623D01*
X654387Y283627D01*
X654285Y283627D01*
X654184Y283623D01*
X654083Y283615D01*
X653983Y283603D01*
X653883Y283587D01*
X653783Y283568D01*
X653685Y283544D01*
X653587Y283517D01*
X653491Y283486D01*
X653396Y283452D01*
X653302Y283413D01*
X653210Y283372D01*
X653119Y283326D01*
X653031Y283277D01*
X652944Y283225D01*
X652859Y283169D01*
X652777Y283110D01*
X652697Y283048D01*
X652619Y282983D01*
X652544Y282915D01*
X652472Y282844D01*
X652402Y282771D01*
X652336Y282694D01*
X652272Y282616D01*
X652212Y282534D01*
X652155Y282451D01*
X652101Y282365D01*
X652050Y282277D01*
X652003Y282188D01*
X651959Y282096D01*
X651919Y282003D01*
X651882Y281909D01*
X651850Y281813D01*
X651821Y281716D01*
X651795Y281618D01*
X651774Y281519D01*
X651756Y281419D01*
X651743Y281319D01*
X651733Y281218D01*
X651727Y281117D01*
X651725Y281016D01*
X647549Y281539D02*
X647549Y278406D01*
X647549Y281539D02*
X647551Y281629D01*
X647557Y281718D01*
X647566Y281808D01*
X647580Y281897D01*
X647597Y281985D01*
X647618Y282072D01*
X647643Y282159D01*
X647672Y282244D01*
X647704Y282328D01*
X647739Y282410D01*
X647779Y282491D01*
X647821Y282570D01*
X647867Y282647D01*
X647917Y282722D01*
X647969Y282795D01*
X648025Y282866D01*
X648083Y282934D01*
X648145Y282999D01*
X648209Y283062D01*
X648276Y283122D01*
X648345Y283179D01*
X648417Y283233D01*
X648491Y283284D01*
X648567Y283332D01*
X648645Y283376D01*
X648725Y283417D01*
X648807Y283455D01*
X648890Y283489D01*
X648975Y283519D01*
X649061Y283546D01*
X649147Y283569D01*
X649235Y283588D01*
X649324Y283603D01*
X649413Y283615D01*
X649502Y283623D01*
X649592Y283627D01*
X649682Y283627D01*
X649772Y283623D01*
X649861Y283615D01*
X649950Y283603D01*
X650039Y283588D01*
X650127Y283569D01*
X650213Y283546D01*
X650299Y283519D01*
X650384Y283489D01*
X650467Y283455D01*
X650549Y283417D01*
X650629Y283376D01*
X650707Y283332D01*
X650783Y283284D01*
X650857Y283233D01*
X650929Y283179D01*
X650998Y283122D01*
X651065Y283062D01*
X651129Y282999D01*
X651191Y282934D01*
X651249Y282866D01*
X651305Y282795D01*
X651357Y282722D01*
X651407Y282647D01*
X651453Y282570D01*
X651495Y282491D01*
X651535Y282410D01*
X651570Y282328D01*
X651602Y282244D01*
X651631Y282159D01*
X651656Y282072D01*
X651677Y281985D01*
X651694Y281897D01*
X651708Y281808D01*
X651717Y281718D01*
X651723Y281629D01*
X651725Y281539D01*
X651726Y281539D02*
X651726Y279450D01*
X598795Y266863D02*
X598795Y264253D01*
X598793Y264176D01*
X598787Y264100D01*
X598778Y264023D01*
X598765Y263947D01*
X598748Y263872D01*
X598728Y263798D01*
X598703Y263725D01*
X598676Y263654D01*
X598645Y263583D01*
X598610Y263515D01*
X598572Y263448D01*
X598531Y263383D01*
X598487Y263320D01*
X598440Y263260D01*
X598389Y263201D01*
X598336Y263146D01*
X598281Y263093D01*
X598222Y263042D01*
X598162Y262995D01*
X598099Y262951D01*
X598034Y262910D01*
X597967Y262872D01*
X597899Y262837D01*
X597828Y262806D01*
X597757Y262779D01*
X597684Y262754D01*
X597610Y262734D01*
X597535Y262717D01*
X597459Y262704D01*
X597382Y262695D01*
X597306Y262689D01*
X597229Y262687D01*
X597229Y262686D02*
X594096Y262686D01*
X594096Y262687D02*
X594019Y262689D01*
X593943Y262695D01*
X593866Y262704D01*
X593790Y262717D01*
X593715Y262734D01*
X593641Y262754D01*
X593568Y262779D01*
X593497Y262806D01*
X593426Y262837D01*
X593358Y262872D01*
X593291Y262910D01*
X593226Y262951D01*
X593163Y262995D01*
X593103Y263042D01*
X593044Y263093D01*
X592989Y263146D01*
X592936Y263201D01*
X592885Y263260D01*
X592838Y263320D01*
X592794Y263383D01*
X592753Y263448D01*
X592715Y263515D01*
X592680Y263583D01*
X592649Y263654D01*
X592622Y263725D01*
X592597Y263798D01*
X592577Y263872D01*
X592560Y263947D01*
X592547Y264023D01*
X592538Y264100D01*
X592532Y264176D01*
X592530Y264253D01*
X592530Y266863D01*
X600361Y266863D01*
X600438Y266861D01*
X600514Y266855D01*
X600591Y266846D01*
X600667Y266833D01*
X600742Y266816D01*
X600816Y266796D01*
X600889Y266771D01*
X600960Y266744D01*
X601031Y266713D01*
X601099Y266678D01*
X601166Y266640D01*
X601231Y266599D01*
X601294Y266555D01*
X601354Y266508D01*
X601413Y266457D01*
X601468Y266404D01*
X601521Y266349D01*
X601572Y266290D01*
X601619Y266230D01*
X601663Y266167D01*
X601704Y266102D01*
X601742Y266035D01*
X601777Y265967D01*
X601808Y265896D01*
X601835Y265825D01*
X601860Y265752D01*
X601880Y265678D01*
X601897Y265603D01*
X601910Y265527D01*
X601919Y265450D01*
X601925Y265374D01*
X601927Y265297D01*
X601928Y265297D02*
X601928Y263208D01*
X598795Y271266D02*
X592530Y271266D01*
X592530Y273877D01*
X592532Y273954D01*
X592538Y274030D01*
X592547Y274107D01*
X592560Y274183D01*
X592577Y274258D01*
X592597Y274332D01*
X592622Y274405D01*
X592649Y274476D01*
X592680Y274547D01*
X592715Y274615D01*
X592753Y274682D01*
X592794Y274747D01*
X592838Y274810D01*
X592885Y274870D01*
X592936Y274929D01*
X592989Y274984D01*
X593044Y275037D01*
X593103Y275088D01*
X593163Y275135D01*
X593226Y275179D01*
X593291Y275220D01*
X593358Y275258D01*
X593426Y275293D01*
X593497Y275324D01*
X593568Y275351D01*
X593641Y275376D01*
X593715Y275396D01*
X593790Y275413D01*
X593866Y275426D01*
X593942Y275435D01*
X594019Y275441D01*
X594096Y275443D01*
X598795Y275443D01*
X598795Y283627D02*
X589397Y283627D01*
X598795Y283627D02*
X598795Y281016D01*
X598793Y280939D01*
X598787Y280863D01*
X598778Y280786D01*
X598765Y280710D01*
X598748Y280635D01*
X598728Y280561D01*
X598703Y280488D01*
X598676Y280417D01*
X598645Y280346D01*
X598610Y280278D01*
X598572Y280211D01*
X598531Y280146D01*
X598487Y280083D01*
X598440Y280023D01*
X598389Y279964D01*
X598336Y279909D01*
X598281Y279856D01*
X598222Y279805D01*
X598162Y279758D01*
X598099Y279714D01*
X598034Y279673D01*
X597967Y279635D01*
X597899Y279600D01*
X597828Y279569D01*
X597757Y279542D01*
X597684Y279517D01*
X597610Y279497D01*
X597535Y279480D01*
X597459Y279467D01*
X597382Y279458D01*
X597306Y279452D01*
X597229Y279450D01*
X594096Y279450D01*
X594019Y279452D01*
X593943Y279458D01*
X593866Y279467D01*
X593790Y279480D01*
X593715Y279497D01*
X593641Y279517D01*
X593568Y279542D01*
X593497Y279569D01*
X593426Y279600D01*
X593358Y279635D01*
X593291Y279673D01*
X593226Y279714D01*
X593163Y279758D01*
X593103Y279805D01*
X593044Y279856D01*
X592989Y279909D01*
X592936Y279964D01*
X592885Y280023D01*
X592838Y280083D01*
X592794Y280146D01*
X592753Y280211D01*
X592715Y280278D01*
X592680Y280346D01*
X592649Y280417D01*
X592622Y280488D01*
X592597Y280561D01*
X592577Y280635D01*
X592560Y280710D01*
X592547Y280786D01*
X592538Y280863D01*
X592532Y280939D01*
X592530Y281016D01*
X592530Y283627D01*
D11*
X587351Y256351D02*
X586000Y255050D01*
X587351Y256351D02*
X587351Y260615D01*
X585976Y261990D01*
X579057Y261990D01*
X578986Y261992D01*
X578915Y261998D01*
X578844Y262008D01*
X578774Y262022D01*
X578705Y262039D01*
X578637Y262061D01*
X578571Y262086D01*
X578506Y262115D01*
X578442Y262147D01*
X578381Y262183D01*
X578321Y262222D01*
X578264Y262265D01*
X578209Y262310D01*
X578157Y262359D01*
X578108Y262410D01*
X578062Y262464D01*
X577991Y262554D01*
X577923Y262648D01*
X577858Y262743D01*
X577796Y262841D01*
X577738Y262940D01*
X577683Y263042D01*
X577632Y263145D01*
X577584Y263250D01*
X577540Y263357D01*
X577499Y263465D01*
X577463Y263574D01*
X577430Y263685D01*
X577400Y263796D01*
X577375Y263909D01*
X577353Y264022D01*
X577336Y264136D01*
X577322Y264251D01*
X577312Y264366D01*
X577306Y264481D01*
X577304Y264597D01*
X586829Y264597D01*
X581901Y285591D02*
X564793Y285591D01*
X564793Y282131D01*
X586000Y255050D02*
X514000Y255050D01*
X512649Y256351D01*
X512649Y260615D01*
X514024Y261990D01*
X520943Y261990D01*
X521014Y261992D01*
X521085Y261998D01*
X521156Y262008D01*
X521226Y262022D01*
X521295Y262039D01*
X521363Y262061D01*
X521429Y262086D01*
X521494Y262115D01*
X521558Y262147D01*
X521619Y262183D01*
X521679Y262222D01*
X521736Y262265D01*
X521791Y262310D01*
X521843Y262359D01*
X521892Y262410D01*
X521938Y262464D01*
X522009Y262554D01*
X522077Y262648D01*
X522142Y262743D01*
X522204Y262841D01*
X522262Y262940D01*
X522317Y263042D01*
X522368Y263145D01*
X522416Y263250D01*
X522460Y263357D01*
X522501Y263465D01*
X522537Y263574D01*
X522570Y263685D01*
X522600Y263796D01*
X522625Y263909D01*
X522647Y264022D01*
X522664Y264136D01*
X522678Y264251D01*
X522688Y264366D01*
X522694Y264481D01*
X522696Y264597D01*
X518099Y285591D02*
X535207Y285591D01*
X535207Y285380D02*
X535207Y282131D01*
X564793Y282131D01*
X523833Y259953D02*
X521274Y255593D01*
X523833Y259953D02*
X526677Y255593D01*
X586000Y240050D02*
X587351Y241351D01*
X587351Y245615D01*
X586000Y240050D02*
X575500Y240050D01*
X565500Y240050D02*
X555000Y240050D01*
X545000Y240050D02*
X534500Y240050D01*
X524500Y240050D02*
X514000Y240050D01*
X512649Y241351D01*
X512649Y245615D01*
X514024Y246990D01*
X585976Y246990D02*
X587351Y245615D01*
X585976Y246990D02*
X579057Y246990D01*
X520943Y246990D02*
X514024Y246990D01*
X521938Y247464D02*
X522009Y247554D01*
X522077Y247648D01*
X522142Y247743D01*
X522204Y247841D01*
X522262Y247940D01*
X522317Y248042D01*
X522368Y248145D01*
X522416Y248250D01*
X522460Y248357D01*
X522501Y248465D01*
X522537Y248574D01*
X522570Y248685D01*
X522600Y248796D01*
X522625Y248909D01*
X522647Y249022D01*
X522664Y249136D01*
X522678Y249251D01*
X522688Y249366D01*
X522694Y249481D01*
X522696Y249597D01*
X577304Y249597D02*
X577306Y249481D01*
X577312Y249366D01*
X577322Y249251D01*
X577336Y249136D01*
X577353Y249022D01*
X577375Y248909D01*
X577400Y248796D01*
X577430Y248685D01*
X577463Y248574D01*
X577499Y248465D01*
X577540Y248357D01*
X577584Y248250D01*
X577632Y248145D01*
X577683Y248042D01*
X577738Y247940D01*
X577796Y247841D01*
X577858Y247743D01*
X577923Y247648D01*
X577991Y247554D01*
X578062Y247464D01*
X578108Y247410D01*
X578157Y247359D01*
X578209Y247310D01*
X578264Y247265D01*
X578321Y247222D01*
X578381Y247183D01*
X578442Y247147D01*
X578506Y247115D01*
X578571Y247086D01*
X578637Y247061D01*
X578705Y247039D01*
X578774Y247022D01*
X578844Y247008D01*
X578915Y246998D01*
X578986Y246992D01*
X579057Y246990D01*
X521938Y247464D02*
X521892Y247410D01*
X521843Y247359D01*
X521791Y247310D01*
X521736Y247265D01*
X521679Y247222D01*
X521619Y247183D01*
X521558Y247147D01*
X521494Y247115D01*
X521429Y247086D01*
X521363Y247061D01*
X521295Y247039D01*
X521226Y247022D01*
X521156Y247008D01*
X521085Y246998D01*
X521014Y246992D01*
X520943Y246990D01*
D12*
X523833Y256588D03*
D13*
X569850Y332700D02*
X582550Y332700D01*
X588900Y326350D01*
X588900Y313650D02*
X582550Y307300D01*
X588900Y326350D02*
X595250Y332700D01*
X607950Y332700D01*
X614300Y326350D01*
X614300Y313650D02*
X607950Y307300D01*
X595250Y307300D01*
X588900Y313650D01*
X544450Y332700D02*
X538100Y326350D01*
X544450Y332700D02*
X557150Y332700D01*
X563500Y326350D01*
X563500Y313650D02*
X557150Y307300D01*
X544450Y307300D01*
X538100Y313650D01*
X563500Y326350D02*
X569850Y332700D01*
X563500Y313650D02*
X569850Y307300D01*
X582550Y307300D01*
X506350Y332700D02*
X493650Y332700D01*
X506350Y332700D02*
X512700Y326350D01*
X512700Y313650D02*
X506350Y307300D01*
X512700Y326350D02*
X519050Y332700D01*
X531750Y332700D01*
X538100Y326350D01*
X538100Y313650D02*
X531750Y307300D01*
X519050Y307300D01*
X512700Y313650D01*
X487300Y313650D02*
X487300Y326350D01*
X493650Y332700D01*
X487300Y313650D02*
X493650Y307300D01*
X506350Y307300D01*
X614300Y313650D02*
X614300Y326350D01*
X573872Y487495D02*
X573872Y501145D01*
D14*
X550000Y445355D02*
X585355Y410000D01*
X550000Y374645D01*
X514645Y410000D01*
X550000Y445355D01*
X571959Y410283D02*
X571961Y410412D01*
X571967Y410542D01*
X571977Y410671D01*
X571991Y410800D01*
X572009Y410928D01*
X572031Y411055D01*
X572056Y411182D01*
X572086Y411308D01*
X572119Y411433D01*
X572157Y411557D01*
X572198Y411680D01*
X572243Y411802D01*
X572292Y411922D01*
X572344Y412040D01*
X572400Y412157D01*
X572459Y412272D01*
X572522Y412385D01*
X572589Y412496D01*
X572659Y412605D01*
X572732Y412712D01*
X572808Y412816D01*
X572888Y412919D01*
X572970Y413018D01*
X573056Y413115D01*
X573145Y413210D01*
X573236Y413301D01*
X573331Y413390D01*
X573428Y413476D01*
X573527Y413558D01*
X573630Y413638D01*
X573734Y413714D01*
X573841Y413787D01*
X573950Y413857D01*
X574061Y413924D01*
X574174Y413987D01*
X574289Y414046D01*
X574406Y414102D01*
X574524Y414154D01*
X574644Y414203D01*
X574766Y414248D01*
X574889Y414289D01*
X575013Y414327D01*
X575138Y414360D01*
X575264Y414390D01*
X575391Y414415D01*
X575518Y414437D01*
X575646Y414455D01*
X575775Y414469D01*
X575904Y414479D01*
X576034Y414485D01*
X576163Y414487D01*
X576292Y414485D01*
X576422Y414479D01*
X576551Y414469D01*
X576680Y414455D01*
X576808Y414437D01*
X576935Y414415D01*
X577062Y414390D01*
X577188Y414360D01*
X577313Y414327D01*
X577437Y414289D01*
X577560Y414248D01*
X577682Y414203D01*
X577802Y414154D01*
X577920Y414102D01*
X578037Y414046D01*
X578152Y413987D01*
X578265Y413924D01*
X578376Y413857D01*
X578485Y413787D01*
X578592Y413714D01*
X578696Y413638D01*
X578799Y413558D01*
X578898Y413476D01*
X578995Y413390D01*
X579090Y413301D01*
X579181Y413210D01*
X579270Y413115D01*
X579356Y413018D01*
X579438Y412919D01*
X579518Y412816D01*
X579594Y412712D01*
X579667Y412605D01*
X579737Y412496D01*
X579804Y412385D01*
X579867Y412272D01*
X579926Y412157D01*
X579982Y412040D01*
X580034Y411922D01*
X580083Y411802D01*
X580128Y411680D01*
X580169Y411557D01*
X580207Y411433D01*
X580240Y411308D01*
X580270Y411182D01*
X580295Y411055D01*
X580317Y410928D01*
X580335Y410800D01*
X580349Y410671D01*
X580359Y410542D01*
X580365Y410412D01*
X580367Y410283D01*
X580365Y410154D01*
X580359Y410024D01*
X580349Y409895D01*
X580335Y409766D01*
X580317Y409638D01*
X580295Y409511D01*
X580270Y409384D01*
X580240Y409258D01*
X580207Y409133D01*
X580169Y409009D01*
X580128Y408886D01*
X580083Y408764D01*
X580034Y408644D01*
X579982Y408526D01*
X579926Y408409D01*
X579867Y408294D01*
X579804Y408181D01*
X579737Y408070D01*
X579667Y407961D01*
X579594Y407854D01*
X579518Y407750D01*
X579438Y407647D01*
X579356Y407548D01*
X579270Y407451D01*
X579181Y407356D01*
X579090Y407265D01*
X578995Y407176D01*
X578898Y407090D01*
X578799Y407008D01*
X578696Y406928D01*
X578592Y406852D01*
X578485Y406779D01*
X578376Y406709D01*
X578265Y406642D01*
X578152Y406579D01*
X578037Y406520D01*
X577920Y406464D01*
X577802Y406412D01*
X577682Y406363D01*
X577560Y406318D01*
X577437Y406277D01*
X577313Y406239D01*
X577188Y406206D01*
X577062Y406176D01*
X576935Y406151D01*
X576808Y406129D01*
X576680Y406111D01*
X576551Y406097D01*
X576422Y406087D01*
X576292Y406081D01*
X576163Y406079D01*
X576034Y406081D01*
X575904Y406087D01*
X575775Y406097D01*
X575646Y406111D01*
X575518Y406129D01*
X575391Y406151D01*
X575264Y406176D01*
X575138Y406206D01*
X575013Y406239D01*
X574889Y406277D01*
X574766Y406318D01*
X574644Y406363D01*
X574524Y406412D01*
X574406Y406464D01*
X574289Y406520D01*
X574174Y406579D01*
X574061Y406642D01*
X573950Y406709D01*
X573841Y406779D01*
X573734Y406852D01*
X573630Y406928D01*
X573527Y407008D01*
X573428Y407090D01*
X573331Y407176D01*
X573236Y407265D01*
X573145Y407356D01*
X573056Y407451D01*
X572970Y407548D01*
X572888Y407647D01*
X572808Y407750D01*
X572732Y407854D01*
X572659Y407961D01*
X572589Y408070D01*
X572522Y408181D01*
X572459Y408294D01*
X572400Y408409D01*
X572344Y408526D01*
X572292Y408644D01*
X572243Y408764D01*
X572198Y408886D01*
X572157Y409009D01*
X572119Y409133D01*
X572086Y409258D01*
X572056Y409384D01*
X572031Y409511D01*
X572009Y409638D01*
X571991Y409766D01*
X571977Y409895D01*
X571967Y410024D01*
X571961Y410154D01*
X571959Y410283D01*
D15*
X925710Y280000D02*
X925720Y280842D01*
X925751Y281683D01*
X925803Y282523D01*
X925875Y283361D01*
X925968Y284197D01*
X926081Y285031D01*
X926215Y285862D01*
X926369Y286690D01*
X926543Y287513D01*
X926738Y288332D01*
X926952Y289146D01*
X927187Y289954D01*
X927441Y290756D01*
X927714Y291552D01*
X928008Y292341D01*
X928320Y293122D01*
X928652Y293896D01*
X929002Y294661D01*
X929371Y295417D01*
X929759Y296164D01*
X930165Y296901D01*
X930588Y297629D01*
X931030Y298345D01*
X931489Y299051D01*
X931965Y299744D01*
X932458Y300427D01*
X932968Y301096D01*
X933493Y301753D01*
X934035Y302397D01*
X934593Y303028D01*
X935166Y303644D01*
X935753Y304247D01*
X936356Y304834D01*
X936972Y305407D01*
X937603Y305965D01*
X938247Y306507D01*
X938904Y307032D01*
X939573Y307542D01*
X940256Y308035D01*
X940949Y308511D01*
X941655Y308970D01*
X942371Y309412D01*
X943099Y309835D01*
X943836Y310241D01*
X944583Y310629D01*
X945339Y310998D01*
X946104Y311348D01*
X946878Y311680D01*
X947659Y311992D01*
X948448Y312286D01*
X949244Y312559D01*
X950046Y312813D01*
X950854Y313048D01*
X951668Y313262D01*
X952487Y313457D01*
X953310Y313631D01*
X954138Y313785D01*
X954969Y313919D01*
X955803Y314032D01*
X956639Y314125D01*
X957477Y314197D01*
X958317Y314249D01*
X959158Y314280D01*
X960000Y314290D01*
X960842Y314280D01*
X961683Y314249D01*
X962523Y314197D01*
X963361Y314125D01*
X964197Y314032D01*
X965031Y313919D01*
X965862Y313785D01*
X966690Y313631D01*
X967513Y313457D01*
X968332Y313262D01*
X969146Y313048D01*
X969954Y312813D01*
X970756Y312559D01*
X971552Y312286D01*
X972341Y311992D01*
X973122Y311680D01*
X973896Y311348D01*
X974661Y310998D01*
X975417Y310629D01*
X976164Y310241D01*
X976901Y309835D01*
X977629Y309412D01*
X978345Y308970D01*
X979051Y308511D01*
X979744Y308035D01*
X980427Y307542D01*
X981096Y307032D01*
X981753Y306507D01*
X982397Y305965D01*
X983028Y305407D01*
X983644Y304834D01*
X984247Y304247D01*
X984834Y303644D01*
X985407Y303028D01*
X985965Y302397D01*
X986507Y301753D01*
X987032Y301096D01*
X987542Y300427D01*
X988035Y299744D01*
X988511Y299051D01*
X988970Y298345D01*
X989412Y297629D01*
X989835Y296901D01*
X990241Y296164D01*
X990629Y295417D01*
X990998Y294661D01*
X991348Y293896D01*
X991680Y293122D01*
X991992Y292341D01*
X992286Y291552D01*
X992559Y290756D01*
X992813Y289954D01*
X993048Y289146D01*
X993262Y288332D01*
X993457Y287513D01*
X993631Y286690D01*
X993785Y285862D01*
X993919Y285031D01*
X994032Y284197D01*
X994125Y283361D01*
X994197Y282523D01*
X994249Y281683D01*
X994280Y280842D01*
X994290Y280000D01*
X994280Y279158D01*
X994249Y278317D01*
X994197Y277477D01*
X994125Y276639D01*
X994032Y275803D01*
X993919Y274969D01*
X993785Y274138D01*
X993631Y273310D01*
X993457Y272487D01*
X993262Y271668D01*
X993048Y270854D01*
X992813Y270046D01*
X992559Y269244D01*
X992286Y268448D01*
X991992Y267659D01*
X991680Y266878D01*
X991348Y266104D01*
X990998Y265339D01*
X990629Y264583D01*
X990241Y263836D01*
X989835Y263099D01*
X989412Y262371D01*
X988970Y261655D01*
X988511Y260949D01*
X988035Y260256D01*
X987542Y259573D01*
X987032Y258904D01*
X986507Y258247D01*
X985965Y257603D01*
X985407Y256972D01*
X984834Y256356D01*
X984247Y255753D01*
X983644Y255166D01*
X983028Y254593D01*
X982397Y254035D01*
X981753Y253493D01*
X981096Y252968D01*
X980427Y252458D01*
X979744Y251965D01*
X979051Y251489D01*
X978345Y251030D01*
X977629Y250588D01*
X976901Y250165D01*
X976164Y249759D01*
X975417Y249371D01*
X974661Y249002D01*
X973896Y248652D01*
X973122Y248320D01*
X972341Y248008D01*
X971552Y247714D01*
X970756Y247441D01*
X969954Y247187D01*
X969146Y246952D01*
X968332Y246738D01*
X967513Y246543D01*
X966690Y246369D01*
X965862Y246215D01*
X965031Y246081D01*
X964197Y245968D01*
X963361Y245875D01*
X962523Y245803D01*
X961683Y245751D01*
X960842Y245720D01*
X960000Y245710D01*
X959158Y245720D01*
X958317Y245751D01*
X957477Y245803D01*
X956639Y245875D01*
X955803Y245968D01*
X954969Y246081D01*
X954138Y246215D01*
X953310Y246369D01*
X952487Y246543D01*
X951668Y246738D01*
X950854Y246952D01*
X950046Y247187D01*
X949244Y247441D01*
X948448Y247714D01*
X947659Y248008D01*
X946878Y248320D01*
X946104Y248652D01*
X945339Y249002D01*
X944583Y249371D01*
X943836Y249759D01*
X943099Y250165D01*
X942371Y250588D01*
X941655Y251030D01*
X940949Y251489D01*
X940256Y251965D01*
X939573Y252458D01*
X938904Y252968D01*
X938247Y253493D01*
X937603Y254035D01*
X936972Y254593D01*
X936356Y255166D01*
X935753Y255753D01*
X935166Y256356D01*
X934593Y256972D01*
X934035Y257603D01*
X933493Y258247D01*
X932968Y258904D01*
X932458Y259573D01*
X931965Y260256D01*
X931489Y260949D01*
X931030Y261655D01*
X930588Y262371D01*
X930165Y263099D01*
X929759Y263836D01*
X929371Y264583D01*
X929002Y265339D01*
X928652Y266104D01*
X928320Y266878D01*
X928008Y267659D01*
X927714Y268448D01*
X927441Y269244D01*
X927187Y270046D01*
X926952Y270854D01*
X926738Y271668D01*
X926543Y272487D01*
X926369Y273310D01*
X926215Y274138D01*
X926081Y274969D01*
X925968Y275803D01*
X925875Y276639D01*
X925803Y277477D01*
X925751Y278317D01*
X925720Y279158D01*
X925710Y280000D01*
D13*
X944000Y280000D02*
X944005Y280393D01*
X944019Y280785D01*
X944043Y281177D01*
X944077Y281568D01*
X944120Y281959D01*
X944173Y282348D01*
X944236Y282735D01*
X944307Y283121D01*
X944389Y283506D01*
X944479Y283888D01*
X944580Y284267D01*
X944689Y284645D01*
X944808Y285019D01*
X944935Y285390D01*
X945072Y285758D01*
X945218Y286123D01*
X945373Y286484D01*
X945536Y286841D01*
X945708Y287194D01*
X945889Y287542D01*
X946079Y287886D01*
X946276Y288226D01*
X946482Y288560D01*
X946696Y288889D01*
X946919Y289213D01*
X947149Y289531D01*
X947386Y289844D01*
X947632Y290150D01*
X947885Y290451D01*
X948145Y290745D01*
X948412Y291033D01*
X948686Y291314D01*
X948967Y291588D01*
X949255Y291855D01*
X949549Y292115D01*
X949850Y292368D01*
X950156Y292614D01*
X950469Y292851D01*
X950787Y293081D01*
X951111Y293304D01*
X951440Y293518D01*
X951774Y293724D01*
X952114Y293921D01*
X952458Y294111D01*
X952806Y294292D01*
X953159Y294464D01*
X953516Y294627D01*
X953877Y294782D01*
X954242Y294928D01*
X954610Y295065D01*
X954981Y295192D01*
X955355Y295311D01*
X955733Y295420D01*
X956112Y295521D01*
X956494Y295611D01*
X956879Y295693D01*
X957265Y295764D01*
X957652Y295827D01*
X958041Y295880D01*
X958432Y295923D01*
X958823Y295957D01*
X959215Y295981D01*
X959607Y295995D01*
X960000Y296000D01*
X960393Y295995D01*
X960785Y295981D01*
X961177Y295957D01*
X961568Y295923D01*
X961959Y295880D01*
X962348Y295827D01*
X962735Y295764D01*
X963121Y295693D01*
X963506Y295611D01*
X963888Y295521D01*
X964267Y295420D01*
X964645Y295311D01*
X965019Y295192D01*
X965390Y295065D01*
X965758Y294928D01*
X966123Y294782D01*
X966484Y294627D01*
X966841Y294464D01*
X967194Y294292D01*
X967542Y294111D01*
X967886Y293921D01*
X968226Y293724D01*
X968560Y293518D01*
X968889Y293304D01*
X969213Y293081D01*
X969531Y292851D01*
X969844Y292614D01*
X970150Y292368D01*
X970451Y292115D01*
X970745Y291855D01*
X971033Y291588D01*
X971314Y291314D01*
X971588Y291033D01*
X971855Y290745D01*
X972115Y290451D01*
X972368Y290150D01*
X972614Y289844D01*
X972851Y289531D01*
X973081Y289213D01*
X973304Y288889D01*
X973518Y288560D01*
X973724Y288226D01*
X973921Y287886D01*
X974111Y287542D01*
X974292Y287194D01*
X974464Y286841D01*
X974627Y286484D01*
X974782Y286123D01*
X974928Y285758D01*
X975065Y285390D01*
X975192Y285019D01*
X975311Y284645D01*
X975420Y284267D01*
X975521Y283888D01*
X975611Y283506D01*
X975693Y283121D01*
X975764Y282735D01*
X975827Y282348D01*
X975880Y281959D01*
X975923Y281568D01*
X975957Y281177D01*
X975981Y280785D01*
X975995Y280393D01*
X976000Y280000D01*
X975995Y279607D01*
X975981Y279215D01*
X975957Y278823D01*
X975923Y278432D01*
X975880Y278041D01*
X975827Y277652D01*
X975764Y277265D01*
X975693Y276879D01*
X975611Y276494D01*
X975521Y276112D01*
X975420Y275733D01*
X975311Y275355D01*
X975192Y274981D01*
X975065Y274610D01*
X974928Y274242D01*
X974782Y273877D01*
X974627Y273516D01*
X974464Y273159D01*
X974292Y272806D01*
X974111Y272458D01*
X973921Y272114D01*
X973724Y271774D01*
X973518Y271440D01*
X973304Y271111D01*
X973081Y270787D01*
X972851Y270469D01*
X972614Y270156D01*
X972368Y269850D01*
X972115Y269549D01*
X971855Y269255D01*
X971588Y268967D01*
X971314Y268686D01*
X971033Y268412D01*
X970745Y268145D01*
X970451Y267885D01*
X970150Y267632D01*
X969844Y267386D01*
X969531Y267149D01*
X969213Y266919D01*
X968889Y266696D01*
X968560Y266482D01*
X968226Y266276D01*
X967886Y266079D01*
X967542Y265889D01*
X967194Y265708D01*
X966841Y265536D01*
X966484Y265373D01*
X966123Y265218D01*
X965758Y265072D01*
X965390Y264935D01*
X965019Y264808D01*
X964645Y264689D01*
X964267Y264580D01*
X963888Y264479D01*
X963506Y264389D01*
X963121Y264307D01*
X962735Y264236D01*
X962348Y264173D01*
X961959Y264120D01*
X961568Y264077D01*
X961177Y264043D01*
X960785Y264019D01*
X960393Y264005D01*
X960000Y264000D01*
X959607Y264005D01*
X959215Y264019D01*
X958823Y264043D01*
X958432Y264077D01*
X958041Y264120D01*
X957652Y264173D01*
X957265Y264236D01*
X956879Y264307D01*
X956494Y264389D01*
X956112Y264479D01*
X955733Y264580D01*
X955355Y264689D01*
X954981Y264808D01*
X954610Y264935D01*
X954242Y265072D01*
X953877Y265218D01*
X953516Y265373D01*
X953159Y265536D01*
X952806Y265708D01*
X952458Y265889D01*
X952114Y266079D01*
X951774Y266276D01*
X951440Y266482D01*
X951111Y266696D01*
X950787Y266919D01*
X950469Y267149D01*
X950156Y267386D01*
X949850Y267632D01*
X949549Y267885D01*
X949255Y268145D01*
X948967Y268412D01*
X948686Y268686D01*
X948412Y268967D01*
X948145Y269255D01*
X947885Y269549D01*
X947632Y269850D01*
X947386Y270156D01*
X947149Y270469D01*
X946919Y270787D01*
X946696Y271111D01*
X946482Y271440D01*
X946276Y271774D01*
X946079Y272114D01*
X945889Y272458D01*
X945708Y272806D01*
X945536Y273159D01*
X945373Y273516D01*
X945218Y273877D01*
X945072Y274242D01*
X944935Y274610D01*
X944808Y274981D01*
X944689Y275355D01*
X944580Y275733D01*
X944479Y276112D01*
X944389Y276494D01*
X944307Y276879D01*
X944236Y277265D01*
X944173Y277652D01*
X944120Y278041D01*
X944077Y278432D01*
X944043Y278823D01*
X944019Y279215D01*
X944005Y279607D01*
X944000Y280000D01*
D15*
X105710Y280000D02*
X105720Y280842D01*
X105751Y281683D01*
X105803Y282523D01*
X105875Y283361D01*
X105968Y284197D01*
X106081Y285031D01*
X106215Y285862D01*
X106369Y286690D01*
X106543Y287513D01*
X106738Y288332D01*
X106952Y289146D01*
X107187Y289954D01*
X107441Y290756D01*
X107714Y291552D01*
X108008Y292341D01*
X108320Y293122D01*
X108652Y293896D01*
X109002Y294661D01*
X109371Y295417D01*
X109759Y296164D01*
X110165Y296901D01*
X110588Y297629D01*
X111030Y298345D01*
X111489Y299051D01*
X111965Y299744D01*
X112458Y300427D01*
X112968Y301096D01*
X113493Y301753D01*
X114035Y302397D01*
X114593Y303028D01*
X115166Y303644D01*
X115753Y304247D01*
X116356Y304834D01*
X116972Y305407D01*
X117603Y305965D01*
X118247Y306507D01*
X118904Y307032D01*
X119573Y307542D01*
X120256Y308035D01*
X120949Y308511D01*
X121655Y308970D01*
X122371Y309412D01*
X123099Y309835D01*
X123836Y310241D01*
X124583Y310629D01*
X125339Y310998D01*
X126104Y311348D01*
X126878Y311680D01*
X127659Y311992D01*
X128448Y312286D01*
X129244Y312559D01*
X130046Y312813D01*
X130854Y313048D01*
X131668Y313262D01*
X132487Y313457D01*
X133310Y313631D01*
X134138Y313785D01*
X134969Y313919D01*
X135803Y314032D01*
X136639Y314125D01*
X137477Y314197D01*
X138317Y314249D01*
X139158Y314280D01*
X140000Y314290D01*
X140842Y314280D01*
X141683Y314249D01*
X142523Y314197D01*
X143361Y314125D01*
X144197Y314032D01*
X145031Y313919D01*
X145862Y313785D01*
X146690Y313631D01*
X147513Y313457D01*
X148332Y313262D01*
X149146Y313048D01*
X149954Y312813D01*
X150756Y312559D01*
X151552Y312286D01*
X152341Y311992D01*
X153122Y311680D01*
X153896Y311348D01*
X154661Y310998D01*
X155417Y310629D01*
X156164Y310241D01*
X156901Y309835D01*
X157629Y309412D01*
X158345Y308970D01*
X159051Y308511D01*
X159744Y308035D01*
X160427Y307542D01*
X161096Y307032D01*
X161753Y306507D01*
X162397Y305965D01*
X163028Y305407D01*
X163644Y304834D01*
X164247Y304247D01*
X164834Y303644D01*
X165407Y303028D01*
X165965Y302397D01*
X166507Y301753D01*
X167032Y301096D01*
X167542Y300427D01*
X168035Y299744D01*
X168511Y299051D01*
X168970Y298345D01*
X169412Y297629D01*
X169835Y296901D01*
X170241Y296164D01*
X170629Y295417D01*
X170998Y294661D01*
X171348Y293896D01*
X171680Y293122D01*
X171992Y292341D01*
X172286Y291552D01*
X172559Y290756D01*
X172813Y289954D01*
X173048Y289146D01*
X173262Y288332D01*
X173457Y287513D01*
X173631Y286690D01*
X173785Y285862D01*
X173919Y285031D01*
X174032Y284197D01*
X174125Y283361D01*
X174197Y282523D01*
X174249Y281683D01*
X174280Y280842D01*
X174290Y280000D01*
X174280Y279158D01*
X174249Y278317D01*
X174197Y277477D01*
X174125Y276639D01*
X174032Y275803D01*
X173919Y274969D01*
X173785Y274138D01*
X173631Y273310D01*
X173457Y272487D01*
X173262Y271668D01*
X173048Y270854D01*
X172813Y270046D01*
X172559Y269244D01*
X172286Y268448D01*
X171992Y267659D01*
X171680Y266878D01*
X171348Y266104D01*
X170998Y265339D01*
X170629Y264583D01*
X170241Y263836D01*
X169835Y263099D01*
X169412Y262371D01*
X168970Y261655D01*
X168511Y260949D01*
X168035Y260256D01*
X167542Y259573D01*
X167032Y258904D01*
X166507Y258247D01*
X165965Y257603D01*
X165407Y256972D01*
X164834Y256356D01*
X164247Y255753D01*
X163644Y255166D01*
X163028Y254593D01*
X162397Y254035D01*
X161753Y253493D01*
X161096Y252968D01*
X160427Y252458D01*
X159744Y251965D01*
X159051Y251489D01*
X158345Y251030D01*
X157629Y250588D01*
X156901Y250165D01*
X156164Y249759D01*
X155417Y249371D01*
X154661Y249002D01*
X153896Y248652D01*
X153122Y248320D01*
X152341Y248008D01*
X151552Y247714D01*
X150756Y247441D01*
X149954Y247187D01*
X149146Y246952D01*
X148332Y246738D01*
X147513Y246543D01*
X146690Y246369D01*
X145862Y246215D01*
X145031Y246081D01*
X144197Y245968D01*
X143361Y245875D01*
X142523Y245803D01*
X141683Y245751D01*
X140842Y245720D01*
X140000Y245710D01*
X139158Y245720D01*
X138317Y245751D01*
X137477Y245803D01*
X136639Y245875D01*
X135803Y245968D01*
X134969Y246081D01*
X134138Y246215D01*
X133310Y246369D01*
X132487Y246543D01*
X131668Y246738D01*
X130854Y246952D01*
X130046Y247187D01*
X129244Y247441D01*
X128448Y247714D01*
X127659Y248008D01*
X126878Y248320D01*
X126104Y248652D01*
X125339Y249002D01*
X124583Y249371D01*
X123836Y249759D01*
X123099Y250165D01*
X122371Y250588D01*
X121655Y251030D01*
X120949Y251489D01*
X120256Y251965D01*
X119573Y252458D01*
X118904Y252968D01*
X118247Y253493D01*
X117603Y254035D01*
X116972Y254593D01*
X116356Y255166D01*
X115753Y255753D01*
X115166Y256356D01*
X114593Y256972D01*
X114035Y257603D01*
X113493Y258247D01*
X112968Y258904D01*
X112458Y259573D01*
X111965Y260256D01*
X111489Y260949D01*
X111030Y261655D01*
X110588Y262371D01*
X110165Y263099D01*
X109759Y263836D01*
X109371Y264583D01*
X109002Y265339D01*
X108652Y266104D01*
X108320Y266878D01*
X108008Y267659D01*
X107714Y268448D01*
X107441Y269244D01*
X107187Y270046D01*
X106952Y270854D01*
X106738Y271668D01*
X106543Y272487D01*
X106369Y273310D01*
X106215Y274138D01*
X106081Y274969D01*
X105968Y275803D01*
X105875Y276639D01*
X105803Y277477D01*
X105751Y278317D01*
X105720Y279158D01*
X105710Y280000D01*
D13*
X124000Y280000D02*
X124005Y280393D01*
X124019Y280785D01*
X124043Y281177D01*
X124077Y281568D01*
X124120Y281959D01*
X124173Y282348D01*
X124236Y282735D01*
X124307Y283121D01*
X124389Y283506D01*
X124479Y283888D01*
X124580Y284267D01*
X124689Y284645D01*
X124808Y285019D01*
X124935Y285390D01*
X125072Y285758D01*
X125218Y286123D01*
X125373Y286484D01*
X125536Y286841D01*
X125708Y287194D01*
X125889Y287542D01*
X126079Y287886D01*
X126276Y288226D01*
X126482Y288560D01*
X126696Y288889D01*
X126919Y289213D01*
X127149Y289531D01*
X127386Y289844D01*
X127632Y290150D01*
X127885Y290451D01*
X128145Y290745D01*
X128412Y291033D01*
X128686Y291314D01*
X128967Y291588D01*
X129255Y291855D01*
X129549Y292115D01*
X129850Y292368D01*
X130156Y292614D01*
X130469Y292851D01*
X130787Y293081D01*
X131111Y293304D01*
X131440Y293518D01*
X131774Y293724D01*
X132114Y293921D01*
X132458Y294111D01*
X132806Y294292D01*
X133159Y294464D01*
X133516Y294627D01*
X133877Y294782D01*
X134242Y294928D01*
X134610Y295065D01*
X134981Y295192D01*
X135355Y295311D01*
X135733Y295420D01*
X136112Y295521D01*
X136494Y295611D01*
X136879Y295693D01*
X137265Y295764D01*
X137652Y295827D01*
X138041Y295880D01*
X138432Y295923D01*
X138823Y295957D01*
X139215Y295981D01*
X139607Y295995D01*
X140000Y296000D01*
X140393Y295995D01*
X140785Y295981D01*
X141177Y295957D01*
X141568Y295923D01*
X141959Y295880D01*
X142348Y295827D01*
X142735Y295764D01*
X143121Y295693D01*
X143506Y295611D01*
X143888Y295521D01*
X144267Y295420D01*
X144645Y295311D01*
X145019Y295192D01*
X145390Y295065D01*
X145758Y294928D01*
X146123Y294782D01*
X146484Y294627D01*
X146841Y294464D01*
X147194Y294292D01*
X147542Y294111D01*
X147886Y293921D01*
X148226Y293724D01*
X148560Y293518D01*
X148889Y293304D01*
X149213Y293081D01*
X149531Y292851D01*
X149844Y292614D01*
X150150Y292368D01*
X150451Y292115D01*
X150745Y291855D01*
X151033Y291588D01*
X151314Y291314D01*
X151588Y291033D01*
X151855Y290745D01*
X152115Y290451D01*
X152368Y290150D01*
X152614Y289844D01*
X152851Y289531D01*
X153081Y289213D01*
X153304Y288889D01*
X153518Y288560D01*
X153724Y288226D01*
X153921Y287886D01*
X154111Y287542D01*
X154292Y287194D01*
X154464Y286841D01*
X154627Y286484D01*
X154782Y286123D01*
X154928Y285758D01*
X155065Y285390D01*
X155192Y285019D01*
X155311Y284645D01*
X155420Y284267D01*
X155521Y283888D01*
X155611Y283506D01*
X155693Y283121D01*
X155764Y282735D01*
X155827Y282348D01*
X155880Y281959D01*
X155923Y281568D01*
X155957Y281177D01*
X155981Y280785D01*
X155995Y280393D01*
X156000Y280000D01*
X155995Y279607D01*
X155981Y279215D01*
X155957Y278823D01*
X155923Y278432D01*
X155880Y278041D01*
X155827Y277652D01*
X155764Y277265D01*
X155693Y276879D01*
X155611Y276494D01*
X155521Y276112D01*
X155420Y275733D01*
X155311Y275355D01*
X155192Y274981D01*
X155065Y274610D01*
X154928Y274242D01*
X154782Y273877D01*
X154627Y273516D01*
X154464Y273159D01*
X154292Y272806D01*
X154111Y272458D01*
X153921Y272114D01*
X153724Y271774D01*
X153518Y271440D01*
X153304Y271111D01*
X153081Y270787D01*
X152851Y270469D01*
X152614Y270156D01*
X152368Y269850D01*
X152115Y269549D01*
X151855Y269255D01*
X151588Y268967D01*
X151314Y268686D01*
X151033Y268412D01*
X150745Y268145D01*
X150451Y267885D01*
X150150Y267632D01*
X149844Y267386D01*
X149531Y267149D01*
X149213Y266919D01*
X148889Y266696D01*
X148560Y266482D01*
X148226Y266276D01*
X147886Y266079D01*
X147542Y265889D01*
X147194Y265708D01*
X146841Y265536D01*
X146484Y265373D01*
X146123Y265218D01*
X145758Y265072D01*
X145390Y264935D01*
X145019Y264808D01*
X144645Y264689D01*
X144267Y264580D01*
X143888Y264479D01*
X143506Y264389D01*
X143121Y264307D01*
X142735Y264236D01*
X142348Y264173D01*
X141959Y264120D01*
X141568Y264077D01*
X141177Y264043D01*
X140785Y264019D01*
X140393Y264005D01*
X140000Y264000D01*
X139607Y264005D01*
X139215Y264019D01*
X138823Y264043D01*
X138432Y264077D01*
X138041Y264120D01*
X137652Y264173D01*
X137265Y264236D01*
X136879Y264307D01*
X136494Y264389D01*
X136112Y264479D01*
X135733Y264580D01*
X135355Y264689D01*
X134981Y264808D01*
X134610Y264935D01*
X134242Y265072D01*
X133877Y265218D01*
X133516Y265373D01*
X133159Y265536D01*
X132806Y265708D01*
X132458Y265889D01*
X132114Y266079D01*
X131774Y266276D01*
X131440Y266482D01*
X131111Y266696D01*
X130787Y266919D01*
X130469Y267149D01*
X130156Y267386D01*
X129850Y267632D01*
X129549Y267885D01*
X129255Y268145D01*
X128967Y268412D01*
X128686Y268686D01*
X128412Y268967D01*
X128145Y269255D01*
X127885Y269549D01*
X127632Y269850D01*
X127386Y270156D01*
X127149Y270469D01*
X126919Y270787D01*
X126696Y271111D01*
X126482Y271440D01*
X126276Y271774D01*
X126079Y272114D01*
X125889Y272458D01*
X125708Y272806D01*
X125536Y273159D01*
X125373Y273516D01*
X125218Y273877D01*
X125072Y274242D01*
X124935Y274610D01*
X124808Y274981D01*
X124689Y275355D01*
X124580Y275733D01*
X124479Y276112D01*
X124389Y276494D01*
X124307Y276879D01*
X124236Y277265D01*
X124173Y277652D01*
X124120Y278041D01*
X124077Y278432D01*
X124043Y278823D01*
X124019Y279215D01*
X124005Y279607D01*
X124000Y280000D01*
X450596Y380746D02*
X450596Y393446D01*
X456946Y399796D01*
X469646Y399796D02*
X475996Y393446D01*
X450596Y355346D02*
X456946Y348996D01*
X450596Y355346D02*
X450596Y368046D01*
X456946Y374396D01*
X469646Y374396D02*
X475996Y368046D01*
X475996Y355346D01*
X469646Y348996D01*
X456946Y374396D02*
X450596Y380746D01*
X469646Y374396D02*
X475996Y380746D01*
X475996Y393446D01*
X450596Y317246D02*
X450596Y304546D01*
X450596Y317246D02*
X456946Y323596D01*
X469646Y323596D02*
X475996Y317246D01*
X456946Y323596D02*
X450596Y329946D01*
X450596Y342646D01*
X456946Y348996D01*
X469646Y348996D02*
X475996Y342646D01*
X475996Y329946D01*
X469646Y323596D01*
X469646Y298196D02*
X456946Y298196D01*
X450596Y304546D01*
X469646Y298196D02*
X475996Y304546D01*
X475996Y317246D01*
X469646Y399796D02*
X456946Y399796D01*
M02*
