G04 EAGLE Gerber RS-274X export*
G75*
%MOMM*%
%FSLAX34Y34*%
%LPD*%
%INSolderpaste Bottom*%
%IPPOS*%
%AMOC8*
5,1,8,0,0,1.08239X$1,22.5*%
G01*
%ADD10R,1.250000X1.700000*%
%ADD11R,1.600000X1.300000*%
%ADD12R,1.400000X1.200000*%
%ADD13R,1.600200X1.168400*%
%ADD14R,1.300000X1.600000*%


D10*
X1000000Y386000D03*
X1000000Y414000D03*
D11*
X997500Y359500D03*
X997500Y340500D03*
D10*
X900000Y411000D03*
X900000Y439000D03*
D11*
X900000Y387000D03*
X900000Y368000D03*
D10*
X800000Y431000D03*
X800000Y459000D03*
D11*
X800000Y409500D03*
X800000Y390500D03*
D10*
X700000Y446000D03*
X700000Y474000D03*
D11*
X720000Y424500D03*
X720000Y405500D03*
D10*
X600000Y456000D03*
X600000Y484000D03*
D11*
X620000Y432000D03*
X620000Y413000D03*
D10*
X500000Y456000D03*
X500000Y484000D03*
D11*
X480000Y432000D03*
X480000Y413000D03*
D10*
X400000Y446000D03*
X400000Y474000D03*
D11*
X400000Y422000D03*
X400000Y403000D03*
D10*
X300000Y431000D03*
X300000Y459000D03*
D11*
X300000Y409500D03*
X300000Y390500D03*
D10*
X200000Y411000D03*
X200000Y439000D03*
D11*
X200000Y392000D03*
X200000Y373000D03*
D10*
X100000Y386000D03*
X100000Y414000D03*
D11*
X100000Y364500D03*
X100000Y345500D03*
D12*
X970000Y385000D03*
X970000Y415000D03*
D11*
X970000Y359500D03*
X970000Y340500D03*
D12*
X870000Y410000D03*
X870000Y440000D03*
D11*
X870000Y387000D03*
X870000Y368000D03*
D12*
X770000Y430000D03*
X770000Y460000D03*
D11*
X770000Y409500D03*
X770000Y390500D03*
D12*
X670000Y445000D03*
X670000Y475000D03*
D11*
X690000Y424500D03*
X690000Y405500D03*
D12*
X570000Y455000D03*
X570000Y485000D03*
D11*
X599144Y428952D03*
X599144Y409952D03*
D12*
X530000Y455000D03*
X530000Y485000D03*
D11*
X510000Y432000D03*
X510000Y413000D03*
D12*
X430000Y445000D03*
X430000Y475000D03*
D11*
X430000Y427000D03*
X430000Y408000D03*
D12*
X330000Y430000D03*
X330000Y460000D03*
D11*
X330000Y409500D03*
X330000Y390500D03*
D12*
X230000Y410000D03*
X230000Y440000D03*
D11*
X230000Y392000D03*
X230000Y373000D03*
D12*
X130000Y385000D03*
X130000Y415000D03*
D11*
X130000Y364500D03*
X130000Y345500D03*
X588392Y369388D03*
X588392Y350388D03*
X609352Y369388D03*
X609352Y350388D03*
D13*
X549224Y387948D03*
X549224Y372708D03*
D12*
X1070000Y365000D03*
X1070000Y395000D03*
D14*
X1049500Y350000D03*
X1030500Y350000D03*
D12*
X30000Y365000D03*
X30000Y395000D03*
D14*
X50500Y360000D03*
X69500Y360000D03*
M02*
