G04 EAGLE Gerber RS-274X export*
G75*
%MOMM*%
%FSLAX34Y34*%
%LPD*%
%INSoldermask Bottom*%
%IPPOS*%
%AMOC8*
5,1,8,0,0,1.08239X$1,22.5*%
G01*
%ADD10C,2.082800*%
%ADD11R,1.453200X1.903200*%
%ADD12R,1.803200X1.503200*%
%ADD13R,1.603200X1.403200*%
%ADD14R,1.803400X1.371600*%
%ADD15R,1.828800X0.152400*%
%ADD16C,3.203200*%
%ADD17R,1.503200X1.803200*%
%ADD18C,0.959600*%


D10*
X500000Y320000D03*
X525400Y320000D03*
X550800Y320000D03*
X576200Y320000D03*
X601600Y320000D03*
D11*
X1000000Y386000D03*
X1000000Y414000D03*
D12*
X997500Y359500D03*
X997500Y340500D03*
D11*
X900000Y411000D03*
X900000Y439000D03*
D12*
X900000Y387000D03*
X900000Y368000D03*
D11*
X800000Y431000D03*
X800000Y459000D03*
D12*
X800000Y409500D03*
X800000Y390500D03*
D11*
X700000Y446000D03*
X700000Y474000D03*
D12*
X720000Y424500D03*
X720000Y405500D03*
D11*
X600000Y456000D03*
X600000Y484000D03*
D12*
X620000Y432000D03*
X620000Y413000D03*
D11*
X500000Y456000D03*
X500000Y484000D03*
D12*
X480000Y432000D03*
X480000Y413000D03*
D11*
X400000Y446000D03*
X400000Y474000D03*
D12*
X400000Y422000D03*
X400000Y403000D03*
D11*
X300000Y431000D03*
X300000Y459000D03*
D12*
X300000Y409500D03*
X300000Y390500D03*
D11*
X200000Y411000D03*
X200000Y439000D03*
D12*
X200000Y392000D03*
X200000Y373000D03*
D11*
X100000Y386000D03*
X100000Y414000D03*
D12*
X100000Y364500D03*
X100000Y345500D03*
D13*
X970000Y385000D03*
X970000Y415000D03*
D12*
X970000Y359500D03*
X970000Y340500D03*
D13*
X870000Y410000D03*
X870000Y440000D03*
D12*
X870000Y387000D03*
X870000Y368000D03*
D13*
X770000Y430000D03*
X770000Y460000D03*
D12*
X770000Y409500D03*
X770000Y390500D03*
D13*
X670000Y445000D03*
X670000Y475000D03*
D12*
X690000Y424500D03*
X690000Y405500D03*
D13*
X570000Y455000D03*
X570000Y485000D03*
D12*
X599144Y428952D03*
X599144Y409952D03*
D13*
X530000Y455000D03*
X530000Y485000D03*
D12*
X510000Y432000D03*
X510000Y413000D03*
D13*
X430000Y445000D03*
X430000Y475000D03*
D12*
X430000Y427000D03*
X430000Y408000D03*
D13*
X330000Y430000D03*
X330000Y460000D03*
D12*
X330000Y409500D03*
X330000Y390500D03*
D13*
X230000Y410000D03*
X230000Y440000D03*
D12*
X230000Y392000D03*
X230000Y373000D03*
D13*
X130000Y385000D03*
X130000Y415000D03*
D12*
X130000Y364500D03*
X130000Y345500D03*
X588392Y369388D03*
X588392Y350388D03*
X609352Y369388D03*
X609352Y350388D03*
D14*
X549224Y387948D03*
X549224Y372708D03*
D15*
X549224Y380328D03*
D16*
X960000Y280000D03*
X140000Y280000D03*
D13*
X1070000Y365000D03*
X1070000Y395000D03*
D17*
X1049500Y350000D03*
X1030500Y350000D03*
D13*
X30000Y365000D03*
X30000Y395000D03*
D17*
X50500Y360000D03*
X69500Y360000D03*
D10*
X462026Y310896D03*
X464566Y336296D03*
X462026Y361696D03*
X464566Y387096D03*
D18*
X542544Y411480D03*
X557784Y411480D03*
X606552Y295656D03*
X612648Y484632D03*
X384048Y469392D03*
X644088Y323088D03*
X265176Y365760D03*
X268224Y432816D03*
X67056Y316992D03*
X73152Y402336D03*
X161544Y399288D03*
X466344Y475488D03*
X472440Y289560D03*
X746760Y420624D03*
X710184Y387096D03*
X643128Y478536D03*
X838200Y414528D03*
X950976Y377952D03*
X1036320Y371856D03*
X1030224Y313944D03*
X911352Y347472D03*
X822960Y371856D03*
X356616Y445008D03*
X722376Y466344D03*
X481584Y350520D03*
X515112Y381000D03*
X484632Y377952D03*
X582360Y436056D03*
X643128Y356616D03*
X1011936Y365760D03*
X911352Y405384D03*
X813816Y411480D03*
X734568Y426720D03*
X632460Y449580D03*
X470624Y442128D03*
X384048Y435864D03*
X310896Y432816D03*
X182880Y399288D03*
X85344Y384048D03*
X588264Y377952D03*
X609600Y384048D03*
X588264Y335280D03*
X445008Y475488D03*
X347472Y399288D03*
X347472Y435864D03*
X548640Y356616D03*
X368808Y399288D03*
X368808Y435864D03*
M02*
