G04 EAGLE Gerber RS-274X export*
G75*
%MOMM*%
%FSLAX34Y34*%
%LPD*%
%INSoldermask Top*%
%IPPOS*%
%AMOC8*
5,1,8,0,0,1.08239X$1,22.5*%
G01*
%ADD10R,1.203200X1.543200*%
%ADD11R,0.350000X1.100000*%
%ADD12C,2.082800*%
%ADD13R,1.503200X1.803200*%
%ADD14R,1.603200X1.203200*%
%ADD15R,1.803200X1.503200*%
%ADD16R,1.403200X1.603200*%
%ADD17R,0.503200X1.703200*%
%ADD18R,3.653200X3.653200*%
%ADD19C,3.203200*%
%ADD20C,0.959600*%

G36*
X1001792Y389520D02*
X1001792Y389520D01*
X1001835Y389532D01*
X1001901Y389539D01*
X1003584Y389990D01*
X1003625Y390009D01*
X1003688Y390028D01*
X1005268Y390765D01*
X1005305Y390791D01*
X1005364Y390820D01*
X1006792Y391820D01*
X1006823Y391852D01*
X1006876Y391891D01*
X1008109Y393124D01*
X1008134Y393160D01*
X1008180Y393208D01*
X1009180Y394636D01*
X1009198Y394677D01*
X1009235Y394732D01*
X1009972Y396312D01*
X1009983Y396355D01*
X1010010Y396416D01*
X1010461Y398099D01*
X1010463Y398131D01*
X1010470Y398152D01*
X1010470Y398167D01*
X1010480Y398208D01*
X1010632Y399945D01*
X1010628Y399989D01*
X1010632Y400055D01*
X1010480Y401792D01*
X1010468Y401835D01*
X1010461Y401901D01*
X1010010Y403584D01*
X1009991Y403625D01*
X1009972Y403688D01*
X1009235Y405268D01*
X1009209Y405305D01*
X1009180Y405364D01*
X1008180Y406792D01*
X1008148Y406823D01*
X1008109Y406876D01*
X1006876Y408109D01*
X1006840Y408134D01*
X1006792Y408180D01*
X1005364Y409180D01*
X1005323Y409198D01*
X1005268Y409235D01*
X1003688Y409972D01*
X1003645Y409983D01*
X1003584Y410010D01*
X1001901Y410461D01*
X1001856Y410464D01*
X1001792Y410480D01*
X1000055Y410632D01*
X1000011Y410628D01*
X999945Y410632D01*
X998208Y410480D01*
X998165Y410468D01*
X998099Y410461D01*
X996416Y410010D01*
X996375Y409991D01*
X996312Y409972D01*
X994732Y409235D01*
X994695Y409209D01*
X994636Y409180D01*
X993208Y408180D01*
X993177Y408148D01*
X993124Y408109D01*
X991891Y406876D01*
X991866Y406840D01*
X991820Y406792D01*
X990820Y405364D01*
X990802Y405323D01*
X990765Y405268D01*
X990028Y403688D01*
X990017Y403645D01*
X989990Y403584D01*
X989539Y401901D01*
X989536Y401856D01*
X989520Y401792D01*
X989368Y400055D01*
X989372Y400011D01*
X989368Y399945D01*
X989520Y398208D01*
X989532Y398165D01*
X989536Y398131D01*
X989536Y398115D01*
X989538Y398110D01*
X989539Y398099D01*
X989990Y396416D01*
X990009Y396375D01*
X990028Y396312D01*
X990765Y394732D01*
X990791Y394695D01*
X990820Y394636D01*
X991820Y393208D01*
X991852Y393177D01*
X991891Y393124D01*
X993124Y391891D01*
X993160Y391866D01*
X993208Y391820D01*
X994636Y390820D01*
X994677Y390802D01*
X994732Y390765D01*
X996312Y390028D01*
X996355Y390017D01*
X996416Y389990D01*
X998099Y389539D01*
X998144Y389536D01*
X998208Y389520D01*
X999945Y389368D01*
X999989Y389372D01*
X1000055Y389368D01*
X1001792Y389520D01*
G37*
G36*
X101792Y389520D02*
X101792Y389520D01*
X101835Y389532D01*
X101901Y389539D01*
X103584Y389990D01*
X103625Y390009D01*
X103688Y390028D01*
X105268Y390765D01*
X105305Y390791D01*
X105364Y390820D01*
X106792Y391820D01*
X106823Y391852D01*
X106876Y391891D01*
X108109Y393124D01*
X108134Y393160D01*
X108180Y393208D01*
X109180Y394636D01*
X109198Y394677D01*
X109235Y394732D01*
X109972Y396312D01*
X109983Y396355D01*
X110010Y396416D01*
X110461Y398099D01*
X110463Y398131D01*
X110470Y398152D01*
X110470Y398167D01*
X110480Y398208D01*
X110632Y399945D01*
X110628Y399989D01*
X110632Y400055D01*
X110480Y401792D01*
X110468Y401835D01*
X110461Y401901D01*
X110010Y403584D01*
X109991Y403625D01*
X109972Y403688D01*
X109235Y405268D01*
X109209Y405305D01*
X109180Y405364D01*
X108180Y406792D01*
X108148Y406823D01*
X108109Y406876D01*
X106876Y408109D01*
X106840Y408134D01*
X106792Y408180D01*
X105364Y409180D01*
X105323Y409198D01*
X105268Y409235D01*
X103688Y409972D01*
X103645Y409983D01*
X103584Y410010D01*
X101901Y410461D01*
X101856Y410464D01*
X101792Y410480D01*
X100055Y410632D01*
X100011Y410628D01*
X99945Y410632D01*
X98208Y410480D01*
X98165Y410468D01*
X98099Y410461D01*
X96416Y410010D01*
X96375Y409991D01*
X96312Y409972D01*
X94732Y409235D01*
X94695Y409209D01*
X94636Y409180D01*
X93208Y408180D01*
X93177Y408148D01*
X93124Y408109D01*
X91891Y406876D01*
X91866Y406840D01*
X91820Y406792D01*
X90820Y405364D01*
X90802Y405323D01*
X90765Y405268D01*
X90028Y403688D01*
X90017Y403645D01*
X89990Y403584D01*
X89539Y401901D01*
X89536Y401856D01*
X89520Y401792D01*
X89368Y400055D01*
X89372Y400011D01*
X89368Y399945D01*
X89520Y398208D01*
X89532Y398165D01*
X89536Y398131D01*
X89536Y398115D01*
X89538Y398110D01*
X89539Y398099D01*
X89990Y396416D01*
X90009Y396375D01*
X90028Y396312D01*
X90765Y394732D01*
X90791Y394695D01*
X90820Y394636D01*
X91820Y393208D01*
X91852Y393177D01*
X91891Y393124D01*
X93124Y391891D01*
X93160Y391866D01*
X93208Y391820D01*
X94636Y390820D01*
X94677Y390802D01*
X94732Y390765D01*
X96312Y390028D01*
X96355Y390017D01*
X96416Y389990D01*
X98099Y389539D01*
X98144Y389536D01*
X98208Y389520D01*
X99945Y389368D01*
X99989Y389372D01*
X100055Y389368D01*
X101792Y389520D01*
G37*
D10*
X516125Y271800D03*
X583875Y271800D03*
D11*
X540000Y289050D03*
X545000Y289050D03*
X550000Y289050D03*
X555000Y289050D03*
X560000Y289050D03*
D12*
X500000Y320000D03*
X525400Y320000D03*
X550800Y320000D03*
X576200Y320000D03*
X601600Y320000D03*
D13*
X625904Y314512D03*
X645904Y314512D03*
X624088Y338416D03*
X644088Y338416D03*
D14*
X447784Y455712D03*
X425784Y446212D03*
X425784Y465212D03*
D15*
X405928Y449260D03*
X405928Y468260D03*
D13*
X624816Y294216D03*
X644816Y294216D03*
X625924Y379392D03*
X644924Y379392D03*
X511628Y494992D03*
X492628Y494992D03*
D16*
X534872Y494320D03*
X564872Y494320D03*
D17*
G36*
X578285Y409978D02*
X574727Y413536D01*
X586769Y425578D01*
X590327Y422020D01*
X578285Y409978D01*
G37*
G36*
X574749Y413514D02*
X571191Y417072D01*
X583233Y429114D01*
X586791Y425556D01*
X574749Y413514D01*
G37*
G36*
X571214Y417049D02*
X567656Y420607D01*
X579698Y432649D01*
X583256Y429091D01*
X571214Y417049D01*
G37*
G36*
X567678Y420585D02*
X564120Y424143D01*
X576162Y436185D01*
X579720Y432627D01*
X567678Y420585D01*
G37*
G36*
X564143Y424120D02*
X560585Y427678D01*
X572627Y439720D01*
X576185Y436162D01*
X564143Y424120D01*
G37*
G36*
X560607Y427656D02*
X557049Y431214D01*
X569091Y443256D01*
X572649Y439698D01*
X560607Y427656D01*
G37*
G36*
X557072Y431191D02*
X553514Y434749D01*
X565556Y446791D01*
X569114Y443233D01*
X557072Y431191D01*
G37*
G36*
X553536Y434727D02*
X549978Y438285D01*
X562020Y450327D01*
X565578Y446769D01*
X553536Y434727D01*
G37*
G36*
X550022Y438285D02*
X546464Y434727D01*
X534422Y446769D01*
X537980Y450327D01*
X550022Y438285D01*
G37*
G36*
X546486Y434749D02*
X542928Y431191D01*
X530886Y443233D01*
X534444Y446791D01*
X546486Y434749D01*
G37*
G36*
X542951Y431214D02*
X539393Y427656D01*
X527351Y439698D01*
X530909Y443256D01*
X542951Y431214D01*
G37*
G36*
X539415Y427678D02*
X535857Y424120D01*
X523815Y436162D01*
X527373Y439720D01*
X539415Y427678D01*
G37*
G36*
X535880Y424143D02*
X532322Y420585D01*
X520280Y432627D01*
X523838Y436185D01*
X535880Y424143D01*
G37*
G36*
X532344Y420607D02*
X528786Y417049D01*
X516744Y429091D01*
X520302Y432649D01*
X532344Y420607D01*
G37*
G36*
X528809Y417072D02*
X525251Y413514D01*
X513209Y425556D01*
X516767Y429114D01*
X528809Y417072D01*
G37*
G36*
X525273Y413536D02*
X521715Y409978D01*
X509673Y422020D01*
X513231Y425578D01*
X525273Y413536D01*
G37*
G36*
X521715Y410022D02*
X525273Y406464D01*
X513231Y394422D01*
X509673Y397980D01*
X521715Y410022D01*
G37*
G36*
X525251Y406486D02*
X528809Y402928D01*
X516767Y390886D01*
X513209Y394444D01*
X525251Y406486D01*
G37*
G36*
X528786Y402951D02*
X532344Y399393D01*
X520302Y387351D01*
X516744Y390909D01*
X528786Y402951D01*
G37*
G36*
X532322Y399415D02*
X535880Y395857D01*
X523838Y383815D01*
X520280Y387373D01*
X532322Y399415D01*
G37*
G36*
X535857Y395880D02*
X539415Y392322D01*
X527373Y380280D01*
X523815Y383838D01*
X535857Y395880D01*
G37*
G36*
X539393Y392344D02*
X542951Y388786D01*
X530909Y376744D01*
X527351Y380302D01*
X539393Y392344D01*
G37*
G36*
X542928Y388809D02*
X546486Y385251D01*
X534444Y373209D01*
X530886Y376767D01*
X542928Y388809D01*
G37*
G36*
X546464Y385273D02*
X550022Y381715D01*
X537980Y369673D01*
X534422Y373231D01*
X546464Y385273D01*
G37*
G36*
X549978Y381715D02*
X553536Y385273D01*
X565578Y373231D01*
X562020Y369673D01*
X549978Y381715D01*
G37*
G36*
X553514Y385251D02*
X557072Y388809D01*
X569114Y376767D01*
X565556Y373209D01*
X553514Y385251D01*
G37*
G36*
X557049Y388786D02*
X560607Y392344D01*
X572649Y380302D01*
X569091Y376744D01*
X557049Y388786D01*
G37*
G36*
X560585Y392322D02*
X564143Y395880D01*
X576185Y383838D01*
X572627Y380280D01*
X560585Y392322D01*
G37*
G36*
X564120Y395857D02*
X567678Y399415D01*
X579720Y387373D01*
X576162Y383815D01*
X564120Y395857D01*
G37*
G36*
X567656Y399393D02*
X571214Y402951D01*
X583256Y390909D01*
X579698Y387351D01*
X567656Y399393D01*
G37*
G36*
X571191Y402928D02*
X574749Y406486D01*
X586791Y394444D01*
X583233Y390886D01*
X571191Y402928D01*
G37*
G36*
X574727Y406464D02*
X578285Y410022D01*
X590327Y397980D01*
X586769Y394422D01*
X574727Y406464D01*
G37*
D18*
G36*
X524168Y410000D02*
X550000Y435832D01*
X575832Y410000D01*
X550000Y384168D01*
X524168Y410000D01*
G37*
D19*
X960000Y280000D03*
X140000Y280000D03*
D12*
X462026Y310896D03*
X464566Y336296D03*
X462026Y361696D03*
X464566Y387096D03*
D13*
X496468Y350520D03*
X515468Y350520D03*
D20*
X542544Y411480D03*
X557784Y411480D03*
X606552Y295656D03*
X612648Y484632D03*
X384048Y469392D03*
X644088Y323088D03*
X265176Y365760D03*
X268224Y432816D03*
X67056Y316992D03*
X73152Y402336D03*
X161544Y399288D03*
X466344Y475488D03*
X472440Y289560D03*
X746760Y420624D03*
X710184Y387096D03*
X643128Y478536D03*
X838200Y414528D03*
X950976Y377952D03*
X1036320Y371856D03*
X1030224Y313944D03*
X911352Y347472D03*
X822960Y371856D03*
X356616Y445008D03*
X722376Y466344D03*
X481584Y350520D03*
X515112Y381000D03*
X484632Y377952D03*
X582360Y436056D03*
X643128Y356616D03*
X1011936Y365760D03*
X911352Y405384D03*
X813816Y411480D03*
X734568Y426720D03*
X632460Y449580D03*
X470624Y442128D03*
X384048Y435864D03*
X310896Y432816D03*
X182880Y399288D03*
X85344Y384048D03*
X588264Y377952D03*
X609600Y384048D03*
X588264Y335280D03*
X445008Y475488D03*
X347472Y399288D03*
X347472Y435864D03*
X548640Y356616D03*
X368808Y399288D03*
X368808Y435864D03*
M02*
