M48
;GenerationSoftware,Autodesk,EAGLE,9.6.0*%
;CreationDate,2025-05-30T17:54:42Z*%
FMAT,2
ICI,OFF
METRIC,TZ,000.000
T3C0.350
T2C1.016
T1C3.000
%
G90
M71
T1
X14000Y28000
X96000Y28000
T2
X46457Y38710
X46203Y36170
X46457Y33630
X46203Y31090
X60160Y32000
X57620Y32000
X55080Y32000
X52540Y32000
X50000Y32000
T3
X46634Y47549
X47244Y28956
X74676Y42062
X71018Y38710
X64313Y47854
X83820Y41453
X95098Y37795
X103632Y37186
X103022Y31394
X91135Y34747
X82296Y37186
X35662Y44501
X72238Y46634
X48158Y35052
X51511Y38100
X48463Y37795
X58236Y43606
X64313Y35662
X54254Y41148
X91135Y40538
X81382Y41148
X73457Y42672
X63246Y44958
X47062Y44213
X38405Y43586
X31090Y43282
X18288Y39929
X8534Y38405
X58826Y37795
X60960Y38405
X58826Y33528
X44501Y47549
X34747Y39929
X34747Y43586
X54864Y35662
X36881Y39929
X36881Y43586
X16154Y39929
X7315Y40234
X6706Y31699
X26822Y43282
X26518Y36576
X64409Y32309
X38405Y46939
X61265Y48463
X60655Y29566
X55778Y41148
X101194Y36576
M30