M48
;GenerationSoftware,Autodesk,EAGLE,9.6.0*%
;CreationDate,2025-05-23T18:10:28Z*%
FMAT,2
ICI,OFF
METRIC,TZ,000.000
T3C0.350
T2C1.016
T1C3.000
%
G90
M71
T1
X63000Y3000
X45000Y3000
X63000Y13000
X45000Y13000
X63000Y22000
X45000Y22000
T2
X59160Y8000
X56620Y8000
X54080Y8000
X51540Y8000
X49000Y8000
X43080Y36745
X45620Y36745
X43080Y34205
X45620Y34205
X43080Y31665
X45620Y31665
X43080Y29125
X45620Y29125
X59160Y26000
X56620Y26000
X54080Y26000
X51540Y26000
X49000Y26000
T3
X7962Y32326
X103365Y32326
X66179Y46042
X59474Y45432
X41186Y17390
X41795Y17390
X42405Y17390
X43014Y17390
X43624Y17390
X44234Y17390
X44843Y17390
X45453Y17390
X46062Y17390
X46672Y17390
X47282Y17390
X47891Y17390
X48501Y17390
X49110Y17390
X49720Y17390
X50330Y17390
X50939Y17390
X51549Y17390
X52158Y17390
X52768Y17390
X53378Y17390
X53987Y17390
X54597Y17390
X55206Y17390
X55816Y17390
X56426Y17390
X57035Y17390
X57645Y17390
X58254Y17390
X58864Y17390
X59474Y17390
X60083Y17390
X60693Y17390
X61302Y17390
X61912Y17390
X65606Y29887
X63131Y17390
X63741Y17390
X64350Y17390
X64960Y17390
X65570Y17390
X66179Y17390
X66789Y17390
X41490Y16781
X66484Y16781
X54597Y35069
X53378Y29887
X61607Y30802
X50304Y28642
X63436Y33240
X56426Y42079
X51549Y42384
X102450Y37812
X92392Y39031
X82943Y40860
X72885Y42384
X59778Y42689
X46062Y44213
X35699Y42689
X25946Y41774
X15582Y40860
X8267Y37812
X50634Y31106
X54902Y30192
X57035Y28363
X51244Y30192
X52032Y28490
X60655Y32918
X54292Y39031
X56730Y44213
X63741Y47566
X49110Y36593
X51854Y39415
X53073Y43118
X49110Y32326
X25946Y37202
X43319Y26839
X64655Y26534
X92697Y35069
X53987Y50004
X57645Y22877
X95135Y39336
X84467Y41774
X74714Y43603
X12534Y39031
X22593Y42079
X32651Y43298
X42710Y44213
X43929Y39336
X58254Y35069
X65874Y41470
X65606Y37507
X62217Y48785
X57011Y50014
X65606Y31716
X53378Y35069
X50061Y22877
X65606Y28058
X62522Y17390
M30