G04 EAGLE Gerber RS-274X export*
G75*
%MOMM*%
%FSLAX34Y34*%
%LPD*%
%INSoldermask Bottom*%
%IPPOS*%
%AMOC8*
5,1,8,0,0,1.08239X$1,22.5*%
G01*
%ADD10C,2.082800*%
%ADD11R,1.453200X1.903200*%
%ADD12R,1.803200X1.503200*%
%ADD13R,1.603200X1.403200*%
%ADD14C,3.203200*%
%ADD15R,1.803400X1.371600*%
%ADD16R,1.828800X0.152400*%
%ADD17C,0.959600*%


D10*
X490000Y260000D03*
X515400Y260000D03*
X540800Y260000D03*
X566200Y260000D03*
X591600Y260000D03*
D11*
X1007500Y383500D03*
X1007500Y411500D03*
D12*
X1007500Y359500D03*
X1007500Y340500D03*
D11*
X910000Y411000D03*
X910000Y439000D03*
D12*
X910000Y387000D03*
X910000Y368000D03*
D11*
X810000Y433500D03*
X810000Y461500D03*
D12*
X810000Y409500D03*
X810000Y390500D03*
D11*
X710000Y448500D03*
X710000Y476500D03*
D12*
X710000Y424500D03*
X710000Y405500D03*
D11*
X610000Y456000D03*
X610000Y484000D03*
D12*
X610000Y432000D03*
X610000Y413000D03*
D11*
X470000Y456000D03*
X470000Y484000D03*
D12*
X470000Y432000D03*
X470000Y413000D03*
D11*
X370000Y446000D03*
X370000Y474000D03*
D12*
X370000Y422000D03*
X370000Y403000D03*
D11*
X270000Y433500D03*
X270000Y461500D03*
D12*
X270000Y409500D03*
X270000Y390500D03*
D11*
X170000Y411000D03*
X170000Y439000D03*
D12*
X170000Y387000D03*
X170000Y368000D03*
D11*
X70000Y383500D03*
X70000Y411500D03*
D12*
X70000Y359500D03*
X70000Y340500D03*
D13*
X980000Y382500D03*
X980000Y412500D03*
D12*
X980000Y359500D03*
X980000Y340500D03*
D13*
X880000Y410000D03*
X880000Y440000D03*
D12*
X880000Y387000D03*
X880000Y368000D03*
D13*
X780000Y437500D03*
X780000Y467500D03*
D12*
X780000Y409500D03*
X780000Y390500D03*
D13*
X680000Y447500D03*
X680000Y477500D03*
D12*
X680000Y424500D03*
X680000Y405500D03*
D13*
X580000Y455000D03*
X580000Y485000D03*
D12*
X580000Y432000D03*
X580000Y413000D03*
D13*
X500000Y455000D03*
X500000Y485000D03*
D12*
X500000Y432000D03*
X500000Y413000D03*
D13*
X400000Y445000D03*
X400000Y475000D03*
D12*
X400000Y422000D03*
X400000Y403000D03*
D13*
X300000Y432500D03*
X300000Y462500D03*
D12*
X300000Y409500D03*
X300000Y390500D03*
D13*
X200000Y410000D03*
X200000Y440000D03*
D12*
X200000Y387000D03*
X200000Y368000D03*
D13*
X100000Y385000D03*
X100000Y415000D03*
D12*
X100000Y359500D03*
X100000Y340500D03*
D14*
X450000Y220000D03*
X630000Y220000D03*
D10*
X456204Y291252D03*
X430804Y291252D03*
X456204Y316652D03*
X430804Y316652D03*
X456204Y342052D03*
X430804Y342052D03*
X456204Y367452D03*
X430804Y367452D03*
D15*
X500248Y352212D03*
X500248Y336972D03*
D16*
X500248Y344592D03*
D10*
X490000Y80000D03*
X515400Y80000D03*
X540800Y80000D03*
X566200Y80000D03*
X591600Y80000D03*
D14*
X450000Y130000D03*
X630000Y130000D03*
X450000Y30000D03*
X630000Y30000D03*
D17*
X656058Y298872D03*
X656058Y280584D03*
X500610Y228768D03*
X533776Y350688D03*
X656058Y317160D03*
X570108Y500142D03*
X622168Y487848D03*
X656058Y375072D03*
X658744Y414696D03*
X582544Y350688D03*
X439288Y393360D03*
X427096Y442128D03*
X326512Y432984D03*
X225928Y420792D03*
X125344Y390312D03*
X747136Y436032D03*
X844672Y417744D03*
X951352Y393360D03*
X576448Y228768D03*
X539872Y500040D03*
X926968Y350688D03*
X646552Y265344D03*
X433192Y268392D03*
X259456Y372024D03*
X79624Y323256D03*
X1033648Y323256D03*
X661792Y460416D03*
X594736Y454320D03*
X411856Y173904D03*
X417952Y173904D03*
X424048Y173904D03*
X430144Y173904D03*
X436240Y173904D03*
X442336Y173904D03*
X448432Y173904D03*
X454528Y173904D03*
X460624Y173904D03*
X466720Y173904D03*
X472816Y173904D03*
X478912Y173904D03*
X485008Y173904D03*
X491104Y173904D03*
X497200Y173904D03*
X503296Y173904D03*
X509392Y173904D03*
X515488Y173904D03*
X521584Y173904D03*
X527680Y173904D03*
X533776Y173904D03*
X539872Y173904D03*
X545968Y173904D03*
X552064Y173904D03*
X558160Y173904D03*
X564256Y173904D03*
X570352Y173904D03*
X576448Y173904D03*
X582544Y173904D03*
X588640Y173904D03*
X594736Y173904D03*
X600832Y173904D03*
X606928Y173904D03*
X613024Y173904D03*
X619120Y173904D03*
X625216Y173904D03*
X631312Y173904D03*
X637408Y173904D03*
X643504Y173904D03*
X649600Y173904D03*
X655696Y173904D03*
X661792Y173904D03*
X667888Y173904D03*
X539872Y298872D03*
X616072Y308016D03*
X503038Y286422D03*
X634360Y332400D03*
X564256Y420792D03*
X515488Y423840D03*
X533776Y393360D03*
X1024504Y378120D03*
X923920Y390312D03*
X829432Y408600D03*
X728848Y423840D03*
X597784Y426888D03*
X460624Y442128D03*
X356992Y426888D03*
X259456Y417744D03*
X155824Y408600D03*
X82672Y378120D03*
X503296Y320208D03*
X567304Y301920D03*
X570352Y283632D03*
X512440Y301920D03*
X616072Y372024D03*
X566753Y317124D03*
X526414Y284898D03*
X542920Y390312D03*
X567304Y442128D03*
X637408Y475656D03*
X494152Y368976D03*
X518536Y394150D03*
X530728Y431178D03*
X491104Y323256D03*
M02*
